<?xml version="1.0" encoding="utf-8"?>
<!-- Generator: Adobe Illustrator 24.0.0, SVG Export Plug-In . SVG Version: 6.00 Build 0)  -->
<svg version="1.1" id="Layer_1" xmlns="http://www.w3.org/2000/svg" xmlns:xlink="http://www.w3.org/1999/xlink" x="0px" y="0px"
	 viewBox="0 0 1000 1000" style="enable-background:new 0 0 1000 1000;" xml:space="preserve">
<style type="text/css">
	.st0{opacity:0.4;fill:#122134;}
	.st1{fill:#1A2E35;}
	.st2{opacity:0.2;fill:#FFFFFF;enable-background:new    ;}
	.st3{fill:#007CFF;}
	.st4{opacity:0.2;}
	.st5{fill:#FFFFFF;}
	.st6{fill:none;stroke:#007CFF;stroke-linecap:round;stroke-linejoin:round;stroke-miterlimit:10;}
	.st7{fill:#F48C68;}
	.st8{fill:#FF5652;}
	.st9{fill:#FF8A7B;}
	.st10{opacity:0.6;enable-background:new    ;}
	.st11{opacity:0.1;enable-background:new    ;}
	.st12{opacity:0.2;enable-background:new    ;}
	.st13{opacity:0.4;enable-background:new    ;}
	.st14{fill:#263237;}
	.st15{fill:#FFC3BD;}
	.st16{opacity:0.1;fill:#FFFFFF;enable-background:new    ;}
	.st17{fill:#FF8935;}
	.st18{opacity:0.1;}
	.st19{opacity:0.3;fill:#FFFFFF;enable-background:new    ;}
	.st20{opacity:0.3;enable-background:new    ;}
	.st21{opacity:0.1;fill:#007CFF;enable-background:new    ;}
	.st22{fill:#FFB570;}
	.st23{opacity:0.5;fill:#FFFFFF;enable-background:new    ;}
	.st24{opacity:0.6;fill:#FFFFFF;enable-background:new    ;}
	.st25{fill:#FF5551;}
</style>
<ellipse id="_x3C_Path_x3E__359_" class="st0" cx="500.1" cy="944.8" rx="500.5" ry="29.2"/>
<g>
	<g>
		<g>
			<g>
				<rect x="249" y="829.9" class="st1" width="502.2" height="138"/>
			</g>
			<rect x="249" y="829.9" class="st2" width="502.2" height="138"/>
		</g>
		<g>
			<rect x="384.8" y="721.3" class="st1" width="218" height="108.4"/>
		</g>
	</g>
	<rect x="384.8" y="721.3" class="st2" width="218" height="108.4"/>
	<g>
		<path class="st3" d="M487.4,751.9l-2.3,11.5h12.3l-10,50.2h14.3l12.3-61.7H487.4z"/>
	</g>
	<g class="st4">
		<path class="st5" d="M489.6,751.9l-2.3,11.5h12.3l-10,50.2h12.1l12.3-61.7H489.6z"/>
	</g>
</g>
<g>
	<g>
		<line class="st6" x1="435.5" y1="64.4" x2="415.9" y2="54"/>
		<line class="st6" x1="448.7" y1="71.4" x2="442.1" y2="67.9"/>
		<line class="st6" x1="435.5" y1="90.3" x2="384.9" y2="90.3"/>
		<line class="st6" x1="399.2" y1="135.4" x2="374.1" y2="148.8"/>
		<line class="st6" x1="416.5" y1="126.3" x2="406.1" y2="132.1"/>
		<line class="st6" x1="448.1" y1="109.5" x2="422.7" y2="123"/>
	</g>
	<g>
		<line class="st6" x1="600.8" y1="54" x2="568" y2="71.4"/>
		<g>
			<line class="st6" x1="607.5" y1="90.3" x2="581.2" y2="90.3"/>
			<line class="st6" x1="622.6" y1="90.3" x2="616.8" y2="90.3"/>
			<line class="st6" x1="642.5" y1="90.3" x2="631.8" y2="90.3"/>
		</g>
		<line class="st6" x1="642.5" y1="148.8" x2="568.6" y2="109.5"/>
	</g>
</g>
<g>
	<g>
		<polygon class="st7" points="712.6,756.6 707.3,811.4 721,813.5 727,762.8 		"/>
		<path class="st3" d="M720.8,811.3c1.2,0.1,2,1.1,2,2.3c-0.3,4.7-0.9,15.7-1.4,16.9c-0.7,1.6-44.7-1.2-44.7-1.2
			c-1.5-1.1-0.7-2.3,0.2-4.8c3-4.2,13.9-4.2,20.3-5.6c7.6-1.7,7.1-5.9,8.5-8c0.5-0.7,1.3-1.1,2.1-1L720.8,811.3z"/>
	</g>
	<g>
		<g>
			<path class="st1" d="M781.7,504.9c0,0,15.7,26.9,4.8,52.3l-9.1,17c-3.9,7.3-7.4,14.8-10.3,22.5l-27.6,76.3l0.4,19.5
				c0.2,9.3-0.5,18.5-2.1,27.6L726,793.9l-23.6-3.7l1.3-120.7l36.4-164.6L781.7,504.9L781.7,504.9z"/>
			<g class="st4">
				<path d="M781.7,504.9c0,0,15.7,26.9,4.8,52.3l-9.1,17c-3.9,7.3-7.4,14.8-10.3,22.5l-27.6,76.3l0.4,19.5
					c0.2,9.3-0.5,18.5-2.1,27.6L726,793.9l-23.6-3.7l1.3-120.7l36.4-164.6L781.7,504.9L781.7,504.9z"/>
			</g>
		</g>
		<path class="st3" d="M701.3,785.5c0.6-0.2,32.4,4.2,32.4,4.2l-4.5,8.8l-30.6-2.7L701.3,785.5z"/>
	</g>
	<g>
		<path class="st7" d="M695.1,404.2l-15.8,38.4l-49.4,14.2l6.6,11.1c0,0,43.5-2.6,56.4-12.3c2.9-2.2,22.6-44,22.6-44L695.1,404.2z"
			/>
		<path class="st7" d="M629.8,456.9L614,458c0,0-10.5,10-8.5,12.2c1.9,2.2,9.4,9.5,9.4,9.5s8.9-4.8,12.1-5.5
			c3.2-0.6,9.4-6.3,9.4-6.3L629.8,456.9z"/>
	</g>
	<g>
		<g>
			<g id="freepik--Character--inject-282_1_">
				<g>
					<path class="st1" d="M742,577.8c0,0-36.1,62.6-37.7,71.4c-0.9,5.1,2.9,7.5,6.1,35.2c2.3,20,3.6,61.4,3,65.4l-21.7,4.4
						c0,0-23.5-79.4-27.4-98.4c-7.6-36.1,42.5-151.4,42.5-151.4l63.6,0.4l1.2,21C772.5,544,760.1,575.7,742,577.8L742,577.8z"/>
				</g>
				<g>
					<polygon class="st7" points="695.3,750.3 700,776 714.5,772 709.9,744.5 					"/>
					<path class="st3" d="M708.9,768.4c2.9-1.2,6.3-0.3,8.2,2.2c3.3,4.2,8,10.2,8.3,11.3c0.5,1.7-37.8,31.2-37.8,31.2
						c-1.9,0.1-4-3.2-3-4.3c2.2-5.6,8-12,10.5-18.1c1.6-3.9,2.9-10.4,3.6-14.5c0.4-2.4,2.1-4.5,4.4-5.4L708.9,768.4z"/>
				</g>
				<path class="st3" d="M684.7,748c0.5-0.3,34.3-5.3,34.3-5.3l-0.6,9.5l-33.7,6.5L684.7,748z"/>
				<path class="st8" d="M714.7,332.6c-0.9,3.3-2.2,6.4-3.8,9.4c0.9,1.1,2.4,1.6,3.8,1.2L714.7,332.6z"/>
				<path class="st1" d="M714.5,327.8c-1,0-1.8,1.2-1.8,2.7c0,1.5,0.8,2.7,1.8,2.7c1,0,1.8-1.2,1.8-2.7
					C716.3,329,715.5,327.8,714.5,327.8z"/>
				<path class="st9" d="M760.6,350.2c-2.2,10.9-4.5,31,3.2,38.4c0,0-3.1,11.1-23.5,11c-22.4-0.1-10.6-11.2-10.6-11.2
					c12.2-2.9,12-11.9,9.9-20.5L760.6,350.2z"/>
				<path class="st7" d="M766.7,325.2c-1.2,18.3-1.4,26.1-10.6,35.4c-14,14.1-36.2,8.6-40.5-9.6c-3.8-16.5-3.5-40.1,14.5-47.3
					c12.8-5.2,29.7-2.5,34.9,10.3C766.4,317.5,767,321.4,766.7,325.2z"/>
				<path class="st3" d="M770.3,389.8L770.3,389.8c0.3-2.2-1.2-4.3-3.4-4.7c-8.3-1.4-27.1-4.3-36.6-3c-7.1,1-8.9,5-9.2,8.4
					c-0.2,2.3,1.5,4.3,3.7,4.5h0.7l40.9-1.7C768.3,393.2,769.9,391.7,770.3,389.8z"/>
				<path class="st10" d="M770.3,389.8L770.3,389.8c0.3-2.2-1.2-4.3-3.4-4.7c-8.3-1.4-27.1-4.3-36.6-3c-7.1,1-8.9,5-9.2,8.4
					c-0.2,2.3,1.5,4.3,3.7,4.5h0.7l40.9-1.7C768.3,393.2,769.9,391.7,770.3,389.8z"/>
				<path class="st7" d="M785,378.8l13.4-32L779.1,292l12.8-1.5c0,0,23.7,45.2,23.8,61.4c0,3.7-21.1,44.7-21.1,44.7L785,378.8z"/>
				<path class="st3" d="M766.2,389.5c0.1-7.9,26.3-31.3,26.3-31.3l0,0c8.2,6.4,14.5,14.8,18.5,24.4l0.6,1.4c0,0-12.8,23.3-23,22.1
					C778.1,404.9,766.2,399.3,766.2,389.5z"/>
				<path class="st11" d="M766.2,389.5c0.1-7.9,26.3-31.3,26.3-31.3l0,0c8.2,6.4,14.5,14.8,18.5,24.4l0.6,1.4c0,0-12.8,23.3-23,22.1
					C778.1,404.9,766.2,399.3,766.2,389.5z"/>
				<path class="st3" d="M702.3,383c0,0,2.2,29.9,4.2,121.3l75,0.4c-0.9-26.4,2-51.3,12.4-97.8c3-13.4-6.4-26.5-20-27.8
					c-2.1-0.2-4.2-0.4-6.2-0.5c-11.3-0.9-22.7-0.9-34.1-0.2C718.9,379.7,702.3,383,702.3,383z"/>
				<path class="st3" d="M686.8,403.6c-3.9,17.5-8.7,24.7-8.7,24.7l27.7,16.3c0,0,19.6-47.9,16.2-57.5c-2.1-5.9-8.4-6.1-13.1-4.5
					c-0.1,0-0.1,0.1-0.2,0.1C700.3,379.1,690.2,388.4,686.8,403.6z"/>
				<path class="st1" d="M722.1,307.6c-2.1,10.7,0,22.2,5.9,31.4c3.7,5.8,6.7,12.1,10.7,17.4c5.3,7.2,15.7,8.5,22.5,2.7
					c5.1-4.3,8.9-10.1,11-16.7c3.6-11.3,1.1-24.3-6.4-33.4c-4.2-5.1-10-9.1-16.5-9.8c-5.6-0.6-11.1,1.2-16.4,3.1
					C729.1,303.6,726.1,306.2,722.1,307.6z"/>
				<path class="st7" d="M732.3,335.3c0,3.5-1,6.9-2.9,9.8c-2.5,3.7-5.4,2.3-6.2-1.7c-0.6-3.6-0.1-9.8,3.1-12.3
					C729.4,328.6,732.2,331.1,732.3,335.3z"/>
				<path class="st12" d="M704.5,443.2l11.8-33.5l-5,36.6C708.8,445.7,706.5,444.6,704.5,443.2z"/>
				<path class="st7" d="M779.1,292l-8.7-13.2c0,0,1.6-14.4,4.5-14.2c2.9,0.2,13.3,1.7,13.3,1.7s1.6,10,3.1,12.9
					c1.5,2.9,0.7,11.2,0.7,11.2L779.1,292z"/>
				<path class="st1" d="M707.1,310.7c-1.1,3.2,0.3,7.3,3.5,8.5c0.2,6.4,7.1,11.6,13.2,10.1c-2.9-1.1-3.4-5.3-2-8.1
					c2.5-5.2,10.9-11,3.8-16.2C720.2,301.1,709.2,304.6,707.1,310.7z"/>
			</g>
			<path class="st1" d="M711.7,326.2c1.7-0.7,3.7-0.5,5.3,0.5l0,0c0.1,0.1,0.1,0.1,0.2,0.2c0.4,0.2,0.8,0.1,1-0.3
				c0.2-0.4,0.1-0.8-0.3-1c-1.9-1.3-4.4-1.6-6.6-0.8c-0.2,0.1-0.3,0.2-0.4,0.3c-0.2,0.4-0.1,0.8,0.3,1
				C711.3,326.2,711.5,326.2,711.7,326.2z"/>
		</g>
	</g>
	<g>
		<g>
			<path class="st1" d="M765,425.7c0.1-0.1,4-7.1,3.4-11.4c2.3-1.9,3.8-4.8,4-7.8c0.2-3-0.4-6.5-2.5-8.7c3.6-6.1,2.8-14.7-2.7-19.3
				c4.6-5.5,3.9-15.8-2.4-19.2c4.1-2.9,5.2-9.3,2.3-13.4c-1,0-1-1.2-1.9-0.8c-3.6,1.7-7.6,5.5-9.8,8.8c-3.7-2.7-7.9-3-12.4-2.7
				c-2.1,2.4-2.7,6.1-1.4,9s4.5,5,7.7,5c-1.3,7.1,2.7,15,9.8,16c-3.3,7.9-0.9,13.5,7,16.7c-3.5,4.5-5,11.5-1.9,16.3
				c-2.7,2-4,5.8-4.3,9.1C759.7,428.8,765,425.7,765,425.7z"/>
		</g>
		<path class="st1" d="M762,423.3c-3.4-0.9-7.4,0.9-8.8,4.2s0,7.4,3,9.3c-1.7-1.8-1.3-3.9,0.6-5.4c-1,0.8-1.5,3.1-0.9,4.3
			s1.6,2.1,2.4,3.2c0.7,1.1,1.2,2.6,0.5,3.8c4.2-1.7,7.7-5.8,9-10.1c0.7-2.1,0.9-4.5-0.1-6.5C766.7,424.1,764.1,422.7,762,423.3z"/>
		<g>
			<path class="st3" d="M762,419.9c-2.5,1-5,2-7.6,3c-1.3,0.5-2.3,0.3-3.7,0.4c-2.4-2.8-3.6-6.8-3.3-10.8c0.3-4,3-8.4,5.8-10.9
				c2.7,1.8,5.3,4,7.6,6.5c1.2,1.3,2.6,2.4,3.9,3.5c1.3,1.1,1.4,3.5,0.5,5.1c-0.9,1.6-2.5,2.6-4,3.5
				C761.2,419.8,761.9,420.3,762,419.9z"/>
			<path class="st3" d="M767.4,422.1c2.2,1.6,4.4,3.2,6.5,4.9c1.1,0.8,2.2,0.9,3.5,1.3c3-2.1,5.2-5.7,6-9.6s-0.7-8.9-2.8-12
				c-3.1,1.1-6.1,2.5-9,4.4c-1.5,1-3.1,1.6-4.7,2.4c-1.5,0.8-2.2,3-1.8,4.8c0.4,1.8,1.7,3.1,2.9,4.4
				C768.1,422.3,767.4,422.5,767.4,422.1z"/>
			<path class="st13" d="M762,419.9c-2.5,1-5,2-7.6,3c-1.3,0.5-2.3,0.3-3.7,0.4c-2.4-2.8-3.6-6.8-3.3-10.8c0.3-4,3-8.4,5.8-10.9
				c2.7,1.8,5.3,4,7.6,6.5c1.2,1.3,2.6,2.4,3.9,3.5c1.3,1.1,1.4,3.5,0.5,5.1c-0.9,1.6-2.5,2.6-4,3.5
				C761.2,419.8,761.9,420.3,762,419.9z"/>
			<path class="st13" d="M767.4,422.1c2.2,1.6,4.4,3.2,6.5,4.9c1.1,0.8,2.2,0.9,3.5,1.3c3-2.1,5.2-5.7,6-9.6s-0.7-8.9-2.8-12
				c-3.1,1.1-6.1,2.5-9,4.4c-1.5,1-3.1,1.6-4.7,2.4c-1.5,0.8-2.2,3-1.8,4.8c0.4,1.8,1.7,3.1,2.9,4.4
				C768.1,422.3,767.4,422.5,767.4,422.1z"/>
		</g>
	</g>
</g>
<g>
	<g>
		<g>
			<g>
				<path class="st14" d="M446.9,720.3c-1.6-2.1-3.5-3.9-5.7-5.3l0,0c0,0-5.4-9-3.3-31.3l-8.8-4.9c-3.1-1.6-6.8-1.2-9.4,1.1
					c-0.4,0.3-0.7,0.7-0.9,1.1c-1,2.1-2,4.4-2.7,6.6c-2.5,7.7-4.6,15.6-6.2,23.6l1.7,0.5l4.5-14.6c1.4-5,3.9,1.9,3.6,7.6
					c-0.3,5.7,0.6,12.1,11.6,15.1C443.9,723.4,449.4,724.2,446.9,720.3z"/>
				<g>
					<polygon class="st15" points="437.1,686 425.6,682.3 424.8,665.5 427,646.1 446.3,648.2 440.8,670.8 					"/>
					<path class="st15" d="M438.8,675.6c0,0-0.5,10.3-0.1,22c-0.1,5.9,1,11.8,3.1,17.4c0,0-8.6-0.6-10.8-7.1
						c-2.2-6.5-2.2-26.7-10.8-27.8c1-1.2,2.2-2.3,3.4-3.3C425.6,675.2,438.8,675.6,438.8,675.6z"/>
					<g>
						<path class="st15" d="M527.5,111.9l7.5,5.9l9-3.8l-8.2-6.5C535.7,107.5,530.7,104.5,527.5,111.9z"/>
						<path class="st15" d="M495.1,112.8c0,0,1.8-1.3,3.2-3.2c1.8-2.4,1.4-5.8-0.8-7.9c-2.5-2.5-6.1-5.7-7.6-6.2
							c-2.2-3.1-2.3-6.9-4.9-9.7c-2.7-3-7-1.8-10.2,0.7c0,0,1.1,9.5,3.7,13.3c1.6,2.3,2.8,5.6,5.5,6.5
							C484.1,106.3,492.6,111.4,495.1,112.8z"/>
						<path class="st15" d="M486.6,107.5l-9.3,7.7l9.8,5.5l11-10.9C498.1,109.9,495.8,102.6,486.6,107.5z"/>
						<g>
							<g>
								<path class="st15" d="M528.8,113c0,0-1.8-1.3-3.2-3.2c-1.8-2.4-1.5-5.8,0.6-7.9c2.5-2.5,6-5.8,7.4-6.3
									c2.1-3.2,2.1-6.9,4.6-9.8c2.7-3,7-2,10.2,0.4c0,0-0.9,9.5-3.4,13.4c-1.5,2.4-2.6,5.6-5.3,6.6
									C539.7,106.2,531.3,111.5,528.8,113z"/>
								<g>
									<path class="st3" d="M531.2,227l20.9,22c7.2-8.8,31.4-47.1,34.9-81.9c1.2-11.4-4.4-13.7-4.4-13.7L541,110.2
										c-9.7-2.8-9.1,6.1-9.1,6.1s32.4,49.5,31.3,52.3C562.6,170.2,531.2,227,531.2,227z"/>
									<path class="st11" d="M531.2,227l20.9,22c7.2-8.8,31.4-47.1,34.9-81.9c1.2-11.4-4.4-13.7-4.4-13.7L541,110.2
										c-9.7-2.8-9.1,6.1-9.1,6.1s32.4,49.5,31.3,52.3C562.6,170.2,531.2,227,531.2,227z"/>
									<path class="st16" d="M531.2,227l20.9,22c7.2-8.8,31.4-47.1,34.9-81.9c1.2-11.4-4.4-13.7-4.4-13.7L541,110.2
										c-9.7-2.8-9.1,6.1-9.1,6.1s32.4,49.5,31.3,52.3C562.6,170.2,531.2,227,531.2,227z"/>
								</g>
							</g>
							<g>
								<g>
									<path class="st3" d="M483.8,224.1l-0.5,2.1c-1.8,8.3-12.9,20.5-21.1,18.2l0,0c-6.5-9.3-29.8-47.5-30.8-82.4
										c-0.3-11.5,5.3-13.4,5.3-13.4l46.4-39.9c9.8-1.3,9.8,7.1,9.8,7.1s-38.8,46.5-38,49.4C455.5,166.9,483.8,224.1,483.8,224.1z
										"/>
								</g>
								<g class="st4">
									<path class="st5" d="M483.8,224.1l-0.5,2.1c-1.8,8.3-12.9,20.5-21.1,18.2l0,0c-6.5-9.3-29.8-47.5-30.8-82.4
										c-0.3-11.5,5.3-13.4,5.3-13.4l46.4-39.9c9.8-1.3,9.8,7.1,9.8,7.1s-38.8,46.5-38,49.4C455.5,166.9,483.8,224.1,483.8,224.1z
										"/>
								</g>
								<path class="st3" d="M455.3,233.4c4.9,8.4,10.1,18.8,15.2,28c2.1,3.9,7.4,4.4,10.3,1.1c8.8-10,13.2-25,9.3-37.2
									c-5-2.3-10.9-4.5-15.9-6.8C466.9,222.1,459.5,226.5,455.3,233.4z"/>
								<path class="st2" d="M455.3,233.4c4.9,8.4,10.1,18.8,15.2,28c2.1,3.9,7.4,4.4,10.3,1.1c8.8-10,13.2-25,9.3-37.2
									c-5-2.3-10.9-4.5-15.9-6.8C466.9,222.1,459.5,226.5,455.3,233.4z"/>
							</g>
							<g>
								<path class="st3" d="M557.3,275.1l-2.6,8.5c-1.7,8.9-4,17.3-4.9,25.2c-0.4,2.9-0.3,28.3,2.6,48.3c0,0,2.1,37,2,39.5
									l-98.1-0.4c3.5-44.9,26-83.8,26-90c0-7.9-0.5-4-7.3-25.7c0,0,0,0,0-0.1c0,0,0-0.1-0.1-0.3c-0.1-0.2-0.1-0.5-0.2-0.7
									c-0.1-0.3-0.2-0.6-0.3-0.9c-0.1-0.2-0.1-0.4-0.2-0.6c-0.2-0.7-0.5-1.5-0.7-2.5c-1.7-5.9-4.7-16.5-7.5-29.3
									c-1.9-8.4,2.6-19.1,11-21c0.5-0.1,0.9-0.2,1.4-0.2c4.4-0.6,9.3-1.1,14.2-1.3c11.1-0.8,22.2-0.9,33.3-0.1
									c7.8,0.7,10.2,1,16.2,2c1.7,0.3,4,2.5,6.5,5.7C558,243.6,561,259.9,557.3,275.1z"/>
							</g>
							<g class="st4">
								<path class="st5" d="M557.3,275.1l-2.6,8.5c-1.7,8.9-4,17.3-4.9,25.2c-0.4,2.9-0.3,28.3,2.6,48.3c0,0,2.1,37,2,39.5
									l-98.1-0.4c3.5-44.9,26-83.8,26-90c0-7.9-0.5-4-7.3-25.7c0,0,0,0,0-0.1c0,0,0-0.1-0.1-0.3c-0.1-0.2-0.1-0.5-0.2-0.7
									c-0.1-0.3-0.2-0.6-0.3-0.9c-0.1-0.2-0.1-0.4-0.2-0.6c-0.2-0.7-0.5-1.5-0.7-2.5c-1.7-5.9-4.7-16.5-7.5-29.3
									c-1.9-8.4,2.6-19.1,11-21c0.5-0.1,0.9-0.2,1.4-0.2c4.4-0.6,9.3-1.1,14.2-1.3c11.1-0.8,22.2-0.9,33.3-0.1
									c7.8,0.7,10.2,1,16.2,2c1.7,0.3,4,2.5,6.5,5.7C558,243.6,561,259.9,557.3,275.1z"/>
							</g>
							<g>
								<path class="st3" d="M512.3,213.8c0.5,0.1-26.7-1-29.9,3.1c-1.1,1.4-1.9,3.1-1.8,4.9s1.1,3.6,2.8,4.1
									c-3.5,2.1-8.3,4.3-7.8,8.4c0.4,3,3.2,5.1,6.2,5.6c2.9,0.5,5.9-0.2,8.8-0.9c-1.1,2.2,0.4,5.6,2.4,7c2,1.4,4.6,1.7,7,1.8
									c4.5,0.2,9.1,0,13.5-0.6c1.4-3.7-0.4-8.2-2.3-11.7C506.7,227.2,517.8,221.3,512.3,213.8z"/>
								<path class="st5" d="M512.3,213.8c0.5,0.1-26.7-1-29.9,3.1c-1.1,1.4-1.9,3.1-1.8,4.9s1.1,3.6,2.8,4.1
									c-3.5,2.1-8.3,4.3-7.8,8.4c0.4,3,3.2,5.1,6.2,5.6c2.9,0.5,5.9-0.2,8.8-0.9c-1.1,2.2,0.4,5.6,2.4,7c2,1.4,4.6,1.7,7,1.8
									c4.5,0.2,9.1,0,13.5-0.6c1.4-3.7,5-7.9,3.1-11.4C512.1,227.5,517.8,221.3,512.3,213.8z"/>
								<path class="st5" d="M515.3,213.9c-0.5,0.1,25.5-1.1,28.7,3c1.1,1.4,1.9,3.1,1.8,4.9s-1.1,3.6-2.8,4.1
									c3.5,2.1,8.3,4.3,7.8,8.4c-0.4,3-3.2,5.1-6.2,5.6s-5.9-0.2-8.8-0.9c1.1,2.2-0.4,5.6-2.4,7s-4.6,1.7-7,1.8
									c-4.5,0.2-9.1,0-13.5-0.6c-1.4-3.7,0.4-8.2,2.3-11.7C519.7,227.2,509.8,221.4,515.3,213.9z"/>
								<polygon class="st5" points="510.6,244.7 521,258.6 527.5,244.7 								"/>
							</g>
							<g>
								<g>
									<path class="st1" d="M479.6,173.8c-2.5,1.8-5.1,3.7-7,6.2c-1.9,2.5-3.1,5.7-2.4,8.8c0.7,3.1,3.5,5.7,6.6,5.4
										c-2.3,3-6.4,7.2-7.2,10.9c-0.8,3.7,0.4,8.1,3.8,9.9c10.6-1.1,21.3-1.7,31.9-2.8c0.2-5.5,0.8-10.3,1-15.7
										C499.4,187.4,489,180.3,479.6,173.8z"/>
									<path class="st1" d="M537.7,173.8c2.5,1.8,5.1,3.7,7,6.2c1.9,2.5,3.1,5.7,2.4,8.8c-0.7,3.1-3.5,5.7-6.6,5.4
										c2.3,3,6.4,7.2,7.2,10.9c0.8,3.7-0.4,8.1-3.8,9.9c-10.6-1.1-21.3-1.7-31.9-2.8c-0.2-5.5-0.8-10.3-1-15.7
										C517.9,187.4,528.3,180.3,537.7,173.8z"/>
									<path class="st15" d="M502.7,186.9c1.3,10.3,2.1,29-5.4,35.3c5.6,7.9,13,12.2,21.1,20.8c8.9-13.5,10.5-18.8,10.5-18.8
										c-11.1-3.4-10.3-11.8-7.9-19.5L502.7,186.9z"/>
									<path class="st12" d="M504.7,188.9c-0.2,6.1,0.8,12.1,3.1,17.7c1.6,3.9,6.6,5.8,11.7,6.6c0.1-2.9,0.6-5.7,1.5-8.4
										L504.7,188.9z"/>
									<path class="st15" d="M487.4,173.2c3.9,16.6,5,23.7,15,30.9c14.9,10.8,34.4,2.5,35.6-14.9c1.1-15.6-5.4-40.1-22.8-44
										c-12.5-2.9-24.9,4.9-27.8,17.3C486.5,166,486.5,169.7,487.4,173.2z"/>
									<path class="st1" d="M500.3,140.8c11.6-9.3,23.3-4.4,29.4-0.7c6.1,3.7,10.4,10.1,11.7,17.1c0.5,2.8-0.7,9-6,10.4
										c0,0-2.3-5.9-5.5-8.8c-3.7-3.4-10.9-7.7-13.9-7c-3.2,6.2-8.3,17.6-17.3,19.8c-6.8,1.6,0.2,36.2-13.6,21.8
										c-16.5-22.6-7.9-33.6-3-42.6C486.8,141.7,500.3,140.8,500.3,140.8z"/>
									<path class="st1" d="M527.3,190c0.1-0.1,0.2-0.3,0.2-0.4c0-0.2-0.3-0.4-0.5-0.3l0,0c-3.4,0.8-7-0.1-9.6-2.4
										c-0.2-0.2-0.4-0.2-0.6,0c-0.2,0.2-0.2,0.4,0,0.6C519.6,189.9,523.5,190.9,527.3,190L527.3,190z"/>
								</g>
								<path class="st17" d="M529.2,182.5c1.8,0,3.4-0.8,4.5-2.1c-2.8-2.1-5.2-4.6-7.3-7.4L529.2,182.5z"/>
								<path class="st15" d="M484.6,187.2c0.9,3.2,3.1,5.8,6.1,7.4c3.9,2,6.7-1.2,6.3-5.4c-0.3-3.7-2.7-9.2-6.9-9.5
									c-3.1-0.1-5.7,2.3-5.8,5.3C484.3,185.8,484.4,186.5,484.6,187.2z"/>
							</g>
							<g>
								<path class="st3" d="M475.2,275.5c0.3,0.9,0.5,1.8,0.7,2.5C475.7,277.2,475.4,276.3,475.2,275.5L475.2,275.5z"/>
							</g>
							<polygon class="st15" points="560.6,693.8 547.6,693.2 542.8,672.5 539.3,653.3 558.4,649.9 559.6,673.1 							"/>
							<path class="st14" d="M580.1,718.6c-2.1-1.6-4.5-2.7-7-3.5l0,0c0,0-7.7-7.1-12.1-29.1l-9.8-2.2c-3.4-0.7-6.9,0.8-8.7,3.8
								c-0.3,0.4-0.4,0.9-0.6,1.3c-0.4,2.4-0.7,4.7-0.8,7.1c-0.2,8.1,0.1,16.2,0.8,24.3l1.8,0l0.1-15.3c0-5.2,4.3,0.8,5.6,6.3
								c1.3,5.5,4,11.4,15.4,11.2C578.1,722.4,583.6,721.7,580.1,718.6z"/>
							<path class="st15" d="M559,678.2c0,0,2.5,10,6.2,21.1c1.6,5.7,4.3,11.1,7.9,15.8c0,0-8.4,1.8-12.4-3.7
								c-3.9-5.6-9.7-24.9-18.3-23.6c0.6-1.5,1.4-2.8,2.3-4.1C546.3,681.6,559,678.2,559,678.2z"/>
							<g>
								<g>
									<path class="st1" d="M562.2,526.9l-2.9,139.8l-17.2,1.8c0,0-13.2-49.9-16.2-100.1c-0.7-11.6,2.1-25,0.8-34.2
										c-1.1-8-4.3-13-8.8-31.1c-5.4-21.9-11-51.3-9.6-74.2c0,0-23.5-24.5-17.5-58l20.9-5.6l30.8-8.2l9.7,0l0.2,4.1L562.2,526.9z"
										/>
								</g>
								<g class="st18">
									<path d="M562.2,526.9l-2.9,139.8l-17.2,1.8c0,0-13.2-49.9-16.2-100.1c-0.7-11.6,2.1-25,0.8-34.2c-1.1-8-4.3-13-8.8-31.1
										c-5.4-21.9-11-51.3-9.6-74.2c0,0-23.5-24.5-17.5-58l20.9-5.6l30.8-8.2l8.6,0l0.2,4.1L562.2,526.9z"/>
								</g>
							</g>
							<g>
								<g>
									<path class="st1" d="M524.6,363.5L485,531.5l-42.7,133.2l-17-3.2c0,0,1.6-51.6,13.1-100.5c2.7-11.3,9.1-23.4,10.5-32.5
										c1.2-8-0.4-13.7,0.5-32.4c1.1-22.5,4.1-52.3,12-73.9c0,0-15.5-30.2-0.2-60.5L524.6,363.5z"/>
								</g>
							</g>
							<polygon class="st1" points="552.8,366.1 523.4,368.4 461.2,361.7 463.4,356.9 542.6,357.2 552.3,357.3 552.4,357.3 
								552.5,361.3 							"/>
						</g>
						<g>
							<g>
								<g>
									<g>
										<path class="st3" d="M522.8,139.1h-22.6c2.2-1.5,4-3.7,4.8-6.2c1.3-3.8,2.3-4.1,2.9-8.4c0.5-3.6,0.8-7.1,0.8-10.1
											c0-4.5-0.6-9.1-1.8-13.5h9.4c-0.6,2-1,4.1-1.3,6.1c-0.4,2.4-0.6,4.9-0.6,7.3c0,6.4,1.2,11.5,3.6,18.5
											C518.9,135.4,520.6,137.6,522.8,139.1z"/>
									</g>
									<path class="st12" d="M516.2,100.9c-0.4,2.2-0.8,4.2-1.3,6.1c-2.1,8.6-4.9,14.1-7,17.4c0.5-3.6,0.8-7.1,0.8-10.1
										c0-4.5-0.6-9.1-1.8-13.5H516.2z"/>
								</g>
								<g>
									<g>
										<g>
											<path class="st3" d="M495.6,74.5l-2.9,3.6l-1.5-1.8c-0.9-1.1-4.4-3.6-7.7-3.4c-0.2,0-0.4,0-0.7,0.1
												c-1.3,0.2-2.3,0.8-3.2,1.9c-0.6,0.8-1.1,1.7-1.3,2.7c-0.1,0.3-0.1,0.5-0.2,0.8c-0.4,2.1,0,4.4,0.7,6.1
												c1.4,3.9,4.3,6.4,7.4,6.4h2.1v5h-2.1c-4.7,0-9.1-3.7-11.2-9.4c-0.1-0.4-0.3-0.8-0.4-1.1c-1.5-5.1-0.8-10.3,2-13.9
												c1.8-2.3,4.1-3.5,6.8-3.6c1.9-0.1,3.7,0.4,5.3,1.1c2.5,1.1,4.5,2.7,5.4,3.8L495.6,74.5z"/>
										</g>
										<path class="st2" d="M488.7,69c-0.1,0.3-0.3,0.5-0.4,0.7c-0.6,0.7-1.4,0.9-2.2,1.3c-1.1,0.5-2.2,1.2-3.3,2
											c-1.3,0.2-2.3,0.8-3.2,1.9c-0.8,1-1.3,2.3-1.5,3.5c-0.7,1.2-1.3,2.4-1.7,3.8c-0.4,1.2-0.9,2.7-1.9,3.2
											c-1.2-4.1-1-8.4,0.7-11.8c0.4-0.8,0.8-1.5,1.3-2.1c1.8-2.3,4.1-3.5,6.8-3.6c0.2,0,0.5,0,0.7,0
											C485.7,68,487.2,68.4,488.7,69z"/>
										<path class="st19" d="M484,67.9c0,0.1,0,0.1,0,0.2c-0.3,1.6-1.5,2.7-2.7,3.5c-1.6,1-3.4,1.7-5.2,2c-0.3,0-0.7,0.1-1,0.1
											c0.4-0.8,0.8-1.5,1.3-2.1c1.8-2.3,4.1-3.5,6.8-3.6C483.6,67.9,483.8,67.9,484,67.9z"/>
										<path class="st12" d="M486.6,90.9c-0.7,1.1-2.1,1.2-3.2,0.8c-2.6-0.8-4.8-3.2-5.7-6.2c-0.7-2.2-0.4-5.7,0.6-7.9
											c-0.1,0.3-0.1,0.5-0.2,0.8c-0.4,2.1,0,4.4,0.7,6.1c1.4,3.9,4.3,6.4,7.4,6.4L486.6,90.9L486.6,90.9z"/>
									</g>
									<g>
										<g>
											<path class="st3" d="M528,74.5l2.9,3.6l1.5-1.8c0.9-1.1,4.4-3.6,7.7-3.4c0.2,0,0.4,0,0.7,0.1c1.3,0.2,2.3,0.8,3.2,1.9
												c0.6,0.8,1.1,1.7,1.3,2.7c0.1,0.3,0.1,0.5,0.2,0.8c0.4,2.1,0,4.4-0.7,6.1c-1.4,3.9-4.3,6.4-7.4,6.4h-2.1v5h2.1
												c4.7,0,9.1-3.7,11.2-9.4c0.1-0.4,0.3-0.8,0.4-1.1c1.5-5.1,0.8-10.3-2-13.9c-1.8-2.3-4.1-3.5-6.8-3.6
												c-1.9-0.1-3.7,0.4-5.3,1.1c-2.5,1.1-4.5,2.7-5.4,3.8L528,74.5z"/>
										</g>
										<path class="st2" d="M534.9,69c0.1,0.3,0.3,0.5,0.4,0.7c0.6,0.7,1.4,0.9,2.2,1.3c1.1,0.5,2.2,1.2,3.3,2
											c1.3,0.2,2.3,0.8,3.2,1.9c0.8,1,1.3,2.3,1.5,3.5c0.7,1.2,1.3,2.4,1.7,3.8c0.4,1.2,0.9,2.7,1.9,3.2c1.2-4.1,1-8.4-0.7-11.8
											c-0.4-0.8-0.8-1.5-1.3-2.1c-1.8-2.3-4.1-3.5-6.8-3.6c-0.2,0-0.5,0-0.7,0C537.9,68,536.3,68.4,534.9,69z"/>
										<path class="st19" d="M539.5,67.9c0,0.1,0,0.1,0,0.2c0.3,1.6,1.5,2.7,2.7,3.5c1.6,1,3.4,1.7,5.2,2c0.3,0,0.7,0.1,1,0.1
											c-0.4-0.8-0.8-1.5-1.3-2.1c-1.8-2.3-4.1-3.5-6.8-3.6C540,67.9,539.8,67.9,539.5,67.9z"/>
										<path class="st12" d="M537,90.9c0.7,1.1,2.1,1.2,3.2,0.8c2.6-0.8,4.8-3.2,5.7-6.2c0.7-2.2,0.4-5.7-0.6-7.9
											c0.1,0.3,0.1,0.5,0.2,0.8c0.4,2.1,0,4.4-0.7,6.1c-1.4,3.9-4.3,6.4-7.4,6.4L537,90.9L537,90.9z"/>
									</g>
									<g>
										<path class="st3" d="M538,90.1c-0.1,0.7-0.2,1.4-0.3,2.1c-0.8,4-3,7.7-6.1,9.8c-7.9,5.3-20.6,6.9-30.9,3.9
											c-0.3-0.1-0.6-0.2-0.9-0.3c-2.7-0.9-5.2-2.1-7.3-3.6c-1.3-1-2.5-2.2-3.5-3.7c-1.6-2.4-2.7-5.3-2.9-8.3
											c-0.3-2.8,0.1-5.6,1-8.2c0,0,0,0,0,0c0.1-0.3,0.2-0.6,0.3-0.9c0.6-1.3,1.2-2.6,2.1-3.7c1-1.4,2.3-2.7,3.2-4.2
											c0.9-1.4,1.6-3.1,1.4-4.6l17.8,1.6l17.8-1.6c-0.2,1.6,0.5,3.2,1.4,4.6c1,1.4,2.2,2.7,3.2,4.2c1.1,1.5,1.9,3.1,2.5,4.8l0,0
											C537.9,84.6,538.3,87.3,538,90.1z"/>
										<path class="st16" d="M515.5,83.4c-10.3,4.4-21.5,1.2-26.2-0.5c-0.8-0.3-1.5-0.6-2.2-1c0.1-0.1,0.1-0.3,0.2-0.4
											c0.6-1.5,1.3-2.9,2.3-4.2c1-1.4,2.3-2.7,3.2-4.2c0.9-1.4,1.6-3.1,1.4-4.6l17.8,1.6l13.7-0.9
											C526.1,70.9,526.4,78.8,515.5,83.4z"/>
										<path class="st11" d="M538,90.1c-0.5,4.8-2.7,9.4-6.4,11.9c-10.5,7.1-28.8,7.4-39.1,0c-3.6-2.6-6-7.1-6.4-11.9
											c-0.1-0.7-0.1-1.4-0.1-2.1c6.9,8,20.2,10.7,30.9,5.3c6-3,10.2-8.3,12.1-13.9c1.2-3.6,1.4-7.4,0.5-10.9l0.5,0
											c-0.2,1.6,0.5,3.2,1.4,4.6c1,1.4,2.2,2.7,3.2,4.2C537.2,81,538.5,85.5,538,90.1z"/>
										<path class="st11" d="M537.7,92.2c-0.8,4-3,7.7-6.1,9.8c-8.2,5.5-21.4,7-31.8,3.6c-1.3-0.5-2.6-1.1-3.9-1.7
											c-2.8-1.4-5.1-3.3-6.9-5.5c-1.6-2.4-2.7-5.3-2.9-8.3c-0.3-2.8,0.1-5.6,1.1-8.2c0,0,2.2,1.5,9.8,3.6
											c2.5,0.7,5.2,1.2,7.9,1.4c7.1,0.7,21,0.9,32.3-4.9l0,0C538,85.8,538.2,89.1,537.7,92.2z"/>
										<path class="st12" d="M538,90.1c-0.5,4.8-2.7,9.4-6.4,11.9c-10.5,7.1-28.8,7.4-39.1,0c-3.6-2.6-6-7.1-6.4-11.9
											c-0.1-0.7,3.4,6.9,3.4,6.2c7.6,9.2,22.2,9.7,33.5,4.5c13.7-6.2,11.3-20.7,8.4-27.6c0.9,1.4,2.2,2.7,3.2,4.1
											C537.2,81,538.5,85.5,538,90.1z"/>
										<path class="st20" d="M530.5,71.6c-22.8,6.5-37.4-2.6-37.5-3.8l19.1,2.3l17.8-1.6C529.7,69.5,530,70.6,530.5,71.6z"/>
										<g>
											<g>
												<path class="st3" d="M531.9,65.9c0,1.2-0.2,2-0.8,3.1c-9.5,3.5-29,3.2-38.1,0c-0.5-1.1-0.8-1.9-0.8-3.1
													c3.1,2.1,13.2,2.6,19.8,2.7C518.7,68.5,528.8,68,531.9,65.9z"/>
												<path class="st21" d="M525.8,70.4c-0.1,0-0.1,0-0.2,0c-8.5,1.5-20,1.4-28-0.2c-1.7-0.3-3.3-0.8-4.6-1.2
													c-0.5-1.1-0.8-1.9-0.8-3.1c2,1.3,6.7,2,11.6,2.4c2.8,0.2,5.7,0.3,8.1,0.4c3.9-0.1,9-0.3,13.1-0.9c0.1,0,0.1,0,0.2,0
													C525.6,68.6,525.8,70.4,525.8,70.4z"/>
											</g>
											<path class="st3" d="M531.9,65.9c0.2,1.5-8.7,2.8-19.8,2.8c-11.1,0-20-1.3-19.8-2.8c0.2-1.5,9-2.7,19.8-2.7
												C522.8,63.2,531.7,64.4,531.9,65.9z"/>
											<path class="st12" d="M529.9,65.6c0.1,1.1-7.8,2-17.6,2c-9.8,0-17.7-0.9-17.6-2c0.1-1.1,8-2,17.6-2
												C521.9,63.6,529.8,64.5,529.9,65.6z"/>
										</g>
										<path class="st19" d="M502.2,77c-0.3,1.1-1.6,1.9-2.9,1.9c-1.1,0-1.8-0.2-2.5-0.9c-0.3-0.3-1.2-1.7-0.3-2.5
											c0,0,0.1-0.1,0.1-0.1c1.1-0.8,3-0.7,4.5,0.1h0C502.2,76.2,502.3,76.6,502.2,77z"/>
										<path class="st19" d="M499.5,75c1.4,0.2,1.1,2.1-0.4,2.1c0,0-0.2,0-0.6,0c-1.5-0.2-1.1-2.1,0.4-2.1
											C499.4,74.9,499.1,74.9,499.5,75z"/>
										<path class="st2" d="M503.7,68.4c-0.5,0.4-1.6,1.1-3.4,1.5c-0.8,0.2-1.7,0.3-2.7,0.3c-1.7-0.3-3.3-0.8-4.6-1.2
											c-0.4-0.8-0.7-1.4-0.7-2.2c0.3,0.1,0.8,0.2,1.5,0.3c0,0,0,0,0.1,0c0.2,0,0.5,0,0.7,0v0c0,0.1,0.1,0.2,0.3,0.3c0,0,0,0,0,0
											c0.2,0.1,0.4,0.1,0.7,0.2l0,0c0.7,0.1,1.4,0.3,2.3,0.4c0.6,0.1,1.2,0.2,1.9,0.2c0.5,0.1,1.1,0.1,1.7,0.2
											C502.1,68.3,502.9,68.4,503.7,68.4z"/>
										<path class="st2" d="M514.8,68.7c0,0-1.8,2.3-6.1,2.7c-1,0.1-2.2,0.1-3.4-0.1c-0.4-0.1-0.7-0.1-1-0.2
											c-1.7-0.3-3-0.8-4-1.2c-2-0.9-2.5-1.9-2.6-2.1c1.7,0.2,3.7,0.5,6,0.6c2.5,0.2,5.4,0.3,8.3,0.3
											C513,68.7,513.9,68.7,514.8,68.7C514.8,68.7,514.8,68.7,514.8,68.7z"/>
										<path class="st19" d="M501.3,68.2c-0.1,0.3-0.3,0.6-0.8,0.6c0,0-1.1,0-0.9-0.8C500.2,68.1,500.8,68.2,501.3,68.2z"/>
									</g>
								</g>
								<path class="st3" d="M538.2,141.5h-52.8l0,0c5-2.8,10.6-4.3,16.4-4.3h20.1C527.6,137.3,533.2,138.7,538.2,141.5L538.2,141.5
									z"/>
								<path class="st19" d="M538.2,141.5h-52.8l0,0c5-2.8,10.6-4.3,16.4-4.3h20.1C527.6,137.3,533.2,138.7,538.2,141.5
									L538.2,141.5z"/>
							</g>
						</g>
					</g>
				</g>
			</g>
			<g>
				<path class="st3" d="M551.4,350.4c2.4,35.3,5.4,79.8,7.8,115.1c-36.1,6.4-72.1,8.1-108.3,2.5c-0.7-13.8,4.1-28.9,0.7-42.3
					c-6.1-23.6-0.3-49.6,12.8-70.1c20.6-1.6,31.1-2.9,51.8-4.6C524.7,350.2,551.4,350.4,551.4,350.4z"/>
				<path class="st2" d="M551.4,350.4c2.4,35.3,5.4,79.8,7.8,115.1c-36.1,6.4-72.1,8.1-108.3,2.5c-0.7-13.8,4.1-28.9,0.7-42.3
					c-6.1-23.6-0.3-49.6,12.8-70.1c20.6-1.6,31.1-2.9,51.8-4.6C524.7,350.2,551.4,350.4,551.4,350.4z"/>
			</g>
		</g>
		<g>
			<path class="st1" d="M507.7,170.3c-0.1,0-0.3,0-0.4-0.1c-0.3-0.2-0.5-0.6-0.3-0.9c1.2-2.7,3.7-4.7,6.6-5.3
				c0.4-0.1,0.7,0.1,0.8,0.5c0.1,0.4-0.1,0.7-0.5,0.8c-2.5,0.6-4.6,2.3-5.7,4.6C508.1,170.1,507.9,170.3,507.7,170.3z"/>
		</g>
		<g>
			<path class="st1" d="M532.3,160.6c-0.1,0-0.2,0-0.3,0c-2.1-0.7-4.5-0.4-6.3,0.9c-0.3,0.2-0.7,0.1-0.9-0.2
				c-0.2-0.3-0.1-0.7,0.2-0.9c2.2-1.5,5-1.9,7.5-1c0.4,0.1,0.6,0.5,0.4,0.9C532.7,160.3,532.5,160.5,532.3,160.6z"/>
		</g>
		<path class="st1" d="M518.3,172.7c0.4,1.3,0.2,2.7-0.7,3c-0.9,0.3-2-0.5-2.5-1.8c-0.5-1.3-0.2-2.7,0.7-3S517.8,171.4,518.3,172.7z
			"/>
		<path class="st1" d="M515.4,171.1l2.4-2.2C517.8,168.9,517.4,171.9,515.4,171.1z"/>
		<path class="st1" d="M533.2,169.1c0.4,1.3,0.2,2.7-0.7,3c-0.9,0.3-2-0.5-2.5-1.8c-0.5-1.3-0.2-2.7,0.7-3
			C531.6,167,532.7,167.7,533.2,169.1z"/>
		<path class="st1" d="M530.4,167.5l2.4-2.2C532.8,165.3,532.3,168.2,530.4,167.5z"/>
	</g>
	<path class="st11" d="M499.2,469.7l6.3-26.7c0.3-1.2,2.1-1.1,2.2,0.1l3.6,26.2L499.2,469.7z"/>
</g>
<g>
	<polygon class="st22" points="324.6,776.1 316.5,810.5 332,811.5 340.9,777.1 	"/>
	<polygon class="st22" points="86.1,819.7 119.5,780.9 136.9,793.1 96.6,831.5 	"/>
	<g>
		<g>
			<g>
				<g>
					<path class="st1" d="M360.5,832c-14.4-1.4-19.8-2.2-27.9-3.2c-6.9-0.9-8.5-0.2-14-0.8c-4.6-0.6-5-5.2-4.2-10.5
						c0.4-2.6,1.6-9.1,2.1-13.3l17.5,0.6c3.7,6.3,20.4,16.7,28.6,18.7C370.3,825.1,366.2,832.5,360.5,832z"/>
				</g>
			</g>
			<path class="st1" d="M99.5,865.3c-8.3-12-11.3-16.7-15.8-23.7c-3.8-6-5.4-6.7-8.5-11.3c-2.6-4,0.6-7.3,5-10.2
				c2.2-1.4,7.7-4.8,11.2-7.2l11,13.9c-2.3,7,0.9,26.8,4.7,34.4C111,868.3,102.9,870,99.5,865.3z"/>
		</g>
	</g>
	<g>
		<path class="st3" d="M248.1,522.1l42.8,9.4c0,0,88.6,94.1,94.8,127.9c3.1,17.1-46.3,129.9-46.3,129.9l-21.1-0.6
			c0,0,12.8-96.6,28.3-119.1l-106.4-74.2C240.3,595.4,221.1,539,248.1,522.1z"/>
		<path class="st23" d="M248.1,522.1l42.8,9.4c0,0,88.6,94.1,94.8,127.9c3.1,17.1-46.3,129.9-46.3,129.9l-21.1-0.6
			c0,0,12.8-96.6,28.3-119.1l-106.4-74.2C240.3,595.4,221.1,539,248.1,522.1z"/>
		<polygon class="st11" points="308.4,642.1 242.2,570.5 240,593.4 		"/>
	</g>
	<g>
		<path class="st3" d="M270.5,525.4c0,0-47.5-16.2-49.4-17.4c-1.9-1.2-27.7,46.1-32,77.7c-4.2,31.5-1.1,106.4-1.1,106.4
			s-26.1,15.9-43.6,40.5l-40.1,62.2l15.2,16.6l93.9-83.3c11.1-8.8,18.9-21.4,21.9-35.5L270.5,525.4z"/>
		<path class="st23" d="M270.5,525.4c0,0-47.5-16.2-49.4-17.4c-1.9-1.2-27.7,46.1-32,77.7c-4.2,31.5-1.1,106.4-1.1,106.4
			s-26.1,15.9-43.6,40.5l-40.1,62.2l15.2,16.6l93.9-83.3c11.1-8.8,18.9-21.4,21.9-35.5L270.5,525.4z"/>
	</g>
	<g>
		<path class="st22" d="M278.8,424.2c2.4,1.2,4.5,2.2,6.8,3.2c2.3,1,4.5,1.9,6.8,2.9c4.5,1.8,9.2,3.5,14,5.1
			c9.9,3.4,20.2,5.4,30.6,6c3,0.1,6-0.1,8.9-0.5c3.3-0.4,6.5-1.4,9.6-2.8c5.8-2.7,10.7-7,14.3-12.2c3.2-4.6,5.6-9.7,7.1-15.1
			c0.8-2.5,1.3-5.1,1.8-7.7c0.2-1.3,0.4-2.6,0.5-3.9c0.1-1.3,0.2-2.5,0.3-4.1l-11.4-1.9l-1.2,2.8l-1.4,2.9c-1,1.9-2,3.8-3.1,5.7
			c-2,3.4-4.4,6.5-7.1,9.3c-2.2,2.2-4.9,3.9-7.9,4.8c-1.3,0.4-2.7,0.6-4.1,0.7c-1.7,0.1-3.5,0-5.2-0.2c-4.1-0.4-8-1.2-12-2.3
			c-4.1-1-8.3-2.4-12.5-3.9c-4.2-1.5-8.3-3.1-12.5-4.8l-6.2-2.6c-2-0.9-4.2-1.8-6-2.6L278.8,424.2z"/>
		<path class="st3" d="M252.5,416.7c-4.1-17.4,10.4-27.4,33.8-20.8c12.6,3.3,24.9,7.8,36.6,13.4l-13.7,39.4
			C286.2,443.6,256.7,434.6,252.5,416.7z"/>
		<path class="st11" d="M252.5,416.7c-4.1-17.4,10.4-27.4,33.8-20.8c12.6,3.3,24.9,7.8,36.6,13.4l-13.7,39.4
			C286.2,443.6,256.7,434.6,252.5,416.7z"/>
		<path class="st22" d="M365.3,388.7l1.5-8.5l14.9,8.5c0,0-1.9,14.6-9.1,13.5l-3.2-3C366.5,396.5,365.1,392.7,365.3,388.7z"/>
		<polygon class="st22" points="372,372.3 386.8,375.6 381.6,388.8 366.7,380.3 		"/>
		<g>
			<g>
				<path class="st3" d="M255.7,391l-20.3-1.9l-25,3.3c-7.8,1-14,7.1-15,15c-2.1,15.3-0.1,106.6,4.5,134.2l14.9,1.5
					c24.6,1.9,56-2.2,78.9-11.2c0,0,1.3-100.3,1.1-119.7c0-7.8-5.3-14.7-12.9-16.7L255.7,391z"/>
			</g>
		</g>
		<path class="st3" d="M221.4,392.4c-0.5,3.6,0.9,7.2,3,10.2c2.1,2.9,4.9,5.3,7.7,7.6c3.5,3,7.7,6.1,12.3,5.3c4.2-0.7,6.5-3,8-8.1
			c3.9,5.7,4.2,8.6,8.2,8.7c2.6,0.1,4.7-1.9,6.5-3.8c3-3.4,4.4-5.4,4.8-9.9c0.6-7.4-5.7-14-12.8-16.3c-7.6-2.5-14.3-2.8-22.1-3.4
			C230.5,382.4,222.3,384.8,221.4,392.4z"/>
		<path class="st24" d="M221.4,392.4c-0.5,3.6,0.9,7.2,3,10.2c2.1,2.9,4.9,5.3,7.7,7.6c3.5,3,7.7,6.1,12.3,5.3c4.2-0.7,6.5-3,8-8.1
			c3.9,5.7,4.2,8.6,8.2,8.7c2.6,0.1,4.7-1.9,6.5-3.8c3-3.4,4.4-5.4,4.8-9.9c0.6-7.4-5.7-14-12.8-16.3c-7.6-2.5-14.3-2.8-22.1-3.4
			C230.5,382.4,222.3,384.8,221.4,392.4z"/>
		<g>
			<path class="st22" d="M237.4,356.2l9.6,10.1l13,13.8c-1.1,1.6-1.9,3.3-2.3,5.2c-1.1,4.1-0.6,8,3.9,10.8
				c1.9,0.8,3.3,10.6-9.1,10.1c-8.5-0.1-14-2.8-19.1-7.7c-2.4-3-3.1-4.6-0.9-8C238.7,380.8,238.6,367.1,237.4,356.2z"/>
			<path class="st12" d="M256.8,376.7l-8.2-10c-0.1,0.3-0.2,0.7-0.3,1c-0.3,1.5-0.5,3-0.6,4.5c-0.3,5.1,4.8,11.5,9.7,14.1l0.3-1
				c0.5-1.7,1.2-3.4,2.1-4.9c0.1-0.1,0.1-0.2,0.2-0.2L256.8,376.7z"/>
			<path class="st1" d="M265.3,353c7.4-14.8,5.7-23,12.8-30.9c3.9-1.8,10.8,5.3,6.4,17.6C280.1,351.9,265.3,353,265.3,353z"/>
			<path class="st22" d="M237.4,336.9c-0.7,17-1.8,26.9,5.9,36.2c16.7,15.9,33.3,8,39-8.6c5.1-14.9,5.2-40.2-10.8-48.3
				c-11.7-5.8-25.9-1-31.7,10.7C238.3,330,237.4,333.4,237.4,336.9z"/>
			<path class="st1" d="M235.5,352l7.3,1.4l3-11l7.5-4.4l2.5-9.6c1-4.1-1.7-8.1-5.8-8.7c-4.7-0.7-10.5-1.5-13.6-1.9
				c-2.1-0.3-9.3,5.5-10.4,7.9c-3,6.8-1.3,14.6,3.5,20.3C231.3,348.2,233.3,350.2,235.5,352z"/>
			<path class="st22" d="M229.2,349.2c0.5,3.8,2.4,7.2,5.3,9.7c3.8,3.1,8-0.7,8.3-5.5c0.2-4.3-2.2-10.5-6.6-11.7
				C231.7,340.4,228.6,344.5,229.2,349.2z"/>
			<path class="st1" d="M265.6,345.8c-0.2,1.4,0.4,2.7,1.3,2.8c0.9,0.2,1.7-0.8,2-2.2c0.3-1.4-0.4-2.7-1.3-2.8
				C266.6,343.4,265.8,344.4,265.6,345.8z"/>
			<path class="st1" d="M271.9,367.5c-0.2,1.4,0.4,2.7,1.3,2.8c0.9,0.2,1.7-0.8,2-2.2c0.3-1.4-0.4-2.7-1.3-2.8
				C273,365.1,272.1,366.1,271.9,367.5z"/>
			<path class="st1" d="M279.6,347.8c-0.2,1.4,0.4,2.7,1.3,2.8c0.9,0.2,1.8-0.9,2-2.2c0.2-1.4-0.4-2.7-1.3-2.8
				C280.7,345.5,279.8,346.4,279.6,347.8z"/>
			<path class="st25" d="M274.8,348.6c1.7,3.6,3.8,7.1,6.4,10.1c-2,2.1-5.7,1.2-5.7,1.2L274.8,348.6z"/>
			<path class="st1" d="M261.1,341.9c-0.1,0-0.3-0.1-0.4-0.2c-0.3-0.3-0.3-0.9,0-1.2c1.9-1.9,4.6-2.6,7.2-2.1c0.4,0.1,0.7,0.6,0.6,1
				c0,0,0,0,0,0c-0.1,0.4-0.6,0.7-1,0.6c-2-0.4-4.2,0.2-5.6,1.7C261.7,341.9,261.4,342,261.1,341.9z"/>
			<path class="st1" d="M280,341.8c-0.1-0.1-0.1-0.3-0.1-0.4c0.1-0.5,0.6-0.7,1-0.6c2.6,0.5,4.8,2.3,5.8,4.7
				c0.2,0.4-0.1,0.9-0.5,1.1c-0.4,0.2-0.9-0.1-1.1-0.5c-0.8-1.9-2.6-3.3-4.6-3.7C280.2,342.3,280,342.1,280,341.8z"/>
		</g>
		<g>
			<path class="st22" d="M170.9,388.7c-14-4.2-22.5-1.7-25.2-10.4c-2.7-8.7-5.8-57-3.7-57.6c-4,1.3-7.4,2.6-11.4,3.8
				c-1.4,13.3-3,26.5-4.8,39.8c-1.3,9.7-2.8,25.4,1.2,34.3c3.6,8,27.5,13,44.7,16.4C176.8,409.8,170.9,388.7,170.9,388.7z"/>
		</g>
		<path class="st3" d="M214.8,415.3c12-13.3,2.5-25.2-21.1-30.8c-12.6-3.2-25.5-5.2-38.5-6.1l-5.5,37.3
			C172.3,422.3,202.5,428.8,214.8,415.3z"/>
		<g>
			<path class="st22" d="M145.9,332.2l4.2-7l-18.8-4.2c0,0-8.2,15.4-0.9,18.4l4.6-1C139.1,337.5,143.8,336.1,145.9,332.2z"/>
			<polygon class="st22" points="147.9,312.5 136.9,312 131.3,321 150.1,325.2 			"/>
		</g>
	</g>
	<path class="st3" d="M315.7,782.2c0.6-0.2,31.5,1.9,31.5,1.9l-2.7,9.5l-31.2-0.5L315.7,782.2z"/>
	<path class="st3" d="M104,790.4c0.6,0.2,21.7,22.9,21.7,22.9l-8.4,5.1l-22.4-21.7L104,790.4z"/>
</g>
</svg>
