<?xml version="1.0" encoding="utf-8"?>
<!-- Generator: Adobe Illustrator 24.0.0, SVG Export Plug-In . SVG Version: 6.00 Build 0)  -->
<svg version="1.1" id="Layer_1" xmlns="http://www.w3.org/2000/svg" xmlns:xlink="http://www.w3.org/1999/xlink" x="0px" y="0px"
	 viewBox="0 0 1000 1000" style="enable-background:new 0 0 1000 1000;" xml:space="preserve">
<style type="text/css">
	.st0{fill:#4CA9FF;}
	.st1{fill:#04377D;}
	.st2{fill:#FFFFFF;}
	.st3{fill:#0084FF;}
	.st4{fill:#FF9D8A;}
	.st5{fill:#7591B7;}
	.st6{fill:#7F99BD;}
	.st7{fill:#D9E1EB;}
	.st8{fill:#708DB5;}
	.st9{fill:#59AFFF;}
	.st10{fill:#2A5590;}
	.st11{fill:#F5F7FA;}
	.st12{fill:#D4DDE9;}
	.st13{fill:#43699D;}
	.st14{fill:#6987B1;}
	.st15{fill:#B4C3D8;}
	.st16{fill:#5C7DAA;}
	.st17{fill:#8EA5C4;}
	.st18{fill:#CCE6FF;}
	.st19{fill:#FF5E3F;}
	.st20{font-family:'ArialMT';}
	.st21{font-size:27.2554px;}
	.st22{fill:#54ADFF;}
</style>
<g>
	<g>
		<path class="st0" d="M918.3,588.2H807.2c-3.6,0-6.5-2.9-6.5-6.5v-60.4c0-3.6,2.9-6.5,6.5-6.5h111.2c3.6,0,6.5,2.9,6.5,6.5v60.4
			C924.8,585.3,921.9,588.2,918.3,588.2z"/>
		<polygon class="st0" points="862.8,616.9 878.8,578.8 846.7,578.8 		"/>
	</g>
	<g>
		<g>
			<g>
				<polygon class="st1" points="862.4,539 891.4,539 891.4,543.2 905.6,535 891.4,526.8 891.4,531 862.4,531 				"/>
			</g>
			<g>
				<polygon class="st2" points="905.6,555.6 876.6,555.6 876.6,551.4 862.4,559.6 876.6,567.8 876.6,563.5 905.6,563.5 				"/>
			</g>
		</g>
		<g>
			<path class="st1" d="M844.6,563.1l-1.4,0.5c0,0-4.3-4.9-6.5-10.3c-2.2-5.3-2.3-11.9-2.3-11.9l1-0.4l-6.1-14.7
				c-1.1,0.8-2.1,2-3,3.4c-3.5,5.9-3.1,14.9,0.4,23.7s7.2,16.6,14,21.6c4,2.9,7.5,3.4,10.1,3L844.6,563.1z"/>
			<path class="st1" d="M849,561.4l-1.9,0.7l6.3,15c0.7-0.2,1.3-0.5,1.9-0.8c1.6-0.9,2.3-2.8,1.7-4.6l-3.3-8.3
				C852.9,561.6,850.8,560.7,849,561.4z"/>
			<path class="st1" d="M834,523.8c-0.8,0.3-1.6,0.7-2.5,1.2l6.3,15l2.1-0.9c1.8-0.8,2.7-2.8,2-4.7l-3.3-8.5
				C837.9,524.1,835.9,523.1,834,523.8z"/>
		</g>
	</g>
</g>
<g>
	<path class="st3" d="M265.6,828.7V659.5c0,0-1.9-45.6,22.1-58.7s125-6.1,125-6.1v234H265.6z"/>
</g>
<g>
	<g>
		<path class="st4" d="M444.2,436.3c0,0-6.1,51.2-8.5,55.5c-2.4,4.2-2.4,4.2-2.4,4.2l-11.7,8c0,0,22.6,32,50.3,37.1
			c27.7,5.2,25.4-11.3,25.4-11.3l-4.2-8.9l5.6-48.9C498.7,472,448.5,449,444.2,436.3z"/>
	</g>
	<path class="st2" d="M407.1,508.1l18.3-8c0,0,11.7,19.3,39,30.6c27.3,11.3,27.7,4.7,29.1,0c1.4-4.7-0.5-9.9-0.5-9.9l2-16.5L506,508
		l37.8,306l-97.3,4.7L407.1,508.1z"/>
	<g>
		<path class="st1" d="M496.9,504.7c0,0,6.6,15.2,12.7,50.9c6.1,35.7,11.7,95.9,13.2,137.2c1.4,41.3,2.3,135.8,2.3,135.8
			s121.2,0,122.7,0c1.4,0,9.9-46.5,9.9-46.5s-53.6-45.9-56.4-53.4c-1.9-5-0.9-97.9-8.9-140.7s-18.3-51.4-40-62
			C530,515,496.9,504.7,496.9,504.7z"/>
	</g>
	<g>
		<path class="st5" d="M560.8,774.8c-0.6,0-1.1-0.5-1.1-1.1c0-3.4-0.6-51.1-1.2-97.3c-0.6-46.2-1.2-93.9-1.2-97.3
			c0-0.6,0.5-1.1,1.1-1.1s1.1,0.5,1.1,1.1c0,3.4,0.6,51.1,1.2,97.3c0.6,46.2,1.2,93.9,1.2,97.3C561.9,774.3,561.4,774.8,560.8,774.8
			z"/>
	</g>
	<g>
		<path class="st1" d="M316.4,763.3l-0.9,65.3h142.9c0,0,6.1-55.5,3.8-60.6C459.7,762.9,316.4,763.3,316.4,763.3z"/>
	</g>
	<g>
		<path class="st6" d="M475.4,490.3c5.8,4.7,13.8,8.5,20,10.7l3.4-29.1c0,0-37.8-17.3-50.6-30.2
			C450.8,456.4,457.4,475.8,475.4,490.3z"/>
	</g>
	<g>
		<path class="st4" d="M542.9,340.9c0,0,9.9,16.9,11.7,37.6c1.9,20.7,0,73.8-16.9,96.3s-52.1,16-68.1,2.4
			c-14.7-12.5-29.1-26.3-32.9-53.6c-3.8-27.3,8-78.9,41.4-89.8C511.4,323,542.9,340.9,542.9,340.9z"/>
	</g>
	<g>
		<g>
			<path class="st4" d="M585.3,799.1c0,0-1.7,0-4.2-0.1c-0.6,0-1.3,0-1.9,0c-2.4-0.1-5.4-0.1-8.3-0.2c-0.7,0-1.3,0-2-0.1
				c-3-0.1-5.5,0.3-7.8,0.2h-0.1c-0.5,0-1.2,0-1.8,0.1c-0.3,0-0.6,0-0.8,0c-1.4-0.2-1.6-0.6-3.1-1.2c-1.9-0.9-27.7-6.6-48.7-6.5
				c-21,0.1-39.8,1.5-42.9-1c-3.1-2.6-5-29,13-30.7l22,8.3c0,0,50.3-6,68.8,7.6C585.9,789.1,585.3,799.1,585.3,799.1z"/>
		</g>
		<g>
			<g>
				<path class="st1" d="M560.9,798.9c-0.5,0-1.2,0-1.8,0.1c-0.5-0.7-1.4-2-1.9-2.6c-5.7-5.8-19.4-9.5-24.4-10.7
					c-0.5-0.1-0.8-0.6-0.6-1c0.1-0.5,0.6-0.7,1-0.6c7.2,1.8,22.6,6.2,27,13.6C560.3,797.7,560.7,798.4,560.9,798.9z"/>
			</g>
		</g>
		<g>
			<g>
				<path class="st1" d="M570.8,798.8c-0.7,0-1.3,0-2-0.1c-6.2-11.3-16.3-14.5-28.9-18.6l-0.8-0.2c-0.4-0.1-0.7-0.6-0.5-1.1
					c0.1-0.4,0.6-0.7,1.1-0.5l0.7,0.2C553.7,782.8,564.4,786.2,570.8,798.8z"/>
			</g>
		</g>
		<g>
			<g>
				<path class="st1" d="M581.1,799c-0.6,0-1.3,0-1.9,0c-3.8-7.9-16.2-21.1-32.7-24.2c-0.5-0.1-0.8-0.5-0.7-1c0.1-0.5,0.5-0.8,1-0.7
					C563.8,776.3,577.5,790.2,581.1,799z"/>
			</g>
		</g>
	</g>
	<g>
		<path class="st1" d="M448,400.3c0,0,10.3-4.9,17.6-18.8c7.3-13.9,6.3-26.3,6.3-26.3s13.2-2.1,32.9,3.8c19.7,5.9,43.2,13.9,63,2.6
			s19.7-29.4,10.1-36.9c-10.8-8.4-32.2-3.3-32.2-3.3s8.2-8,3.8-12.7c-4.5-4.7-20.7,1.4-20.7,1.4s-19.7-15.7-57.1-13.9
			c-37.4,1.9-55.2,28-57.3,57.1c-2.1,29.1,8.5,58.3,8.5,58.3L448,400.3z"/>
	</g>
	<g>
		<g>
			<path class="st6" d="M523.8,407.4c-2.1,5.2-2.1,11.3-2.6,16.8c-0.4,4.3-1.2,9.3,2.8,12.3c1.9,1.4,10.8,5.1,6.2,8.2
				c-1.8,1.2-4.7,0.8-6.7,0.8c-1.4-0.1-2.8-0.1-4.1-0.2c-1.5-0.1-2.9-0.5-4.4-0.6c-0.9,0-1.1,1.1-0.4,1.6c2.4,1.5,5.8,2,8.6,2
				c2.8,0.1,4.6,0,7.1-1.3c1.5-0.8,3-1.8,3.3-3.7c0.3-2-1.3-3.9-2.8-5c-1.8-1.3-4-1.9-5.8-3.2c-2.5-1.8-2.3-4.8-2.1-7.5
				c0.4-6.7,2-13.3,2.5-19.9C525.5,406.6,524.1,406.6,523.8,407.4L523.8,407.4z"/>
		</g>
	</g>
	<g>
		<path class="st1" d="M543,423c-0.7,4-3.6,6.8-6.4,6.3c-2.8-0.5-4.6-4.1-3.9-8.1c0.7-4,3.6-6.8,6.4-6.3
			C541.9,415.4,543.7,419,543,423z"/>
	</g>
	<g>
		<path class="st1" d="M507,419.9c-0.6,4.3-3.6,7.4-6.7,6.9c-3.1-0.5-5-4.3-4.4-8.6c0.6-4.3,3.6-7.4,6.7-6.9
			C505.7,411.8,507.7,415.6,507,419.9z"/>
	</g>
	<g>
		<g>
			<path class="st1" d="M534.6,406.7c2.2,0.4,4.4,0,6.6,0.1c0.5,0,1.1,0.1,1.6,0.2c0.4,0-0.7-0.1-0.2,0c0.1,0,0.2,0,0.3,0
				c0.3,0,0.5,0.1,0.8,0.2c0.5,0.1,0.9,0.3,1.4,0.4c0.4,0.1,0.9,0.2,1.3,0.2c0.2,0,0.5-0.1,0.7-0.1c-0.2,0-0.3,0-0.5,0.1
				c0,0,0.8-0.1,0.9-0.1c1.3-0.3,2-1.8,1.7-3c-0.1-0.4-0.3-0.7-0.5-1c-0.1-0.1-0.2-0.2-0.3-0.4c0.1,0.1,0.2,0.2,0.3,0.3
				c-0.1-0.1-0.2-0.3-0.3-0.4c-0.1-0.2-0.3-0.4-0.5-0.5c-0.2-0.1-0.3-0.3-0.5-0.4c-0.6-0.4-1.3-0.6-2-0.8c-1.3-0.3-2.7-0.5-4-0.5
				c-1.3,0-2.7,0.1-4,0.3c-1.2,0.2-2.5,0.5-3.4,1.3c-0.7,0.5-1.2,1.3-1.1,2.2C533.1,405.6,533.8,406.5,534.6,406.7L534.6,406.7z"/>
		</g>
	</g>
	<g>
		<g>
			<path class="st1" d="M509.5,400.4c-0.3-0.2-0.6-0.3-0.9-0.5c-0.3-0.1-1-0.5-0.5-0.2c-0.2-0.1-0.4-0.2-0.6-0.3
				c-0.9-0.5-1.9-0.8-2.8-1c-2.1-0.5-4.4-0.7-6.6-0.5c-2.4,0.2-4.5,0.8-6.5,2c-0.3,0.2-0.6,0.4-0.8,0.6c-0.2,0.2-0.3,0.4-0.5,0.6
				c0-0.1,0.1-0.1,0.1-0.2c-0.6,0.4-1,1.2-1,1.9c0,0.7,0.4,1.3,1,1.7c0.8,0.4,1.5,0.2,2.3,0c-0.4,0-0.8,0-1.2,0
				c0.7,0.1,1.1,0.1,1.8,0c0,0,0.6-0.1,0.2-0.1c-0.4,0.1,0.6-0.1,0.8-0.1c0.1,0,0.8-0.1,0.1,0c0.1,0,0.3,0,0.4,0
				c0.4,0,0.7-0.1,1.1-0.1c1.5-0.1,3.1-0.2,4.6-0.2c1.4,0,2.9-0.1,4.4,0c0.6,0,1.2,0,1.9,0.1c0.4,0,0.2,0.1,0,0
				c0.1,0,0.3,0.1,0.4,0.1c0.3,0.1,0.5,0.1,0.8,0.2c1,0.4,2.2-0.3,2.6-1.3C510.8,402.1,510.5,401,509.5,400.4L509.5,400.4z"/>
		</g>
	</g>
	<g>
		<path class="st1" d="M520.7,465.7c2.2-4.3,6.1-7.5,10.6-9.5c-3.9-0.4-22.5-2.1-27.2,0.5c-5.3,3,1,15,11.8,15.6
			c1.2,0.1,2.2,0,3.2-0.2C519.2,469.9,519.7,467.7,520.7,465.7z"/>
	</g>
	<g>
		<path class="st7" d="M434.8,440.5c0,0,1.9,7.3,12.7,15.7s26.5,14.6,26.5,14.6l1.3-5.5c0,0-16.2-7-23.7-14.8
			c-7.5-7.8-8.5-12-8.5-12L434.8,440.5z"/>
	</g>
	<g>
		<path class="st1" d="M477.1,461.3c8.7-0.4,13.5,6.5,14.1,10.9c0.6,4.5-3.6,9.4-13.4,5C465.8,471.9,468.4,461.8,477.1,461.3z"/>
	</g>
	<g>
		<path class="st7" d="M441.6,386.7c0,0,3.8-27,21.9-45.4c34.5-35,63.9-32.9,63.9-32.9s-0.2-4.9-11.3-8.7c-10.4-3.5-15-1.6-15-1.6
			s-28.4,2.4-52.4,28.9s-26.5,60.4-26.5,60.4L441.6,386.7z"/>
	</g>
	<g>
		<g>
			<path class="st2" d="M439.1,383.4c-22.6-3.8-35.2,13.9-36.2,31.7c-0.9,17.9,12,31.4,29.4,30.1
				C471.2,442.1,466.8,388.1,439.1,383.4z"/>
		</g>
		<g>
			<path class="st8" d="M427.8,427.8c-6,0-11-3-13.9-8.3c-3.1-5.7-2.8-12.6,0.7-17.8c0.3-0.4,0.8-0.5,1.2-0.2s0.5,0.8,0.2,1.2
				c-3.1,4.6-3.4,10.9-0.6,16c2.6,4.9,7.3,7.6,12.9,7.4c5.2-0.1,9.5-2.5,12.3-6.7c3.2-4.7,3.9-11.3,1.9-16.7c-2-5.4-7.6-9-12.7-8.3
				c-0.5,0.1-0.9-0.3-1-0.7c-0.1-0.5,0.3-0.9,0.7-1c5.9-0.8,12.2,3.3,14.5,9.4c2.2,5.9,1.4,13.1-2,18.2c-3.1,4.6-8,7.3-13.7,7.4
				C428.1,427.8,427.9,427.8,427.8,427.8z"/>
		</g>
	</g>
	<g>
		<path class="st1" d="M411.3,501.6c0,0-68.6,16.9-92.6,44.2c-24,27.2-35.2,161.6-35.7,186.6s16.9,35.2,27.3,42.3
			s55.9,19.7,92.6,21.6c36.6,1.9,71.4,0,71.4,0s-0.1-8,5.5-19.7c5.2-10.9,11.9-13.2,11.9-13.2L460.2,752c0,0-5.5-98.8-14.1-146.6
			C436.2,550.5,411.3,501.6,411.3,501.6z"/>
	</g>
	<g>
		<path class="st5" d="M525,736.3c-0.2,0-0.3,0-0.5-0.1c-0.6-0.3-0.8-0.9-0.6-1.5c6.4-14.5,13.1-43,16.8-63l0.3-1.6
			c1.1-5.9,2.5-13.2-0.3-18.2c-1.4-2.6-4.7-8.2-7.8-13.5c-3.2-5.6-6.3-10.8-7.2-12.4c-1.7-3.1,3.6-11.3,11.1-22.5
			c2-3,3.8-5.7,4.8-7.4c2.7-4.7,0.9-8.9-1.2-13.8l-0.7-1.7c-1.9-4.6-4-9.2-6.1-13.7c-0.8-1.8-1.7-3.7-2.5-5.5
			c-1.1-2.4-2.2-4.9-3.3-7.4c-6.6-14.8-13.5-30.1-22.3-44.9c-0.3-0.5-0.1-1.2,0.4-1.6s1.2-0.1,1.6,0.4c8.9,14.9,15.7,30.3,22.4,45.1
			c1.1,2.5,2.2,5,3.3,7.4c0.8,1.8,1.7,3.7,2.5,5.5c2.1,4.5,4.2,9.1,6.1,13.8l0.7,1.7c2.1,5,4.3,10.2,1,15.9
			c-1.1,1.8-2.8,4.5-4.9,7.6c-3.9,5.9-12.1,18.1-11,20.2c0.8,1.5,3.9,6.8,7.1,12.3c3.1,5.4,6.4,11,7.8,13.6
			c3.2,5.8,1.7,13.5,0.5,19.8l-0.3,1.6c-1.4,7.3-8.6,44.5-17,63.5C525.9,736,525.5,736.3,525,736.3z"/>
	</g>
	<g>
		<path class="st5" d="M458.1,740.3c-0.3,0-0.6-0.1-0.8-0.3c-5.3-5.4-31.1-50-33-58.4c-1-4.6,1.6-16.2,4.1-27.5
			c2-8.7,4-17.8,3.4-20.2c-0.9-3.7-7.5-9-13.8-14.2c-7.7-6.3-15.6-12.8-17.2-18.6c-1.8-6.7-0.3-48.3,0.7-75.9
			c0.4-9.9,0.6-17.7,0.6-20.5c0-0.6,0.5-1.1,1.1-1.1l0,0c0.6,0,1.1,0.5,1.1,1.1c0,2.8-0.3,10.7-0.6,20.6
			c-0.9,25.8-2.5,68.9-0.8,75.2c1.4,5.1,9.4,11.7,16.4,17.5c7,5.7,13.5,11.1,14.6,15.5c0.7,3-1.2,11.4-3.4,21.2
			c-2.4,10.5-5.1,22.4-4.1,26.5c1.9,8.2,27.2,52,32.4,57.3c0.4,0.5,0.4,1.2,0,1.6C458.7,740.1,458.4,740.3,458.1,740.3z"/>
	</g>
	<g>
		<path class="st5" d="M365.8,720.8c0,0-0.1,0-0.1,0c-0.6-0.1-1.1-0.7-1-1.3c0.8-5.9,13.9-123.6,14.5-132.6c0-0.6,0.6-1.1,1.2-1.1
			c0.6,0,1.1,0.6,1.1,1.2c-0.6,9-13.6,126.8-14.5,132.7C366.8,720.3,366.3,720.8,365.8,720.8z"/>
	</g>
	<g>
		<path class="st5" d="M459.3,752.7c-0.1,0-0.3,0-0.4-0.1c-2.9-1.2-15.6-5.5-31.8-10.9c-32.6-11-77.3-26.1-85.8-30.5
			c-0.5-0.3-0.8-1-0.5-1.5c0.3-0.5,1-0.8,1.5-0.5c8.3,4.3,54.8,20,85.5,30.3c16.2,5.5,29,9.8,31.9,11c0.6,0.2,0.9,0.9,0.6,1.5
			C460.1,752.4,459.7,752.7,459.3,752.7z"/>
	</g>
	<g>
		<path class="st5" d="M443.6,799.5c-28.7,0-84.3-5.2-126.6-20.1c-0.6-0.2-0.9-0.9-0.7-1.5c0.2-0.6,0.9-0.9,1.4-0.7
			c53.4,18.9,128.1,22.1,142,19c0.6-0.1,1.2,0.2,1.4,0.9c0.1,0.6-0.2,1.2-0.9,1.3C457.2,799.2,451.4,799.5,443.6,799.5z"/>
	</g>
</g>
<g>
	<g>
		<g>
			<path class="st9" d="M115.1,517.4c8.9,7.8,20.2,12.9,28,21.9c3.1,3.6,5.8,7.4,8.7,11.1c2.1,2.7,7.6,7.2,8.5,10.7
				c0.4,1.5,0.3-0.5-0.1-2c0-0.1-0.1-0.1-0.1-0.2c-0.8-6.9-1.3-13.9-1.6-20.8c-0.2-7,0.2-13.9-0.2-20.9c-0.6-9.8-3.7-19.3-11.7-25.4
				c-3.9-3-8.9-4.8-12.5-8.1c-3.4-3.2-2.1-6.8,0-10.3c1.9-3.3,4.1-6.5,4.9-10.3c0.8-4.3-0.8-8.8-3-12.4c-4.6-7.8-15-16.5-24.8-15.4
				c-8.2,1-9.1,10.4-9,16.9c0.1,6.4,0.8,12.7,0.8,19.1c0.1,6.5-1,13-1.2,19.5C101.8,501.8,106.9,510.3,115.1,517.4z"/>
			<path class="st9" d="M197.9,619.1c2.5-5.9,5.3-11.5,8.8-16.8c4.8-7.4,10.1-14.6,13.4-22.8c3.3-8.4,2.8-17.5,3.1-26.4
				c0.2-6.5,2.2-13,1.6-19.6c-0.2-3.2-2.1-8.2-6.1-7.7c-3.2,0.4-5,4.3-6.3,6.8c-2.1,4.4-3.6,9-5.2,13.6c-0.6,1.8-1.2,3.6-2,5.3
				c-0.4,1-1.9,3.5-3.3,3.1c-2.3-0.6-0.2-10,0.1-11.7c1.7-8.4,4.3-16.2,4.7-24.8c0.5-12.5-0.4-27.4-12.7-34.2
				c-3.2-1.8-7.2-2.9-10.3-0.2c-3,2.6-3.8,7.2-4.3,11c-1.4,11.5,1.4,22.5,5.1,33.4c3.1,9,6.7,18.2,7,27.8c0.3,9.2-4.6,17.4-6.8,26.2
				c-3.6,13.9-2.9,21.3-2.9,25.8c0,5.7,0.2,11.2,0.6,16.8c0.4,5.2,0.8,10.3,1.5,15.5c0.1,1,0.2,2.1,0.4,3.2
				c-2-4.8-2.7-10.3-4.3-15.1c-2.9-8.5-6.3-16.9-9.1-25.5c-2.3-7.1-4.5-14.2-7.6-21.1c-2.9-6.4-6.3-13.2-11.7-17.9
				c-3.2-2.8-7.2-4.5-11.5-4.5c-2.8,0-5.3,1-7.9,1.7c-3.3,0.9-5.8,0.6-8.5-1.5c-8.8-6.7-11.4-18.8-17.9-27.4
				c-4.8-6.4-16.3-17.2-24.8-10.3c-4.5,3.7-5.7,10.8-5.5,16.3c0.3,6.8,3.3,13.1,6.8,18.8c3.8,6.1,8.7,11.5,12.2,17.8
				c2.1,3.7,2.4,7.2,2.1,11.4c-0.3,3.9-0.6,7.7,0.7,11.5c4,11.4,16.6,9.8,26.3,10.1c6.8,0.2,14.2,1.2,20.6,3.4
				c7.5,2.5,12.4,7.4,15.1,14.8c1.9,5.4,3,11.5,6.6,16c1.7,2.1,4,3.7,6.5,4.8c3.8,1.7,15.4,2.4,15.5,1.3c0.3-3.5,2-7.3,3-10.7
				C193,631.4,195.3,625.2,197.9,619.1z"/>
			<path class="st9" d="M251.8,617c-1-6.5-0.8-13.7-3.9-19.7c-0.2-0.4-0.8-0.5-1.2-0.3c-2.2,1.2-2.3,4.8-2.5,7
				c-0.3,3.6-0.1,7.3-0.5,10.9c-0.8,6.3-2.3,12.9-4.5,18.9c-2.6,6.8-7.3,10.6-14.1,12.7c-4.4,1.3-8.7,2.5-12.4,5.5
				c-3.3,2.6-5.6,6.2-7.3,10c-4.6,10.2-6.7,21.7-8.9,32.6c-1.4,7.4-2.6,14.8-4.4,22.1c-1.8,7.3-3.7,14.5-4.7,22
				c-0.2,0.4-0.4,0.8-0.5,1.1c-0.5,1.1,1.3,1.7,1.9,0.8c7.1-10.9,15.6-20.6,27.4-26.6c5.3-2.7,12.3-3.3,16.7-7.5
				c3.4-3.2,3.8-8.2,3.3-12.6c-0.7-5.8-3.4-10.5-6.3-15.4c-1.6-2.7-3.4-5.6-2.8-8.9c0.6-3.1,3.2-5.4,5.7-7c4.9-3,10.6-4.4,14.6-8.8
				c3.7-4,5.8-9.1,6.2-14.5C254.1,632,252.9,624.2,251.8,617z"/>
			<path class="st9" d="M155.5,654.5c-6.2-8-13.7-14.9-22.2-20.6c-4.5-3-15.2-8.9-17.3-0.1c-1.3,5.2,3.8,10.3,7.2,13.5
				c5,4.9,10.8,9.1,15,14.7c-5.2,1.7-10.7,2-15.3,5.6c-5.4,4.3-7.8,12.6-2.5,17.8c2.6,2.6,6.1,4.1,9.3,5.7c4.2,2,8.5,3.9,12.8,5.7
				c9.3,3.9,18.8,7.8,26.7,14.2c8.1,6.5,15.7,17.5,16.4,28.1c0.1,1-0.3,0.1,0.3-0.4c0.3,0.3,1.4-0.2,1.4-0.8
				c-0.2-15.8-3-30.7-9.4-45.2C172.1,679.6,164.5,666.1,155.5,654.5z"/>
		</g>
		<g>
			<path class="st10" d="M134,507.9c3.4,7.1,7,14.1,10.8,21c3.7,6.7,7.3,13.3,10.1,20.5c3.4,8.8,6.9,17.5,10.5,26.2
				c3.7,9.1,7,18.3,9.7,27.7c5.2,18.4,9.1,37.3,11,56.4c1,9.7,1.4,19.4,1.1,29.1c-0.2,7.6-1.1,15.1-1.8,22.7
				c-0.8,7.9-1.3,15.8-0.6,23.7c0.6,6.6,1.6,14.4,6.7,19.1c1,0.9,2.4-0.2,1.8-1.4c-6.1-12.5-5.7-26.1-4.6-39.6
				c0.6-7.5,1.5-14.9,1.8-22.4c0.3-9.5-0.1-19.1-0.9-28.6c-1.8-18.7-5.5-37.1-10.3-55.2c-2.5-9.3-5.5-18.4-9.1-27.3
				c-3.5-9-7.6-17.7-11.1-26.7c-6.2-16.3-15.6-30.7-24-45.9C134.8,506.4,133.6,507.1,134,507.9L134,507.9z"/>
		</g>
		<g>
			<path class="st10" d="M186.4,641c1-11.9,2-23.3,6-34.6c1.9-5.3,4.1-10.4,5.9-15.7c1.5-4.4,3.7-10.4,2.6-15c-0.1-0.5-0.9-0.5-1,0
				c-0.8,2.7-0.7,5.6-1.2,8.3c-0.5,2.7-1.3,5.3-2.1,7.8c-1.8,5.5-4.1,10.7-6,16.1c-3.8,10.4-5.8,22-5,33
				C185.6,641.5,186.4,641.5,186.4,641L186.4,641z"/>
		</g>
		<g>
			<path class="st10" d="M117.7,572.9c4.7,11.4,18.9,12,29.2,14.6c7.4,1.8,12.8,6.7,16.7,13.1c4.3,7,7.1,15.2,9.5,22.9
				c0,0.1,0.1,0,0.1,0c-2.9-13.6-7-30-21.1-36.4c-11.3-5.1-26.1-2.5-33.3-14.7C118.5,571.8,117.4,572.2,117.7,572.9L117.7,572.9z"/>
		</g>
		<g>
			<path class="st10" d="M179,639.2c0.6,0.8,1.1,1.5,1.6,2.3c0.3,0.4,0.6,0.7,0.9,1c0.4,0.3,0.8,0.7,1.3,0.7c0.2,0,0.4-0.2,0.2-0.4
				c-0.2-0.4-0.7-0.6-1-0.9c-0.3-0.3-0.7-0.6-1-0.9c-0.7-0.6-1.3-1.3-1.9-1.9C179.1,638.9,178.9,639,179,639.2L179,639.2z"/>
		</g>
		<g>
			<path class="st10" d="M149.6,675.3c8.1,6.7,15.6,14.5,21.6,23.2c2.9,4.1,5.5,8.5,7.9,12.9c2.6,4.8,4.3,9.9,6.3,15
				c0.1,0.4,0.9,0.4,0.8-0.1c-1.1-10.7-7.9-19.8-13.3-28.8c-2.8-4.6-6.3-8.3-10.1-12.2c-3.9-4-7.9-7.8-12.4-11
				C149.7,673.9,149,674.8,149.6,675.3L149.6,675.3z"/>
		</g>
		<g>
			<path class="st10" d="M214.2,662.7c-3.9,2.2-4,8.4-4.1,12.3c-0.1,7.6,1.7,14.7-1.6,21.9c-3,6.5-7.8,12-11.6,18
				c-3.5,5.7-7,12.9-6.9,19.7c0,0.4,0.6,0.6,0.8,0.2c1.4-3.1,1.9-6.6,2.9-9.9c1.1-3.7,2.8-7,4.8-10.2c3.6-5.6,8.1-10.7,11-16.8
				c3.1-6.4,2.6-12.7,2.4-19.6c-0.1-4.4-0.6-11.5,3-14.8C215.5,663.2,214.8,662.3,214.2,662.7L214.2,662.7z"/>
		</g>
	</g>
	<path class="st2" d="M188,735.4c-15.8-0.2-45.7-0.4-45.7-0.4l7.4,55.1c1.7,12.4,12.3,21.6,24.8,21.6h12.9h1.3h12.9
		c12.5,0,23.1-9.3,24.8-21.6l7.4-55.1C233.8,735,203.8,735.1,188,735.4z"/>
</g>
<g>
	<g>
		<g>
			<polygon class="st11" points="949.2,634.1 859.3,812 597.4,813.9 678.2,631.6 			"/>
		</g>
		<g>
			<path class="st12" d="M423.6,812.8l0-14.2h169.5l78-171.1h271.1l6.8,6.6H684.3l-81.1,178.6C603.2,812.7,423.6,812.3,423.6,812.8z
				"/>
		</g>
		<g>
			<path class="st12" d="M813.2,732.3c-3,8.9-19,15.7-35.9,15.3c-16.8-0.4-28.1-8-25.2-16.8c3-8.9,19-15.7,35.9-15.3
				C804.8,715.9,816.1,723.4,813.2,732.3z"/>
		</g>
	</g>
	<g>
		<path class="st2" d="M603.2,813.8c-0.2,0-0.3,0-0.5-0.1c-0.6-0.3-0.8-0.9-0.6-1.5L683.5,633h265.6c0.6,0,1.1,0.5,1.1,1.1
			s-0.5,1.1-1.1,1.1H685l-80.8,177.9C604,813.5,603.6,813.8,603.2,813.8z"/>
	</g>
</g>
<g>
	<g>
		<rect x="100.2" y="826.3" class="st13" width="311.5" height="69.1"/>
		<rect x="410" y="826.3" class="st14" width="560.6" height="69.1"/>
	</g>
	<polygon class="st15" points="411.8,826.3 410,826.3 100.2,826.3 100.2,839 410,839 411.8,839 970.6,839 970.6,826.3 	"/>
	<rect x="85.2" y="812.7" class="st16" width="340.2" height="16.9"/>
	<rect x="423.6" y="812.7" class="st17" width="560.6" height="16.9"/>
</g>
<g>
	<path class="st2" d="M338.5,450.2H217.8c-3.9,0-7-3.1-7-7v-65.6c0-3.9,3.1-7,7-7h120.6c3.9,0,7,3.1,7,7v65.6
		C345.5,447.1,342.3,450.2,338.5,450.2z"/>
	<polygon class="st2" points="376.8,410.5 335.5,393 335.5,427.9 	"/>
	<g>
		<circle class="st1" cx="252.1" cy="410.5" r="7.6"/>
		<circle class="st1" cx="278.1" cy="410.5" r="7.6"/>
		<circle class="st1" cx="304.2" cy="410.5" r="7.6"/>
	</g>
</g>
<g>
	<path class="st0" d="M893.1,201.8H639.2c-16.3,0-29.5,13.2-29.5,29.5v120.5c0,16.3,13.2,29.5,29.5,29.5h22.8
		c0.6,10.9-0.9,27.2-10,47.9c29.3-13.5,46.2-33.9,55.1-47.9h186.1c16.3,0,29.5-13.2,29.5-29.5V231.3
		C922.6,215,909.4,201.8,893.1,201.8z"/>
	<path class="st2" d="M784.8,259.2H658.8c-3.5,0-6.3-2.8-6.3-6.3l0,0c0-3.4,2.8-6.3,6.3-6.3h125.9c3.5,0,6.3,2.8,6.3,6.3l0,0
		C791,256.4,788.2,259.2,784.8,259.2z"/>
	<path class="st18" d="M875.1,295.7H656.4c-2.1,0-3.8-1.7-3.8-3.8l0,0c0-2.1,1.7-3.8,3.8-3.8h218.7c2.1,0,3.8,1.7,3.8,3.8l0,0
		C878.9,294,877.2,295.7,875.1,295.7z"/>
	<path class="st18" d="M875.1,317H656.4c-2.1,0-3.8-1.7-3.8-3.8l0,0c0-2.1,1.7-3.8,3.8-3.8h218.7c2.1,0,3.8,1.7,3.8,3.8l0,0
		C878.9,315.3,877.2,317,875.1,317z"/>
	<path class="st18" d="M827.4,339.7h-171c-2.1,0-3.8-1.7-3.8-3.8l0,0c0-2.1,1.7-3.8,3.8-3.8h171c2.1,0,3.8,1.7,3.8,3.8l0,0
		C831.2,338,829.5,339.7,827.4,339.7z"/>
	<path class="st2" d="M873.3,259.2h-60.1c-3.5,0-6.3-2.8-6.3-6.3l0,0c0-3.4,2.8-6.3,6.3-6.3h60.1c3.5,0,6.3,2.8,6.3,6.3l0,0
		C879.6,256.4,876.8,259.2,873.3,259.2z"/>
</g>
<g>
	<path class="st2" d="M723.9,536.2h-72.2c-1.4,0-2.6-1.2-2.6-2.6v-50.5c0-1.4,1.2-2.6,2.6-2.6h72.2c1.4,0,2.6,1.2,2.6,2.6v50.5
		C726.5,535,725.3,536.2,723.9,536.2z"/>
	<g>
		<g>
			<path class="st16" d="M688.3,516.7c-0.4,0-0.8-0.1-1.1-0.4l-37.1-30.7c-0.7-0.6-0.8-1.7-0.2-2.4c0.6-0.7,1.7-0.8,2.4-0.2l36,29.7
				l35.1-30.5c0.7-0.6,1.8-0.5,2.4,0.2c0.6,0.7,0.5,1.8-0.2,2.4l-36.2,31.5C689.1,516.5,688.7,516.7,688.3,516.7z"/>
		</g>
		<g>
			<path class="st16" d="M651.2,534.9c-0.4,0-0.8-0.2-1.2-0.5c-0.7-0.6-0.7-1.7-0.1-2.4l26-27.3c0.6-0.7,1.7-0.7,2.4-0.1
				c0.7,0.6,0.7,1.7,0.1,2.4l-26,27.3C652.1,534.7,651.6,534.9,651.2,534.9z"/>
		</g>
		<g>
			<path class="st16" d="M724.5,533.9c-0.4,0-0.9-0.2-1.2-0.5l-25.9-25.9c-0.7-0.7-0.7-1.7,0-2.4c0.7-0.7,1.7-0.7,2.4,0l25.9,25.9
				c0.7,0.7,0.7,1.7,0,2.4C725.3,533.8,724.9,533.9,724.5,533.9z"/>
		</g>
	</g>
	<g>
		<g>
			<circle class="st19" cx="730" cy="478.8" r="22.8"/>
		</g>
		<text transform="matrix(1 0 0 1 713.9961 488.4063)" class="st2 st20 st21">85</text>
	</g>
</g>
<g>
	<g>
		<path class="st1" d="M962.8,470.4h-141c-2.8,0-5.2-2.3-5.2-5.2v-28.7c0-2.9,2.3-5.2,5.2-5.2h141c2.8,0,5.2,2.3,5.2,5.2v28.7
			C968,468.1,965.7,470.4,962.8,470.4z"/>
	</g>
	<g>
		<path class="st2" d="M835.4,461.1c-0.6,0-1.1-0.2-1.4-0.6c-0.4-0.4-0.5-1-0.5-1.6l0.6-5c0-0.1,0-0.2-0.1-0.3c-0.1,0-0.2,0-0.3,0.1
			l-4.2,3c-0.5,0.4-1,0.5-1.6,0.4c-0.5-0.1-1-0.4-1.3-1c-0.4-0.7-0.5-1.3-0.2-1.8c0.2-0.5,0.6-0.9,1.2-1.1l4.7-2.1
			c0.1,0,0.2-0.1,0.2-0.2s-0.1-0.1-0.2-0.2l-4.7-2.1c-0.6-0.3-1-0.7-1.2-1.2c-0.2-0.5-0.1-1.1,0.2-1.7c0.3-0.5,0.8-0.9,1.3-1
			c0.5-0.1,1.1,0,1.6,0.4l4.2,3.1c0.1,0.1,0.2,0.1,0.3,0.1s0.1-0.1,0.1-0.3l-0.6-5c0-0.6,0.1-1.2,0.5-1.6s0.9-0.6,1.5-0.6
			c0.6,0,1.1,0.2,1.5,0.6c0.4,0.4,0.5,1,0.5,1.6l-0.6,5c0,0.1,0,0.2,0.1,0.3s0.2,0,0.3-0.1l4.2-3c0.5-0.4,1.1-0.5,1.6-0.4
			c0.6,0.1,1,0.4,1.3,1c0.4,0.7,0.5,1.3,0.2,1.8c-0.2,0.5-0.6,0.9-1.2,1.1l-4.7,2.1c-0.1,0-0.2,0.1-0.2,0.2s0.1,0.1,0.2,0.2l4.7,2.1
			c0.6,0.3,1,0.7,1.2,1.2c0.2,0.5,0.1,1.1-0.2,1.7c-0.3,0.5-0.7,0.9-1.3,1c-0.6,0.1-1.1,0-1.6-0.4l-4.2-3.1
			c-0.1-0.1-0.2-0.1-0.3-0.1s-0.1,0.1-0.1,0.3l0.6,5c0.1,0.6-0.1,1.2-0.5,1.6C836.5,460.9,836,461.1,835.4,461.1z"/>
	</g>
	<g>
		<path class="st2" d="M862.9,461.1c-0.6,0-1.1-0.2-1.4-0.6c-0.4-0.4-0.5-1-0.5-1.6l0.6-5c0-0.1,0-0.2-0.1-0.3c-0.1,0-0.2,0-0.3,0.1
			l-4.2,3c-0.5,0.4-1,0.5-1.6,0.4c-0.5-0.1-1-0.4-1.3-1c-0.4-0.7-0.5-1.3-0.2-1.8c0.2-0.5,0.6-0.9,1.2-1.1l4.7-2.1
			c0.1,0,0.2-0.1,0.2-0.2s-0.1-0.1-0.2-0.2l-4.7-2.1c-0.6-0.3-1-0.7-1.2-1.2c-0.2-0.5-0.1-1.1,0.2-1.7c0.3-0.5,0.8-0.9,1.3-1
			c0.5-0.1,1.1,0,1.6,0.4l4.2,3.1c0.1,0.1,0.2,0.1,0.3,0.1s0.1-0.1,0.1-0.3l-0.6-5c0-0.6,0.1-1.2,0.5-1.6s0.9-0.6,1.5-0.6
			c0.6,0,1.1,0.2,1.5,0.6c0.4,0.4,0.5,1,0.5,1.6l-0.6,5c0,0.1,0,0.2,0.1,0.3s0.2,0,0.3-0.1l4.2-3c0.5-0.4,1.1-0.5,1.6-0.4
			c0.6,0.1,1,0.4,1.3,1c0.4,0.7,0.5,1.3,0.2,1.8c-0.2,0.5-0.6,0.9-1.2,1.1l-4.7,2.1c-0.1,0-0.2,0.1-0.2,0.2s0.1,0.1,0.2,0.2l4.7,2.1
			c0.6,0.3,1,0.7,1.2,1.2c0.2,0.5,0.1,1.1-0.2,1.7c-0.3,0.5-0.7,0.9-1.3,1c-0.6,0.1-1.1,0-1.6-0.4l-4.2-3.1
			c-0.1-0.1-0.2-0.1-0.3-0.1s-0.1,0.1-0.1,0.3l0.6,5c0.1,0.6-0.1,1.2-0.5,1.6C864.1,460.9,863.6,461.1,862.9,461.1z"/>
	</g>
	<g>
		<path class="st2" d="M890.5,461.1c-0.6,0-1.1-0.2-1.4-0.6c-0.4-0.4-0.5-1-0.5-1.6l0.6-5c0-0.1,0-0.2-0.1-0.3c-0.1,0-0.2,0-0.3,0.1
			l-4.2,3c-0.5,0.4-1,0.5-1.6,0.4c-0.5-0.1-1-0.4-1.3-1c-0.4-0.7-0.5-1.3-0.2-1.8c0.2-0.5,0.6-0.9,1.2-1.1l4.7-2.1
			c0.1,0,0.2-0.1,0.2-0.2s-0.1-0.1-0.2-0.2l-4.7-2.1c-0.6-0.3-1-0.7-1.2-1.2c-0.2-0.5-0.1-1.1,0.2-1.7c0.3-0.5,0.8-0.9,1.3-1
			c0.5-0.1,1.1,0,1.6,0.4l4.2,3.1c0.1,0.1,0.2,0.1,0.3,0.1s0.1-0.1,0.1-0.3l-0.6-5c0-0.6,0.1-1.2,0.5-1.6s0.9-0.6,1.5-0.6
			c0.6,0,1.1,0.2,1.5,0.6c0.4,0.4,0.5,1,0.5,1.6l-0.6,5c0,0.1,0,0.2,0.1,0.3s0.2,0,0.3-0.1l4.2-3c0.5-0.4,1.1-0.5,1.6-0.4
			c0.6,0.1,1,0.4,1.3,1c0.4,0.7,0.5,1.3,0.2,1.8c-0.2,0.5-0.6,0.9-1.2,1.1l-4.7,2.1c-0.1,0-0.2,0.1-0.2,0.2s0.1,0.1,0.2,0.2l4.7,2.1
			c0.6,0.3,1,0.7,1.2,1.2c0.2,0.5,0.1,1.1-0.2,1.7c-0.3,0.5-0.7,0.9-1.3,1c-0.6,0.1-1.1,0-1.6-0.4l-4.2-3.1
			c-0.1-0.1-0.2-0.1-0.3-0.1s-0.1,0.1-0.1,0.3l0.6,5c0.1,0.6-0.1,1.2-0.5,1.6C891.6,460.9,891.1,461.1,890.5,461.1z"/>
	</g>
	<g>
		<path class="st2" d="M918,461.1c-0.6,0-1.1-0.2-1.4-0.6c-0.4-0.4-0.5-1-0.5-1.6l0.6-5c0-0.1,0-0.2-0.1-0.3c-0.1,0-0.2,0-0.3,0.1
			l-4.2,3c-0.5,0.4-1,0.5-1.6,0.4c-0.5-0.1-1-0.4-1.3-1c-0.4-0.7-0.5-1.3-0.2-1.8c0.2-0.5,0.6-0.9,1.2-1.1l4.7-2.1
			c0.1,0,0.2-0.1,0.2-0.2s-0.1-0.1-0.2-0.2l-4.7-2.1c-0.6-0.3-1-0.7-1.2-1.2s-0.1-1.1,0.2-1.7c0.3-0.5,0.8-0.9,1.3-1
			c0.5-0.1,1.1,0,1.6,0.4l4.2,3.1c0.1,0.1,0.2,0.1,0.3,0.1s0.1-0.1,0.1-0.3l-0.6-5c0-0.6,0.1-1.2,0.5-1.6s0.9-0.6,1.5-0.6
			c0.6,0,1.1,0.2,1.5,0.6c0.4,0.4,0.5,1,0.5,1.6l-0.6,5c0,0.1,0,0.2,0.1,0.3s0.2,0,0.3-0.1l4.2-3c0.5-0.4,1.1-0.5,1.6-0.4
			c0.6,0.1,1,0.4,1.3,1c0.4,0.7,0.5,1.3,0.2,1.8c-0.2,0.5-0.6,0.9-1.2,1.1l-4.7,2.1c-0.1,0-0.2,0.1-0.2,0.2s0.1,0.1,0.2,0.2l4.7,2.1
			c0.6,0.3,1,0.7,1.2,1.2s0.1,1.1-0.2,1.7c-0.3,0.5-0.7,0.9-1.3,1c-0.6,0.1-1.1,0-1.6-0.4l-4.2-3.1c-0.1-0.1-0.2-0.1-0.3-0.1
			s-0.1,0.1-0.1,0.3l0.6,5c0.1,0.6-0.1,1.2-0.5,1.6C919.2,460.9,918.7,461.1,918,461.1z"/>
	</g>
	<g>
		<path class="st22" d="M945.5,461.1c-0.6,0-1.1-0.2-1.4-0.6c-0.4-0.4-0.5-1-0.5-1.6l0.6-5c0-0.1,0-0.2-0.1-0.3
			c-0.1,0-0.2,0-0.3,0.1l-4.2,3c-0.5,0.4-1,0.5-1.6,0.4c-0.5-0.1-1-0.4-1.3-1c-0.4-0.7-0.5-1.3-0.2-1.8c0.2-0.5,0.6-0.9,1.2-1.1
			l4.7-2.1c0.1,0,0.2-0.1,0.2-0.2s-0.1-0.1-0.2-0.2l-4.7-2.1c-0.6-0.3-1-0.7-1.2-1.2s-0.1-1.1,0.2-1.7c0.3-0.5,0.8-0.9,1.3-1
			c0.5-0.1,1.1,0,1.6,0.4l4.2,3.1c0.1,0.1,0.2,0.1,0.3,0.1s0.1-0.1,0.1-0.3l-0.6-5c0-0.6,0.1-1.2,0.5-1.6s0.9-0.6,1.5-0.6
			c0.6,0,1.1,0.2,1.5,0.6c0.4,0.4,0.5,1,0.5,1.6l-0.6,5c0,0.1,0,0.2,0.1,0.3s0.2,0,0.3-0.1l4.2-3c0.5-0.4,1.1-0.5,1.6-0.4
			c0.6,0.1,1,0.4,1.3,1c0.4,0.7,0.5,1.3,0.2,1.8c-0.2,0.5-0.6,0.9-1.2,1.1l-4.7,2.1c-0.1,0-0.2,0.1-0.2,0.2s0.1,0.1,0.2,0.2l4.7,2.1
			c0.6,0.3,1,0.7,1.2,1.2s0.1,1.1-0.2,1.7c-0.3,0.5-0.7,0.9-1.3,1c-0.6,0.1-1.1,0-1.6-0.4l-4.2-3.1c-0.1-0.1-0.2-0.1-0.3-0.1
			s-0.1,0.1-0.1,0.3l0.6,5c0.1,0.6-0.1,1.2-0.5,1.6C946.7,460.9,946.2,461.1,945.5,461.1z"/>
	</g>
</g>
</svg>
