<?xml version="1.0" encoding="utf-8"?>
<!-- Generator: Adobe Illustrator 24.0.0, SVG Export Plug-In . SVG Version: 6.00 Build 0)  -->
<svg version="1.1" id="Layer_1" xmlns="http://www.w3.org/2000/svg" xmlns:xlink="http://www.w3.org/1999/xlink" x="0px" y="0px"
	 viewBox="0 0 1000 1000" style="enable-background:new 0 0 1000 1000;" xml:space="preserve">
<style type="text/css">
	.st0{opacity:0.4;fill:#12213A;}
	.st1{fill:#1A2E35;}
	.st2{opacity:0.2;fill:#006838;enable-background:new    ;}
	.st3{fill:none;stroke:#1A2E35;stroke-width:0.9024;stroke-linecap:round;stroke-linejoin:round;stroke-miterlimit:10;}
	.st4{fill:#006838;}
	.st5{opacity:0.2;enable-background:new    ;}
	.st6{fill:#007CFF;}
	.st7{opacity:0.3;fill:#FFFFFF;}
	.st8{opacity:0.3;fill:#FFFFFF;enable-background:new    ;}
	.st9{opacity:0.6;enable-background:new    ;}
	.st10{fill:#FFFFFF;}
	.st11{fill:#FAB373;}
	.st12{opacity:0.6;fill:#FFFFFF;enable-background:new    ;}
	.st13{opacity:0.7;fill:#FFFFFF;enable-background:new    ;}
	.st14{fill:#FCB373;}
	.st15{fill:#EC873E;}
	.st16{fill:#FD5652;}
	.st17{fill:#FFC3BD;}
	.st18{opacity:0.5;}
	.st19{opacity:0.1;fill:#FFFFFF;enable-background:new    ;}
	.st20{opacity:0.2;fill:#FFFFFF;enable-background:new    ;}
	.st21{fill:#EB827E;}
	.st22{fill:none;stroke:#1A2E35;stroke-width:0.6017;stroke-miterlimit:10;}
	.st23{fill:none;stroke:#1A2E35;stroke-width:0.75;stroke-linecap:round;stroke-linejoin:round;stroke-miterlimit:10;}
	.st24{opacity:0.4;enable-background:new    ;}
</style>
<ellipse id="_x3C_Path_x3E__359_" class="st0" cx="499.37" cy="781.25" rx="499.37" ry="29.16"/>
<g>
	<path class="st1" d="M93.05,707.93c0,0-3.58-26.21-20.33-29.07c-16.76-2.87-11.71-15.54-16.07-20.44c-4.37-4.9-15.77,9.56-6,23.58
		c9.77,14.02,1.78,9.61,6,22.65C60.87,717.67,94.59,729.65,93.05,707.93z"/>
	<path class="st2" d="M93.05,707.93c0,0-3.58-26.21-20.33-29.07c-16.76-2.87-11.71-15.54-16.07-20.44c-4.37-4.9-15.77,9.56-6,23.58
		c9.77,14.02,1.78,9.61,6,22.65C60.87,717.67,94.59,729.65,93.05,707.93z"/>
	<path class="st3" d="M92.36,724.94c0,0-12.84-26.69-6.1-70.26c6.74-43.56,32.07-60.47,10.05-108.41
		c-22.01-47.94-47.17-82.12-34.59-116.13"/>
	<path class="st4" d="M77.18,722.11c0,0-11.98-18.05,5.31-27.33c17.29-9.28,20.75-1.81,31.45-8.48c10.7-6.67,18.8-22.84,20.62-12.5
		c1.82,10.34-10.53,16.25-6.16,20.98C132.77,699.51,99.32,730.24,77.18,722.11z"/>
	<g>
		<path class="st4" d="M57.13,443.77c0,0-10.56-32.08,13.45-32.75C94.58,410.35,68.12,440.35,57.13,443.77z"/>
		<path class="st4" d="M77.98,468.43c0,0,7.15-29.17,24.19-23.01C119.2,451.57,94.96,468.97,77.98,468.43z"/>
		<path class="st4" d="M49.08,470.96c0,0,2.57-23.28-15.51-23.74C15.49,446.76,23.54,467.2,49.08,470.96z"/>
		<path class="st4" d="M61.1,518.44c0,0-24.26-21.63-32.99-5.53C19.39,529,46.42,532.35,61.1,518.44z"/>
		<path class="st4" d="M104.03,514.6c0,0,4.56-35.92,24.16-24.65C147.78,501.21,121.1,518.19,104.03,514.6z"/>
		<path class="st4" d="M121.27,566.03c0,0-14.47-36.29,12.41-32.21C160.56,537.91,140.24,557.22,121.27,566.03z"/>
		<path class="st4" d="M80.02,578.98c0,0-22.7-26.75-40.06-18.26C22.62,569.2,36.8,595.79,80.02,578.98z"/>
		<path class="st4" d="M100.63,638.24c0,0,19.34-42.95,36.54-28.47C154.36,624.24,126.2,645.88,100.63,638.24z"/>
		<path class="st4" d="M72.52,635.72c0,0,5.11-33.32-14.04-30.64C39.33,607.76,44.36,628.15,72.52,635.72z"/>
		<g class="st5">
			<path class="st4" d="M57.13,443.77c0,0-10.56-32.08,13.45-32.75C94.58,410.35,68.12,440.35,57.13,443.77z"/>
			<path class="st4" d="M77.98,468.43c0,0,7.15-29.17,24.19-23.01C119.2,451.57,94.96,468.97,77.98,468.43z"/>
			<path class="st4" d="M49.08,470.96c0,0,2.57-23.28-15.51-23.74C15.49,446.76,23.54,467.2,49.08,470.96z"/>
			<path class="st4" d="M61.1,518.44c0,0-24.26-21.63-32.99-5.53C19.39,529,46.42,532.35,61.1,518.44z"/>
			<path class="st4" d="M104.03,514.6c0,0,4.56-35.92,24.16-24.65C147.78,501.21,121.1,518.19,104.03,514.6z"/>
			<path class="st4" d="M121.27,566.03c0,0-14.47-36.29,12.41-32.21C160.56,537.91,140.24,557.22,121.27,566.03z"/>
			<path class="st4" d="M80.02,578.98c0,0-22.7-26.75-40.06-18.26C22.62,569.2,36.8,595.79,80.02,578.98z"/>
			<path class="st4" d="M100.63,638.24c0,0,19.34-42.95,36.54-28.47C154.36,624.24,126.2,645.88,100.63,638.24z"/>
			<path class="st4" d="M72.52,635.72c0,0,5.11-33.32-14.04-30.64C39.33,607.76,44.36,628.15,72.52,635.72z"/>
		</g>
	</g>
	<path class="st3" d="M43.06,463.33c0,0,10.32,15.34,24.45,23.25c0,0,9.34-18.03,16.63-22.4"/>
	<path class="st3" d="M42.48,516.29c0,0,26.25-0.85,47.04,14.86c0,0,11.54-19.56,26.68-28.47"/>
	<path class="st3" d="M129.19,548.84c0,0-11.27,29.66-25.66,41.2c0,0-29.82-17.29-51.73-17.72"/>
	<path class="st3" d="M60.69,615.89c0,0,14.74,28.77,25.73,35.05c0,0,10.27-14.49,32.5-21.16"/>
	<path class="st4" d="M84.35,715.81c0,0-9.29-14.78-19.78-16.89c-10.49-2.11-15.01-14.19-18.88-6.92
		C41.82,699.27,52.49,723.36,84.35,715.81z"/>
	<g>
		<polygon class="st6" points="36.14,773.84 137.56,773.84 144.35,711.28 29.36,711.28 		"/>
		<polygon class="st6" points="26.99,723.13 146.72,723.13 148.25,709.88 25.46,709.88 		"/>
		<polygon class="st7" points="26.99,723.13 146.72,723.13 148.25,709.88 25.46,709.88 		"/>
	</g>
</g>
<g>
	<g>
		<path class="st6" d="M950.11,722.33c2.1-3.52-0.86-8.82-4.96-8.88c1.8-5.05,0.02-11.16-4.2-14.46c-0.53-0.42-1.14-0.81-1.82-0.81
			c-0.73,0-1.37,0.44-1.96,0.86c-3.86,2.77-7.72,5.55-11.58,8.32c-0.88,0.63-1.8,1.31-2.3,2.27c-2.37,4.59,6.17,10.46,2.66,14.25
			c-1.01,1.09-2.63,1.31-3.89,2.1c-2.76,1.72-3.09,5.51-4.37,8.49c-1.29,2.99-5.76,5.3-7.48,2.54c1.27-2.86-2.56-5.33-5.67-5.7
			c-3.07-0.36-6.36-0.53-8.08-3.45c-4.41,3.86-14.29-6.9-14.07-11.24c-3.63,0.28-6.1,3.67-6.89,7.07c-0.82,3.53-0.31,7.2-0.37,10.81
			c-0.11,7.02-2.38,13.91-2.25,20.93c0.1,5.47,2.21,11.54,7.21,13.74c2.41,1.06,5.13,1.06,7.76,1.04c19-0.12,37.99-0.24,56.99-0.36
			c1.37-0.01,2.79-0.03,4.01-0.66c2.57-1.34,3.11-4.72,3.35-7.61c1.02-12.38,2.04-24.76,3.06-37.14
			C953.55,723.73,951.83,723.03,950.11,722.33z"/>
		<path class="st8" d="M950.11,722.33c2.1-3.52-0.86-8.82-4.96-8.88c1.8-5.05,0.02-11.16-4.2-14.46c-0.53-0.42-1.14-0.81-1.82-0.81
			c-0.73,0-1.37,0.44-1.96,0.86c-3.86,2.77-7.72,5.55-11.58,8.32c-0.88,0.63-1.8,1.31-2.3,2.27c-2.37,4.59,6.17,10.46,2.66,14.25
			c-1.01,1.09-2.63,1.31-3.89,2.1c-2.76,1.72-3.09,5.51-4.37,8.49c-1.29,2.99-5.76,5.3-7.48,2.54c1.27-2.86-2.56-5.33-5.67-5.7
			c-3.07-0.36-6.36-0.53-8.08-3.45c-4.41,3.86-14.29-6.9-14.07-11.24c-3.63,0.28-6.1,3.67-6.89,7.07c-0.82,3.53-0.31,7.2-0.37,10.81
			c-0.11,7.02-2.38,13.91-2.25,20.93c0.1,5.47,2.21,11.54,7.21,13.74c2.41,1.06,5.13,1.06,7.76,1.04c19-0.12,37.99-0.24,56.99-0.36
			c1.37-0.01,2.79-0.03,4.01-0.66c2.57-1.34,3.11-4.72,3.35-7.61c1.02-12.38,2.04-24.76,3.06-37.14
			C953.55,723.73,951.83,723.03,950.11,722.33z"/>
	</g>
	<g>
		<g>
			<path class="st6" d="M953.43,662.09h-6.4h-17.62h-6.42h-17.6h-6.42h-17.6h-6.42h-9.95l0.73,8.93l0.52,6.38l1.35,16.6l0.77,9.54
				l1.02,12.69l0.44,5.44l0.15,1.62l0.52,6.4l0.71,8.77l0.44,5.44l0.46,5.53l0.52,6.4l0.39,4.84l0.44,5.44l0.19,2.37h11.63h9.83
				h14.19h9.83h14.19h9.83h11.66l0.19-2.37l0.44-5.42l0.39-4.88l0.52-6.4l0.46-5.51l0.44-5.44l0.71-8.79l0.52-6.38l0.12-1.62
				l0.44-5.44l1.04-12.69l0.77-9.52l1.33-16.62l0.52-6.38l0.73-8.93H953.43z M958.75,667.95L958.75,667.95l-1.7-1.7h1.85
				L958.75,667.95z M958.32,673.37l-0.17,2.16l-7.92,7.92l-9.08-9.08l8.12-8.12h1.91L958.32,673.37z M956.03,701.67l-5.8,5.8
				l-9.08-9.08l9.08-9.06l6.27,6.27L956.03,701.67z M871.88,695.6L871.88,695.6l6.27-6.27l9.08,9.06l-9.08,9.08l-5.78-5.8
				L871.88,695.6z M947.3,686.38l-9.08,9.08l-9.08-9.08l9.08-9.08L947.3,686.38z M933.03,666.25h10.39l-5.19,5.19L933.03,666.25z
				 M935.27,698.39l-9.06,9.08l-9.08-9.08l9.08-9.06L935.27,698.39z M905.13,710.4l9.08-9.06l9.06,9.06l-9.06,9.08L905.13,710.4z
				 M911.26,722.41l-9.08,9.08l-9.06-9.06l9.08-9.08L911.26,722.41z M926.22,713.35l9.06,9.08l-9.06,9.06l-9.08-9.08L926.22,713.35z
				 M914.21,695.46l-9.08-9.08l9.08-9.08l9.06,9.08L914.21,695.46z M911.26,698.39l-9.06,9.08l-9.08-9.08l9.08-9.06L911.26,698.39z
				 M890.17,695.46l-9.06-9.08l9.06-9.08l9.08,9.08L890.17,695.46z M890.17,701.34l9.08,9.06l-9.08,9.08l-9.06-9.08L890.17,701.34z
				 M899.25,734.44l-9.08,9.06l-9.06-9.06l9.06-9.08L899.25,734.44z M902.18,737.37l9.08,9.08l-9.06,9.08l-9.08-9.08L902.18,737.37z
				 M905.13,734.44l9.08-9.08l9.06,9.08l-9.06,9.06L905.13,734.44z M926.22,737.37l9.06,9.08l-9.06,9.08l-9.08-9.08L926.22,737.37z
				 M938.23,749.38l9.08,9.08l-5.88,5.88h-6.4l-5.88-5.88L938.23,749.38z M929.15,734.44l9.08-9.08l9.08,9.08l-9.08,9.06
				L929.15,734.44z M929.15,710.4l9.08-9.06l9.08,9.06l-9.08,9.08L929.15,710.4z M935.27,674.37l-9.06,9.08l-9.08-9.08l8.12-8.12
				h1.91L935.27,674.37z M914.21,671.44l-5.19-5.19h10.37L914.21,671.44z M911.26,674.37l-9.06,9.08l-9.08-9.08l8.12-8.12h1.91
				L911.26,674.37z M895.36,666.25l-5.19,5.19l-5.17-5.19H895.36z M879.11,666.25l8.12,8.12l-9.08,9.08l-7.9-7.92l-0.17-2.16
				l7.11-7.13H879.11z M871.34,666.25l-1.68,1.68l0,0l-0.15-1.68H871.34z M870.78,681.93l4.45,4.45l-3.78,3.78L870.78,681.93z
				 M873.25,712.37l-0.35-4.3l0,0l2.33,2.33L873.25,712.37L873.25,712.37z M873.69,717.84l4.47-4.49l9.08,9.08l-9.08,9.06
				l-3.66-3.66L873.69,717.84z M875.04,734.62l-0.02-0.39l0.21,0.21L875.04,734.62L875.04,734.62z M876.62,753.97l-1.14-13.92
				l2.68-2.68l9.08,9.08l-9.08,9.06L876.62,753.97L876.62,753.97z M877.45,764.33l-0.17-2.08l0.87-0.87l2.95,2.95H877.45z
				 M881.11,758.45l9.06-9.08l9.08,9.08l-5.88,5.88h-6.4L881.11,758.45z M899.25,764.33l2.95-2.95l2.95,2.95H899.25z M911.01,764.33
				l-5.88-5.88l9.08-9.08l9.06,9.08l-5.86,5.88H911.01z M923.27,764.33l2.95-2.95l2.95,2.95H923.27z M950.94,764.33h-3.66l2.95-2.95
				l0.87,0.87L950.94,764.33z M951.79,753.97l-1.56,1.54l-9.08-9.06l9.08-9.08l2.68,2.68L951.79,753.97z M953.39,734.21l-0.04,0.42
				l-0.19-0.19L953.39,734.21L953.39,734.21z M953.91,727.83l-3.68,3.66l-9.08-9.06l9.08-9.08l4.49,4.49L953.91,727.83z
				 M955.16,712.39l-1.99-1.99l2.35-2.33L955.16,712.39z M957.63,681.91l-0.66,8.27l-3.8-3.8L957.63,681.91L957.63,681.91z"/>
		</g>
		<g class="st9">
			<path class="st10" d="M953.43,662.09h-6.4h-17.62h-6.42h-17.6h-6.42h-17.6h-6.42h-9.95l0.73,8.93l0.52,6.38l1.35,16.6l0.77,9.54
				l1.02,12.69l0.44,5.44l0.15,1.62l0.52,6.4l0.71,8.77l0.44,5.44l0.46,5.53l0.52,6.4l0.39,4.84l0.44,5.44l0.19,2.37h11.63h9.83
				h14.19h9.83h14.19h9.83h11.66l0.19-2.37l0.44-5.42l0.39-4.88l0.52-6.4l0.46-5.51l0.44-5.44l0.71-8.79l0.52-6.38l0.12-1.62
				l0.44-5.44l1.04-12.69l0.77-9.52l1.33-16.62l0.52-6.38l0.73-8.93H953.43z M958.75,667.95L958.75,667.95l-1.7-1.7h1.85
				L958.75,667.95z M958.32,673.37l-0.17,2.16l-7.92,7.92l-9.08-9.08l8.12-8.12h1.91L958.32,673.37z M956.03,701.67l-5.8,5.8
				l-9.08-9.08l9.08-9.06l6.27,6.27L956.03,701.67z M871.88,695.6L871.88,695.6l6.27-6.27l9.08,9.06l-9.08,9.08l-5.78-5.8
				L871.88,695.6z M947.3,686.38l-9.08,9.08l-9.08-9.08l9.08-9.08L947.3,686.38z M933.03,666.25h10.39l-5.19,5.19L933.03,666.25z
				 M935.27,698.39l-9.06,9.08l-9.08-9.08l9.08-9.06L935.27,698.39z M905.13,710.4l9.08-9.06l9.06,9.06l-9.06,9.08L905.13,710.4z
				 M911.26,722.41l-9.08,9.08l-9.06-9.06l9.08-9.08L911.26,722.41z M926.22,713.35l9.06,9.08l-9.06,9.06l-9.08-9.08L926.22,713.35z
				 M914.21,695.46l-9.08-9.08l9.08-9.08l9.06,9.08L914.21,695.46z M911.26,698.39l-9.06,9.08l-9.08-9.08l9.08-9.06L911.26,698.39z
				 M890.17,695.46l-9.06-9.08l9.06-9.08l9.08,9.08L890.17,695.46z M890.17,701.34l9.08,9.06l-9.08,9.08l-9.06-9.08L890.17,701.34z
				 M899.25,734.44l-9.08,9.06l-9.06-9.06l9.06-9.08L899.25,734.44z M902.18,737.37l9.08,9.08l-9.06,9.08l-9.08-9.08L902.18,737.37z
				 M905.13,734.44l9.08-9.08l9.06,9.08l-9.06,9.06L905.13,734.44z M926.22,737.37l9.06,9.08l-9.06,9.08l-9.08-9.08L926.22,737.37z
				 M938.23,749.38l9.08,9.08l-5.88,5.88h-6.4l-5.88-5.88L938.23,749.38z M929.15,734.44l9.08-9.08l9.08,9.08l-9.08,9.06
				L929.15,734.44z M929.15,710.4l9.08-9.06l9.08,9.06l-9.08,9.08L929.15,710.4z M935.27,674.37l-9.06,9.08l-9.08-9.08l8.12-8.12
				h1.91L935.27,674.37z M914.21,671.44l-5.19-5.19h10.37L914.21,671.44z M911.26,674.37l-9.06,9.08l-9.08-9.08l8.12-8.12h1.91
				L911.26,674.37z M895.36,666.25l-5.19,5.19l-5.17-5.19H895.36z M879.11,666.25l8.12,8.12l-9.08,9.08l-7.9-7.92l-0.17-2.16
				l7.11-7.13H879.11z M871.34,666.25l-1.68,1.68l0,0l-0.15-1.68H871.34z M870.78,681.93l4.45,4.45l-3.78,3.78L870.78,681.93z
				 M873.25,712.37l-0.35-4.3l0,0l2.33,2.33L873.25,712.37L873.25,712.37z M873.69,717.84l4.47-4.49l9.08,9.08l-9.08,9.06
				l-3.66-3.66L873.69,717.84z M875.04,734.62l-0.02-0.39l0.21,0.21L875.04,734.62L875.04,734.62z M876.62,753.97l-1.14-13.92
				l2.68-2.68l9.08,9.08l-9.08,9.06L876.62,753.97L876.62,753.97z M877.45,764.33l-0.17-2.08l0.87-0.87l2.95,2.95H877.45z
				 M881.11,758.45l9.06-9.08l9.08,9.08l-5.88,5.88h-6.4L881.11,758.45z M899.25,764.33l2.95-2.95l2.95,2.95H899.25z M911.01,764.33
				l-5.88-5.88l9.08-9.08l9.06,9.08l-5.86,5.88H911.01z M923.27,764.33l2.95-2.95l2.95,2.95H923.27z M950.94,764.33h-3.66l2.95-2.95
				l0.87,0.87L950.94,764.33z M951.79,753.97l-1.56,1.54l-9.08-9.06l9.08-9.08l2.68,2.68L951.79,753.97z M953.39,734.21l-0.04,0.42
				l-0.19-0.19L953.39,734.21L953.39,734.21z M953.91,727.83l-3.68,3.66l-9.08-9.06l9.08-9.08l4.49,4.49L953.91,727.83z
				 M955.16,712.39l-1.99-1.99l2.35-2.33L955.16,712.39z M957.63,681.91l-0.66,8.27l-3.8-3.8L957.63,681.91L957.63,681.91z"/>
		</g>
	</g>
	<path class="st6" d="M860.99,669.95h106.42c0.91,0,1.64-0.74,1.64-1.64v-8.28c0-0.91-0.74-1.64-1.64-1.64H860.99
		c-0.91,0-1.64,0.74-1.64,1.64v8.28C859.35,669.22,860.08,669.95,860.99,669.95z"/>
	<path class="st6" d="M959.5,773.84h-90.6c-0.91,0-1.64-0.74-1.64-1.64v-8.28c0-0.91,0.74-1.64,1.64-1.64h90.6
		c0.91,0,1.64,0.74,1.64,1.64v8.28C961.14,773.1,960.41,773.84,959.5,773.84z"/>
</g>
<g id="_x3C_Group_x3E__2_">
	<g>
		<path class="st11" d="M711.63,437.25c-1.37-1.89-2.58-3.69-3.79-5.58c-1.2-1.87-2.36-3.76-3.5-5.66
			c-2.25-3.82-4.32-7.75-6.27-11.75c-0.99-1.99-1.89-4.03-2.79-6.07c-0.83-2.08-1.7-4.13-2.43-6.25c-0.8-2.09-1.44-4.25-2.12-6.39
			c-0.58-2.17-1.23-4.37-1.67-6.53c-1.02-4.34-1.71-8.69-2.37-13.04c-0.65-4.35-1.19-8.69-1.64-13.04
			c-0.86-8.71-1.46-17.4-1.66-26.15c-0.02-1.09,0.84-2,1.94-2.03c1.02-0.02,1.88,0.73,2.01,1.73l0,0.04
			c0.53,4.27,1.08,8.57,1.69,12.84c0.58,4.28,1.2,8.55,1.92,12.8c1.36,8.5,2.91,16.98,5.05,25.17c0.49,2.07,1.15,4.02,1.74,6.03
			c0.71,1.97,1.36,3.95,2.17,5.89c1.54,3.9,3.33,7.73,5.22,11.51c1.9,3.78,3.96,7.49,6.13,11.13c2.14,3.63,4.49,7.27,6.81,10.64
			l0.06,0.09c1.25,1.82,0.8,4.31-1.02,5.56C715.35,439.43,712.91,439,711.63,437.25z"/>
	</g>
	<path class="st6" d="M708.42,400.97l-18.14,25.98l25.76,55.39c0,0,6.17-25.38,2.86-60.79L708.42,400.97z"/>
	<path class="st12" d="M708.42,400.97l-18.14,25.98l25.76,55.39c0,0,6.17-25.38,2.86-60.79L708.42,400.97z"/>
	<g>
		<path class="st6" d="M704.21,550.8c0,0,20.96-100.7,14.69-129.24c0,0,9.63,18.2,40.4,18.49c30.78,0.29,43.81-10.75,43.81-10.75
			s7.99,73.89,2.27,125.81L704.21,550.8z"/>
		<path class="st13" d="M704.21,550.8c0,0,20.96-100.7,14.69-129.24c0,0,9.63,18.2,40.4,18.49c30.78,0.29,43.81-10.75,43.81-10.75
			s7.99,73.89,2.27,125.81L704.21,550.8z"/>
	</g>
	<g>
		<path class="st5" d="M732.49,468.36c0,0,0.31-28.26,33.56-26.62c32.51,1.6,12.49,29.48,12.49,29.48l-7.89-10.33l-23.07,7.08
			l-7.38-6.27L732.49,468.36z"/>
		<path class="st6" d="M731.45,460.89c0,0,7.15-26.49,35.73-24.8c28.57,1.69,15.92,29.52,15.92,29.52l-10.6-9.71l-25.16,10.44
			l-7.8-9.65L731.45,460.89z"/>
		<path class="st12" d="M731.45,460.89c0,0,7.15-26.49,35.73-24.8c28.57,1.69,15.92,29.52,15.92,29.52l-10.6-9.71l-25.16,10.44
			l-7.8-9.65L731.45,460.89z"/>
	</g>
	<g>
		<path class="st14" d="M777.51,446.66l-2.48,1.07L752,457.41l-8.2-9.52c1.08-1.06,1.95-2.1,2.62-3.15
			c0.15-0.27,0.31-0.54,0.46-0.81c2.1-3.76,2.09-7.49,1.24-10.67c-1.38-5.01-4.67-8.6-4.67-8.6l10.43-2.87l22.92-6.25
			c-3.64,6.65-4.57,12.56-4.26,17.38C773.07,441.5,777.51,446.66,777.51,446.66z"/>
		<path class="st5" d="M772.54,432.91c-6.95,4.69-15.71,9.16-26.12,11.82c0.15-0.27,0.31-0.54,0.46-0.81
			c2.1-3.76,2.09-7.49,1.24-10.67c-1.38-5.01-4.67-8.6-4.67-8.6l10.43-2.87l22.92-6.25C773.16,422.19,772.23,428.1,772.54,432.91z"
			/>
	</g>
	<g>
		<path class="st1" d="M740.36,356.99c0,0-26.22,17.21-1.78,41.55C766.2,426.05,740.36,356.99,740.36,356.99z"/>
		<path class="st14" d="M795.18,396.11c-3.35,18.44-16.05,37.88-31.77,39c-28.83,2.04-39.3-4.58-40.14-25.89
			c-0.86-19.2,9.07-48.34,33.05-51.32C780.29,354.91,799.82,370.53,795.18,396.11z"/>
		<path class="st1" d="M736.2,369.06c0,0,11.53,6.18,27.23,4.63c0,0,11.11,3.05,7.27,15.53c-3.84,12.48,10.2,21,8.95,37.92
			c0,0,17.82-0.22,24.54-36.87c4.9-26.7-17.34-39.66-41.38-41.78C742.68,346.71,726.92,359.65,736.2,369.06z"/>
		<path class="st1" d="M755.88,395.96c-0.34,2.35-1.88,4.1-3.43,3.84c-1.55-0.25-2.49-2.33-2.14-4.68c0.34-2.35,1.89-4.06,3.43-3.84
			C755.28,391.5,756.22,393.61,755.88,395.96z"/>
		<path class="st1" d="M733.48,393.15c-0.33,2.25-1.8,3.92-3.28,3.68c-1.48-0.24-2.38-2.23-2.05-4.48c0.33-2.25,1.8-3.88,3.28-3.68
			C732.91,388.88,733.81,390.9,733.48,393.15z"/>
		<path class="st1" d="M750.87,383.15c-0.15-0.17-0.25-0.37-0.3-0.59c-0.01-0.59,0.45-1.08,1.04-1.12c3.45-0.23,6.79,1.24,8.94,3.95
			c0.34,0.48,0.23,1.15-0.25,1.49l0,0c-0.49,0.32-1.14,0.21-1.49-0.25l0,0c-1.76-2.12-4.45-3.24-7.19-3
			C751.31,383.57,751.04,383.4,750.87,383.15z"/>
		<path class="st1" d="M728.75,382.29c-0.21-0.07-0.4-0.21-0.54-0.38c-0.29-0.51-0.12-1.17,0.38-1.48c2.92-1.85,6.56-2.15,9.74-0.8
			c0.53,0.26,0.75,0.9,0.49,1.43v0c-0.28,0.51-0.9,0.72-1.43,0.49l0,0c-2.56-1.02-5.45-0.72-7.75,0.8
			C729.35,382.46,729.03,382.43,728.75,382.29z"/>
		<path class="st15" d="M738.14,394.73L736.56,405c-2.48-0.34-4.98-1.54-6.84-3.28C733.05,399.83,735.88,397.48,738.14,394.73z"/>
		<path class="st14" d="M773.01,405.11c0,0,6.35-10.79,11.77-6.45c5.43,4.33,1.87,23.21-6.88,22.1
			C769.16,419.66,768.28,410.74,773.01,405.11z"/>
		<g>
			<path class="st1" d="M735.3,411.53c2.02,3.8,4.22,11.01,4.22,11.01c0.69-0.08,1.38-0.16,2.06-0.28
				c9.32-1.34,13.21-5.04,14.68-8.73c0.8-2.02,0.86-4.07,0.69-5.71c-0.18-1.9-0.73-3.21-0.73-3.21c-4.52,3.66-13.11,5.58-17.75,6.41
				C736.54,411.39,735.3,411.53,735.3,411.53z"/>
			<path class="st10" d="M738.47,411.02l1.33,3.22c8.78-1.28,14.79-3.36,17.15-6.42c-0.18-1.9-0.73-3.21-0.73-3.21
				C751.7,408.28,743.11,410.19,738.47,411.02z"/>
			<path class="st16" d="M741.58,422.26c9.32-1.34,13.21-5.04,14.68-8.73c-3.16,0.58-6.9,1.63-10.06,3.54
				C743.79,418.52,742.41,420.42,741.58,422.26z"/>
		</g>
	</g>
	<g>
		<path class="st11" d="M801.93,443.75c2.37-3.33,4.78-6.93,6.97-10.53c2.23-3.61,4.35-7.29,6.3-11.04c1.95-3.75,3.8-7.55,5.4-11.43
			c0.84-1.93,1.53-3.9,2.26-5.86c0.63-1.99,1.31-3.93,1.83-6c2.26-8.16,3.93-16.62,5.42-25.09c0.77-4.24,1.46-8.5,2.11-12.77
			c0.68-4.26,1.29-8.56,1.88-12.81l0-0.03c0.15-1.08,1.15-1.84,2.24-1.69c1.01,0.14,1.74,1.04,1.71,2.04
			c-0.33,8.75-1.06,17.43-2.05,26.13c-0.51,4.34-1.12,8.68-1.83,13.02c-0.72,4.33-1.48,8.68-2.56,13c-0.48,2.16-1.16,4.34-1.77,6.51
			c-0.72,2.13-1.39,4.28-2.22,6.36c-0.76,2.11-1.67,4.15-2.53,6.21c-0.93,2.03-1.86,4.05-2.88,6.03c-2,3.97-4.14,7.87-6.44,11.66
			c-1.17,1.89-2.35,3.76-3.58,5.61c-1.23,1.87-2.47,3.65-3.87,5.52c-1.32,1.77-3.83,2.13-5.6,0.8c-1.74-1.3-2.12-3.76-0.86-5.52
			L801.93,443.75z"/>
	</g>
	<path class="st6" d="M794.23,434.18c0,0-3.83,33.62,12.75,52.04l28.72-57.97l-19.15-25.45
		C816.55,402.8,805.07,426.23,794.23,434.18z"/>
	<path class="st12" d="M794.23,434.18c0,0-3.83,33.62,12.75,52.04l28.72-57.97l-19.15-25.45
		C816.55,402.8,805.07,426.23,794.23,434.18z"/>
	<path class="st14" d="M763.9,620.63c4.28,91.03,39.79,151.87,39.79,151.87l18.43-3.84c0,0-35.86-67.84-23.64-155.24L763.9,620.63z"
		/>
	<path class="st14" d="M693.3,597.24c-35.26,84.04-29.35,154.23-29.35,154.23l18.29,4.45c0,0-3.22-76.66,45.37-150.33L693.3,597.24z
		"/>
	<path class="st1" d="M665.74,750.49l18.87,3.18c0.66,0.08,1.13,0.68,1.05,1.35c0,0.01,0,0.01,0,0.02l-1.6,15.1
		c-0.27,1.63-1.81,2.73-3.44,2.48c-6.57-1.22-9.64-2.12-17.93-3.59c-5.09-0.87-15.24-2.11-22.02-4.4c-6.78-2.29-4.33-8.92-1.26-8.55
		c7.29,0.85,17.91-2.18,23.27-5.1C663.62,750.48,664.69,750.31,665.74,750.49z"/>
	<path class="st6" d="M656.27,750.99c-0.47-0.67-0.52-1.55-0.11-2.27c0.18-0.49,0.59-0.85,1.09-0.96c2.2-0.45,6.42,3.6,6.89,4.07
		c0.1,0.12,0.13,0.28,0.08,0.43c-0.05,0.15-0.19,0.25-0.35,0.24c-1.53,0.12-3.07,0.07-4.59-0.15
		C658.15,752.29,657.07,751.8,656.27,750.99z M657.4,748.61c-0.25,0.05-0.45,0.23-0.53,0.47c-0.24,0.46-0.22,1,0.05,1.44
		c0.66,0.91,2.86,1.37,5.96,1.29C661.13,750.25,658.57,748.37,657.4,748.61L657.4,748.61z"/>
	<path class="st6" d="M663.58,752.47c-1.51-1.27-3.42-5.21-2.73-6.98c0.26-0.65,0.93-1.04,1.62-0.95c0.62,0.03,1.2,0.33,1.58,0.83
		c1.4,1.93,0.19,6.76,0.17,6.9c-0.04,0.13-0.14,0.22-0.27,0.27c-0.06,0-0.12-0.02-0.16-0.05
		C663.72,752.52,663.64,752.51,663.58,752.47z M662.42,745.4c-0.57-0.03-0.76,0.22-0.84,0.44c-0.39,1.19,0.76,4.11,2,5.58
		c0.31-1.57,0.66-4.36-0.2-5.51c-0.18-0.27-0.46-0.45-0.78-0.5L662.42,745.4z"/>
	<path class="st1" d="M800.75,761.89l19.1-1.19c0.66-0.07,1.26,0.41,1.33,1.07c0,0.01,0,0.01,0,0.02l1.87,15.07
		c0.1,1.65-1.14,3.07-2.78,3.19c-6.67,0.31-9.87,0.12-18.28,0.58c-5.16,0.31-15.32,1.4-22.44,0.72c-7.12-0.69-6.25-7.71-3.17-8.04
		c7.29-0.83,16.94-6.19,21.51-10.25C798.68,762.36,799.69,761.95,800.75,761.89z"/>
	<path class="st6" d="M791.65,764.53c-0.61-0.55-0.86-1.4-0.62-2.18c0.06-0.51,0.38-0.96,0.85-1.18c2.04-0.93,7.07,2.05,7.63,2.39
		c0.13,0.09,0.19,0.24,0.18,0.4c-0.02,0.16-0.13,0.28-0.28,0.32c-1.46,0.46-2.98,0.76-4.51,0.9
		C793.77,765.36,792.61,765.14,791.65,764.53z M792.2,761.95c-0.23,0.11-0.39,0.33-0.41,0.58c-0.13,0.5,0.01,1.03,0.37,1.39
		c0.85,0.73,3.09,0.69,6.1-0.1C796.21,762.7,793.29,761.45,792.2,761.95L792.2,761.95z"/>
	<path class="st6" d="M799.1,764.31c-1.76-0.89-4.51-4.3-4.25-6.17c0.11-0.69,0.67-1.22,1.37-1.29c0.61-0.11,1.25,0.05,1.73,0.45
		c1.81,1.56,1.72,6.54,1.73,6.68c-0.01,0.13-0.09,0.25-0.2,0.32c-0.06,0.02-0.12,0.01-0.17-0.01
		C799.25,764.32,799.17,764.33,799.1,764.31z M796.36,757.68c-0.56,0.1-0.69,0.39-0.71,0.62c-0.11,1.25,1.68,3.83,3.22,4.98
		c-0.06-1.6-0.35-4.4-1.44-5.32c-0.23-0.22-0.55-0.33-0.87-0.31L796.36,757.68z"/>
	<path class="st6" d="M705.13,547.34c0,0-20.91,46.09-22.05,83.59l48.97,5.65c0,0,4.95-17.16,13.81-26.94
		c0,0,6.21,17.89,11.94,27.18l47.36,0.45c0,0-3.17-28.48,0.58-85.52l0.59-7l-99.56-7L705.13,547.34z"/>
	<g>
		<polygon points="720.45,539.24 720.03,546.31 704.73,545.14 706.01,538.22 		"/>
		<polygon points="771.1,542.81 770.91,550.21 722.5,546.51 723.41,539.43 		"/>
		<polygon points="806.72,545.3 806.02,552.92 773.43,550.42 774.11,543.01 		"/>
		<path class="st10" d="M750.51,549.35l-11.99-1.1c-0.38-0.04-0.67-0.37-0.63-0.76l0.65-7.07c0.04-0.38,0.37-0.67,0.76-0.63
			l11.99,1.1c0.38,0.04,0.67,0.37,0.63,0.76l-0.65,7.07C751.24,549.1,750.9,549.38,750.51,549.35z"/>
	</g>
	<g>
		<path class="st14" d="M840.84,352.57l10.76-15.23l-21.54-3.52c0,0-4.04,11.99,3.35,21.54L840.84,352.57z"/>
		<polygon class="st14" points="850.52,319.01 834.04,319.38 830.06,333.82 851.61,337.34 		"/>
	</g>
	<g>
		<path class="st14" d="M689.41,340.73l10.76-15.23l-21.54-3.52c0,0-4.04,11.99,3.35,21.54L689.41,340.73z"/>
		<polygon class="st14" points="699.09,307.17 682.61,307.54 678.64,321.98 700.18,325.5 		"/>
	</g>
	<g>
		<g>
			<path class="st6" d="M928.54,357.47C824.26,332.72,717,322.86,609.96,328.19c4.15-45.15,8.3-90.3,12.45-135.45
				c107.04-5.33,214.3,4.53,318.58,29.28C936.84,267.17,932.69,312.32,928.54,357.47z"/>
		</g>
		<g>
			<g>
				<g>
					<g>
						<path class="st10" d="M698.93,247.14c-1.12-0.03-1.94-0.94-1.85-2.05c0.84-10.01-1.49-22.18-1.52-22.3
							c-0.21-1.08,0.52-2.19,1.63-2.47c1.1-0.29,2.18,0.36,2.39,1.44c0.1,0.52,2.45,12.83,1.57,23.39
							c-0.09,1.12-1.08,2.01-2.21,1.99C698.94,247.14,698.93,247.14,698.93,247.14z"/>
					</g>
					<g>
						<path class="st10" d="M690.02,226.51c-1.01-0.01-1.81-0.75-1.85-1.77c-0.06-1.11,0.82-2.12,1.95-2.26
							c5.89-0.73,11.77-1.42,17.66-2.06c1.12-0.14,2.08,0.68,2.14,1.79c0.05,1.11-0.82,2.11-1.94,2.23
							c-5.88,0.64-11.77,1.33-17.66,2.06C690.21,226.51,690.11,226.51,690.02,226.51z"/>
					</g>
				</g>
				<g>
					<g>
						<path class="st10" d="M716.24,247.66c-1.11-0.04-1.95-0.97-1.85-2.08c0.6-7.22-0.43-20.14-0.44-20.27
							c-0.09-1.11,0.75-2.13,1.87-2.28c1.13-0.16,2.11,0.63,2.2,1.73c0.04,0.54,1.07,13.38,0.44,20.93
							c-0.09,1.12-1.08,1.99-2.21,1.96C716.25,247.66,716.25,247.66,716.24,247.66z"/>
					</g>
					<g>
						<path class="st10" d="M726.72,248.01c-1.12-0.05-1.94-0.99-1.85-2.1c0-0.03,0.28-4-1.73-7.5c-1.19-2.06-6.07-0.2-7.31,0.42
							c-1.03,0.51-2.24,0.13-2.7-0.87c-0.47-0.99,0-2.21,1.02-2.73c3.45-1.74,9.99-3.45,12.57,1.05c2.62,4.57,2.24,9.56,2.22,9.77
							c-0.09,1.12-1.08,1.99-2.2,1.94C726.73,248.01,726.73,248.01,726.72,248.01z"/>
					</g>
				</g>
				<g>
					<path class="st10" d="M752.55,249.6c-0.79-0.05-1.52-0.34-2.17-0.85c-0.67-0.53-1.22-1.32-1.65-2.27
						c-0.2,0.24-0.41,0.45-0.64,0.62c-1.97,1.52-5.56,1.43-8.74-0.2c-3.74-1.92-5.77-5.48-5.43-9.53c0.26-3.13,1.8-4.73,3.04-5.51
						c3.73-2.36,9.2-0.32,9.81-0.07c0.23,0.09,0.44,0.22,0.61,0.39c0.36-0.61,1.01-1.02,1.76-1.04c1.08-0.04,1.99,0.82,2.03,1.91
						c0.02,0.93,0.04,2.22-0.01,3.65c0.14,4.46,0.9,8.37,1.83,8.88c1.09-0.29,2.18,0.34,2.45,1.43c0.27,1.08-0.43,2.18-1.52,2.46
						C753.47,249.59,753,249.63,752.55,249.6z M741.63,234.79c-0.96-0.06-1.9,0.05-2.57,0.47c-0.23,0.15-0.93,0.59-1.07,2.3
						c-0.28,3.36,1.98,5.03,3.34,5.74c2.13,1.1,3.97,0.9,4.31,0.63c0.69-0.61,1.26-3.7,1.42-7.24c-0.01-0.47-0.02-0.91-0.01-1.33
						c-0.55,0.35-1.25,0.45-1.88,0.2C744.54,235.31,743.06,234.87,741.63,234.79z"/>
				</g>
				<g>
					<path class="st10" d="M759.41,250.1c-0.02,0-0.02,0-0.03,0c-1.1-0.1-1.9-1.06-1.81-2.15c0.43-5.12,0.85-10.24,1.28-15.36
						c0.09-1.12,1.08-1.96,2.2-1.89c0,0,0.01,0,0.02,0c1.02,0.08,1.81,0.9,1.85,1.9c0.24-0.25,0.51-0.47,0.77-0.66
						c1.09-0.77,2.31-1.04,3.52-0.79c4.35,0.91,4.65,6.04,4.89,10.15c0.1,1.57,0.25,4.2,0.73,4.72c0.97,0.55,1.29,1.76,0.73,2.74
						c-0.56,0.98-1.82,1.3-2.81,0.75c-2.31-1.29-2.5-4.52-2.71-7.93c-0.16-2.61-0.37-6.17-1.7-6.45c-0.05-0.01-0.12-0.02-0.3,0.11
						c-2,1.42-3.81,8.65-4.41,13.09C761.47,249.4,760.5,250.18,759.41,250.1z"/>
				</g>
				<g>
					<path class="st10" d="M862.58,262.68c-0.17-0.03-0.34-0.08-0.51-0.15c-0.97-0.43-1.5-1.49-1.27-2.46
						c-0.3,0.15-0.61,0.28-0.91,0.36c-1.23,0.36-2.46,0.2-3.56-0.46c-3.89-2.34-2.84-7.32-1.99-11.33c0.33-1.53,0.86-4.08,0.55-4.74
						c-0.79-0.85-0.76-2.11,0.03-2.85c0.79-0.75,2.09-0.62,2.88,0.23c1.86,2.01,1.2,5.15,0.49,8.48c-0.54,2.54-1.27,6.01-0.08,6.73
						c0.04,0.03,0.1,0.06,0.32,0c2.27-0.66,5.91-6.92,7.65-10.93c0.43-0.99,1.59-1.39,2.6-0.9c1.01,0.49,1.52,1.69,1.15,2.7
						c-1.75,4.72-3.51,9.44-5.26,14.17C864.34,262.37,863.47,262.83,862.58,262.68z"/>
				</g>
				<g>
					<g>
						<path class="st10" d="M778.37,249.1c-0.07-0.01-0.14-0.02-0.21-0.03c-1.1-0.22-1.82-1.28-1.61-2.38
							c0.03-0.19,3.7-18.95,3.81-26.46c0.02-1.12,0.94-2.02,2.06-2c1.15,0.04,2.02,0.94,2.01,2.07c-0.11,7.88-3.74,26.39-3.89,27.18
							C780.35,248.5,779.41,249.2,778.37,249.1z"/>
					</g>
					<g>
						<path class="st10" d="M790.16,252.85c-5.16-0.54-10.83-9.34-11.95-11.12c-0.29-0.47-0.38-1.04-0.24-1.58
							c0.14-0.54,0.49-0.99,0.98-1.26c3.66-2.04,7.31-4.06,10.97-6.07c0.98-0.54,2.22-0.18,2.77,0.81c0.55,0.99,0.2,2.22-0.78,2.76
							c-3.02,1.65-6.04,3.32-9.06,4.99c2.64,3.8,6.01,7.42,7.73,7.43c1.11,0.04,2.01,0.98,1.99,2.1c-0.03,1.12-0.96,2-2.08,1.96
							C790.38,252.87,790.27,252.86,790.16,252.85z"/>
					</g>
				</g>
				<g>
					<path class="st10" d="M809.93,269.07c-1.1-0.13-2.23-0.46-3.38-0.98c-1.04-0.47-1.52-1.67-1.08-2.7
						c0.44-1.03,1.64-1.48,2.66-1.01c2.04,0.92,3.7,0.93,5.21,0c3.1-1.9,5.09-7.21,6.32-12.79c-0.06,0.05-0.13,0.09-0.19,0.13
						c-1.29,0.86-2.77,1.11-4.25,0.72c-7.17-1.83-7.46-14.14-7.47-15.55c-0.01-1.12,0.89-2.02,2.02-1.99c1.12,0,2.04,0.95,2.04,2.08
						c0.03,3.41,1.11,10.7,4.29,11.52c0.39,0.1,0.69,0.04,1.06-0.21c2.2-1.46,3.8-7.44,4.28-10.86c0.15-1.07,1.11-1.8,2.18-1.66
						c0.01,0,0.01,0,0.01,0c1.07,0.14,1.87,1.09,1.84,2.16c-0.08,2.5-0.99,24.5-9.93,29.95
						C813.83,268.92,811.93,269.31,809.93,269.07z"/>
				</g>
				<g>
					<path class="st10" d="M836.85,258.63c-1.45-0.21-2.88-0.82-4.22-1.85c-2.87-2.2-4.19-5.25-3.68-8.61
						c0.59-3.93,3.76-7.69,7.38-8.73c2.38-0.68,4.71-0.11,6.45,1.57c0.05-0.09,0.1-0.19,0.17-0.27c0.65-0.88,1.91-1.02,2.82-0.31
						c4.07,3.19,3.22,9.54,0.06,13.82C843.36,257.59,840.06,259.1,836.85,258.63z M838.84,243.28c-0.34-0.05-0.75-0.03-1.24,0.11
						c-2.2,0.63-4.29,3.13-4.66,5.58c-0.27,1.82,0.41,3.37,2.02,4.61c3.64,2.81,6.71-0.74,7.56-1.89c1.94-2.62,2.77-6.58,0.87-8.07
						c0,0-0.01-0.01-0.02-0.01c-0.1,0.19-0.22,0.36-0.38,0.51c-0.79,0.76-2.07,0.7-2.86-0.14
						C839.99,243.81,839.58,243.38,838.84,243.28z"/>
				</g>
			</g>
			<g>
				<g>
					<g>
						<path class="st10" d="M682.49,303.42c-0.81-0.01-1.54-0.51-1.78-1.31c-2.42-8.06-0.61-31.86-0.53-32.87
							c0.09-1.12,1.07-2.03,2.2-2.03c0.01,0,0.02,0,0.03,0c1.11,0.01,1.94,0.91,1.85,2.01c-0.02,0.24-1.84,24.07,0.38,31.46
							c0.31,1.05-0.31,2.21-1.4,2.6C683,303.38,682.74,303.43,682.49,303.42z"/>
					</g>
					<g>
						<path class="st10" d="M669.51,271.09c-1.07,0-1.89-0.82-1.86-1.9c0.04-1.11,0.98-2.08,2.11-2.14
							c8.93-0.54,17.86-0.98,26.79-1.31c1.11-0.03,2.02,0.83,1.98,1.95c-0.04,1.12-0.98,2.05-2.11,2.1
							c-8.93,0.33-17.86,0.77-26.79,1.31C669.59,271.09,669.55,271.09,669.51,271.09z"/>
					</g>
				</g>
				<g>
					<g>
						<path class="st10" d="M719.31,303.28c-5.6-0.25-11.2-0.46-16.8-0.63c-0.56-0.02-1.08-0.26-1.42-0.67
							c-0.35-0.41-0.5-0.96-0.42-1.51c1.48-10.15,0.46-29.23,0.45-29.42c-0.03-0.55,0.17-1.11,0.56-1.53
							c0.38-0.43,0.92-0.69,1.49-0.72c6.41-0.39,12.81-0.72,19.22-1c1.13-0.06,2.04,0.82,2.04,1.93c0,1.12-0.92,2.06-2.05,2.11
							c-5.69,0.25-11.38,0.54-17.07,0.87c0.22,4.94,0.6,17.33-0.32,25.98c4.9,0.16,9.8,0.34,14.69,0.56c1.12,0.05,1.95,1,1.85,2.12
							C721.43,302.47,720.43,303.33,719.31,303.28z"/>
					</g>
					<g>
						<path class="st10" d="M715.31,287.33c-3.99-0.16-7.98-0.3-11.97-0.41c-1.12-0.03-1.96-0.96-1.85-2.08
							c0.1-1.12,1.1-2,2.22-1.96c3.99,0.12,7.98,0.25,11.97,0.41c1.13,0.04,1.95,0.99,1.85,2.11
							C717.43,286.5,716.43,287.37,715.31,287.33z"/>
					</g>
				</g>
				<g>
					<g>
						<path class="st10" d="M728.53,304.92c-0.2-0.01-0.39-0.05-0.58-0.12c-1.04-0.38-1.55-1.54-1.13-2.59
							c4.45-11.1,8.9-22.18,13.35-33.25c0.3-0.76,1.03-1.28,1.84-1.32c0.82-0.05,1.56,0.39,1.9,1.11c0.27,0.56,6.7,14.23,9.24,35.28
							c0.14,1.11-0.66,2.13-1.78,2.28c-1.11,0.15-2.13-0.62-2.27-1.73c-1.63-13.46-4.96-23.93-7.05-29.51
							c-3.82,9.49-7.64,18.99-11.45,28.51C730.27,304.45,729.4,304.97,728.53,304.92z"/>
					</g>
					<g>
						<path class="st10" d="M752.5,289.42c-6.07-0.44-12.14-0.83-18.22-1.18c-1.13-0.06-1.95-1.02-1.85-2.14
							c0.11-1.12,1.1-1.97,2.22-1.91c6.08,0.34,12.15,0.74,18.22,1.18c1.12,0.08,1.95,1.06,1.84,2.17
							C754.62,288.67,753.62,289.5,752.5,289.42z"/>
					</g>
				</g>
				<g>
					<path class="st10" d="M771.18,308.59c-0.36-0.03-0.72-0.08-1.1-0.15c-5.62-1.01-8.38-11.39-9.04-19.99
						c-0.28-3.76-0.76-16.22,5.19-18.32c7.94-2.79,15.32,2.12,15.63,2.34c0.93,0.63,1.18,1.9,0.55,2.82
						c-0.63,0.93-1.88,1.17-2.82,0.54c-0.13-0.08-6.08-3.96-12.03-1.87c-1.39,0.48-3.14,5.32-2.46,14.15
						c0.7,9.15,3.57,15.95,5.7,16.34c5.99,1.1,9.72-5.13,9.88-5.4c0.57-0.96,1.81-1.28,2.78-0.71c0.97,0.57,1.31,1.81,0.75,2.78
						C784.01,301.47,779.34,309.34,771.18,308.59z"/>
				</g>
				<g>
					<g>
						<path class="st10" d="M790.18,310.48c-1.1-0.12-1.92-1.09-1.84-2.2c1.19-16.7,5.25-34.93,5.3-35.11
							c0.24-1.09,1.33-1.78,2.43-1.5c1.1,0.26,1.79,1.37,1.54,2.46c-0.04,0.18-4.03,18.11-5.21,34.5c-0.08,1.12-1.05,1.94-2.17,1.85
							C790.2,310.48,790.19,310.48,790.18,310.48z"/>
					</g>
					<g>
						<path class="st10" d="M808.11,312.56c-0.05-0.01-0.11-0.02-0.16-0.03c-1.11-0.23-1.84-1.3-1.65-2.41
							c2.88-16.46,7.94-34.46,8-34.64c0.3-1.07,1.42-1.65,2.5-1.32c1.08,0.34,1.71,1.49,1.4,2.56c-0.05,0.18-5.07,17.98-7.9,34.22
							C810.11,312,809.15,312.69,808.11,312.56z"/>
					</g>
					<g>
						<path class="st10" d="M814.5,295.02c-7.21-0.92-14.43-1.78-21.66-2.57c-1.12-0.12-1.94-1.12-1.84-2.24
							c0.1-1.12,1.09-1.93,2.21-1.8c7.23,0.79,14.45,1.64,21.66,2.57c1.11,0.14,1.94,1.17,1.83,2.28
							C816.61,294.38,815.62,295.16,814.5,295.02z"/>
					</g>
				</g>
				<g>
					<g>
						<path class="st10" d="M840.11,315.28c-5.54-0.85-11.08-1.65-16.63-2.42c-0.59-0.08-1.12-0.41-1.46-0.91
							c-0.34-0.5-0.46-1.11-0.32-1.68c2.42-10.03,3.19-29.29,3.19-29.48c0.04-1.1,0.95-1.92,2.03-1.87
							c6.4,0.31,12.8,0.67,19.18,1.09c1.1,0.06,2.02,1.05,2.01,2.18c0,1.13-0.91,1.98-2.03,1.91c-5.74-0.38-11.49-0.71-17.24-1
							c-0.24,4.82-1,17.37-2.72,26.04c4.79,0.67,9.57,1.37,14.35,2.1c1.11,0.17,1.93,1.21,1.83,2.33
							C842.21,314.68,841.21,315.44,840.11,315.28z"/>
					</g>
					<g>
						<path class="st10" d="M837.62,298.86c-3.95-0.59-7.9-1.16-11.85-1.7c-1.11-0.15-1.93-1.18-1.83-2.3
							c0.1-1.12,1.09-1.9,2.2-1.74c3.95,0.55,7.91,1.12,11.85,1.7c1.11,0.17,1.93,1.21,1.83,2.32
							C839.72,298.25,838.73,299.02,837.62,298.86z"/>
					</g>
				</g>
				<g>
					<path class="st10" d="M854.47,320.17c-1.04-0.17-1.85-1.14-1.83-2.22c0.29-11.79,0.58-23.58,0.86-35.37
						c0.02-0.97,0.73-1.75,1.68-1.85c3.2-0.37,19.27-1.51,22.25,5.86c2.48,6.1-7.32,11.93-13.53,14.99
						c5.13,3.21,10.26,6.46,15.37,9.75c0.98,0.63,1.34,1.91,0.82,2.85c-0.52,0.94-1.75,1.21-2.73,0.58
						c-6.22-3.99-12.45-7.92-18.69-11.79c-0.67-0.41-1.07-1.15-1.06-1.91c0.01-0.76,0.44-1.42,1.11-1.72c7.92-3.44,16-9,15.01-11.46
						c-1.12-2.77-9.64-3.64-16.23-3.2c-0.27,11.22-0.55,22.45-0.82,33.67c-0.03,1.13-0.95,1.95-2.07,1.84
						C854.57,320.19,854.52,320.18,854.47,320.17z"/>
				</g>
			</g>
		</g>
		<g>
			<g>
				<g>
					<path class="st10" d="M897.04,269.91c-1.01-0.2-2.05-0.69-3.06-1.45c-2.37-1.79-3.55-3.66-3.49-5.59
						c0.1-3.52,4.42-5.6,4.6-5.69c0.46-0.21,1.04,0.01,1.3,0.51c0.26,0.5,0.1,1.07-0.36,1.29c-1,0.47-3.57,2.13-3.63,4.14
						c-0.03,1.19,0.85,2.47,2.6,3.8c2.14,1.62,3.71,1.22,4.65,0.6c1.62-1.06,2.46-3.47,1.91-5.47c-0.45-1.65-1.7-2.65-3.75-3.09
						c-0.49-0.12-0.92-0.61-0.88-1.14c0.04-0.53,0.5-0.89,1.03-0.79c2.83,0.56,4.76,2.23,5.43,4.68c0.77,2.8-0.35,6.02-2.6,7.5
						C899.69,269.95,898.38,270.18,897.04,269.91z"/>
				</g>
				<g>
					<path class="st10" d="M894.8,280.54c-2.22-0.44-3.24-1.65-3.69-2.61c-0.76-1.59-0.54-3.58,0.02-5.43
						c-1.07,0.72-2.29,1.26-3.57,1.35c-1.52,0.11-2.94-0.42-4.21-1.56c-1.6-1.44-1.79-2.8-1.67-3.69c0.3-2.21,2.84-3.89,4.84-4.87
						c-2.78-1.14-6.73-3.41-6.55-7.18c0.06-1.29,0.74-1.88,1.3-2.15c2.32-1.13,7.39,1.38,10.4,3.11c-1.64-2.17-3.72-5.55-3.34-8.24
						c0.14-0.98,0.69-2.31,2.5-3.09c1.36-0.59,2.74-0.5,3.99,0.25c2.36,1.41,3.87,4.93,4.74,7.71c0.81-2.34,2.19-5.14,4.35-6.14
						c1.29-0.6,2.7-0.52,4.17,0.24c1.73,0.89,2.28,2.14,2.43,3.04c0.48,2.76-2.14,6.05-4.25,8.19c1.89-0.06,4.2,0.18,5.89,1.37
						c1.18,0.84,1.91,2.01,2.19,3.48c0.33,1.71-0.3,2.65-0.86,3.15c-1.33,1.16-3.91,1.05-6.19,0.65c2.19,1.91,4.58,4.49,4.94,6.82
						c0.19,1.17-0.15,2.21-0.95,3c-0.78,0.76-1.79,1.06-2.92,0.86c-2.64-0.48-5.6-3.56-7.65-6.09c0.24,2.27,0.16,4.98-1.2,6.58
						c-1.01,1.2-2.53,1.63-4.52,1.29C894.93,280.56,894.87,280.55,894.8,280.54z M894.59,266.73c0.15,0.03,0.29,0.09,0.42,0.19
						c0.44,0.33,0.58,0.95,0.3,1.37c-1.51,2.31-3.53,6.78-2.5,8.93c0.13,0.28,0.51,1.08,2.32,1.43c1.34,0.23,2.29-0.01,2.89-0.73
						c1.65-1.96,0.63-7.03,0.1-8.82c-0.14-0.47,0.06-0.94,0.48-1.11c0.42-0.17,0.92,0.01,1.2,0.43c1.44,2.17,5.83,7.85,8.68,8.45
						c0.58,0.1,1.01-0.03,1.41-0.42c0.4-0.4,0.55-0.85,0.46-1.42c-0.43-2.75-5.73-6.86-7.73-8.19c-0.41-0.28-0.6-0.82-0.44-1.25
						c0.17-0.44,0.63-0.66,1.11-0.48c2.69,0.94,7.48,2,8.86,0.8c0.21-0.19,0.48-0.54,0.31-1.43c-0.17-0.89-0.59-1.57-1.27-2.05
						c-2.11-1.5-6.22-0.96-7.62-0.63c-0.43,0.1-0.9-0.13-1.13-0.55c-0.23-0.42-0.16-0.92,0.18-1.2c2.54-2.09,6.42-6.26,6.01-8.63
						c-0.07-0.37-0.27-0.92-1.25-1.43c-0.93-0.48-1.76-0.53-2.54-0.17c-2.56,1.18-4.01,6.48-4.35,8.42
						c-0.08,0.45-0.48,0.75-0.93,0.71c-0.45-0.05-0.86-0.42-0.94-0.89c-0.41-2.23-2.04-8.38-4.64-9.94
						c-0.71-0.43-1.44-0.46-2.27-0.1c-0.89,0.38-1.38,0.95-1.49,1.74c-0.38,2.63,3.14,7.12,4.52,8.63c0.38,0.41,0.39,1.03,0.02,1.38
						c-0.15,0.14-0.34,0.22-0.54,0.23c-0.02,0.06-0.05,0.12-0.07,0.17c-0.25,0.45-0.83,0.57-1.29,0.27
						c-3.47-2.24-9.07-5.01-10.65-4.24c-0.16,0.08-0.3,0.21-0.33,0.64c-0.19,3.85,7.46,5.87,7.54,5.9c0.43,0.11,0.75,0.48,0.8,0.92
						c0.05,0.44-0.18,0.83-0.57,0.96c-2.22,0.74-5.84,2.62-6.08,4.44c-0.03,0.21-0.12,0.86,0.96,1.84c0.84,0.76,1.72,1.09,2.71,1.03
						c3.31-0.23,6.42-4.77,6.45-4.82C893.9,266.78,894.24,266.66,894.59,266.73z"/>
				</g>
				<g>
					<path class="st10" d="M902.97,318.42c-0.09-0.02-0.19-0.05-0.28-0.1c-0.49-0.26-0.72-0.86-0.52-1.33
						c6.9-16.29-3.36-46.76-3.47-47.05c-0.18-0.53,0.08-1.06,0.57-1.19c0.49-0.13,1.04,0.19,1.22,0.72
						c0.44,1.26,10.62,31.53,3.44,48.47C903.77,318.32,903.37,318.51,902.97,318.42z"/>
				</g>
				<g>
					<path class="st10" d="M905.97,296.87c-0.4-0.08-0.74-0.42-0.84-0.85c-0.12-0.54,0.2-1.03,0.71-1.09
						c4.38-0.55,9.22-1.92,9.46-3.16c0.05-0.24-0.42-0.65-0.56-0.77c-3.85-3.3-9.01,3.08-9.06,3.15c-0.13,0.16-0.31,0.27-0.52,0.3
						c-1.7,0.26-10.32,1.5-12.71-1.5c-0.52-0.66-0.99-1.81-0.26-3.52c0.67-1.57,1.78-2.53,3.3-2.85c3.97-0.86,9.35,3.24,9.58,3.41
						c0.44,0.34,0.57,0.96,0.29,1.38c-0.28,0.42-0.87,0.48-1.32,0.15c-1.34-1.03-5.39-3.57-7.98-3.02c-0.96,0.21-1.66,0.82-2.1,1.87
						c-0.28,0.66-0.31,1.15-0.06,1.45c1.14,1.44,6.8,1.28,10.47,0.74c1.15-1.34,6.6-7.19,11.48-3.01c1.33,1.13,1.45,2.17,1.32,2.84
						c-0.59,3.04-8.48,4.2-10.9,4.5C906.17,296.9,906.07,296.89,905.97,296.87z"/>
				</g>
			</g>
			<g>
				<g>
					<path class="st10" d="M656.89,247.84c-1.36,0.02-2.59-0.44-3.58-1.38c-1.94-1.86-2.45-5.23-1.19-7.84
						c1.11-2.29,3.28-3.55,6.19-3.61c0.54,0,0.92,0.43,0.87,0.96c-0.06,0.53-0.47,0.96-1.07,0.96c-2.1,0.06-3.51,0.82-4.25,2.35
						c-0.91,1.87-0.53,4.38,0.88,5.73c0.81,0.78,2.29,1.46,4.68,0.26c1.98-0.99,3.07-2.08,3.25-3.26c0.31-2-1.93-4.09-2.81-4.73
						c-0.41-0.3-0.47-0.89-0.12-1.33c0.34-0.44,0.96-0.56,1.37-0.26c0.17,0.12,4.03,2.95,3.49,6.43c-0.3,1.9-1.79,3.53-4.45,4.86
						C659.03,247.53,657.92,247.82,656.89,247.84z"/>
				</g>
				<g>
					<path class="st10" d="M657.16,258.69c-0.07,0-0.14,0-0.21,0c-2.02-0.03-3.43-0.73-4.2-2.09c-1.04-1.82-0.63-4.5,0.02-6.69
						c-2.49,2.11-5.91,4.58-8.64,4.59c-1.15-0.01-2.09-0.48-2.71-1.38c-0.65-0.93-0.78-2-0.39-3.12c0.79-2.23,3.6-4.32,6.1-5.81
						c-2.32-0.02-4.88-0.39-5.97-1.77c-0.47-0.59-0.9-1.63-0.27-3.25c0.54-1.4,1.48-2.42,2.79-3.02c1.88-0.87,4.19-0.69,6.04-0.28
						c-1.68-2.49-3.66-6.2-2.68-8.83c0.32-0.85,1.09-1.98,2.95-2.54c1.59-0.48,2.98-0.3,4.14,0.52c1.95,1.38,2.79,4.39,3.16,6.84
						c1.36-2.58,3.48-5.76,6.07-6.72c1.37-0.51,2.73-0.35,3.97,0.48c1.64,1.1,1.94,2.51,1.9,3.49c-0.11,2.72-2.78,5.66-4.79,7.5
						c3.27-1.16,8.72-2.7,10.79-1.17c0.49,0.37,1.06,1.08,0.89,2.35c-0.5,3.74-4.81,5.25-7.74,5.87c1.79,1.33,3.99,3.45,3.87,5.67
						c-0.04,0.9-0.48,2.2-2.31,3.32c-1.46,0.9-2.95,1.15-4.43,0.77c-1.24-0.32-2.34-1.08-3.26-1.98c0.22,1.92,0.07,3.92-0.97,5.35
						C660.65,257.66,659.43,258.66,657.16,258.69z M655.2,245.51c0.18,0,0.34,0.04,0.5,0.14c0.38,0.24,0.49,0.74,0.27,1.18
						c-0.85,1.67-2.77,6.48-1.51,8.7c0.47,0.82,1.35,1.22,2.71,1.24c1.83-0.01,2.37-0.73,2.55-0.98c1.39-1.92,0.23-6.68-0.83-9.23
						c-0.2-0.47,0.05-1.05,0.54-1.29c0.5-0.25,1.06-0.07,1.26,0.39c0.02,0.05,2.26,5.08,5.46,5.91c0.96,0.25,1.88,0.08,2.85-0.51
						c1.24-0.76,1.27-1.42,1.28-1.63c0.09-1.83-3.13-4.34-5.17-5.47c-0.36-0.2-0.52-0.63-0.39-1.05c0.13-0.42,0.52-0.73,0.96-0.76
						c0.07-0.01,7.98-0.61,8.49-4.42c0.06-0.43-0.07-0.59-0.21-0.69c-1.42-1.05-7.44,0.65-11.25,2.23c-0.51,0.21-1.06-0.01-1.22-0.5
						c-0.02-0.06-0.04-0.12-0.04-0.18c-0.19-0.05-0.36-0.16-0.48-0.32c-0.3-0.41-0.17-1.02,0.27-1.35c1.64-1.24,5.92-5.01,6.02-7.66
						c0.03-0.79-0.34-1.44-1.15-1.98c-0.76-0.5-1.47-0.6-2.25-0.31c-2.84,1.05-5.56,6.8-6.37,8.92c-0.17,0.45-0.64,0.74-1.09,0.71
						c-0.46-0.04-0.8-0.4-0.79-0.86c0.02-1.97-0.44-7.44-2.74-9.07c-0.7-0.5-1.53-0.59-2.53-0.29c-1.06,0.32-1.36,0.83-1.49,1.18
						c-0.85,2.26,2.21,7.07,4.34,9.58c0.28,0.33,0.26,0.84-0.04,1.21c-0.3,0.38-0.81,0.52-1.21,0.34c-1.32-0.59-5.27-1.86-7.61-0.77
						c-0.77,0.36-1.3,0.94-1.63,1.79c-0.33,0.85-0.13,1.24,0.05,1.46c1.15,1.44,6.05,1.27,8.86,0.83c0.48-0.08,0.92,0.21,1,0.67
						c0.09,0.46-0.19,0.95-0.66,1.15c-2.22,0.95-8.17,4.02-9.09,6.65c-0.19,0.54-0.12,1.01,0.2,1.48c0.31,0.45,0.73,0.66,1.31,0.67
						c3.02,0.02,8.26-4.85,10.07-6.73C654.65,245.63,654.93,245.52,655.2,245.51z"/>
				</g>
				<g>
					<path class="st10" d="M642.22,294.46c-0.41,0.01-0.77-0.25-0.86-0.65c-3.98-17.97,11.56-45.88,12.22-47.03
						c0.27-0.48,0.87-0.7,1.33-0.48c0.47,0.22,0.62,0.79,0.34,1.27c-0.16,0.26-15.8,28.36-11.99,45.63c0.12,0.5-0.23,1.05-0.75,1.22
						C642.42,294.44,642.32,294.45,642.22,294.46z"/>
				</g>
				<g>
					<path class="st10" d="M643.2,272.72c-0.1,0-0.21-0.01-0.3-0.04c-2.31-0.74-9.86-3.32-9.89-6.41c-0.01-0.68,0.3-1.68,1.81-2.55
						c5.56-3.21,9.86,3.53,10.74,5.06c3.51,1.2,9.05,2.38,10.43,1.18c0.29-0.26,0.36-0.74,0.2-1.44c-0.25-1.11-0.82-1.84-1.72-2.22
						c-2.46-1.02-6.9,0.74-8.4,1.51c-0.5,0.25-1.06,0.08-1.27-0.38c-0.2-0.47,0.04-1.05,0.53-1.3c0.26-0.13,6.29-3.17,10.04-1.61
						c1.44,0.59,2.35,1.74,2.72,3.41c0.41,1.81-0.27,2.86-0.9,3.42c-2.89,2.52-11.14-0.27-12.77-0.84c-0.2-0.07-0.36-0.21-0.45-0.39
						c-0.04-0.07-3.93-7.29-8.34-4.75c-0.16,0.09-0.69,0.42-0.69,0.66c0.01,1.26,4.53,3.5,8.73,4.83c0.49,0.15,0.72,0.69,0.5,1.2
						C644.01,272.44,643.6,272.71,643.2,272.72z"/>
				</g>
			</g>
		</g>
		<g>
			<g>
				<path class="st10" d="M871.47,231.12c-0.18-0.03-0.36-0.08-0.54-0.14c-0.57-0.2-1.53-0.8-1.56-2.55c-0.02-0.87,0.2-1.91,0.57-3
					c-1.96,0.56-3.79,0.76-4.86,0.36c-0.73-0.27-1.14-0.81-1.18-1.51c-0.04-0.78,0.22-1.81,1.69-2.32c0.86-0.3,2.06-0.35,3.38-0.22
					c-0.67-0.93-1.13-1.84-1.23-2.63c-0.12-1.04,0.36-1.83,1.37-2.23l0,0c0.51-0.2,1.54-0.35,2.67,1.03
					c0.43,0.53,0.84,1.22,1.18,2.03c1.04-1.32,2.16-2.29,3.1-2.51c0.81-0.19,1.5,0.11,1.95,0.84c0.38,0.6,0.62,1.59-0.36,2.85
					c-0.58,0.74-1.51,1.48-2.63,2.15c1.99,0.78,3.66,1.74,4.41,2.65c0.69,0.85,0.5,1.49,0.32,1.8c-0.26,0.46-0.87,0.92-2.29,0.51
					c-0.85-0.24-1.92-0.78-3.04-1.51c0.01,1.4-0.21,2.64-0.72,3.44C873.18,230.95,872.41,231.29,871.47,231.12z M871.2,225.02
					c-0.51,1.24-0.82,2.47-0.8,3.47c0.02,1.09,0.46,1.37,0.79,1.49c0.74,0.26,1.25,0.12,1.62-0.46c0.49-0.77,0.64-2.07,0.55-3.54
					c-0.51-0.37-1.02-0.78-1.51-1.2C871.63,224.87,871.42,224.95,871.2,225.02z M874.35,225.44c1.2,0.85,2.38,1.5,3.31,1.76
					c0.36,0.1,1,0.23,1.18-0.08c0.03-0.05,0.12-0.2-0.19-0.57c-0.69-0.86-2.45-1.79-4.49-2.52
					C874.24,224.5,874.3,224.98,874.35,225.44z M869.92,222.92c-1.58-0.25-3.01-0.28-3.95,0.05c-0.99,0.34-1.07,0.92-1.04,1.33
					c0.01,0.17,0.05,0.36,0.44,0.5c0.97,0.36,2.97,0.05,5.06-0.64c0.07-0.16,0.14-0.32,0.22-0.48
					C870.39,223.43,870.15,223.17,869.92,222.92z M872.91,224.34c0.1,0.08,0.2,0.17,0.3,0.24c-0.01-0.12-0.04-0.24-0.06-0.36
					C873.07,224.27,872.99,224.31,872.91,224.34z M871.93,223.48c0.02,0.03,0.06,0.05,0.08,0.08c0.1-0.04,0.19-0.08,0.29-0.12
					c-0.1-0.03-0.2-0.06-0.3-0.08C871.97,223.4,871.95,223.44,871.93,223.48z M872.52,222.43c0.09,0.02,0.17,0.05,0.25,0.07
					c-0.03-0.11-0.06-0.22-0.09-0.33C872.63,222.26,872.58,222.34,872.52,222.43z M873.41,221.1c0.18,0.51,0.33,1.03,0.46,1.57
					c1.24-0.68,2.32-1.46,2.94-2.26c0.75-0.97,0.43-1.47,0.33-1.64c-0.19-0.31-0.42-0.4-0.77-0.32
					C875.54,218.65,874.44,219.69,873.41,221.1z M870.42,221.95c0.34,0.06,0.68,0.13,1.02,0.21c0.25-0.44,0.53-0.87,0.8-1.28
					c-0.36-0.95-0.79-1.77-1.26-2.34c-0.78-0.95-1.29-0.75-1.45-0.68l0,0c-0.61,0.24-0.85,0.61-0.78,1.19
					C868.86,219.85,869.49,220.88,870.42,221.95z M869.31,217.37c0,0,0.01,0,0.01,0C869.32,217.37,869.31,217.37,869.31,217.37z"/>
			</g>
			<g>
				<path class="st10" d="M875.03,223.14c0.26,1.44-0.66,2.73-2.06,2.88c-1.4,0.15-2.74-0.89-3-2.33c-0.26-1.44,0.67-2.73,2.06-2.88
					C873.43,220.65,874.78,221.7,875.03,223.14z"/>
			</g>
		</g>
		<g>
			<g>
				<path class="st10" d="M663.1,321.34c-0.48,0-0.97-0.12-1.46-0.36c-0.63-0.31-1.61-1.14-1.07-3.24c0.27-1.04,0.88-2.26,1.7-3.51
					c-2.59,0.43-4.9,0.43-6.07-0.18c-0.8-0.42-1.13-1.11-0.94-1.96c0.21-0.94,0.87-2.14,2.84-2.56c1.16-0.25,2.63-0.16,4.21,0.16
					c-0.52-1.19-0.78-2.34-0.63-3.3c0.19-1.25,1.04-2.14,2.42-2.49c0,0,0,0,0,0c0.69-0.18,2.01-0.21,2.93,1.57
					c0.35,0.68,0.61,1.57,0.78,2.57c1.72-1.44,3.41-2.44,4.64-2.59c1.06-0.12,1.8,0.33,2.12,1.26c0.26,0.77,0.23,1.97-1.39,3.35
					c-0.96,0.81-2.35,1.57-3.95,2.22c2.19,1.18,3.92,2.54,4.53,3.73c0.57,1.1,0.11,1.84-0.21,2.19c-0.47,0.51-1.37,0.98-2.98,0.32
					c-0.96-0.39-2.1-1.18-3.23-2.19c-0.46,1.67-1.13,3.12-2.03,4.01C664.66,321,663.9,321.33,663.1,321.34z M663.97,313.9
					c-1.04,1.42-1.83,2.84-2.14,4.04c-0.34,1.31,0.11,1.7,0.48,1.88c0.82,0.41,1.5,0.29,2.13-0.34c0.86-0.85,1.48-2.39,1.86-4.16
					c-0.5-0.51-0.99-1.06-1.46-1.62C664.55,313.77,664.26,313.84,663.97,313.9z M667.69,314.8c1.19,1.16,2.43,2.09,3.48,2.52
					c0.41,0.17,1.15,0.4,1.47,0.05c0.06-0.06,0.21-0.23-0.04-0.71c-0.57-1.11-2.42-2.45-4.67-3.58
					C667.87,313.66,667.79,314.24,667.69,314.8z M666.29,313.3c0.1,0.11,0.19,0.22,0.29,0.33c0.02-0.14,0.03-0.29,0.05-0.43
					C666.51,313.24,666.4,313.27,666.29,313.3z M659.43,310.67c-0.43,0-0.83,0.04-1.19,0.12c-1.32,0.28-1.61,0.97-1.72,1.46
					c-0.05,0.2-0.05,0.43,0.37,0.66c1.06,0.56,3.61,0.43,6.41-0.14c0.14-0.18,0.28-0.36,0.42-0.54c-0.23-0.33-0.45-0.67-0.64-1
					C661.78,310.87,660.51,310.66,659.43,310.67z M665.37,312.16c0.03,0.03,0.05,0.07,0.08,0.1c0.13-0.04,0.26-0.07,0.39-0.11
					c-0.12-0.05-0.23-0.09-0.34-0.13C665.45,312.06,665.41,312.11,665.37,312.16z M667.98,309.5c0.04,0.62,0.06,1.27,0.04,1.93
					c1.76-0.65,3.33-1.44,4.36-2.32c1.24-1.05,1.02-1.7,0.95-1.91c-0.13-0.4-0.36-0.53-0.84-0.48
					C671.41,306.85,669.71,307.96,667.98,309.5z M666.45,310.97c0.1,0.04,0.19,0.08,0.28,0.11c0-0.13,0-0.27,0-0.4
					C666.64,310.78,666.55,310.88,666.45,310.97z M664.04,310.13c0.39,0.11,0.79,0.24,1.18,0.38c0.46-0.49,0.94-0.97,1.41-1.42
					c-0.12-1.18-0.39-2.21-0.77-2.95c-0.64-1.23-1.33-1.06-1.56-1l0,0c-0.83,0.21-1.24,0.62-1.35,1.32
					C662.81,307.42,663.26,308.74,664.04,310.13z M664.2,304.52c0.01,0,0.01,0,0.02,0C664.21,304.52,664.21,304.52,664.2,304.52z"/>
			</g>
			<g>
				<path class="st10" d="M669.29,312.14c-0.16,1.75-1.73,3.17-3.49,3.17c-1.77,0-3.07-1.41-2.9-3.16c0.16-1.75,1.72-3.18,3.49-3.18
					C668.16,308.97,669.45,310.39,669.29,312.14z"/>
			</g>
		</g>
		<g>
			<g>
				<path class="st10" d="M875.89,344.4c-0.47-0.09-0.95-0.3-1.43-0.64c-0.62-0.43-1.58-1.46-1.05-3.49
					c0.26-1.01,0.86-2.13,1.67-3.25c-2.55-0.06-4.81-0.48-5.97-1.32c-0.78-0.57-1.11-1.34-0.92-2.17c0.21-0.91,0.85-2.01,2.79-2.07
					c1.14-0.03,2.58,0.33,4.14,0.96c-0.51-1.31-0.76-2.52-0.61-3.48c0.19-1.24,1.03-1.98,2.38-2.08l0,0
					c0.69-0.05,1.97,0.16,2.88,2.15c0.35,0.76,0.6,1.71,0.76,2.76c1.69-1.14,3.35-1.85,4.56-1.76c1.03,0.08,1.76,0.67,2.07,1.67
					c0.25,0.83,0.22,2.05-1.37,3.15c-0.94,0.64-2.31,1.15-3.87,1.52c2.14,1.61,3.85,3.33,4.44,4.64c0.56,1.23,0.11,1.9-0.21,2.19
					c-0.46,0.43-1.35,0.74-2.93-0.23c-0.94-0.58-2.05-1.59-3.17-2.84c-0.45,1.62-1.12,2.96-2,3.7
					C877.42,344.35,876.68,344.55,875.89,344.4z M876.76,337c-1.02,1.25-1.81,2.55-2.11,3.71c-0.33,1.27,0.11,1.75,0.47,2
					c0.8,0.57,1.47,0.58,2.1,0.05c0.84-0.71,1.46-2.16,1.83-3.88c-0.49-0.61-0.98-1.26-1.43-1.92
					C877.33,336.97,877.04,336.99,876.76,337z M880.41,338.61c1.16,1.41,2.39,2.58,3.41,3.22c0.41,0.25,1.13,0.62,1.45,0.33
					c0.05-0.05,0.21-0.19-0.04-0.73c-0.56-1.23-2.37-2.94-4.58-4.52C880.59,337.49,880.51,338.06,880.41,338.61z M879.04,336.83
					c0.09,0.13,0.18,0.26,0.28,0.39c0.02-0.14,0.04-0.29,0.05-0.43C879.26,336.8,879.15,336.81,879.04,336.83z M872.31,332.86
					c-0.42-0.08-0.81-0.11-1.17-0.1c-1.29,0.04-1.59,0.68-1.69,1.16c-0.05,0.2-0.05,0.43,0.36,0.74c1.04,0.77,3.56,1.12,6.31,1.07
					c0.14-0.16,0.28-0.32,0.42-0.47c-0.23-0.38-0.43-0.76-0.63-1.14C874.61,333.5,873.37,333.05,872.31,332.86z M878.14,335.49
					c0.03,0.04,0.05,0.08,0.08,0.12c0.13-0.01,0.25-0.03,0.38-0.04c-0.11-0.07-0.23-0.14-0.34-0.2
					C878.22,335.4,878.18,335.44,878.14,335.49z M880.71,333.28c0.05,0.64,0.06,1.31,0.04,1.97c1.73-0.33,3.27-0.84,4.28-1.54
					c1.22-0.84,1.01-1.53,0.94-1.76c-0.14-0.44-0.38-0.62-0.82-0.65C884.08,331.22,882.41,332.03,880.71,333.28z M879.2,334.49
					c0.09,0.06,0.18,0.11,0.28,0.17c0-0.14,0-0.27,0-0.41C879.39,334.33,879.3,334.41,879.2,334.49z M876.84,333.18
					c0.38,0.19,0.77,0.39,1.16,0.61c0.45-0.42,0.92-0.81,1.39-1.18c-0.12-1.22-0.37-2.33-0.75-3.15c-0.63-1.37-1.3-1.32-1.53-1.31
					c0,0,0,0,0,0c-0.81,0.06-1.22,0.4-1.33,1.09C875.64,330.19,876.07,331.61,876.84,333.18z M877,327.5c0.01,0,0.01,0,0.02,0
					C877.01,327.5,877.01,327.5,877,327.5z"/>
			</g>
			<g>
				<path class="st10" d="M882,336.21c-0.16,1.75-1.7,2.9-3.43,2.57c-1.73-0.33-3.01-2.01-2.85-3.76c0.16-1.75,1.7-2.91,3.43-2.58
					C880.88,332.77,882.16,334.46,882,336.21z"/>
			</g>
		</g>
		<g>
			<g>
				<path class="st10" d="M703.12,212.53c-0.45-0.01-1.01-0.27-1.39-1.3c-0.24-0.68-0.38-1.67-0.39-2.77
					c-1.04,0.67-2.06,1.12-2.92,1.15c-1,0.05-1.71-0.48-1.99-1.47c-0.13-0.48-0.17-1.41,1.12-2.27c0.64-0.43,1.52-0.78,2.51-1.05
					c-1.39-1.06-2.44-2.2-2.66-3.12c-0.15-0.62,0.04-1.16,0.55-1.52c0.56-0.4,1.45-0.72,2.55,0.04c0.64,0.44,1.27,1.23,1.83,2.19
					c0.36-0.9,0.81-1.64,1.35-2.09c0.71-0.58,1.53-0.63,2.33-0.13c0,0,0,0,0,0c0.4,0.25,1.02,0.89,0.55,2.3
					c-0.18,0.54-0.5,1.14-0.92,1.76c1.5,0.08,2.77,0.39,3.41,0.92c0.54,0.46,0.66,1.07,0.35,1.72c-0.26,0.54-0.88,1.13-2.3,1.1
					c-0.84-0.04-1.85-0.33-2.91-0.77c0.41,1.71,0.54,3.3,0.23,4.24c-0.28,0.87-0.86,1.04-1.18,1.07
					C703.21,212.52,703.17,212.53,703.12,212.53z M702.25,207.8c-0.04,1.21,0.07,2.32,0.34,3.07c0.1,0.29,0.33,0.77,0.65,0.76
					c0.06,0,0.21-0.02,0.33-0.4c0.29-0.87,0.1-2.51-0.37-4.23C702.9,207.28,702.58,207.55,702.25,207.8z M701.01,205.47
					c-1.18,0.25-2.24,0.62-2.98,1.11c-0.8,0.54-0.79,0.97-0.72,1.25c0.17,0.62,0.53,0.9,1.14,0.87c0.82-0.03,1.86-0.55,2.91-1.31
					c0.03-0.52,0.07-1.06,0.14-1.59C701.33,205.69,701.17,205.58,701.01,205.47z M704.08,206.16c1.13,0.52,2.24,0.88,3.14,0.92
					c1.06,0.03,1.31-0.4,1.38-0.55c0.14-0.28,0.1-0.47-0.15-0.67c-0.56-0.47-1.87-0.72-3.44-0.75
					C704.72,205.46,704.41,205.82,704.08,206.16z M702.36,206.3c-0.01,0.11-0.03,0.21-0.03,0.32c0.08-0.07,0.15-0.14,0.24-0.21
					C702.49,206.38,702.42,206.34,702.36,206.3z M702.49,205.33c0.08,0.05,0.16,0.09,0.23,0.14c-0.03-0.08-0.06-0.16-0.09-0.24
					c-0.04,0-0.08,0.01-0.13,0.01C702.51,205.26,702.5,205.29,702.49,205.33z M703.59,205.14c0.02,0.07,0.05,0.13,0.07,0.2
					c0.06-0.07,0.13-0.14,0.2-0.22C703.78,205.13,703.68,205.13,703.59,205.14z M699.13,200.64c-0.29-0.01-0.51,0.12-0.68,0.23
					c-0.12,0.09-0.24,0.21-0.16,0.54c0.2,0.83,1.42,2.03,2.97,3.12c0.15-0.03,0.31-0.05,0.46-0.08c0.07-0.29,0.13-0.58,0.21-0.85
					c-0.59-1.19-1.28-2.17-1.98-2.65C699.63,200.73,699.37,200.65,699.13,200.64z M702.91,203.49c0.12,0.26,0.24,0.52,0.35,0.79
					c0.45-0.04,0.9-0.06,1.35-0.06c0.53-0.7,0.92-1.38,1.11-1.96c0.32-0.98-0.08-1.23-0.21-1.31c-0.48-0.3-0.87-0.29-1.27,0.04
					C703.7,201.42,703.24,202.35,702.91,203.49z"/>
			</g>
			<g>
				<path class="st10" d="M704.3,207.17c-0.94,0.86-2.36,0.84-3.16-0.03c-0.8-0.87-0.7-2.28,0.25-3.14
					c0.94-0.86,2.36-0.85,3.16,0.03C705.36,204.91,705.25,206.32,704.3,207.17z"/>
			</g>
		</g>
		<g>
			<g>
				<path class="st10" d="M769.55,328.35c-0.3-0.03-0.59-0.16-0.85-0.41c-0.42-0.4-0.8-1.14-0.23-2.42c0.33-0.75,0.96-1.6,1.75-2.43
					c-1.78-0.14-3.32-0.48-4.09-1.03c-0.72-0.51-0.68-1.09-0.6-1.39c0.13-0.44,0.55-0.97,1.77-1.01c0.74-0.02,1.72,0.14,2.77,0.45
					c-0.27-1.14-0.32-2.21-0.05-3c0.32-0.93,1.07-1.42,2.11-1.38c0.49,0.01,1.4,0.27,1.75,1.7c0.18,0.71,0.19,1.61,0.09,2.6
					c1.5-0.95,2.96-1.56,3.91-1.49c0.69,0.08,1.09,0.39,1.25,0.96c0.18,0.63,0.16,1.54-0.95,2.31c-0.66,0.45-1.61,0.79-2.72,1
					c0.73,0.59,1.26,1.23,1.49,1.86c0.29,0.82,0.05,1.59-0.71,2.17l0,0c-0.38,0.3-1.2,0.66-2.38-0.18
					c-0.45-0.32-0.91-0.79-1.34-1.36c-0.61,1.34-1.34,2.41-2.08,2.84C770.14,328.3,769.84,328.37,769.55,328.35z M771.26,323.27
					c-0.9,0.87-1.62,1.78-1.98,2.6c-0.43,0.98-0.08,1.31,0.03,1.42c0.22,0.21,0.41,0.22,0.69,0.06c0.64-0.37,1.35-1.51,1.93-2.92
					C771.69,324.07,771.47,323.68,771.26,323.27z M772.91,324.33c0.47,0.69,0.98,1.25,1.46,1.6c0.81,0.58,1.19,0.3,1.31,0.2
					c0,0,0,0,0,0c0.46-0.35,0.57-0.71,0.42-1.17c-0.23-0.63-0.95-1.32-1.9-1.96c-0.29,0.03-0.58,0.06-0.87,0.08
					C773.21,323.5,773.07,323.92,772.91,324.33z M772.19,323.13c0.04,0.08,0.09,0.16,0.13,0.24c0.03-0.08,0.06-0.17,0.08-0.25
					C772.33,323.13,772.26,323.13,772.19,323.13z M767.9,320.55c-0.2-0.02-0.4-0.03-0.57-0.02c-0.32,0.01-0.86,0.07-0.95,0.38
					c-0.02,0.05-0.06,0.2,0.26,0.42c0.73,0.52,2.34,0.82,4.14,0.91c-0.16-0.37-0.3-0.74-0.42-1.11
					C769.47,320.82,768.62,320.62,767.9,320.55z M772.61,322.07c-0.07,0.06-0.14,0.11-0.21,0.17c0.09,0,0.17-0.01,0.26-0.01
					c0.01-0.04,0.02-0.08,0.03-0.12C772.67,322.1,772.64,322.09,772.61,322.07z M771.44,321.54c0.04,0.09,0.07,0.18,0.11,0.28
					c0.06-0.05,0.12-0.1,0.18-0.15C771.64,321.62,771.54,321.58,771.44,321.54z M773.71,321.64c0.26,0.14,0.5,0.29,0.74,0.44
					c1.34-0.18,2.51-0.51,3.22-1.01c0.74-0.52,0.7-1.01,0.61-1.34c-0.05-0.13-0.11-0.31-0.45-0.31c-0.86-0.06-2.44,0.68-4.02,1.77
					C773.77,321.34,773.74,321.49,773.71,321.64z M771.06,320.43c0.49,0.18,0.97,0.38,1.46,0.6c0.16-0.12,0.32-0.24,0.48-0.36
					c0.19-1.15,0.22-2.23,0.02-3.04c-0.24-0.99-0.77-1.02-0.92-1.02c-0.66-0.03-1.04,0.22-1.24,0.78
					C770.6,318.15,770.71,319.25,771.06,320.43z"/>
			</g>
			<g>
				<path class="st10" d="M770.22,323.18c-0.47-1.11,0.04-2.4,1.15-2.88c1.12-0.48,2.41,0.04,2.88,1.16
					c0.48,1.11-0.04,2.4-1.15,2.88C771.99,324.81,770.7,324.29,770.22,323.18z"/>
			</g>
		</g>
		<g>
			<g>
				<path class="st10" d="M624.43,302.81c-0.3,0.01-0.6-0.09-0.86-0.3c-0.42-0.34-0.8-1.02-0.23-2.37c0.33-0.79,0.97-1.7,1.76-2.63
					c-1.78,0.08-3.34-0.05-4.12-0.49c-0.72-0.41-0.69-0.99-0.6-1.3c0.13-0.45,0.54-1.03,1.78-1.23c0.74-0.12,1.72-0.08,2.78,0.09
					c-0.27-1.09-0.32-2.14-0.05-2.96c0.32-0.96,1.08-1.54,2.12-1.64c0.51-0.05,1.4,0.09,1.76,1.45c0.18,0.68,0.19,1.57,0.09,2.56
					c1.51-1.13,2.98-1.92,3.93-1.97c0.68-0.08,1.09,0.24,1.25,0.78c0.18,0.6,0.16,1.5-0.96,2.4c-0.66,0.53-1.62,0.99-2.74,1.35
					c0.73,0.49,1.27,1.05,1.5,1.64c0.3,0.77,0.04,1.56-0.71,2.23c0,0,0,0,0,0c-0.39,0.34-1.2,0.81-2.39,0.13
					c-0.46-0.26-0.91-0.67-1.35-1.17c-0.61,1.4-1.35,2.56-2.09,3.07C625.03,302.69,624.72,302.8,624.43,302.81z M626.14,297.57
					c-0.9,0.98-1.63,1.97-1.99,2.82c-0.44,1.03-0.08,1.31,0.03,1.4c0.22,0.18,0.41,0.17,0.69-0.03c0.64-0.45,1.35-1.66,1.94-3.13
					C626.58,298.31,626.35,297.95,626.14,297.57z M630.88,300.14c0,0,0.01,0,0.01,0C630.89,300.14,630.88,300.14,630.88,300.14z
					 M627.81,298.41c0.48,0.62,0.98,1.11,1.47,1.39c0.82,0.48,1.2,0.14,1.32,0.03l0,0c0.45-0.4,0.58-0.77,0.42-1.2
					c-0.22-0.59-0.95-1.18-1.91-1.69c-0.29,0.07-0.58,0.14-0.88,0.19C628.11,297.55,627.97,297.99,627.81,298.41z M627.08,297.32
					c0.04,0.07,0.09,0.15,0.13,0.22c0.03-0.08,0.06-0.17,0.08-0.26C627.23,297.3,627.15,297.31,627.08,297.32z M622.77,295.32
					c-0.2,0.01-0.4,0.03-0.58,0.06c-0.32,0.05-0.86,0.18-0.95,0.49c-0.02,0.05-0.06,0.2,0.26,0.38c0.73,0.42,2.34,0.51,4.16,0.36
					c-0.16-0.34-0.3-0.69-0.42-1.04C624.34,295.39,623.49,295.29,622.77,295.32z M627.51,296.22c-0.08,0.06-0.14,0.13-0.21,0.2
					c0.09-0.01,0.18-0.03,0.26-0.04c0.01-0.04,0.02-0.08,0.03-0.12C627.56,296.24,627.54,296.23,627.51,296.22z M626.33,295.84
					c0.04,0.09,0.07,0.17,0.11,0.26c0.06-0.06,0.12-0.11,0.18-0.17C626.52,295.89,626.43,295.86,626.33,295.84z M628.61,295.64
					c0.26,0.11,0.51,0.22,0.74,0.34c1.34-0.35,2.52-0.83,3.24-1.41c0.74-0.6,0.7-1.09,0.61-1.41c-0.04-0.13-0.11-0.25-0.46-0.25
					c-0.87,0.05-2.45,0.99-4.04,2.27C628.67,295.34,628.64,295.49,628.61,295.64z M625.95,294.79c0.49,0.11,0.98,0.25,1.47,0.41
					c0.15-0.14,0.33-0.28,0.48-0.42c0.19-1.16,0.22-2.23,0.02-3.01c-0.22-0.85-0.64-0.93-0.93-0.89c-0.66,0.06-1.05,0.35-1.24,0.93
					C625.48,292.6,625.6,293.67,625.95,294.79z"/>
			</g>
			<g>
				<path class="st10" d="M625.1,297.62c-0.48-1.04,0.04-2.38,1.16-2.99c1.12-0.61,2.42-0.27,2.9,0.77
					c0.48,1.04-0.04,2.38-1.16,2.99C626.88,299,625.58,298.66,625.1,297.62z"/>
			</g>
		</g>
		<g>
			<g>
				<path class="st10" d="M913.78,336.97c-0.3-0.07-0.58-0.24-0.84-0.52c-0.41-0.45-0.78-1.25-0.22-2.48
					c0.33-0.72,0.95-1.49,1.73-2.24c-1.75-0.38-3.26-0.9-4.02-1.56c-0.71-0.61-0.67-1.19-0.58-1.48c0.13-0.43,0.54-0.92,1.75-0.8
					c0.73,0.07,1.68,0.36,2.72,0.81c-0.26-1.19-0.31-2.28-0.04-3.04c0.32-0.9,1.05-1.31,2.08-1.13c0.48,0.07,1.37,0.45,1.72,1.93
					c0.17,0.74,0.18,1.66,0.08,2.64c1.48-0.77,2.91-1.2,3.84-1.01c0.62,0.14,1.06,0.53,1.22,1.12c0.17,0.66,0.15,1.57-0.94,2.22
					c-0.64,0.38-1.59,0.59-2.68,0.67c0.71,0.69,1.24,1.4,1.46,2.07c0.28,0.87,0.04,1.61-0.7,2.1l0,0c-0.38,0.25-1.18,0.52-2.33-0.48
					c-0.44-0.38-0.88-0.92-1.32-1.55c-0.6,1.28-1.32,2.27-2.04,2.61C914.37,337,914.07,337.03,913.78,336.97z M915.47,332.05
					c-0.88,0.77-1.6,1.6-1.95,2.38c-0.43,0.94-0.08,1.32,0.03,1.44c0.21,0.24,0.41,0.28,0.68,0.15c0.63-0.3,1.32-1.35,1.9-2.71
					C915.89,332.91,915.67,332.49,915.47,332.05z M920.09,335.89c0,0,0.01,0,0.01,0C920.1,335.89,920.09,335.89,920.09,335.89z
					 M917.1,333.33c0.46,0.75,0.96,1.39,1.43,1.8c0.79,0.69,1.17,0.45,1.29,0.36l0,0c0.45-0.29,0.57-0.64,0.41-1.13
					c-0.23-0.66-0.92-1.45-1.86-2.22c-0.28,0-0.57-0.01-0.86-0.03C917.39,332.54,917.25,332.94,917.1,333.33z M916.38,332.03
					c0.04,0.09,0.08,0.18,0.13,0.26c0.03-0.08,0.05-0.16,0.08-0.24C916.53,332.05,916.45,332.04,916.38,332.03z M912.18,328.88
					c-0.2-0.04-0.39-0.07-0.56-0.09c-0.31-0.03-0.85-0.03-0.93,0.26c-0.02,0.05-0.06,0.19,0.25,0.46c0.72,0.61,2.29,1.13,4.06,1.44
					c-0.15-0.39-0.29-0.79-0.41-1.18C913.72,329.35,912.87,329.03,912.18,328.88z M916.8,331.01c-0.07,0.05-0.14,0.1-0.21,0.15
					c0.08,0.01,0.17,0.02,0.26,0.02c0.01-0.04,0.02-0.08,0.03-0.12C916.86,331.05,916.83,331.03,916.8,331.01z M915.65,330.32
					c0.04,0.1,0.07,0.2,0.11,0.29c0.06-0.04,0.12-0.09,0.18-0.13C915.84,330.43,915.75,330.37,915.65,330.32z M917.88,330.71
					c0.25,0.18,0.49,0.36,0.72,0.54c1.31-0.02,2.47-0.2,3.16-0.61c0.73-0.43,0.69-0.94,0.6-1.28c-0.03-0.14-0.08-0.32-0.45-0.37
					c-0.84-0.17-2.4,0.38-3.95,1.29C917.94,330.41,917.91,330.56,917.88,330.71z M915.28,329.16c0.47,0.24,0.96,0.51,1.43,0.79
					c0.16-0.1,0.31-0.2,0.47-0.3c0.18-1.14,0.22-2.23,0.02-3.07c-0.22-0.93-0.64-1.12-0.91-1.15c-0.64-0.11-1.02,0.09-1.22,0.63
					C914.83,326.78,914.94,327.92,915.28,329.16z"/>
			</g>
			<g>
				<path class="st10" d="M914.45,331.83c-0.47-1.19,0.04-2.42,1.14-2.77c1.09-0.34,2.37,0.34,2.83,1.53
					c0.47,1.19-0.05,2.42-1.14,2.76C916.19,333.7,914.92,333.02,914.45,331.83z"/>
			</g>
		</g>
		<g>
			<g>
				<path class="st10" d="M917.83,252.34c-0.3-0.06-0.58-0.24-0.84-0.52c-0.41-0.45-0.78-1.25-0.22-2.48
					c0.33-0.72,0.95-1.5,1.73-2.24c-1.72-0.34-3.27-0.89-4.03-1.54c-0.71-0.61-0.67-1.19-0.58-1.48c0.12-0.43,0.54-0.92,1.75-0.81
					c0.73,0.07,1.69,0.36,2.72,0.8c-0.26-1.19-0.31-2.27-0.04-3.04c0.32-0.9,1.05-1.31,2.08-1.14c0.48,0.08,1.38,0.44,1.72,1.93
					c0.18,0.74,0.19,1.66,0.08,2.64c1.47-0.77,2.91-1.21,3.84-1.02c0.66,0.13,1.06,0.53,1.22,1.12c0.18,0.66,0.15,1.57-0.94,2.22
					c-0.64,0.38-1.58,0.6-2.67,0.68c0.71,0.69,1.24,1.39,1.46,2.06c0.28,0.86,0.04,1.61-0.7,2.1c-0.37,0.25-1.18,0.52-2.34-0.48
					c-0.44-0.38-0.89-0.91-1.32-1.54c-0.6,1.28-1.32,2.28-2.04,2.62C918.41,252.36,918.11,252.4,917.83,252.34z M919.52,247.41
					c-0.88,0.77-1.6,1.6-1.95,2.38c-0.43,0.94-0.08,1.32,0.03,1.44c0.22,0.23,0.4,0.28,0.68,0.15c0.63-0.3,1.33-1.36,1.9-2.72
					C919.94,248.27,919.73,247.85,919.52,247.41z M921.15,248.69c0.47,0.75,0.96,1.39,1.43,1.8c0.8,0.69,1.17,0.44,1.29,0.36
					c0,0,0,0,0,0c0.45-0.3,0.57-0.64,0.41-1.13c-0.22-0.66-0.93-1.45-1.86-2.22c-0.28,0-0.57-0.01-0.86-0.02
					C921.44,247.89,921.3,248.3,921.15,248.69z M920.44,247.39c0.05,0.09,0.09,0.18,0.13,0.26c0.03-0.08,0.06-0.16,0.08-0.24
					C920.58,247.4,920.51,247.4,920.44,247.39z M916.22,244.25c-0.2-0.04-0.39-0.07-0.56-0.09c-0.31-0.03-0.84-0.03-0.93,0.26
					c-0.02,0.05-0.05,0.19,0.25,0.46c0.71,0.61,2.3,1.12,4.07,1.42c-0.15-0.39-0.29-0.79-0.41-1.18
					C917.77,244.72,916.92,244.4,916.22,244.25z M920.86,246.37c-0.07,0.05-0.14,0.1-0.21,0.15c0.08,0.01,0.17,0.02,0.26,0.02
					c0.02-0.04,0.02-0.08,0.03-0.12C920.91,246.4,920.88,246.39,920.86,246.37z M919.71,245.68c0.04,0.1,0.07,0.2,0.11,0.29
					c0.07-0.04,0.11-0.09,0.18-0.13C919.9,245.79,919.81,245.74,919.71,245.68z M921.93,246.06c0.25,0.17,0.49,0.36,0.72,0.54
					c1.31-0.02,2.47-0.21,3.16-0.62c0.73-0.43,0.7-0.94,0.6-1.28c-0.04-0.14-0.1-0.33-0.44-0.37c-0.84-0.17-2.4,0.39-3.95,1.3
					C922,245.77,921.96,245.91,921.93,246.06z M919.33,244.52c0.48,0.24,0.96,0.5,1.43,0.79c0.16-0.1,0.32-0.2,0.47-0.3
					c0.19-1.14,0.22-2.23,0.02-3.07c-0.24-1.04-0.75-1.12-0.91-1.15c-0.64-0.11-1.03,0.1-1.22,0.64
					C918.88,242.15,918.99,243.28,919.33,244.52z"/>
			</g>
			<g>
				<path class="st10" d="M918.5,247.19c-0.47-1.18,0.04-2.42,1.14-2.77c1.09-0.35,2.37,0.34,2.83,1.52
					c0.47,1.19-0.04,2.42-1.14,2.77C920.24,249.06,918.97,248.38,918.5,247.19z"/>
			</g>
		</g>
		<g>
			<g>
				<path class="st10" d="M637.88,224.8c-0.3,0.01-0.6-0.09-0.86-0.3c-0.43-0.34-0.81-1.03-0.24-2.36c0.34-0.79,0.97-1.7,1.76-2.62
					c-1.77,0.1-3.34-0.06-4.12-0.51c-0.73-0.42-0.69-0.99-0.6-1.3c0.13-0.45,0.55-1.03,1.78-1.22c0.74-0.11,1.72-0.07,2.78,0.11
					c-0.26-1.1-0.32-2.14-0.05-2.96c0.32-0.96,1.07-1.54,2.12-1.63c0.49-0.05,1.41,0.09,1.76,1.46c0.17,0.68,0.2,1.57,0.09,2.56
					c1.51-1.12,2.98-1.91,3.93-1.95c0.66-0.01,1.09,0.25,1.26,0.79c0.18,0.6,0.16,1.5-0.96,2.4c-0.66,0.53-1.63,0.98-2.74,1.33
					c0.73,0.5,1.27,1.06,1.5,1.65c0.3,0.77,0.04,1.57-0.71,2.23l0,0c-0.38,0.34-1.21,0.8-2.39,0.11c-0.45-0.26-0.92-0.67-1.35-1.18
					c-0.62,1.4-1.35,2.55-2.09,3.06C638.48,224.68,638.17,224.79,637.88,224.8z M639.6,219.57c-0.89,0.97-1.64,1.96-1.99,2.82
					c-0.43,1.02-0.09,1.31,0.03,1.4c0.22,0.18,0.41,0.17,0.69-0.02c0.64-0.45,1.35-1.65,1.94-3.13
					C640.03,220.3,639.81,219.95,639.6,219.57z M641.27,220.41c0.48,0.62,0.98,1.12,1.47,1.4c0.82,0.48,1.2,0.14,1.32,0.03l0,0
					c0.46-0.4,0.58-0.77,0.42-1.2c-0.23-0.59-0.95-1.18-1.91-1.7c-0.29,0.07-0.58,0.13-0.88,0.19
					C641.56,219.56,641.43,219.99,641.27,220.41z M640.54,219.32c0.05,0.08,0.09,0.15,0.14,0.22c0.03-0.08,0.06-0.17,0.08-0.26
					C640.68,219.3,640.61,219.31,640.54,219.32z M636.22,217.3c-0.21,0.01-0.4,0.02-0.58,0.05c-0.32,0.05-0.86,0.18-0.95,0.49
					c-0.02,0.05-0.06,0.2,0.26,0.38c0.73,0.42,2.34,0.52,4.16,0.38c-0.16-0.34-0.3-0.7-0.42-1.05
					C637.8,217.37,636.94,217.27,636.22,217.3z M640.96,218.22c-0.07,0.06-0.14,0.13-0.21,0.2c0.09-0.01,0.18-0.03,0.26-0.04
					c0.01-0.04,0.02-0.08,0.03-0.12C641.02,218.24,640.99,218.23,640.96,218.22z M639.79,217.83c0.04,0.09,0.07,0.17,0.11,0.26
					c0.06-0.06,0.12-0.12,0.18-0.17C639.98,217.89,639.88,217.86,639.79,217.83z M642.06,217.65c0.25,0.11,0.51,0.23,0.74,0.34
					c1.34-0.35,2.52-0.82,3.24-1.39c0.75-0.6,0.7-1.09,0.61-1.4c-0.04-0.13-0.07-0.3-0.46-0.25c-0.86,0.04-2.45,0.97-4.04,2.25
					C642.12,217.35,642.1,217.5,642.06,217.65z M639.4,216.79c0.49,0.12,0.98,0.25,1.47,0.41c0.16-0.14,0.32-0.28,0.48-0.41
					c0.19-1.16,0.22-2.23,0.02-3.01c-0.25-0.95-0.76-0.91-0.93-0.9c-0.65,0.05-1.05,0.35-1.24,0.93
					C638.94,214.58,639.06,215.66,639.4,216.79z"/>
			</g>
			<g>
				<path class="st10" d="M638.56,219.61c-0.48-1.04,0.04-2.38,1.16-2.99c1.12-0.61,2.42-0.26,2.9,0.79
					c0.48,1.04-0.04,2.38-1.16,2.99C640.34,221,639.04,220.65,638.56,219.61z"/>
			</g>
		</g>
		<g>
			<g>
				<path class="st10" d="M800.82,227.33c-0.64-0.07-1.44-0.51-1.97-2.05c-0.35-1.02-0.53-2.45-0.56-4.04
					c-1.47,0.84-2.93,1.35-4.14,1.3c-1.47-0.07-2.44-0.9-2.83-2.36c-0.19-0.71-0.23-2.05,1.6-3.14c0.91-0.54,2.16-0.94,3.57-1.2
					c-1.97-1.7-3.46-3.47-3.77-4.81c-0.22-0.91,0.06-1.67,0.78-2.13c0.79-0.51,2.07-0.86,3.62,0.36c0.92,0.72,1.8,1.92,2.59,3.37
					c0.51-1.25,1.15-2.26,1.92-2.84c1.01-0.75,2.18-0.71,3.31,0.11l0,0c0.58,0.41,1.44,1.41,0.79,3.39c-0.25,0.76-0.7,1.58-1.3,2.42
					c2.13,0.31,3.93,0.9,4.83,1.76c0.76,0.72,0.95,1.62,0.49,2.52c-0.37,0.74-1.25,1.59-3.26,1.29c-1.19-0.16-2.63-0.7-4.12-1.47
					c0.58,2.52,0.76,4.83,0.32,6.13c-0.4,1.22-1.22,1.4-1.67,1.39C800.95,227.34,800.88,227.34,800.82,227.33z M799.59,220.42
					c-0.04,1.74,0.1,3.35,0.48,4.46c0.15,0.44,0.43,1.16,0.92,1.17c0.08,0,0.29,0,0.47-0.53c0.41-1.22,0.15-3.59-0.52-6.14
					C800.5,219.75,800.05,220.09,799.59,220.42z M797.82,216.91c-1.67,0.21-3.19,0.62-4.23,1.23c-1.14,0.68-1.12,1.3-1.02,1.71
					c0.25,0.92,0.75,1.37,1.62,1.39c1.15,0.05,2.64-0.57,4.13-1.54c0.04-0.75,0.1-1.52,0.2-2.27
					C798.28,217.27,798.05,217.09,797.82,216.91z M802.17,218.28c1.6,0.89,3.17,1.54,4.46,1.72c1.59,0.25,1.86-0.41,1.96-0.61
					c0.19-0.39,0.14-0.67-0.21-0.99c-0.79-0.74-2.67-1.3-4.88-1.52C803.1,217.36,802.65,217.83,802.17,218.28z M799.74,218.28
					c-0.02,0.15-0.03,0.3-0.05,0.46c0.11-0.09,0.23-0.18,0.33-0.27C799.93,218.4,799.83,218.34,799.74,218.28z M799.93,216.88
					c0.11,0.08,0.22,0.15,0.33,0.22c-0.04-0.12-0.08-0.24-0.13-0.36c-0.06,0-0.12,0-0.18,0.01
					C799.94,216.79,799.93,216.84,799.93,216.88z M801.48,216.74c0.04,0.1,0.07,0.2,0.1,0.3c0.1-0.09,0.19-0.19,0.28-0.29
					C801.74,216.75,801.61,216.75,801.48,216.74z M795.16,209.73c-0.41-0.04-0.74,0.1-0.97,0.26c-0.17,0.11-0.35,0.27-0.23,0.76
					c0.29,1.22,2.01,3.1,4.22,4.85c0.21-0.02,0.44-0.04,0.66-0.06c0.09-0.41,0.18-0.81,0.29-1.2c-0.84-1.78-1.81-3.28-2.81-4.06
					C795.87,209.92,795.48,209.76,795.16,209.73z M800.52,214.28c0.17,0.39,0.34,0.78,0.49,1.18c0.64,0.01,1.29,0.03,1.91,0.08
					c0.75-0.94,1.31-1.87,1.58-2.69c0.46-1.37-0.11-1.78-0.3-1.91l0,0c-0.68-0.49-1.24-0.52-1.8-0.1
					C801.64,211.41,801,212.69,800.52,214.28z"/>
			</g>
			<g>
				<path class="st10" d="M802.5,219.77c-1.34,1.12-3.35,0.92-4.49-0.43c-1.14-1.36-0.99-3.37,0.35-4.49
					c1.34-1.12,3.35-0.93,4.49,0.43C804,216.64,803.83,218.65,802.5,219.77z"/>
			</g>
		</g>
	</g>
</g>
<g>
	<path class="st1" d="M322.37,283.68c-25.31-3.41-46.98,5.19-52.7,35.06c-5.72,29.87,9.4,45.41,4.5,50.82
		c-4.9,5.41-9.81,4.8-9.81,4.8s21.51,27.38,79.01,14.51c0,0-4.37-9.77,0-13.57c4.37-3.8,29.9-46.71,16.44-67
		C346.35,288.02,333.39,285.16,322.37,283.68z"/>
	<g>
		<path class="st6" d="M355.14,424.95l0.98,1.81l1.07,1.89c0.71,1.26,1.45,2.53,2.2,3.77c1.5,2.5,3.09,4.96,4.71,7.37
			c3.25,4.82,6.73,9.46,10.5,13.67c3.76,4.2,7.84,8,12.19,10.73l1.64,0.96l1.65,0.83l1.6,0.68c0.26,0.11,0.42,0.11,0.08,0.11
			c-0.17,0.01-0.45,0.05-0.84,0.19c-0.39,0.13-0.83,0.39-1.14,0.68c-0.32,0.29-0.5,0.56-0.59,0.73c-0.09,0.17-0.1,0.22-0.08,0.22
			c0.03-0.04,0.12-0.35,0.17-0.78c0.05-0.43,0.08-0.96,0.07-1.53c-0.03-2.34-0.47-5.15-1.04-7.92c-0.58-2.79-1.31-5.64-2.09-8.49
			c-1.58-5.7-3.46-11.42-5.41-17.12c-3.95-11.39-8.27-22.79-12.74-34.04l-0.02-0.05c-0.73-1.84,0.17-3.92,2.01-4.65
			c1.71-0.68,3.63,0.05,4.48,1.64c5.82,10.9,11.17,21.94,16.03,33.34c2.43,5.69,4.71,11.47,6.76,17.43
			c1.03,2.98,1.97,6.02,2.78,9.17c0.8,3.17,1.53,6.38,1.79,10.15c0.06,0.95,0.08,1.95,0.01,3.04c-0.07,1.09-0.21,2.3-0.65,3.72
			c-0.23,0.72-0.52,1.48-1,2.31c-0.48,0.83-1.14,1.71-2.03,2.5c-0.88,0.79-2,1.44-3.1,1.82c-1.11,0.39-2.16,0.53-3.09,0.56
			c-1.88,0.04-3.23-0.31-4.41-0.67c-0.34-0.1-0.48-0.16-0.72-0.25l-0.65-0.23l-1.31-0.48c-0.84-0.35-1.67-0.73-2.5-1.1l-2.39-1.23
			c-3.11-1.71-5.91-3.74-8.52-5.88c-2.61-2.15-5.03-4.42-7.29-6.8c-4.53-4.75-8.52-9.83-12.15-15.09c-1.81-2.63-3.51-5.33-5.16-8.06
			c-0.82-1.37-1.62-2.74-2.41-4.14l-1.15-2.12c-0.39-0.73-0.73-1.4-1.15-2.24c-1.77-3.57-0.32-7.9,3.25-9.68
			c3.49-1.73,7.7-0.39,9.55,3L355.14,424.95z"/>
	</g>
	<g>
		<path class="st17" d="M374.05,399.99l14.51-17.24l-25.58-6.43c0,0-6.09,14.03,1.84,26.27L374.05,399.99z"/>
		<polygon class="st17" points="389.13,360.57 369.25,359.33 362.99,376.32 388.57,382.75 		"/>
	</g>
	<g>
		<polygon class="st17" points="257.58,733.89 245.77,765.96 214.24,763.64 190.29,761.86 160.73,759.67 174.92,745.81 
			198.27,742.45 220.71,739.22 		"/>
		<polygon class="st5" points="220.71,739.22 214.24,763.64 190.29,761.86 198.27,742.45 		"/>
	</g>
	<g>
		<g>
			<path class="st6" d="M172.39,763.33c0.08-0.05,0.17-0.07,0.26-0.08l0,0l0,0c0.08-0.01,0.15,0,0.23,0.02l0,0h0
				c0.07,0.02,0.14,0.05,0.21,0.09l0,0l0,0c0,0,0,0,0,0l0,0c0.08,0.05,0.15,0.12,0.2,0.2c0.19,0.28,3.84,5.72,2.93,9.5
				c-0.29,1.21-1.01,2.12-2.11,2.72c-1.18,0.64-2.13,0.67-2.84,0.09c-1.08-0.89-1.09-3.25-0.75-5.67c-1.15,1.94-2.56,3.76-4.05,4.43
				c-0.79,0.35-1.56,0.38-2.29,0.08c-1.51-0.61-1.87-1.53-1.91-2.19c-0.04-0.71,0.3-1.49,0.87-2.27
				C165.35,767.24,171.02,764.07,172.39,763.33z M171.31,765.56c-3.66,2.18-7.71,5.25-7.62,6.87c0.01,0.14,0.03,0.57,1.03,0.97
				c0.37,0.15,0.76,0.13,1.2-0.07c0.78-0.34,1.57-1.16,2.32-2.19C169.45,769.5,170.55,767.28,171.31,765.56z M174.86,772.72
				c0.53-2.19-0.94-5.31-1.92-7.05c-1.12,4.06-1.69,8.35-0.77,9.11c0.29,0.24,0.92-0.05,1.28-0.24c0.4-0.22,0.72-0.49,0.96-0.81
				C174.62,773.44,174.77,773.1,174.86,772.72z"/>
		</g>
		<g class="st18">
			<path class="st10" d="M172.39,763.33c0.08-0.05,0.17-0.07,0.26-0.08l0,0l0,0c0.08-0.01,0.15,0,0.23,0.02l0,0h0
				c0.07,0.02,0.14,0.05,0.21,0.09l0,0l0,0c0,0,0,0,0,0l0,0c0.08,0.05,0.15,0.12,0.2,0.2c0.19,0.28,3.84,5.72,2.93,9.5
				c-0.29,1.21-1.01,2.12-2.11,2.72c-1.18,0.64-2.13,0.67-2.84,0.09c-1.08-0.89-1.09-3.25-0.75-5.67c-1.15,1.94-2.56,3.76-4.05,4.43
				c-0.79,0.35-1.56,0.38-2.29,0.08c-1.51-0.61-1.87-1.53-1.91-2.19c-0.04-0.71,0.3-1.49,0.87-2.27
				C165.35,767.24,171.02,764.07,172.39,763.33z M171.31,765.56c-3.66,2.18-7.71,5.25-7.62,6.87c0.01,0.14,0.03,0.57,1.03,0.97
				c0.37,0.15,0.76,0.13,1.2-0.07c0.78-0.34,1.57-1.16,2.32-2.19C169.45,769.5,170.55,767.28,171.31,765.56z M174.86,772.72
				c0.53-2.19-0.94-5.31-1.92-7.05c-1.12,4.06-1.69,8.35-0.77,9.11c0.29,0.24,0.92-0.05,1.28-0.24c0.4-0.22,0.72-0.49,0.96-0.81
				C174.62,773.44,174.77,773.1,174.86,772.72z"/>
		</g>
		<path class="st1" d="M189.17,741.88c1.72,1.32-15.36,21.78-15.36,21.78s-23.09,3.38-35.5,13.99c-12.4,10.62-14.85-2.18-4.36-16.52
			c10.49-14.33,18.5-25.27,25.95-35.46C167.35,715.49,171.37,728.21,189.17,741.88z"/>
		<path class="st19" d="M189.17,741.88c1.72,1.32-15.36,21.78-15.36,21.78s-23.09,3.38-35.5,13.99
			c-12.4,10.62-14.85-2.18-4.36-16.52c10.49-14.33,18.5-25.27,25.95-35.46C167.35,715.49,171.37,728.21,189.17,741.88z"/>
	</g>
	<path class="st1" d="M465.07,725.26c-4.75,25.69-23,34.76-41.66,36.98c-22.7,2.73-224.11,4.22-224.11,4.22l8.38-31.57l176.15-19.32
		l-101.25-47.26c0,0-92.73-6.72-90.04-73.07c0.95-23.8,6.65-49.43,15.12-73.95c0.65-1.86,1.34-3.73,1.99-5.56l94.62-12.08l1.01,4.52
		l7.69,33.81l12.76,28.1C325.7,570.11,475.21,670.61,465.07,725.26z"/>
	<path class="st5" d="M330.27,573.25l-118.32,68.1c26.49,23.77,70.61,26.97,70.61,26.97l101.25,47.26l-176.15,19.32l-8.38,31.57
		c0,0,201.41-1.5,224.11-4.22c18.66-2.22,36.92-11.3,41.67-36.98C474.15,676.32,355.25,590.65,330.27,573.25z"/>
	<g>
		<polygon class="st17" points="432.77,677.16 427.94,687.02 407.94,727.58 391.71,760.54 376.26,759.79 385.07,723.71 
			395.09,682.47 397.34,673.31 		"/>
		<polygon class="st5" points="427.94,687.02 407.94,727.58 385.07,723.71 395.09,682.47 		"/>
	</g>
	<path class="st6" d="M358.07,411.91c0,0-5.09,72.85-45.12,130.1c0,0-89.22-11.14-108.21-16.71
		c11.83-34.96,18.89-58.29,23.79-123.84c1.18-15.84,15.49-24.93,31.12-22.12c4.45,0.8,19.06,0.38,45.22,8.86
		C323.96,394.39,358.07,411.91,358.07,411.91z"/>
	<g>
		<path id="XMLID_1_" class="st1" d="M203.7,581.36c0,0-10.8,67.56,38.71,74.31c81.24,11.08,156.95-69.03,166.32-68.84
			c9.37,0.19-27.02,130.16-27.02,130.16l36.38,5.42c0,0,65.67-160.12,49.73-194.6C451.88,493.34,261.24,582.5,203.7,581.36z"/>
	</g>
	<g>
		<g>
			<path class="st6" d="M401.4,749.23c-0.09-0.04-0.16-0.1-0.22-0.16l0,0l0,0c-0.05-0.06-0.09-0.12-0.12-0.19l0,0l0,0
				c-0.03-0.07-0.05-0.14-0.05-0.22l0,0l0,0c0,0,0,0,0,0l0,0c-0.01-0.1,0.01-0.2,0.04-0.28c0.11-0.32,2.34-6.48,5.93-7.97
				c1.14-0.48,2.3-0.44,3.44,0.09c1.21,0.57,1.8,1.32,1.75,2.23c-0.08,1.4-1.97,2.8-4.13,3.96c2.25-0.22,4.55-0.16,5.96,0.65
				c0.75,0.43,1.23,1.04,1.42,1.8c0.4,1.58-0.13,2.41-0.64,2.84c-0.55,0.45-1.37,0.64-2.34,0.64
				C408.71,752.59,402.8,749.89,401.4,749.23z M403.83,748.78c3.92,1.66,8.79,3.12,10.05,2.08c0.11-0.09,0.44-0.36,0.17-1.41
				c-0.1-0.39-0.35-0.69-0.76-0.93c-0.74-0.42-1.86-0.58-3.14-0.58C408.11,747.95,405.67,748.37,403.83,748.78z M407.51,741.68
				c-2.08,0.87-3.72,3.89-4.55,5.72c3.94-1.5,7.73-3.57,7.8-4.77c0.02-0.37-0.59-0.72-0.95-0.89c-0.41-0.19-0.82-0.29-1.22-0.29
				C408.23,741.45,407.87,741.53,407.51,741.68z"/>
		</g>
		<g class="st18">
			<path class="st10" d="M401.4,749.23c-0.09-0.04-0.16-0.1-0.22-0.16l0,0l0,0c-0.05-0.06-0.09-0.12-0.12-0.19l0,0l0,0
				c-0.03-0.07-0.05-0.14-0.05-0.22l0,0l0,0c0,0,0,0,0,0l0,0c-0.01-0.1,0.01-0.2,0.04-0.28c0.11-0.32,2.34-6.48,5.93-7.97
				c1.14-0.48,2.3-0.44,3.44,0.09c1.21,0.57,1.8,1.32,1.75,2.23c-0.08,1.4-1.97,2.8-4.13,3.96c2.25-0.22,4.55-0.16,5.96,0.65
				c0.75,0.43,1.23,1.04,1.42,1.8c0.4,1.58-0.13,2.41-0.64,2.84c-0.55,0.45-1.37,0.64-2.34,0.64
				C408.71,752.59,402.8,749.89,401.4,749.23z M403.83,748.78c3.92,1.66,8.79,3.12,10.05,2.08c0.11-0.09,0.44-0.36,0.17-1.41
				c-0.1-0.39-0.35-0.69-0.76-0.93c-0.74-0.42-1.86-0.58-3.14-0.58C408.11,747.95,405.67,748.37,403.83,748.78z M407.51,741.68
				c-2.08,0.87-3.72,3.89-4.55,5.72c3.94-1.5,7.73-3.57,7.8-4.77c0.02-0.37-0.59-0.72-0.95-0.89c-0.41-0.19-0.82-0.29-1.22-0.29
				C408.23,741.45,407.87,741.53,407.51,741.68z"/>
		</g>
		<path class="st1" d="M374.18,748.38c0.05-2.16,26.64-0.5,26.64-0.5s16.38,16.62,32.28,20.35c15.9,3.72,7.03,13.27-10.74,13.29
			c-17.76,0.02-31.32,0.03-43.94,0.05C365.8,781.58,373.67,770.82,374.18,748.38z"/>
		<path class="st20" d="M374.18,748.38c0.05-2.16,26.64-0.5,26.64-0.5s16.38,16.62,32.28,20.35c15.9,3.72,7.03,13.27-10.74,13.29
			c-17.76,0.02-31.32,0.03-43.94,0.05C365.8,781.58,373.67,770.82,374.18,748.38z"/>
	</g>
	<path class="st5" d="M358.07,411.91c0,0-5.09,72.85-45.12,130.1c0,0-89.22-11.14-108.21-16.71
		c11.83-34.96,18.89-58.29,23.79-123.84c1.18-15.84,15.49-24.93,31.12-22.12c4.45,0.8,19.06,0.38,45.22,8.86
		C323.96,394.39,358.07,411.91,358.07,411.91z"/>
	<g>
		<path class="st17" d="M328.92,375.25c-3.5,3.37-6.18,6.43-8.26,9.11c-4.43,5.66-5.99,9.85-6.29,12.81
			c-0.49,4.35,1.72,6.1,1.72,6.1c-0.16,1.01-0.44,1.92-0.82,2.74c-3.45,7.8-15.19,7.03-15.19,7.03
			c-17.43-17.02-16.99-29.63-16.99-29.63c5.55-0.6,9.96-2.98,13.46-6.18c2.87-2.6,5.14-5.75,6.92-8.89
			c4.19-7.5,5.53-14.91,5.53-14.91L328.92,375.25z"/>
		<path class="st5" d="M328.92,375.25c-3.5,3.37-6.18,6.43-8.26,9.11c-4.43,5.66-5.99,9.85-6.29,12.81c-0.49,4.35,1.72,6.1,1.72,6.1
			c-0.16,1.01-0.44,1.92-0.82,2.74c-9.41-7.06-15.57-19.65-18.71-28.78c2.87-2.6,5.14-5.75,6.92-8.89
			c4.19-7.5,5.53-14.91,5.53-14.91L328.92,375.25z"/>
	</g>
	<g>
		<path class="st1" d="M318.07,365.37c0,0-32.73,7.98-36.72-36.99c-3.99-44.97,63.84-62.33,72.04-22.62
			C361.58,345.49,318.07,365.37,318.07,365.37z"/>
		<path class="st17" d="M364.54,362.91c-3.91,15.4-17.13,23.31-31.08,22.11c-8.54-0.68-17.35-4.82-24.46-12.7
			c-2.11-2.35-3.89-4.62-5.31-6.87c-7.17-11.03-7.33-22.03-8.35-43.09c-1.2-25.39,23.56-42.82,47.58-31.3
			C367.28,302.77,370.21,340.56,364.54,362.91z"/>
		<path class="st1" d="M319.11,307.45c-16.1,15.72,9.13,39.88-18.75,34.81s-10.99-43.09,6.91-49.78
			C325.17,285.8,319.11,307.45,319.11,307.45z"/>
		<path class="st1" d="M307.31,292.8c1.17,17.37,3.28,22.12,18.93,19.62c-3-4.81-1.21-11.87-1.21-11.87s1.49,7.34,7.11,10.44
			c4.77-1.17,8.89-1.99,13.05-2.1c-0.89-3.2,0.28-7.4,0.28-7.4s1.18,4.86,4.71,7.67c3.97,0.52,8.19,1.83,13.21,4.27
			C365.77,295.64,338.3,272.3,307.31,292.8z"/>
		<path class="st1" d="M333.97,332.64c0.01,2.14,1.12,3.94,2.47,4.02c1.35,0.09,2.44-1.57,2.43-3.71c-0.01-2.14-1.12-3.94-2.47-4.02
			C335.05,328.85,333.96,330.51,333.97,332.64z"/>
		<path class="st1" d="M356.2,332.64c0.01,2.13,1.12,3.94,2.47,4.02c1.35,0.09,2.44-1.57,2.43-3.71c-0.01-2.14-1.12-3.94-2.47-4.02
			C357.28,328.85,356.19,330.51,356.2,332.64z"/>
		<path class="st1" d="M358.03,329.01l4.97-1.16C363,327.86,360.47,331.7,358.03,329.01z"/>
		<path class="st21" d="M352.36,337c0,0,3.56,9.42,7.45,14.1c-2.72,2.45-7.38,0.95-7.38,0.95L352.36,337z"/>
		<path class="st17" d="M289.63,345.9c1.83,5.43,5.55,9.13,9.24,10.68c5.54,2.33,8.96-3.93,7.96-10.79
			c-0.9-6.17-4.87-14.82-10.7-14.17C290.39,332.26,287.54,339.69,289.63,345.9z"/>
		<path class="st1" d="M328.48,319.7c0.32,0.05,0.65-0.03,0.91-0.25c4.05-3.44,8.38-1.98,8.43-1.96c0.64,0.22,1.32-0.12,1.49-0.78
			c0.18-0.66-0.21-1.37-0.86-1.6c-0.23-0.08-5.66-1.91-10.69,2.35c-0.5,0.43-0.55,1.22-0.1,1.76
			C327.89,319.5,328.18,319.66,328.48,319.7z"/>
		<path class="st1" d="M366.8,322.72c0.3,0.07,0.62,0.02,0.88-0.16c0.55-0.36,0.67-1.13,0.28-1.72c-3.94-5.89-9.58-6.11-9.82-6.12
			c-0.68-0.02-1.2,0.53-1.17,1.22c0.03,0.69,0.6,1.26,1.27,1.28c0.22,0.01,4.6,0.24,7.73,4.93
			C366.18,322.46,366.48,322.65,366.8,322.72z"/>
		<path class="st1" d="M335.81,329.01l4.97-1.16C340.78,327.86,338.24,331.7,335.81,329.01z"/>
		<g>
			<path class="st1" d="M351.39,359.42c-2.64,3.4-6.03,10.13-6.03,10.13c-0.67-0.2-1.33-0.4-1.98-0.63
				c-8.96-2.91-12.15-7.21-12.98-11.11c-0.44-2.13-0.15-4.16,0.3-5.74c0.5-1.84,1.27-3.03,1.27-3.03
				c3.83,4.38,11.97,7.73,16.39,9.34C350.19,359.08,351.39,359.42,351.39,359.42z"/>
			<path class="st10" d="M348.35,358.39l-1.86,2.94c-8.43-2.76-14-5.83-15.81-9.25c0.5-1.84,1.27-3.03,1.27-3.03
				C335.78,353.42,343.92,356.78,348.35,358.39z"/>
			<path class="st16" d="M343.37,368.93c-8.96-2.91-12.15-7.21-12.98-11.11c3.01,1.11,6.53,2.78,9.31,5.2
				C341.83,364.86,342.86,366.97,343.37,368.93z"/>
		</g>
		<g>
			<path class="st22" d="M347.7,332.97c0,6.25-3.9,11.31-8.72,11.31c-4.82,0-8.72-5.06-8.72-11.31s3.9-11.31,8.72-11.31
				C343.8,321.66,347.7,326.72,347.7,332.97z"/>
			<path class="st22" d="M371.31,332.97c0,6.25-3.9,11.31-8.72,11.31c-4.82,0-8.72-5.06-8.72-11.31s3.9-11.31,8.72-11.31
				C367.4,321.66,371.31,326.72,371.31,332.97z"/>
			<path class="st22" d="M347.7,332.97c0,0,3.51-4.2,6.17,0"/>
			<line class="st22" x1="330.26" y1="332.97" x2="305.23" y2="332.97"/>
		</g>
	</g>
	<g>
		<path class="st6" d="M258.67,397.83c1.2,3.25,2.56,6.66,3.88,9.99c1.34,3.34,2.73,6.67,4.17,9.97c2.87,6.6,5.84,13.14,9.1,19.48
			c1.63,3.17,3.32,6.28,5.1,9.32c1.76,3.04,3.59,6.02,5.54,8.84c1.94,2.82,4.01,5.49,6.19,7.82c2.16,2.32,4.53,4.29,6.64,5.3
			c0.27,0.15,0.51,0.21,0.76,0.33c0.17,0.07,0.23,0.09,0.3,0.11c0.12,0.04,0.08,0.04,0.09,0.06c0,0.02,0.1,0.01,0.33-0.13
			c0.22-0.14,0.55-0.41,0.91-0.78c0.72-0.76,1.51-1.93,2.21-3.24c0.71-1.32,1.36-2.79,1.95-4.33c2.35-6.22,3.98-13.21,5.29-20.22
			c1.36-7.03,2.38-14.21,3.22-21.41c0.88-7.19,1.58-14.49,2.16-21.68l0.01-0.07c0.16-1.97,1.89-3.44,3.86-3.28
			c1.84,0.15,3.24,1.66,3.29,3.46c0.46,14.91-0.04,29.69-1.75,44.66c-0.46,3.74-1.03,7.48-1.75,11.25
			c-0.72,3.77-1.61,7.55-2.89,11.38c-0.64,1.92-1.37,3.85-2.31,5.82c-0.94,1.96-2.06,3.97-3.74,5.99c-0.85,1.01-1.85,2.02-3.13,2.93
			c-1.27,0.91-2.85,1.73-4.63,2.18c-1.77,0.46-3.7,0.5-5.38,0.2c-0.84-0.13-1.66-0.37-2.36-0.6c-0.6-0.23-1.24-0.43-1.79-0.7
			c-4.6-2.06-7.93-4.93-10.88-7.84c-2.94-2.94-5.46-6.02-7.79-9.17c-4.66-6.29-8.53-12.87-12.08-19.54
			c-3.55-6.68-6.82-13.43-9.81-20.3c-1.49-3.43-2.93-6.88-4.32-10.36c-1.41-3.49-2.71-6.92-3.99-10.58
			c-1.32-3.76,0.66-7.88,4.42-9.21c3.72-1.31,7.79,0.61,9.16,4.29L258.67,397.83z"/>
	</g>
	<g>
		<polygon class="st6" points="360.76,393.41 381.85,390.73 385.22,402.59 364.38,407.07 		"/>
		<polygon class="st5" points="360.76,393.41 381.85,390.73 385.22,402.59 364.38,407.07 		"/>
	</g>
	<path class="st5" d="M333.46,385.02c-8.54-0.68-17.35-4.82-24.46-12.7c-2.11-2.35-3.89-4.62-5.31-6.87v-9.94l22.41,0.69
		C326.1,356.21,332.89,374.21,333.46,385.02z"/>
	<g>
		<path class="st17" d="M313.91,397.43l-11.79-19.21l26.25-2.56c0,0,3.93,14.78-5.72,25.71L313.91,397.43z"/>
		<polygon class="st17" points="304.86,356.2 324.7,357.94 328.37,375.67 302.12,378.22 		"/>
	</g>
	<g>
		<polygon class="st6" points="309.58,393.13 329.16,391.26 330.17,403.15 309.58,404.11 		"/>
		<polygon class="st5" points="309.58,393.13 329.16,391.26 330.17,403.15 309.58,404.11 		"/>
	</g>
</g>
<g id="_x3C_Group_x3E__1_">
	<g>
		<path class="st11" d="M533.4,470.54c-2.46,2.61-4.91,4.85-7.5,7.11c-2.57,2.24-5.23,4.37-8,6.38
			c-5.52,4.01-11.39,7.66-17.78,10.45c-3.19,1.39-6.51,2.58-9.94,3.45c-0.86,0.22-1.72,0.43-2.6,0.59
			c-0.45,0.09-0.83,0.17-1.35,0.26c-0.58,0.09-1.17,0.14-1.77,0.14c-2.41,0.04-4.72-0.83-6.5-1.99c-3.58-2.38-5.67-5.53-7.33-8.67
			c-1.65-3.18-2.82-6.38-3.65-9.83c-0.25-1.07,0.4-2.14,1.47-2.39c0.93-0.22,1.87,0.25,2.26,1.09l0.05,0.1
			c1.32,2.8,2.9,5.65,4.65,8.15c1.78,2.46,3.82,4.75,5.95,5.81c1.05,0.54,2.02,0.69,2.93,0.63c0.23-0.02,0.46-0.06,0.7-0.11
			l1.08-0.25c0.74-0.16,1.48-0.36,2.22-0.57c2.95-0.84,5.86-1.97,8.69-3.31c5.65-2.72,11.06-6.11,16.17-9.95
			c2.55-1.93,5.05-3.94,7.47-6.04c1.21-1.05,2.4-2.12,3.57-3.21c1.15-1.08,2.35-2.22,3.37-3.28l0.05-0.06
			c1.53-1.59,4.07-1.63,5.66-0.1C534.85,466.44,534.9,468.95,533.4,470.54z"/>
	</g>
	<path class="st1" d="M545.93,365.9c0,0-17.88,21.33-27.58,52.49c0,0-1.11-5.28,73.89,20.31c0,0,27.51-51.04,0.64-65.64
		C566.01,358.47,545.93,365.9,545.93,365.9z"/>
	<g>
		<path class="st6" d="M525.88,452.53c0,0-12.48,10.25-26.53,20.62l9.22,23.14c0,0,28.72,0.37,27.9-17.84
			C535.65,460.24,525.88,452.53,525.88,452.53z"/>
		<path class="st12" d="M525.88,452.53c0,0-12.48,10.25-26.53,20.62l9.22,23.14c0,0,28.72,0.37,27.9-17.84
			C535.65,460.24,525.88,452.53,525.88,452.53z"/>
	</g>
	<path class="st14" d="M530.94,630.63c63.35,65.52,130.19,87.74,130.19,87.74l11.29-15.06c0,0-71.73-27.24-120.29-100.93
		L530.94,630.63z"/>
	<path class="st14" d="M504.61,614.34c-6.95,90.87,20.79,155.61,20.79,155.61l18.76-1.55c0,0-27.24-71.74-4.36-156.97L504.61,614.34
		z"/>
	<path class="st1" d="M523.35,761.89l19.1-1.19c0.66-0.07,1.26,0.41,1.33,1.07c0,0.01,0,0.01,0,0.02l1.87,15.07
		c0.1,1.65-1.14,3.07-2.78,3.19c-6.67,0.31-9.87,0.12-18.28,0.58c-5.16,0.31-15.32,1.4-22.44,0.72c-7.12-0.69-6.25-7.71-3.17-8.04
		c7.29-0.83,16.94-6.19,21.51-10.25C521.28,762.36,522.29,761.95,523.35,761.89z"/>
	<path class="st6" d="M514.24,764.53c-0.61-0.55-0.86-1.4-0.62-2.18c0.06-0.51,0.38-0.96,0.85-1.18c2.04-0.93,7.07,2.05,7.63,2.39
		c0.13,0.09,0.19,0.24,0.18,0.4c-0.02,0.16-0.13,0.28-0.28,0.32c-1.46,0.46-2.98,0.76-4.51,0.9
		C516.37,765.36,515.21,765.14,514.24,764.53z M514.8,761.95c-0.23,0.11-0.39,0.33-0.41,0.58c-0.13,0.5,0.01,1.03,0.37,1.39
		c0.85,0.73,3.09,0.69,6.1-0.1C518.81,762.7,515.89,761.45,514.8,761.95L514.8,761.95z"/>
	<path class="st6" d="M521.7,764.31c-1.76-0.89-4.51-4.3-4.25-6.17c0.11-0.69,0.67-1.22,1.37-1.29c0.61-0.11,1.25,0.05,1.73,0.45
		c1.81,1.56,1.72,6.54,1.73,6.68c-0.01,0.13-0.09,0.25-0.2,0.32c-0.06,0.02-0.12,0.01-0.17-0.01
		C521.85,764.32,521.77,764.33,521.7,764.31z M518.96,757.68c-0.56,0.1-0.69,0.39-0.71,0.62c-0.11,1.25,1.68,3.83,3.22,4.98
		c-0.06-1.6-0.35-4.4-1.44-5.32c-0.23-0.22-0.55-0.33-0.87-0.31L518.96,757.68z"/>
	<path class="st1" d="M657.27,714.91l14.73-12.21c0.49-0.45,1.26-0.41,1.71,0.08c0,0,0.01,0.01,0.01,0.01l10.39,11.07
		c1.05,1.27,0.89,3.15-0.37,4.22c-5.21,4.18-7.9,5.91-14.43,11.24c-3.99,3.29-11.56,10.16-17.71,13.8c-6.16,3.64-9.59-2.55-7.3-4.63
		c5.4-4.96,10.05-14.98,11.34-20.95C655.88,716.5,656.45,715.58,657.27,714.91z"/>
	<path class="st6" d="M651.47,722.4c-0.82-0.08-1.51-0.62-1.79-1.4c-0.25-0.45-0.26-1-0.01-1.46c1.1-1.96,6.92-2.51,7.58-2.56
		c0.16,0,0.3,0.08,0.38,0.22c0.08,0.13,0.06,0.31-0.04,0.42c-0.91,1.24-1.95,2.37-3.11,3.38
		C653.68,721.83,652.61,722.33,651.47,722.4z M650.41,719.99c-0.12,0.22-0.12,0.49,0.01,0.71c0.19,0.48,0.61,0.82,1.12,0.91
		c1.12,0.09,2.91-1.27,4.87-3.67C654.08,718.24,650.99,718.95,650.41,719.99L650.41,719.99z"/>
	<path class="st6" d="M657.36,717.83c-1.95,0.31-6.18-0.82-7.07-2.49c-0.32-0.62-0.18-1.38,0.34-1.85c0.43-0.45,1.04-0.69,1.66-0.66
		c2.38,0.2,5.24,4.27,5.34,4.38c0.07,0.12,0.08,0.25,0.03,0.38c-0.04,0.05-0.09,0.08-0.15,0.09
		C657.49,717.76,657.43,717.81,657.36,717.83z M651.25,714.1c-0.39,0.41-0.33,0.72-0.21,0.92c0.65,1.07,3.61,2.1,5.53,2.13
		c-0.99-1.26-2.87-3.35-4.3-3.45c-0.32-0.04-0.64,0.06-0.88,0.26L651.25,714.1z"/>
	<g>
		<path class="st6" d="M516.38,540.65c0,0,15.4-59.51,9.5-88.13c0,0,10.14-9.02,40.91-8.33c30.77,0.69,44.77,8.7,44.77,8.7
			s3.84,48.26-2.55,100.1L516.38,540.65z"/>
		<path class="st13" d="M516.38,540.65c0,0,15.4-59.51,9.5-88.13c0,0,10.14-9.02,40.91-8.33c30.77,0.69,44.77,8.7,44.77,8.7
			s3.84,48.26-2.55,100.1L516.38,540.65z"/>
	</g>
	<g>
		<path class="st5" d="M539.61,472.16c0,0,0.68-28.26,33.91-26.18c32.48,2.03,12.1,29.64,12.1,29.64l-7.76-10.43l-23.16,6.78
			l-7.29-6.37L539.61,472.16z"/>
		<path class="st6" d="M538.67,464.68c0,0,7.5-26.4,36.05-24.34c28.55,2.06,15.53,29.72,15.53,29.72l-10.48-9.84l-25.29,10.11
			l-7.67-9.75L538.67,464.68z"/>
		<path class="st12" d="M538.67,464.68c0,0,7.5-26.4,36.05-24.34c28.55,2.06,15.53,29.72,15.53,29.72l-10.48-9.84l-25.29,10.11
			l-7.67-9.75L538.67,464.68z"/>
	</g>
	<g>
		<path class="st14" d="M586.38,451.12l-27.11,10.34l-7.1-9.59c1.53-1.29,2.7-2.58,3.62-3.91c6.69-9.53-1.06-19.24-1.06-19.24
			l10.89-2.7l23.95-5.94C577.01,438.37,586.38,451.12,586.38,451.12z"/>
		<path class="st5" d="M584.68,428.03c0,0-13.34,19.82-28.89,19.93c6.69-9.53-1.06-19.24-1.06-19.24l10.89-2.7L584.68,428.03z"/>
	</g>
	<g>
		<path class="st1" d="M557.08,355.59c0,0-27.67,14.76-5.54,41.22C576.56,426.71,557.08,355.59,557.08,355.59z"/>
		<path class="st14" d="M608.13,399.52c-5,18.06-19.42,36.27-35.17,35.96c-28.89-0.57-38.72-8.12-37.63-29.42
			c0.89-19.2,13.42-47.32,37.56-48.12C597.03,357.14,615.07,374.47,608.13,399.52z"/>
		<path class="st1" d="M551.85,367.24c0,0,10.93,7.2,26.7,7.07c0,0,10.79,4.04,5.84,16.12c-4.95,12.08,8.26,21.84,5.48,38.58
			c0,0,17.77,1.39,27.78-34.49c7.3-26.15-13.68-41.07-37.43-45.36C560.32,345.57,543.46,357.03,551.85,367.24z"/>
		<path class="st1" d="M567.78,396.64c-0.55,2.31-2.25,3.91-3.76,3.52c-1.52-0.39-2.27-2.55-1.71-4.86
			c0.55-2.31,2.25-3.88,3.76-3.52C567.58,392.14,568.33,394.33,567.78,396.64z"/>
		<path class="st1" d="M546.96,390.98c-0.53,2.21-2.15,3.74-3.6,3.36c-1.45-0.37-2.17-2.44-1.64-4.65c0.53-2.21,2.15-3.71,3.6-3.36
			C546.77,386.68,547.49,388.77,546.96,390.98z"/>
		<path class="st1" d="M563.95,383.42c-0.14-0.18-0.22-0.39-0.24-0.62c0.04-0.59,0.54-1.04,1.14-1.02c3.45,0.08,6.65,1.85,8.55,4.74
			c0.3,0.51,0.12,1.17-0.39,1.46v0c-0.51,0.27-1.15,0.1-1.46-0.39l0,0c-1.56-2.27-4.13-3.63-6.89-3.64
			C564.35,383.89,564.1,383.69,563.95,383.42z"/>
		<path class="st1" d="M543.23,379.74c-0.21-0.09-0.38-0.24-0.51-0.43c-0.24-0.54-0.02-1.17,0.51-1.44
			c3.07-1.58,6.73-1.55,9.77,0.08c0.51,0.31,0.67,0.97,0.36,1.47v0c-0.32,0.48-0.96,0.64-1.47,0.36l0,0
			c-2.45-1.25-5.36-1.21-7.79,0.09C543.81,379.96,543.49,379.91,543.23,379.74z"/>
		<path class="st15" d="M550.99,395.18l-1.59,8.81c-2.38-0.64-4.77-2.04-6.54-3.83C546.06,398.95,548.8,397.27,550.99,395.18z"/>
		<path class="st14" d="M585.24,406.48c0,0,7.3-10.17,12.31-5.36c5.01,4.81-0.24,23.29-8.85,21.39
			C580.09,420.61,580.02,411.65,585.24,406.48z"/>
		<path class="st1" d="M595.4,445.16c2.5-3.63,5.76-8.62,6.52-11.08c0,0,0.2,5.81-1.44,12c3.99,0.58,8.26,0.86,12.45,0.48
			c0,0,23.57-64.18-0.81-81.17c-24.38-16.99-41.68-16.82-41.68-16.82s-23.27-0.9-31.33,20.33c0,0,13.3,3.07,27.38,9.8l5.71-4.73
			l-2.45,7.77l21.26,11.05c0,0,11.83,14.5-8.72,48.43C582.3,441.22,587.85,443.53,595.4,445.16z"/>
		<path class="st23" d="M546.12,409.87c0,0,8.08,3.41,17.06-1.68"/>
		<path class="st1" d="M566.78,393.16l-3.65-3.56C563.12,389.59,563.3,394.19,566.78,393.16z"/>
		<path class="st1" d="M546.19,387.55l-3.65-3.56C542.54,383.98,542.72,388.58,546.19,387.55z"/>
	</g>
	<polygon points="518.44,532.03 516.38,540.65 609.22,551.6 609.99,544.26 	"/>
	<path class="st6" d="M516.38,540.65c-11.62,12.23-28.57,62.8-30.2,100.28c0,0,13.33,10.81,60.82,15.8
		c39.06,4.1,65.59-1.23,65.59-1.23c-2.14-30.69,0.92-99.99-3.37-103.9L516.38,540.65z"/>
	<path class="st10" d="M536.94,536.34l-0.78,4.4c-0.19,1.07,0.54,2.08,1.61,2.22c3.83,0.52,11.96,1.62,12.06,1.64
		c0.09,0.01,0.78-3.79,1.2-6.21c0.19-1.07-0.55-2.08-1.63-2.22l-10.34-1.38C538.06,534.65,537.12,535.33,536.94,536.34z"/>
	<polygon class="st6" points="572.45,539.24 571.42,549.05 575,549.39 576.03,539.65 	"/>
	<polygon class="st6" points="527.88,533.29 526.08,542.86 522.63,542.5 524.54,532.67 	"/>
	<g>
		<path class="st6" d="M508.4,400.01c0,0,8.82,70.19,9.41,93.01c0,0,27.56,28.51,25.63,37.76c-1.93,9.25-0.6,3.53-5.32,5.26
			c-4.72,1.73-0.68,7.23-7.35,11.28c-6.68,4.05-12.9-5.96-20.65-6.37c-7.75-0.42-10.13,17.35-14.44,1.79
			c-4.31-15.56,4.26-52.67,4.26-52.67s-64.21-41.12-68.75-53.23c-4.54-12.11,22.39-9.09,24.67-20.16
			c2.28-11.07,6.21-18.62,18.82-11.99c12.6,6.64,21.86-4.44,22.63-6.44C498.09,396.25,507.01,392.9,508.4,400.01z"/>
		<path class="st8" d="M530.76,547.32c-6.68,4.06-12.9-5.96-20.66-6.37c-7.74-0.42-10.11,17.34-14.43,1.79
			c-4.3-15.57,4.26-52.68,4.26-52.68s-54.14-33.79-66.72-49.96c-1-1.27-1.69-2.36-2.02-3.26c-4.53-12.11,22.39-9.09,24.67-20.17
			c2.29-11.06,6.22-18.61,18.82-11.97c12.62,6.63,21.86-4.45,22.64-6.45c0.58-1.52,5.78-3.79,8.9-1.78
			c1.03,0.65,1.84,1.78,2.18,3.53c0,0,8.83,70.19,9.42,93.02c0,0,27.55,28.51,25.62,37.76c-1.92,9.24-0.61,3.52-5.31,5.25
			C533.4,537.76,537.44,543.28,530.76,547.32z"/>
		<path class="st24" d="M491.04,433.32c-7.58,1.62-18.08-4.18-20.81,2.19c-2.71,6.35,7.09,14.79-5.2,12.74
			c-12.3-2.05-17.34-15.49-22.37-12.69c-1.4,0.78-3.95,2.26-6.92,3.56c-0.81,0.36-1.66,0.69-2.53,0.99c-1-1.27-1.69-2.36-2.02-3.26
			c-0.17-0.45-0.29-0.86-0.37-1.28c-2.22-10.64,22.83-8.22,25.04-18.89c0.63-3.02,1.38-5.79,2.4-8.05c0,0,0,0-0.01-0.01
			c2.7-6.06,7.26-8.74,16.43-3.91c12.62,6.63,21.86-4.45,22.64-6.45c0.44-1.13,3.45-2.68,6.22-2.55c0.97,0.02,1.89,0.25,2.68,0.77
			c2.86,4.36-0.11,8.48-3.97,12.33c-3.08,3.05-6.71,5.91-8.45,8.57C489.8,423.53,498.63,431.7,491.04,433.32z"/>
		<path class="st6" d="M491.04,433.32c-7.58,1.62-18.08-4.18-20.81,2.19c-2.71,6.35,7.09,14.79-5.2,12.74
			c-12.3-2.05-17.34-15.49-22.37-12.69c-0.44,0.23-0.98,0.55-1.62,0.9c-1.4,0.78-3.25,1.76-5.31,2.66c-1.74-1.2-3.42-2.39-4.92-3.54
			c-3.46-2.68-5.88-5.1-5.69-6.52c0.63-4.63,13.33-4.54,13.33-4.54s-9.03-2.99-5.48-8.7c3.52-5.71,12.9,1.37,12.9,1.37
			s-5.65-10-2.86-15.71c2.75-5.56,14.64,6.56,15.22,7.15c-0.26-0.41-4.98-7.49-2.24-14.83c2.8-7.56,20.85,6.93,20.85,6.93
			s-7.53-12.02-2.71-14.58c4.64-2.46,9.73,6.92,10.09,7.59c-0.18-1-2.85-15.98,2.69-14.35c5.56,1.66,6.41,14.21,6.46,14.88
			c0.17-0.39,4.66-11.4,9.37-7.03c2.07,1.93,1.77,5.29,0.78,8.48c-1.3,4.21-3.83,8.13-3.83,8.13l2.55,4.97
			c-0.9,0.89-1.84,1.77-2.79,2.62c-2.25,2.09-4.43,4.08-5.66,5.96C489.8,423.53,498.63,431.7,491.04,433.32z"/>
		<path class="st12" d="M491.04,433.32c-7.58,1.62-18.08-4.18-20.81,2.19c-2.71,6.35,7.09,14.79-5.2,12.74
			c-12.3-2.05-17.34-15.49-22.37-12.69c-0.44,0.23-0.98,0.55-1.62,0.9c-1.4,0.78-3.25,1.76-5.31,2.66c-1.74-1.2-3.42-2.39-4.92-3.54
			c-3.46-2.68-5.88-5.1-5.69-6.52c0.63-4.63,13.33-4.54,13.33-4.54s-9.03-2.99-5.48-8.7c3.52-5.71,12.9,1.37,12.9,1.37
			s-5.65-10-2.86-15.71c2.75-5.56,14.64,6.56,15.22,7.15c-0.26-0.41-4.98-7.49-2.24-14.83c2.8-7.56,20.85,6.93,20.85,6.93
			s-7.53-12.02-2.71-14.58c4.64-2.46,9.73,6.92,10.09,7.59c-0.18-1-2.85-15.98,2.69-14.35c5.56,1.66,6.41,14.21,6.46,14.88
			c0.17-0.39,4.66-11.4,9.37-7.03c2.07,1.93,1.77,5.29,0.78,8.48c-1.3,4.21-3.83,8.13-3.83,8.13l2.55,4.97
			c-0.9,0.89-1.84,1.77-2.79,2.62c-2.25,2.09-4.43,4.08-5.66,5.96C489.8,423.53,498.63,431.7,491.04,433.32z"/>
		<path class="st13" d="M491.04,433.32c-7.58,1.62-18.08-4.18-20.81,2.19c-2.71,6.35,7.09,14.79-5.2,12.74
			c-12.3-2.05-17.34-15.49-22.37-12.69c-0.44,0.23-0.98,0.55-1.62,0.9c-1.47-3.06-2.41-6.05-1.3-7.15c2.51-2.48,3.9,3.44,4.04,4.03
			c-0.05-0.78-0.26-8.32,4.83-9.87c5.36-1.62,3.65,7.41,3.65,7.41c2.41-2.38,8.31-0.5,8.31-0.5s-6.81-3.93-6.04-8.73
			c0.73-4.53,11.44,0.05,12.63,0.58c-0.93-0.55-7.88-4.74-6.48-9.21c1.5-4.79,11.29,3.9,11.29,3.9s-10.86-12.4-6.9-18.71
			c3.96-6.31,15.84,12.79,15.84,12.79s-0.2-13.39,2.02-11.9c2.2,1.5,4.88,8.54,4.88,8.54s-0.06-8.91,6.38-6.3
			c2.86,1.15,4.43,5.56,5.27,10.07c-2.25,2.09-4.43,4.08-5.66,5.96C489.8,423.53,498.63,431.7,491.04,433.32z"/>
		<path class="st10" d="M480.9,423c1.24,1.23,3.24,1.21,4.46-0.03c1.23-1.24,1.21-3.24-0.03-4.46c-1.24-1.23-3.24-1.21-4.46,0.03
			C479.65,419.78,479.66,421.78,480.9,423z"/>
		<path class="st10" d="M449.05,420.3c0.96,0.94,2.5,0.94,3.44-0.02c0.94-0.96,0.94-2.5-0.02-3.44c-0.96-0.95-2.5-0.94-3.44,0.02
			C448.08,417.81,448.09,419.35,449.05,420.3z"/>
		<path class="st10" d="M479.13,397.11c0.37,0.36,0.96,0.36,1.32-0.01c0.36-0.37,0.36-0.96-0.01-1.32
			c-0.37-0.36-0.96-0.36-1.32,0.01C478.76,396.15,478.77,396.74,479.13,397.11z"/>
		<path class="st10" d="M460.14,442.5c0.82,0.82,2.15,0.81,2.97-0.02c0.82-0.83,0.81-2.15-0.02-2.97c-0.82-0.82-2.15-0.81-2.97,0.02
			C459.31,440.35,459.32,441.68,460.14,442.5z"/>
	</g>
	<g>
		<path class="st14" d="M528.91,506.77l-11.76-14.48l-9.21,19.79c0,0,10.45,7.13,21.64,2.59L528.91,506.77z"/>
		<polygon class="st14" points="499.21,488.38 495.12,504.35 507.95,512.08 517.16,492.29 		"/>
	</g>
	<g>
		<path class="st11" d="M613.72,472.35c-1.92,4.51-4.04,8.66-6.33,12.85c-2.28,4.17-4.8,8.22-7.52,12.15
			c-2.73,3.93-5.69,7.75-9.03,11.3c-3.36,3.53-7.09,6.85-11.47,9.5c-2.19,1.31-4.56,2.45-7.1,3.25c-1.27,0.41-2.6,0.69-3.81,0.9
			c-0.62,0.13-1.24,0.21-1.87,0.29c-0.62,0.09-1.24,0.17-1.87,0.21c-5,0.44-9.94,0.05-14.73-0.81c-4.79-0.84-9.4-2.31-13.85-4.05
			c-2.23-0.87-4.4-1.86-6.53-2.93c-2.14-1.08-4.19-2.19-6.28-3.54c-0.92-0.6-1.18-1.82-0.59-2.74c0.55-0.85,1.64-1.14,2.53-0.71
			l0.07,0.03c1.95,0.94,4.08,1.85,6.17,2.66c2.11,0.8,4.24,1.54,6.39,2.21c4.29,1.34,8.68,2.27,13.05,2.84
			c4.37,0.54,8.77,0.64,12.99,0.03c2.08-0.29,4.27-0.71,6.07-1.32c1.87-0.64,3.7-1.56,5.45-2.67c3.51-2.24,6.72-5.2,9.66-8.45
			c2.94-3.26,5.67-6.8,8.17-10.52c2.52-3.71,4.82-7.6,7.02-11.55c2.17-3.94,4.24-8.07,6.02-12.06l0.04-0.09
			c0.9-2.02,3.27-2.92,5.28-2.02C613.67,468.02,614.57,470.35,613.72,472.35z"/>
	</g>
	<path class="st6" d="M611.56,452.9c17.47,12.04,17.27,28.5-3.42,59.7l-33.07-19.19c0,0,9.37-8.87,18.03-24.2
		S611.56,452.9,611.56,452.9z"/>
	<path class="st12" d="M611.56,452.9c17.47,12.04,17.27,28.5-3.42,59.7l-33.07-19.19c0,0,9.37-8.87,18.03-24.2
		S611.56,452.9,611.56,452.9z"/>
	<g>
		<path class="st14" d="M463.93,483.09l-10.75-15.24l21.54-3.5c0,0,4.03,12-3.37,21.53L463.93,483.09z"/>
		<polygon class="st14" points="454.28,449.51 470.76,449.9 474.72,464.35 453.18,467.85 		"/>
	</g>
</g>
</svg>
