<?xml version="1.0" encoding="utf-8"?>
<!-- Generator: Adobe Illustrator 24.0.0, SVG Export Plug-In . SVG Version: 6.00 Build 0)  -->
<svg version="1.1" id="Layer_1" xmlns="http://www.w3.org/2000/svg" xmlns:xlink="http://www.w3.org/1999/xlink" x="0px" y="0px"
	 viewBox="0 0 1000 1000" style="enable-background:new 0 0 1000 1000;" xml:space="preserve">
<style type="text/css">
	.st0{opacity:0.33;fill:#A2E5FF;}
	.st1{fill:#A2E5FF;}
	.st2{fill:#6ED5FF;}
	.st3{fill:#00BCFF;}
	.st4{opacity:0.68;fill:#6ED5FF;}
	.st5{fill:#FFFFFF;}
	.st6{fill:#FFD231;}
	.st7{opacity:0.4;fill:#00BCFF;}
	.st8{opacity:0.83;fill:#FFFFFF;}
	.st9{opacity:0.36;}
	.st10{fill:#004CC2;}
	.st11{fill:#FC9F8A;}
	.st12{fill:#E62811;}
	.st13{fill:#F44259;}
	.st14{opacity:0.38;fill:#00BCFF;}
	.st15{opacity:0.51;fill:#FF9700;}
	.st16{opacity:0.5;fill:#FF5E00;}
	.st17{opacity:0.54;fill:#004CC2;}
	.st18{opacity:0.45;fill:#004CC2;}
	.st19{clip-path:url(#XMLID_4_);fill:#00BCFF;}
	.st20{opacity:0.24;clip-path:url(#XMLID_4_);fill:#00BCFF;}
	.st21{clip-path:url(#XMLID_5_);fill:#00BCFF;}
	.st22{opacity:0.24;clip-path:url(#XMLID_5_);fill:#00BCFF;}
	.st23{opacity:0.29;fill:#7338FF;}
	.st24{fill:#FF9700;}
	.st25{opacity:0.3;fill:#F44259;}
	.st26{opacity:0.27;fill:#FF9700;}
	.st27{opacity:0.1;fill:#F44259;}
	.st28{fill:#FFA18A;}
	.st29{clip-path:url(#SVGID_2_);fill:#00BCFF;}
	.st30{opacity:0.24;clip-path:url(#SVGID_2_);fill:#00BCFF;}
	.st31{fill:#FFC9AF;}
	.st32{opacity:0.3;fill:#FFC9AF;}
	.st33{clip-path:url(#XMLID_6_);fill:#FFC9AF;}
	.st34{opacity:0.21;}
	.st35{opacity:0.8;fill:#00BCFF;}
	.st36{opacity:0.51;fill:#6ED5FF;}
	.st37{opacity:0.35;fill:#00BCFF;}
	.st38{opacity:0.46;fill:#00BCFF;}
	.st39{fill:#3E417C;}
</style>
<g>
	<g>
		<path class="st0" d="M969.92,563.96c-7.94,63.43-53.76,52.88-60.99,126.63c-2.58,26.33,16.95,42.87,26.65,65.67
			c10.74,25.19,6.94,47.83-7.58,65.09H131.66c-17.61-7.93-34.4-16.36-49.02-26.49c-20.13-13.92-36.06-31.07-44.18-54.59
			c-7.33-21.25-12.98-41.75,6.28-57.87c10.46-8.76,21.34-15.52,30.81-23.65c7.12-6.1,13.42-12.97,18.17-22.06
			c34.71-66.59-9.82-125.28-26.17-191.91c-1.58-6.47-3.02-13.01-4.17-19.58c-3-16.71-4.4-33.67-2.62-50.19
			c1.61-15.13,5.88-29.93,13.96-43.84c12.14-20.88,43.6-51.7,77.4-45.83c25.4,4.43,41.38,28.78,64.32,37.59
			c28.9,11.1,60.96,2.22,82.62-14.09c42.11-31.73,69.09-92.05,141.06-86.52c24.4,1.87,40.88,21.14,62.28,29.97
			c29.41,12.16,58.43,12.07,86.54,0.24c32.33-13.61,54.51-38.89,86.26-53.36c10.4-4.73,21.72-8.87,33.52-12.05
			c25.54-6.91,53.46-9.36,79.8-4.03c5.58,1.12,10.88,2.47,15.89,4.03c88.05,27.11,92.19,115.9,88.05,180.68
			c-1.9,29.68-25.66,80.88-8.11,111.55S977.6,502.62,969.92,563.96z"/>
		<g>
			<g>
				<polygon class="st1" points="187.68,821.35 180.26,821.35 179.32,788.65 198.08,788.65 				"/>
				<polygon class="st1" points="326.17,821.35 333.59,821.35 334.53,788.65 315.77,788.65 				"/>
			</g>
			<rect x="169.56" y="471.15" class="st2" width="174.73" height="321.26"/>
			<g>
				<g>
					<rect x="184.36" y="495.41" class="st1" width="145.14" height="63.13"/>
					<circle class="st2" cx="256.93" cy="526.97" r="9.66"/>
				</g>
				<g>
					<rect x="184.36" y="565.28" class="st1" width="145.14" height="63.13"/>
					<circle class="st2" cx="256.93" cy="596.84" r="9.66"/>
				</g>
				<g>
					<rect x="184.36" y="635.15" class="st1" width="145.14" height="63.13"/>
					<circle class="st2" cx="256.93" cy="666.71" r="9.66"/>
				</g>
				<g>
					<rect x="184.36" y="705.02" class="st1" width="145.14" height="63.13"/>
					<circle class="st2" cx="256.93" cy="736.58" r="9.66"/>
				</g>
			</g>
			<rect x="164.4" y="465.85" class="st1" width="185.04" height="12.13"/>
		</g>
		<g>
			<g>
				<g>
					<g>
						<path class="st2" d="M233.34,252.49c-2.09-5.79,2.28-13.26,7.99-17.02c3.81-2.51,8.23-4.12,10.59-7.42
							c-0.23,4.36-1.37,8.16-4.26,12.3C244.47,244.9,239.6,249.61,233.34,252.49z"/>
						<path class="st1" d="M233.33,254.49c0.8-3.19-2.56-6.21-4.7-7.95c-2.17-1.76-4.58-3.25-6.47-5.2
							c-4.13-4.26-4.31-12.55,0.38-17.04c-1.32,1.13,0.73,4.96,1.37,5.95c1.48,2.29,3.8,3.99,5.75,5.99
							C234.24,240.92,235.02,247.81,233.33,254.49z"/>
						<path class="st1" d="M234.51,248.39c-1.05-2.92,1.98-6.45,3.92-8.51c1.96-2.09,4.17-3.95,5.85-6.17
							c3.64-4.82,3.13-12.79-1.78-16.28c1.37,0.86-0.3,4.89-0.84,5.95c-1.24,2.46-3.36,4.51-5.09,6.78
							C232.49,235.48,232.3,242.27,234.51,248.39z"/>
						<path class="st2" d="M232.79,247.62c-1.05-0.25-2.06-1.64-2.56-2.37c-0.97-1.42-1.52-3.01-1.79-4.65
							c-0.69-4.13,0.57-8.18,0.75-12.17c0.14-3.1-0.05-6.21-1.11-9.03c-0.54-1.42-1.43-2.6-2.22-3.87
							c-0.07-0.11,1.29,0.31,1.38,0.35c8.27,3.73,10.01,11.4,8.44,19.25c-0.49,2.45-0.84,4.87-1.61,7.33
							C233.59,244.01,232.4,246.07,232.79,247.62z"/>
					</g>
					<g>
						<polygon class="st1" points="244.28,268.43 227.24,268.43 221.65,250.59 249.87,250.59 						"/>
						<polygon class="st2" points="245.09,269.77 226.34,269.77 226.22,266.96 245.21,266.96 						"/>
						<polygon class="st2" points="250.36,252.71 221.06,252.71 220.51,247.08 250.91,247.08 						"/>
					</g>
				</g>
				<path class="st2" d="M350.3,235.61l2.04,4.12c0.76,1.54,2.23,2.61,3.93,2.85l4.55,0.66c4.28,0.62,5.99,5.88,2.89,8.89
					l-3.29,3.21c-1.23,1.2-1.79,2.92-1.5,4.62l0.78,4.53c0.73,4.26-3.74,7.51-7.57,5.5l-4.07-2.14c-1.52-0.8-3.33-0.8-4.85,0
					l-4.07,2.14c-3.83,2.01-8.3-1.24-7.57-5.5l0.78-4.53c0.29-1.69-0.27-3.42-1.5-4.62l-3.29-3.21c-3.1-3.02-1.39-8.27,2.89-8.89
					l4.55-0.66c1.7-0.25,3.17-1.31,3.93-2.85l2.04-4.12C342.86,231.73,348.38,231.73,350.3,235.61z"/>
				<g>
					<rect x="282.96" y="201.31" class="st2" width="18.7" height="68.87"/>
					<rect x="301.14" y="210.3" class="st3" width="10.66" height="59.88"/>
					<rect x="267.63" y="225.49" class="st1" width="15.7" height="44.69"/>
					<rect x="267.63" y="232.31" class="st4" width="15.7" height="5.18"/>
					<rect x="267.63" y="259.6" class="st4" width="15.7" height="5.18"/>
					<rect x="310.87" y="206.37" class="st2" width="13.18" height="63.8"/>
					<rect x="314.34" y="225.71" class="st1" width="6.23" height="28.58"/>
				</g>
				<g>
					<g>
						<g>
							
								<rect x="337.84" y="285.15" transform="matrix(-1 -1.224647e-16 1.224647e-16 -1 686.7044 597.0803)" class="st2" width="11.02" height="26.77"/>
							
								<rect x="330.67" y="282.71" transform="matrix(-1 -1.224647e-16 1.224647e-16 -1 686.7044 573.1093)" class="st2" width="25.37" height="7.7"/>
						</g>
						<g>
							
								<rect x="227.94" y="285.15" transform="matrix(-1 -1.224647e-16 1.224647e-16 -1 466.9105 597.0803)" class="st2" width="11.02" height="26.77"/>
							
								<rect x="220.77" y="282.71" transform="matrix(-1 -1.224647e-16 1.224647e-16 -1 466.9106 573.1093)" class="st2" width="25.37" height="7.7"/>
						</g>
					</g>
					
						<rect x="201.85" y="269.5" transform="matrix(-1 -1.224647e-16 1.224647e-16 -1 576.8074 553.4777)" class="st1" width="173.11" height="14.47"/>
				</g>
			</g>
			<g>
				<g>
					<path class="st2" d="M152.8,353.41h-11.24c-0.4,0-0.75,0.25-0.88,0.64l-20.1,33.92c-0.25,0.72,0.31,1.53,1.05,1.53l19.57,0
						c0.4,0,0.75-0.25,0.88-0.64l11.78-33.92C154.09,354.23,153.54,353.41,152.8,353.41z"/>
					<polygon class="st3" points="130.91,339.83 190.08,339.83 198.06,389.58 138.89,389.58 					"/>
					<polygon class="st2" points="132.98,339.83 192.15,339.83 200.13,389.58 140.96,389.58 					"/>
					<polygon class="st5" points="138.39,344.42 188.22,344.42 194.72,384.99 144.89,384.99 					"/>
					<polygon class="st2" points="146.74,352.21 182.36,352.21 186.37,377.2 150.75,377.2 					"/>
				</g>
				<g>
					<path class="st2" d="M242.77,372.43c0,6.38-3.6,11.91-8.88,14.68c-0.11,0.07-0.21,0.12-0.32,0.16
						c-2.22,1.13-4.72,1.74-7.38,1.74c-5.13,0-9.73-2.34-12.78-6.03c-0.25-0.28-0.48-0.58-0.69-0.9c-1.97-2.71-3.12-6.04-3.12-9.66
						c0-8.23,6.03-15.07,13.89-16.35c0.26-0.05,0.53-0.09,0.79-0.12c0.62-0.07,1.25-0.11,1.9-0.11c8.35,0,15.26,6.19,16.41,14.22
						c0.05,0.33,0.09,0.67,0.12,1C242.76,371.51,242.77,371.97,242.77,372.43z"/>
					<path class="st1" d="M223.23,373.51c-1.57,2.57-3.58,4.97-5.85,6.96c-1.18,1.02-2.5,1.96-3.97,2.52
						c-0.25-0.28-0.48-0.58-0.69-0.9c2.04-0.88,3.82-2.33,5.41-3.93c2.2-2.24,4.14-4.76,5.5-7.61c1.41-2.98,2.06-6.36,1.57-9.66
						c-0.23-1.48-0.69-2.94-1.39-4.26c-0.09-0.18-0.19-0.37-0.32-0.55c0.26-0.05,0.53-0.09,0.79-0.12c0.19,0.32,0.35,0.63,0.49,0.92
						C227.43,362.23,226.24,368.57,223.23,373.51z"/>
					<path class="st1" d="M242.72,371.07c-0.72,0.51-1.39,1.09-2.04,1.71c-3.91,3.75-6.29,8.95-6.78,14.33
						c-0.11,0.07-0.21,0.12-0.32,0.16c0.21-5.64,2.54-11.07,6.54-15.07c0.78-0.78,1.6-1.48,2.48-2.13
						C242.65,370.4,242.69,370.74,242.72,371.07z"/>
				</g>
				<g>
					<g>
						<g>
							
								<rect x="233.21" y="403.87" transform="matrix(-1 -1.224647e-16 1.224647e-16 -1 477.4452 834.5093)" class="st2" width="11.02" height="26.77"/>
							
								<rect x="226.04" y="401.42" transform="matrix(-1 -1.224647e-16 1.224647e-16 -1 477.4452 810.5381)" class="st2" width="25.37" height="7.7"/>
						</g>
						<g>
							
								<rect x="123.31" y="403.87" transform="matrix(-1 -1.224647e-16 1.224647e-16 -1 257.6516 834.5093)" class="st2" width="11.02" height="26.77"/>
							
								<rect x="116.14" y="401.42" transform="matrix(-1 -1.224647e-16 1.224647e-16 -1 257.6516 810.5381)" class="st2" width="25.37" height="7.7"/>
						</g>
					</g>
					
						<rect x="97.22" y="388.22" transform="matrix(-1 -1.224647e-16 1.224647e-16 -1 367.5484 790.9067)" class="st1" width="173.11" height="14.47"/>
				</g>
			</g>
		</g>
		<g>
			<ellipse class="st2" cx="843.56" cy="705.61" rx="41.23" ry="39.16"/>
			<polygon class="st1" points="883.61,710.78 804.1,710.78 808.05,821.35 879.66,821.35 			"/>
			<rect x="799.67" y="703.98" class="st2" width="90.15" height="14.19"/>
			<g>
				<path class="st1" d="M831.84,674.91c-2.19,5.09-3.91,10.38-5.09,15.8c-0.96,4.41-1.39,8.82-1.73,13.28h59.71
					c-0.64-14.71-9.79-27.33-22.93-33.5c-4.93,1.11-9.93,2.01-14.92,2.82C841.9,674.11,836.88,674.75,831.84,674.91z"/>
			</g>
		</g>
	</g>
	<g>
		<rect x="421.79" y="160.1" class="st6" width="268.44" height="177.59"/>
		<path class="st6" d="M472.45,335.03c-0.13,0.66,0.66,43.29,0.66,43.29l22.96-43.07L472.45,335.03z"/>
		<g>
			<rect x="428.62" y="167.87" class="st5" width="254.78" height="162.05"/>
			<g>
				<path class="st7" d="M683.39,300.62H465.47c-1.63,0-2.96-1.32-2.96-2.96V167.88h220.89V300.62z"/>
				<path class="st8" d="M683.39,289.99H478.88c-0.95,0-1.72-0.77-1.72-1.72v-120.4h206.23V289.99z"/>
				<g class="st9">
					<path class="st10" d="M667.82,201.62c-2.5-2.2-7.46-1.51-10.75-1.59c-9.89-0.23-19.78-0.34-29.68-0.29
						c-0.55,0-1.04,0.36-1.04,0.82c-0.08,7.06,0.16,14.11,0.72,21.16c-4.07-5-8.48-9.91-13.68-14.11c-0.29-0.23-0.86,0.07-0.6,0.36
						c4.98,5.54,10.13,10.92,14.56,16.78c0.44,0.58,1.76,0.44,1.71-0.35c-0.55-7.65-0.8-15.31-0.66-22.97
						c7.85,0.06,15.69,0.14,23.54,0.29c3.88,0.07,7.81,0,11.68,0.27c4.34,0.3,3.39,3.7,4.45,6.17c0.21,0.5,0.98,0.5,1.22,0.02
						C670.3,206.18,669.64,203.22,667.82,201.62z"/>
					<path class="st10" d="M666.28,216.12c-1.21,1.15-2.74,3.75-5.06,3.17c-1.34-0.33-1.69-1.91-2.12-2.83
						c-0.48-1.04-0.96-2.08-1.43-3.13c-0.23-0.52-1.17-0.77-1.55-0.19c-0.66,1.01-1.4,1.98-2.24,2.9c-0.6,0.66-2.11,2.55-3.35,2.13
						c-0.98-0.33-1.35-1.9-1.48-2.81c0.67-1.29,1.01-2.67,0.76-4.14c-0.1-0.58-1.29-0.75-1.59-0.2c-0.72,1.32-1.05,2.7-0.92,4.13
						c-0.25,0.42-0.53,0.84-0.85,1.23c-1.06,1.31-2.6,2.93-4.45,3.51c-2.42,0.77-3.92-1.19-4.49-2.84c-0.32-0.91-1.1-4.28,0.54-4.44
						c0.5-0.05,0.36-0.67-0.1-0.7c-0.29-0.02-0.58-0.04-0.88-0.05c-0.16-0.01-0.38,0.08-0.45,0.2c-1.15,1.95-1.24,4.23-0.27,6.26
						c0.86,1.78,2.68,3.42,5.22,3.12c2.55-0.3,4.5-2.2,5.93-3.8c0.11-0.13,0.2-0.27,0.31-0.4c0.35,0.88,0.88,1.73,1.73,2.16
						c2.76,1.39,5.57-1.96,7.15-4.22c0.5,1.13,0.99,2.27,1.55,3.38c0.55,1.1,1.37,1.96,2.87,2.17c3.19,0.46,5.39-1.98,5.88-4.27
						C667.05,216.17,666.59,215.83,666.28,216.12z"/>
					<path class="st10" d="M680.5,197.09c-0.39-0.35-0.93-0.39-1.49-0.43c-0.53-0.04-1.07-0.12-1.57-0.28
						c-0.72-0.24-1.45-0.77-1.54-1.45c-0.04-0.66-1.28-0.69-1.26-0.02c0,0.05,0.02,0.09,0.03,0.14l-0.01,0
						c0.15,0.87,0.19,1.81-0.1,2.67c-0.15,0.44-0.36,0.85-0.68,1.23c-0.25,0.3-0.81,0.87-1.29,0.87c-0.46,0-0.56-0.61-0.61-0.9
						c-0.11-0.63-0.16-1.27-0.19-1.9c-0.05-1.26,0.04-2.52,0.27-3.77c0.04-0.24-0.47-0.31-0.53-0.07c-0.27,1.17-0.44,2.36-0.47,3.55
						c-0.02,0.6,0,1.19,0.05,1.79c0.04,0.44,0.06,0.89,0.27,1.3c0.17,0.34,0.48,0.63,0.93,0.72c0.59,0.11,1.14-0.18,1.58-0.48
						c0.79-0.54,1.31-1.31,1.6-2.12c0.13-0.37,0.2-0.74,0.26-1.12c0.23,0.17,0.48,0.32,0.75,0.44c0.61,0.28,1.28,0.43,1.97,0.51
						c0.69,0.09,1.43,0.18,1.99-0.23C680.65,197.44,680.64,197.22,680.5,197.09z"/>
					<path class="st10" d="M609.97,253.65c-0.52,0.61-1.83,0.63-2.54,0.25c-0.96-0.5-1.38-1.53-1.72-2.37
						c-0.23-0.58-1.12-0.7-1.55-0.19c-0.79,0.94-1.57,1.89-2.36,2.83c-0.35,0.42-2.09,2.81-2.34,1.36
						c-0.38-2.21,0.13-4.75,0.68-6.91c0.21-0.82-1.32-1.2-1.53-0.37c-0.51,1.97-1.48,3.82-2.93,5.45c-1.1,1.24-3.57,3.8-5.76,3.35
						c-1.3-0.26-1.51-1.58-1.7-2.5c-0.23-1.11-0.29-2.24-0.22-3.37c0.14-2.27,0.9-4.49,2.18-6.5c0.34-0.54-0.63-1.03-0.99-0.49
						c-1.55,2.35-2.44,4.95-2.55,7.62c-0.08,1.93-0.15,5.46,2.51,6.34c2.64,0.88,5.41-1.37,6.95-2.85c0.63-0.61,1.18-1.26,1.69-1.94
						c0,0.01,0,0.01,0,0.02c-0.06,1.11-0.45,3.04,0.84,3.8c1.19,0.7,2.59,0.05,3.36-0.76c0.97-1.02,1.84-2.12,2.71-3.21
						c0.56,0.98,1.34,1.88,2.65,2.22c1.5,0.4,3.19-0.07,3.61-1.4C611.13,253.5,610.33,253.23,609.97,253.65z"/>
					<path class="st10" d="M625.63,255.99c-0.24-0.39-0.77-0.71-1.15-1.02c-0.44-0.36-0.88-0.72-1.32-1.08
						c-0.16-0.13-0.33-0.27-0.5-0.4c0.12-0.29,0.26-0.58,0.38-0.87c0.68-1.74,1.16-3.53,1.15-5.36c0-0.44-0.79-0.45-0.83-0.01
						c-0.19,1.79-0.87,3.49-1.71,5.14c-0.04,0.07-0.08,0.13-0.11,0.2c-0.32-0.26-0.64-0.52-0.97-0.78l-5.29-4.09
						c-0.52-0.4-1.27,0.19-0.79,0.63c1.65,1.49,3.3,2.98,4.96,4.47c0.43,0.39,0.88,0.77,1.33,1.15c-0.15,0.25-0.28,0.51-0.43,0.77
						c-0.48,0.85-1.03,1.74-1.37,2.63c-0.29,0.75,1.09,1.28,1.56,0.57c0.55-0.82,0.95-1.76,1.36-2.64c0.04-0.09,0.07-0.18,0.11-0.26
						l1.16,0.99c0.43,0.36,0.85,0.86,1.44,1.03C625.38,257.26,625.96,256.53,625.63,255.99z"/>
					<path class="st10" d="M670.62,248.37c-0.23-0.31-0.73-0.16-0.78,0.16c-0.22,1.42-1.26,3.17-3.09,3.53
						c-2.17,0.43-4.07-1.24-4-2.94c0.04-0.94-1.75-1.2-2.02-0.26c-0.45,1.55-1.17,4.1-3.56,4.24c-3.41,0.2-3.92-3.39-3.68-5.38
						c0.1-0.81-1.51-1.01-1.72-0.22c-0.61,2.22-2.31,4.64-5.02,5.49c-4.03,1.27-4.52-2.92-4.35-5.17c0.05-0.75-1.44-0.97-1.62-0.21
						c-0.01,0.06-0.01,0.12-0.03,0.18h-0.01c0,0.02,0,0.04,0,0.06c-0.09,0.47-0.13,0.97-0.12,1.49c-0.23,1.13-0.78,2.31-1.79,2.9
						c-0.41,0.24-1.17,0.46-1.49,0.24c-0.28-0.19-0.17-1.01-0.15-1.36c0.06-1,0.45-1.93,1.06-2.8c0.24-0.34-0.35-0.62-0.62-0.31
						c-0.97,1.11-3.23,5.75-0.03,5.98c1.38,0.1,2.61-1.2,3.29-2.03c0.06-0.07,0.1-0.15,0.15-0.23c0.65,1.77,2.07,3.2,4.63,3.02
						c2.74-0.19,4.83-1.79,6.21-3.72c0.55,1.88,1.97,3.47,4.66,3.71c2.57,0.23,4.13-1.2,5.11-2.92c1.12,1.39,3.08,2.31,5.22,2.01
						C669.85,253.45,672.28,250.67,670.62,248.37z"/>
					<path class="st10" d="M576.15,175.54c-0.1-0.37-0.67-0.57-1.07-0.38c-12.83,6.26-25.75,12.49-38.29,19.15
						c-0.45-0.35-0.92-0.67-1.44-0.91c-0.19-0.09-0.49-0.06-0.59,0.12c-0.19,0.32-0.26,0.6-0.01,0.91c0.14,0.18,0.47,0.07,0.42-0.14
						c0-0.01,0-0.02,0.01-0.02c0.21,0.19,0.42,0.38,0.64,0.56c-1.16,0.62-2.34,1.22-3.5,1.85c-0.31,0.17-0.04,0.58,0.29,0.42
						c1.25-0.6,2.48-1.21,3.73-1.82c0.49,0.44,0.97,0.89,1.39,1.39c0.83,1,1.5,2.09,1.96,3.24c0.29,0.71,0.58,1.54,0.72,2.38
						c-5.3-0.34-10.59-0.82-15.89-1.37c-0.76-0.08-0.97,0.99-0.21,1.1c5.32,0.82,10.72,1.34,16.16,1.66
						c-0.08,0.84-0.41,1.62-1.19,2.22c-0.16,0.13-0.1,0.38,0.13,0.43c1.48,0.28,2.15-1.03,2.33-2.02c0.03-0.18,0.03-0.37,0.04-0.56
						c12.54,0.66,25.25,0.13,37.56-1.26c0.33-0.04,0.6-0.36,0.59-0.61C579.68,193.02,578.49,184.2,576.15,175.54z M551.38,202.74
						c-3.25-0.03-6.47-0.17-9.69-0.35c-0.11-0.71-0.32-1.42-0.55-2.07c-0.49-1.37-1.23-2.68-2.2-3.86
						c-0.46-0.56-0.98-1.14-1.56-1.67c12.51-6.05,24.9-12.25,37.53-18.14c1.92,8.15,3.12,16.38,3.4,24.68
						C569.38,202.32,560.38,202.81,551.38,202.74z"/>
					<path class="st10" d="M594.9,183.76c-0.84,0.05-1.65,0.43-2.42,0.7c-0.8,0.28-1.57,0.59-2.36,0.89
						c-1.6,0.62-3.33,1.15-4.82,1.94c-0.23,0.12-0.1,0.45,0.19,0.39c1.68-0.39,3.28-1.08,4.88-1.65c0.79-0.28,1.6-0.56,2.38-0.86
						c0.77-0.3,1.7-0.56,2.31-1.06C595.2,183.99,595.12,183.75,594.9,183.76z"/>
					<path class="st10" d="M601.12,181.05c-0.55-0.3-1.26-0.17-1.87-0.1c-0.8,0.08-1.6,0.17-2.4,0.25c-0.8,0.08-1.6,0.17-2.4,0.25
						c-0.4,0.04-0.8,0.08-1.19,0.15c-0.41,0.07-0.9,0.09-1.25,0.29c-0.27,0.15-0.22,0.45,0.07,0.55c0.3,0.1,0.63,0.06,0.96,0.06
						c0.35,0,0.69,0,1.03-0.03c0.69-0.05,1.38-0.11,2.07-0.16l2.07-0.16c0.63-0.05,1.3-0.15,1.94-0.14c0,0,0.02,0,0.02,0
						c-0.08,0.21-0.2,0.41-0.32,0.61c-0.25,0.44-0.54,0.87-0.85,1.28c-0.3,0.4-0.62,0.78-0.97,1.15c-0.18,0.19-0.38,0.37-0.55,0.57
						c-0.19,0.22-0.29,0.44-0.42,0.68c-0.19,0.35,0.37,0.61,0.72,0.47c0.7-0.28,1.12-0.7,1.58-1.2c0.43-0.47,0.83-0.96,1.18-1.47
						c0.35-0.5,0.65-1.03,0.92-1.56C601.72,182.03,601.76,181.4,601.12,181.05z"/>
					<path class="st10" d="M636.4,178.49c-0.61-0.1-1.24-0.16-1.85-0.29c-0.67-0.14-1.21-0.42-1.85-0.6
						c-0.74-0.2-1.45-0.12-2.07,0.26c-0.69,0.42-1.07,1.08-1.63,1.6c-1.4,1.28-2.68-0.18-3.32-1.29c-0.33-0.56-1.3-0.27-1.35,0.28
						c-0.09,0.97-1.46,1.29-2.35,0.87c-0.84-0.4-1.19-1.15-1.22-1.92c-0.02-0.56-0.9-0.79-1.28-0.31c-0.88,1.11-1.9,2.16-3.12,3.03
						c-0.94,0.67-1.93,0.16-2.31-0.69c-0.32-0.73-0.26-1.5,0.06-2.2c0.24-0.69-0.97-0.95-1.28-0.31c-0.39,1.2-1.14,2.27-2.32,3.07
						c-0.84,0.57-2.42,0.99-3.08,0.04c-0.46-0.66-0.53-1.82-0.43-2.57c0.01-0.09-0.15-0.1-0.18-0.02c-0.42,1.04-1.03,1.94-0.39,3.05
						c0.45,0.78,1.43,1.3,2.5,1.22c1.49-0.11,2.75-0.96,3.69-2.01c0.29,1,1.01,1.86,2.34,2.09c1.9,0.32,3.66-1.48,4.83-2.96
						c0.45,0.94,1.26,1.75,2.59,1.91c1.14,0.14,2.16-0.3,2.78-1c1.15,1.29,2.87,2.26,4.63,0.85c0.88-0.71,1.34-2.17,2.78-1.67
						c1.36,0.47,2.52,0.87,3.91,0.19C636.76,178.96,636.76,178.55,636.4,178.49z"/>
					<path class="st10" d="M638.91,185.86c-1.14-0.27-2.39-0.07-3.57-0.29c-1.23-0.24-2.43-0.57-3.69-0.67
						c-1.18-0.1-2.32,0.07-3.35,0.56c-0.64,0.3-3.15,1.94-3.51,0.57c-0.13-0.48-0.86-0.6-1.27-0.3c-1.16,0.85-2.56,1.8-4.23,1.68
						c-1.47-0.11-2.82-1.55-1.35-2.49c0.56-0.36-0.17-1.17-0.75-0.83c-1.73,1.04-1.45,3.18,0.38,4.05c2.18,1.04,4.46,0.13,6.26-1.01
						c0.55,0.48,1.4,0.72,2.24,0.66c1.7-0.12,2.79-1.45,4.47-1.59c1.62-0.13,3.22,0.46,4.78,0.72c1.27,0.21,2.98,0.46,3.83-0.54
						C639.33,186.2,639.17,185.92,638.91,185.86z"/>
				</g>
			</g>
			<g>
				<path class="st10" d="M601.37,329.92H477.86c1.79-9.28,8.4-39.67,18.44-46.48c8.37-5.65,18.41-10.53,32.01-12.34
					c0.91-0.14,1.82-0.23,2.75-0.31c1.25-0.14,2.5-0.26,3.83-0.31c0,0,0,0,0.03,0c3.83-0.2,7.92-0.2,12.29,0.11h0.17
					c0.88,0.06,1.76,0.14,2.64,0.26c0.82,0.06,1.65,0.17,2.47,0.28c21.88,3.04,40.83,16.03,44.52,34.36
					c0.57,2.81,1.05,5.33,1.48,7.6v0.03C600.21,322.12,601,327.34,601.37,329.92z"/>
				<path class="st3" d="M560.37,329.92h-31.04c-0.82-8.26-2.95-34.59-3.21-39.18c-0.54-9.65-0.14-14.73,1.9-17.31
					c0.77-0.96,1.76-1.59,3.04-1.96c1.36-0.37,3.04-0.48,5.08-0.43c1.62,0.03,3.46,0.17,5.56,0.31c1.08,0.09,2.07,0.17,2.98,0.28
					c2.16,0.23,3.92,0.51,5.33,0.91c1.59,0.43,2.81,0.96,3.75,1.65c2.5,1.76,3.06,4.54,3.75,8.97
					C558.58,290.4,560.25,321.21,560.37,329.92z"/>
				<rect x="529.2" y="253.69" class="st11" width="22.37" height="19.95"/>
				<g>
					<path class="st11" d="M603.84,257.2c-0.42-7.28,0.71-14.8,4.35-21.12c0.83-1.45,2.73-2.96,3.93-1.8
						c0.53,0.51,0.59,1.32,0.61,2.05c0.15,5.62-0.38,11.25-1.57,16.74c0.88-1.87,3.26-2.84,5.23-2.21c1.97,0.64,3.32,2.74,3.17,4.81
						c0.52-2.09,3.73-2.35,5.27-0.84c1.54,1.5,1.8,3.87,1.82,6.02c0.78-1.06,2.58-0.76,3.41,0.26s0.94,2.44,0.93,3.76
						c-0.03,4.03-0.86,8.14-3,11.55c-2.14,3.41-5.71,6.05-9.72,6.47C605.59,284.21,604.33,265.88,603.84,257.2z"/>
					<path class="st11" d="M609.18,278.61c0,0-10.57-5.97-6.89-12.63c3.67-6.66,14.47-3.22,12.17,0.69c-2.3,3.9-7.35,3.22-7.35,3.22
						L609.18,278.61z"/>
				</g>
				<path class="st5" d="M528.47,268.18c1.19-0.12,6.97,4.3,13.2,3.98c6.22-0.32,9.33-3.18,10.25-4.14
					c0.92-0.95,6.02,9.23,5.25,10.34s-3.05,5.47-5.32,4.67c-2.27-0.8-8.68-8.46-8.68-8.46s-5.82,9.27-7.99,9.27
					c-2.18,0-9.18-3.25-9.55-8.35C525.26,270.41,526.95,268.34,528.47,268.18z"/>
				<polygon class="st10" points="629.63,278.62 629.18,329.92 595.47,329.92 598.47,313.13 598.47,313.1 604.8,277.91 608.18,278 
					608.21,278 608.52,278.03 609.03,278.03 626.4,278.54 				"/>
				<g>
					<path class="st10" d="M565.97,200.19c-0.62-0.44-1.4-0.4-2.17,0.35c-0.65,0.63-1.34,1.81-1.59,2.66
						c-0.88,3-0.55,6.32-0.05,9.18c0.46,2.64,1.2,5.26,2.43,7.55c0.05,0.09,0.1,0.19,0.15,0.28c0.59,1.05,1.31,2.02,2.15,2.89
						c0.17,0.06,0.34,0.12,0.53,0.12c0.58-0.02,1.14-0.4,1.59-0.83c3.02-2.89,2.34-7.5,1.77-10.83c-0.67-3.92-2.12-7.61-4.26-10.77
						C566.37,200.54,566.18,200.34,565.97,200.19z"/>
					<path class="st11" d="M569.95,226.06c0,19.15-3.03,35.59-23.11,36.87c-25.89,1.65-36.44-17.72-36.44-36.87
						s13.33-34.67,29.78-34.67S569.95,206.91,569.95,226.06z"/>
					<path class="st5" d="M538.3,243.46c0.75-1.29,4.78-0.97,9.5-1.5c5.34-0.6,9.06-1.62,9.99-1.11c1.76,0.98-1.86,8.77-8.77,9.42
						C544.11,250.73,536.93,245.8,538.3,243.46z"/>
					<path class="st10" d="M533.3,201.41c5.48,3.3,10.92,6.73,16.84,9.14c6.74,2.75,14.1,3.66,20.37-0.81
						c1.45-1.03,3.25-3.2,1.04-4.35c-1.44-0.75-3.36-0.57-4.94-0.71c1.78,0.16,3.68-0.23,5.08-1.35s2.21-3.02,1.74-4.7
						c-0.35-1.24-1.32-2.22-2.35-3.01c-3.13-2.41-7.08-3.61-11-4.39c-0.68-0.14-1.37-0.25-2.06-0.36c0.55-0.76,1.06-1.61,0.9-2.5
						c-0.17-0.95-1.04-1.61-1.88-2.13c-6.7-4.09-15.15-4.34-23.14-4.35c-5.63-0.01-11.51,0.1-16.53,2.6c-2.34,1.17-4.75,3.12-5,5.62
						c-5.45,0.42-10.14,4.61-11.99,9.57c-1.85,4.96-1.21,10.49,0.66,15.4s4.17,10.46,5.96,11.5c1.79,1.04,1.88-0.19,4.05,0.85
						c2.17,1.04,2.32,4.13,3.96,4.24c1.64,0.11,1.6-4.29,2.05-6.33c0.9-4.15,0.86-8.42,1.93-12.53c1.15-4.44,3.64-8.62,7.07-12.03
						c0.54-0.54,1.17-1.09,1.86-1.41c0.18-0.08,1.98,0.36,2.29,0.44c1.03,0.29,1.99,0.92,2.89,1.46
						C533.17,201.33,533.24,201.37,533.3,201.41z"/>
					<g>
						<path class="st11" d="M510.63,227.26c-2.15-3.91-5.38-6.55-8.53-3.85c-1.02,0.88-1.56,2.55-1.6,4.23
							c-0.04,1.68,0.36,3.37,0.9,4.93c1.37,3.95,3.81,7.43,6.85,8.89c1.15,0.55,2.49,0.77,3.44-0.12c1.3-1.22,1.55-3.71,1.44-5.78
							C513.02,233.03,512.07,229.86,510.63,227.26z"/>
						<path class="st12" d="M502.86,227.53c0.25-0.43,0.63-0.7,1.03-0.79c0.94-0.22,1.92,0.41,2.64,1.28
							c0.75,0.9,1.39,2.05,1.95,3.17c0.58,1.17,1.03,2.47,1.27,3.82c0.05,0.27-0.28,0.37-0.34,0.1c-0.52-2.18-1.64-4.21-2.83-5.86
							c-0.18-0.25-0.38-0.49-0.59-0.71c-0.26,1.06-0.28,2.23-0.07,3.35c0.25,1.36,0.75,2.5,1.34,3.66c0.06,0.12-0.04,0.26-0.13,0.17
							c-1.63-1.84-2.28-5.04-1.5-7.53c-0.36-0.31-0.76-0.52-1.18-0.56c-0.66-0.06-1.45,0.5-1.63,1.38
							c-0.03,0.17-0.25,0.11-0.26-0.06C502.55,228.41,502.62,227.93,502.86,227.53z"/>
					</g>
					<g>
						<path d="M573.02,217.9c-0.69-1.55-2.21-2.43-3.76-2.39c-1.68,0.05-3.37,0.15-5.07,0.23c-2.93,0.13-5.94,0.15-8.95,0.45
							c-2.17,0.21-3.9,1.2-4.03,3.69c0,0.03,0,0.06,0,0.1c-0.01,0-0.01-0.01-0.02-0.01c-0.92-0.48-1.94-0.55-2.93-0.29
							c-1,0.26-1.85,0.82-2.62,1.52c-0.01,0.01-0.01,0.01-0.02,0.02c-0.05-0.48-0.09-0.96-0.16-1.44c-0.37-2.51-2.27-3.42-4.59-3.52
							c-3.31-0.15-6.7-0.01-10.12,0.02c-2.04,0.01-4.11,0-6.19,0.04c-1.96,0.04-3.81,1.14-4.53,2.95c-0.41,1.03-0.48,2.15-0.39,3.25
							c-0.04,0.01-0.08,0.01-0.13,0.02c-0.54,0.07-1.07,0.16-1.6,0.23c-0.96,0.14-1.93,0.28-2.89,0.41
							c-0.96,0.13-1.91,0.32-2.87,0.49c-0.49,0.08-1.03,0.15-1.49,0.35c-0.3,0.14-0.67,0.52-0.43,0.88c0.46,0.71,1.8,0.39,2.52,0.34
							c0.93-0.07,1.87-0.14,2.8-0.26c0.93-0.12,1.87-0.24,2.8-0.36c0.47-0.06,0.94-0.12,1.41-0.19c0.05-0.01,0.09-0.01,0.13-0.02
							c0.53,3.31,1.19,6.73,2.3,9.84c0.46,1.28,1.05,2.54,2.42,3.06c1.27,0.48,2.76,0.34,4.09,0.32c1.73-0.03,3.45-0.13,5.16-0.29
							c3.08-0.29,6.27-0.67,9.16-1.56c2.77-0.85,3.06-3.32,3.01-5.88c-0.05-2.23-0.09-4.51-0.24-6.76c0.8-0.62,1.68-1.16,2.61-1.44
							c0.34-0.1,0.63-0.16,0.99-0.14c0.18,0.01,0.17,0,0.36,0.05c0.07,0.02,0.13,0.04,0.2,0.06c0.03,0.01,0.07,0.02,0.1,0.04
							c-0.06-0.03-0.06-0.03,0,0c0.14,0.07,0.27,0.15,0.39,0.24c0.02,0.01,0.03,0.02,0.04,0.04c0.06,0.06,0.12,0.12,0.18,0.19
							c0.01,0.02,0.13,0.17,0.08,0.09c-0.06-0.09,0.07,0.13,0.08,0.15c0.04,0.06,0.06,0.13,0.02,0.02c0.08,0.18,0.11,0.28,0.21,0.43
							c0.04,0.06,0.1,0.07,0.14,0.11c0.05,2.31,0.23,4.64,0.39,6.91c0.18,2.51,0.7,4.89,3.39,5.32c2.74,0.44,5.63,0.35,8.33,0.2
							c1.46-0.08,2.9-0.23,4.33-0.43c1.07-0.15,2.28-0.22,3.24-0.81c1.03-0.63,1.39-1.81,1.64-2.98c0.67-3.1,0.9-6.46,1.04-9.62
							C573.61,220.31,573.52,219.02,573.02,217.9z"/>
						<path class="st5" d="M544.1,231.7c-0.14,1.34-0.78,1.93-2.04,2.23c-4.74,1.14-10.1,1.76-15.2,1.5
							c-1.76-0.09-2.2-0.91-2.77-2.43c-0.51-1.34-0.91-2.71-1.23-4.11c-0.51-2.22-1.23-4.5-1.12-6.81c0.15-3.06,1.48-3.53,4.37-3.54
							c1.38-0.01,2.76-0.01,4.12-0.02c2.7-0.01,5.37,0,8-0.05c1.08-0.02,2.2-0.12,3.26,0.01c1.26,0.15,1.76,0.58,1.93,1.87
							c0.33,2.59,0.47,5.22,0.6,7.82C544.09,229.33,544.22,230.54,544.1,231.7z"/>
						<path class="st5" d="M571.58,226.55c-0.14,1.26-0.35,2.51-0.64,3.74c-0.33,1.41-0.61,2.19-2,2.47
							c-4.16,0.86-8.84,0.98-13.23,0.53c-1.2-0.12-1.86-0.61-2.11-1.89c-0.22-1.12-0.21-2.3-0.26-3.44
							c-0.11-2.54-0.22-5.11-0.14-7.65c0.04-1.26,0.48-1.71,1.64-1.93c0.98-0.18,2.01-0.15,2.99-0.2c2.35-0.11,4.67-0.27,6.96-0.4
							c1.14-0.07,2.27-0.13,3.39-0.2c2.3-0.14,3.37,0.21,3.73,2.89C572.19,222.5,571.8,224.55,571.58,226.55z"/>
					</g>
				</g>
			</g>
			<g>
				<g>
					<path class="st13" d="M454.79,315.44c0,4.37-3.54,7.91-7.91,7.91s-7.91-3.54-7.91-7.91c0-4.37,3.54-7.91,7.91-7.91
						S454.79,311.07,454.79,315.44z"/>
				</g>
			</g>
		</g>
	</g>
	<g>
		<path class="st10" d="M371.69,669.05c2.16,0,3.67,0.34,4.91,2.28c0.75,1.17,1.07,2.55,1.2,3.88c0.11,1.14-0.25,2.65,0.7,3.33
			c1.48,1.06,4.26,1.08,5.93,0.85c3-0.42,4.45-1.94,3.28-4.83c-1.11-2.77-3.35-4.96-6.01-6.27c-2.04-1-4.31-1.85-6.58-1.94
			c-1-0.04-1.8,0.27-2.56,0.91C372.19,667.57,371.11,668.56,371.69,669.05z"/>
		<path class="st10" d="M344.98,701.72c-4.82-1.58-13.34,16.16-15.4,19.09c-8.05,11.45-13.62,24.35-17.48,37.76
			c-5.21,18.07-10.61,36.27-8.51,55.28c1.36,12.31,9.14,21.27,22.39,19.87c6.29-0.66,18.48-1.67,23.68-5.28
			c2.37-1.65,2.53-3.8,0.48-6.72c-2.09-2.98-3.61-2.36-7.19-1.65c-6.76,1.34-12.59,3.15-18.42-2.08
			c-5.73-5.15-6.35-14.21-6.04-21.49c0.45-10.67,2.55-21.03,5.36-31.4c3.54-13.07,8.86-24.88,13.76-37.41
			c2.17-5.55,5.29-11.39,6.54-17.22c0.74-3.48-0.05-6.24,1.18-9.48C344.74,700.92,344.02,700.85,344.98,701.72z"/>
		<path class="st14" d="M320.36,829.63c-2.89-2.52-4.99-5.8-6.47-9.31c-3.32-7.91-3.8-16.86-3.54-25.33
			c0.3-9.41,1.68-18.78,3.23-28.05c1.29-7.77,2.84-15.5,4.87-23.1c0.76-2.87,1.62-5.69,2.55-8.49c-3.68,7.43-6.61,15.24-8.91,23.24
			c-5.21,18.07-10.61,36.27-8.51,55.28c1.36,12.31,9.14,21.27,22.39,19.87c0.4-0.04,0.81-0.08,1.25-0.13
			C324.72,832.72,322.4,831.42,320.36,829.63z"/>
		<g>
			<path class="st6" d="M436.42,828.18c-3.23,3.13-27.46,6.95-49.93,8.09c-4.69,0.22-9.26,0.35-13.58,0.32
				c-10.65-0.05-23.91,0.35-27.61-2.66c-8.81-7.13-30.42-128.9,6.9-150.3c8.54-4.89,28.83-7.72,36.67-7.37
				c0.94,0.05,1.86,0.1,2.76,0.22c24.68,2.88,38.54,30.57,44.55,71.04C444.26,801.91,442,822.79,436.42,828.18z"/>
			<path class="st15" d="M386.48,836.27c-4.69,0.23-9.27,0.35-13.59,0.33c-10.64-0.05-23.91,0.33-27.61-2.66
				c-8.81-7.14-30.42-128.89,6.91-150.3c3.79-2.17,9.87-3.93,16.16-5.2c3.1-0.62,6.27-1.13,9.22-1.48c4.56-0.56,8.64-0.81,11.3-0.7
				c0.95,0.05,1.87,0.11,2.77,0.23c-9.55,0.92-17.23,7.7-20.87,19.3C359.98,730.27,370.89,794.08,386.48,836.27z"/>
			<path class="st16" d="M377.57,676.96c-3.52,1.96-6.77,4.32-9.5,7.33c-6.01,6.63-10.1,15.21-12.81,23.68
				c-2.73,8.51-4.14,17.41-4.72,26.33c-0.63,9.46,0.39,18.82,0.97,28.27c0.65,10.61,2.56,20.88,3.61,31.44
				c0.07,0.78-2.27,1.41-2.96,1c-0.79,0.19-1.64,0.19-1.74-0.21c-1.53-5.99-1.97-12.37-2.73-18.5c-0.72-6.03-1.29-12.09-1.62-18.15
				c-1.02-18.56-0.41-37.87,6.31-55.42c3.24-8.48,7.89-17.29,14.82-23.31c0.39-0.33,0.76-0.65,1.16-0.97
				C371.45,677.83,374.62,677.32,377.57,676.96z"/>
		</g>
		<path class="st10" d="M421.36,721.07c-0.25-1.44-0.71-3.12-1.85-4.02c-1.3-1.04-3.33-0.98-4.91-0.97
			c-4.93,0.03-10.08,0.29-15.46,0.8c-2.38,0.22-4.95,0.32-7.38,0.93c-0.54,0.14-3.27,0.08-4.16,1.63c-0.42,0.74-0.17,3.88,0,6.58
			c0.19,3.04,0.4,5.64,1.8,6.14c0.6,0.01,1.13,0.24,1.71,0.27c0.65,0.04,1.39-0.13,2.04-0.19c1.41-0.13,2.8-0.27,4.17-0.41
			c2.64-0.27,5.23-0.55,7.76-0.84c4.85-0.55,9.49-1.14,13.94-1.74c1.03-0.14,2.12-0.48,2.56-1.65c0.28-0.73,0.27-1.54,0.23-2.31
			C421.75,723.87,421.6,722.46,421.36,721.07z"/>
		<path class="st3" d="M361.27,681.87c-1.8,0.1-0.28-10.28,1.28-12.38c2.56-3.45,7.11-4.49,11.17-4.92
			c4.69-0.49,14.19,4.35,14.07,10.37c-2.76-4.99-11.53-10.37-16.34-4.52c-2.09,2.55,0.08,6.53-1.31,8.63
			C368.34,681.76,363.07,681.77,361.27,681.87z"/>
		<g>
			<path class="st3" d="M448.38,830.42c-2.83,2.14-27.51,6.26-43.85,6.58c-5.86,0.12-10.65-0.25-12.99-1.37
				c-5.14-2.41-8.34-25.38-7.67-48.87c0.5-17.38,6.03-32.58,16.79-37.44c4.87-2.21,9.61-3.25,14.1-3.28
				c1.94-0.02,3.82,0.17,5.66,0.52c16.04,3.05,27.96,19.42,30.52,40.57C454.44,816.34,452.26,827.54,448.38,830.42z"/>
			<path class="st17" d="M420.42,746.56c-6.46,0.7-10.93,5.29-12.02,7.28c-5.91,10.75-7.52,24.19-7.9,36.67
				c-0.45,14.4-0.05,31.83,4.02,46.48c-5.86,0.12-10.65-0.25-12.99-1.37c-5.14-2.41-8.34-25.38-7.67-48.87
				c0.5-17.38,6.03-32.58,16.79-37.44c4.87-2.21,9.61-3.25,14.1-3.28C416.7,746.02,418.59,746.22,420.42,746.56z"/>
		</g>
		<path class="st10" d="M352.63,792.88c2.92-0.04,4.1,9.27,3.43,10.17c-0.67,0.9-4.37,1.21-5.3,0.56
			C349.82,802.96,349.71,792.92,352.63,792.88z"/>
	</g>
	<g>
		<g>
			<g>
				<polygon points="571.37,836.74 564.79,836.74 587.03,639.75 605.35,639.75 				"/>
				<polygon points="790.54,836.74 797.13,836.74 774.88,639.75 756.56,639.75 				"/>
				<polygon points="744.56,836.74 751.14,836.74 728.9,639.75 710.58,639.75 				"/>
				<polygon points="614.94,836.74 608.35,836.74 630.6,639.75 648.91,639.75 				"/>
			</g>
			<polygon class="st10" points="810.96,415.67 776.2,617.39 694.81,617.39 729.57,415.67 			"/>
			<polygon class="st18" points="801.03,415.67 766.27,617.39 694.81,617.39 729.57,415.67 			"/>
			<rect x="583.92" y="617.39" class="st10" width="192.28" height="27.15"/>
			<rect x="583.92" y="617.39" class="st18" width="69.03" height="27.15"/>
		</g>
		<g>
			<g>
				<defs>
					<path id="XMLID_14_" d="M530.09,712.83c0,0-34.77,6.89-26.66,14.98c8.12,8.09,54.37,15.83,56.6,12.74
						c2.23-3.09,9.09-26.02,9.09-26.02l-32.11-14.5L530.09,712.83z"/>
				</defs>
				<use xlink:href="#XMLID_14_"  style="overflow:visible;fill:#FFFFFF;"/>
				<clipPath id="XMLID_4_">
					<use xlink:href="#XMLID_14_"  style="overflow:visible;"/>
				</clipPath>
				<path class="st19" d="M550.62,734.58c4.04-3.04,8.42-6.04,13.44-6.63c0.92-0.11,2.04-0.04,2.51,0.76
					c0.24,0.41,0.24,0.92,0.19,1.39c-0.26,2.69-1.71,5.11-3.27,7.31c-1.59,2.24-3.37,4.39-5.59,6.01c-2.22,1.62-4.93,2.68-7.68,2.53
					c-2.06-0.11-6.9-1.77-6.75-4.5C543.61,739.03,548.86,735.9,550.62,734.58z"/>
				<path class="st19" d="M517.66,730.99c0.18,2.49-0.05,5.34-1.99,6.91c-2.07,1.67-5.15,1.1-7.55-0.04
					c-3.3-1.58-6.18-4.16-7.79-7.44c-1.61-3.28-1.86-7.28-0.36-10.62c0.57-1.26,1.37-2.4,2.23-3.49c1.16-1.46,2.49-2.85,4.18-3.66
					c1.49-0.71,3.98-1.12,5.26,0.18c1.23,1.25,2.12,3.79,2.82,5.38C516.26,722.25,517.35,726.59,517.66,730.99z"/>
				<path class="st20" d="M523.29,734.31c6.54,1.56,13.1,1.84,19.55,1.66c3.39-0.09,7.36-0.76,8.33-4.13
					c0.75-2.59-0.68-5.67-2.37-8.14c-2.8-4.11-6.46-7.61-10.55-10.09c-1.71-1.03-3.5-1.9-5.07-3.19c-1.57-1.29-2.95-3.12-3.2-5.11
					c-0.26-2.1,0.8-3.99,2.31-5.05c1.51-1.07,3.41-1.44,5.29-1.67c8.32-1.01,17.63,0.72,25.06,6.59
					c7.43,5.87,12.34,16.4,10.17,24.93c-1.16,4.58-4.15,8.15-7.56,10.91c-8.11,6.55-19.14,9.12-30.13,7.03
					c-7.56-1.44-15.05-5.09-21.51-10.34c-3.03-2.46-10.18-7.11-12.34-10.52c-3.26-5.15,5.01,0.85,6.68,1.87
					C512.3,731.71,518.6,733.18,523.29,734.31z"/>
			</g>
			<g>
				<defs>
					<path id="XMLID_13_" d="M576.31,732.97c0,0-29.1,20.25-18.42,24.41c10.68,4.16,56.16-7.3,56.96-11.02
						c0.8-3.72-2.1-27.49-2.1-27.49l-35.23-0.42L576.31,732.97z"/>
				</defs>
				<use xlink:href="#XMLID_13_"  style="overflow:visible;fill:#FFFFFF;"/>
				<clipPath id="XMLID_5_">
					<use xlink:href="#XMLID_13_"  style="overflow:visible;"/>
				</clipPath>
				<path class="st21" d="M603.84,744.66c2.49-4.4,5.29-8.91,9.66-11.46c0.8-0.47,1.85-0.85,2.6-0.31c0.39,0.28,0.59,0.74,0.74,1.2
					c0.84,2.57,0.48,5.36-0.06,8c-0.56,2.69-1.33,5.37-2.71,7.75c-1.39,2.37-3.45,4.43-6.02,5.4c-1.93,0.73-7.03,1.14-7.99-1.42
					C599.2,751.55,602.76,746.58,603.84,744.66z"/>
				<path class="st21" d="M572.21,754.59c1.16,2.21,2.09,4.91,0.94,7.13c-1.23,2.36-4.28,3.08-6.94,2.99
					c-3.66-0.12-7.32-1.33-10.12-3.7c-2.79-2.36-4.63-5.93-4.58-9.58c0.02-1.38,0.29-2.75,0.65-4.09c0.48-1.8,1.14-3.61,2.36-5.03
					c1.08-1.25,3.2-2.62,4.89-1.94c1.63,0.65,3.46,2.62,4.74,3.8C567.42,747.14,570.16,750.68,572.21,754.59z"/>
				<path class="st22" d="M578.69,755.37c6.61-1.19,12.74-3.57,18.57-6.31c3.07-1.45,6.43-3.65,5.97-7.12
					c-0.35-2.67-2.9-4.92-5.43-6.51c-4.22-2.64-8.97-4.38-13.71-5.01c-1.98-0.26-3.97-0.34-5.92-0.89c-1.96-0.55-3.95-1.67-4.98-3.4
					c-1.09-1.82-0.86-3.97,0.09-5.55c0.96-1.58,2.54-2.69,4.18-3.65c7.21-4.26,16.44-6.41,25.6-4.01
					c9.16,2.4,17.88,10.08,19.31,18.76c0.77,4.66-0.53,9.13-2.56,13.03c-4.81,9.26-13.88,16.03-24.78,18.52
					c-7.51,1.71-15.83,1.37-23.85-0.85c-3.76-1.04-12.18-2.44-15.52-4.69c-5.05-3.41,4.93-1.23,6.87-0.96
					C567.58,757.4,573.94,756.22,578.69,755.37z"/>
			</g>
			<g>
				<path class="st13" d="M731.66,564.47c0,0,10.07,47.7-18.98,48.45c-29.05,0.76-107.3,3.79-107.3,3.79l-37.06,108.12l-44.39-16.11
					c0,0,31.86-119.27,43.87-129.11c12.01-9.84,88.32-15.9,103.04-15.52C685.56,564.47,731.66,564.47,731.66,564.47z"/>
				<path class="st23" d="M731.66,564.47c0,0,10.07,47.7-18.98,48.45c-29.05,0.76-107.3,3.79-107.3,3.79l-37.06,108.12l-44.39-16.11
					c0,0,31.86-119.27,43.87-129.11c12.01-9.84,88.32-15.9,103.04-15.52C685.56,564.47,731.66,564.47,731.66,564.47z"/>
				<g>
					<polygon class="st24" points="522.38,711.03 567.54,726.98 575.14,713.22 525.44,694.94 					"/>
					<polygon class="st25" points="522.38,711.03 567.54,726.98 575.14,713.22 525.44,694.94 					"/>
					<path class="st26" d="M543.91,714.22c-3.74-3.31-7.13-7.01-9.96-11.13c-1.38-2.01-2.67-4.14-3.71-6.38l-4.8-1.77l-3.06,16.09
						l34.94,12.34C552.49,720.88,547.96,717.8,543.91,714.22z"/>
				</g>
			</g>
			<g>
				<g>
					<path class="st13" d="M757.26,566.36c0,0,10.45,50.65-19.7,51.45c-30.15,0.8-111.35,4.02-111.35,4.02l-8.55,109.16l-45.61-1.6
						c0,0,2.7-136.5,15.16-146.95c12.46-10.45,91.65-16.88,106.93-16.48C709.42,566.36,757.26,566.36,757.26,566.36z"/>
					<path class="st27" d="M605.66,729.5c-1.57-3.23-2.53-6.74-3.36-10.21c-0.87-3.64-1.71-7.3-2.49-10.96
						c-1.83-8.67-2.81-17.49-3.54-26.31c-0.63-7.69-1.16-15.38-1.84-23.07c-0.65-7.31-1.24-14.64-1.33-21.99
						c-0.17-14.27,1.6-28.94,9.89-40.96c6.8-9.86,15.7-17.96,25.72-24.42c-19.15,2.77-36.23,6.45-41.48,10.85
						c-12.46,10.45-15.16,146.95-15.16,146.95l34.22,1.2C606.07,730.23,605.84,729.88,605.66,729.5z"/>
					<path class="st27" d="M757.26,566.36c0,0-4.32,0-10.76-0.01c-0.02,0.73-0.05,1.46-0.1,2.18c-0.2,3.15-0.62,6.29-1.26,9.39
						c-0.6,2.89-1.31,5.9-2.64,8.55c-2.72,5.38-7.81,9.3-12.79,12.47c-5.29,3.36-10.9,6.13-16.77,8.32
						c-12.53,4.67-25.85,6.98-39.1,8.49c-8.88,1.01-17.79,1.43-26.69,2.2c-4.35,0.38-8.71,0.82-13.01,1.6
						c-1.63,0.29-3.28,0.63-4.85,1.16c-0.64,0.22-1.62,0.52-2.14,1.09c9.08-0.36,82.16-3.23,110.42-3.98
						C767.71,617.01,757.26,566.36,757.26,566.36z"/>
					<g>
						<g>
							<path class="st24" d="M606.15,712.84c-0.01,0-0.02,0-0.03,0c-0.24-0.02-0.43-0.23-0.41-0.47l0.19-2.63
								c0.02-0.24,0.19-0.45,0.47-0.41c0.24,0.02,0.43,0.23,0.41,0.47l-0.19,2.63C606.58,712.66,606.38,712.84,606.15,712.84z"/>
						</g>
						<g>
							<path class="st24" d="M606.74,704.85c-0.01,0-0.02,0-0.03,0c-0.24-0.02-0.43-0.23-0.41-0.47l0.41-5.38
								c0.02-0.24,0.23-0.46,0.47-0.41c0.24,0.02,0.43,0.23,0.41,0.47l-0.41,5.38C607.17,704.67,606.97,704.85,606.74,704.85z
								 M607.56,694.09c-0.01,0-0.02,0-0.03,0c-0.24-0.02-0.42-0.23-0.4-0.47l0.42-5.38c0.02-0.24,0.2-0.44,0.47-0.4
								c0.24,0.02,0.42,0.23,0.4,0.47l-0.42,5.38C607.98,693.91,607.79,694.09,607.56,694.09z M608.4,683.34c-0.01,0-0.02,0-0.03,0
								c-0.24-0.02-0.42-0.23-0.4-0.47c0.14-1.75,0.28-3.55,0.43-5.38c0.02-0.24,0.24-0.44,0.48-0.4c0.24,0.02,0.42,0.23,0.4,0.47
								c-0.15,1.83-0.29,3.62-0.43,5.37C608.82,683.16,608.63,683.34,608.4,683.34z M609.26,672.59c-0.01,0-0.02,0-0.04,0
								c-0.24-0.02-0.42-0.23-0.4-0.48l0.44-5.37c0.02-0.24,0.24-0.44,0.48-0.4c0.24,0.02,0.42,0.23,0.4,0.47l-0.44,5.37
								C609.68,672.42,609.49,672.59,609.26,672.59z M610.15,661.85c-0.01,0-0.02,0-0.04,0c-0.24-0.02-0.42-0.23-0.4-0.48l0.46-5.37
								c0.02-0.24,0.2-0.43,0.48-0.4c0.24,0.02,0.42,0.23,0.4,0.48l-0.46,5.37C610.57,661.67,610.38,661.85,610.15,661.85z
								 M611.07,651.11c-0.01,0-0.03,0-0.04,0c-0.24-0.02-0.42-0.24-0.4-0.48l0.48-5.37c0.02-0.24,0.2-0.43,0.48-0.4
								c0.24,0.02,0.42,0.24,0.4,0.48l-0.48,5.37C611.49,650.93,611.3,651.11,611.07,651.11z M612.04,640.37c-0.01,0-0.03,0-0.04,0
								c-0.24-0.02-0.42-0.24-0.4-0.48c0.17-1.82,0.34-3.61,0.5-5.37c0.02-0.24,0.23-0.44,0.48-0.4c0.24,0.02,0.42,0.24,0.4,0.48
								c-0.17,1.76-0.34,3.55-0.5,5.37C612.46,640.2,612.27,640.37,612.04,640.37z M613.07,629.63c-0.01,0-0.03,0-0.04,0
								c-0.24-0.02-0.42-0.24-0.4-0.48c0.18-1.85,0.37-3.64,0.55-5.37c0.03-0.24,0.25-0.41,0.49-0.39c0.24,0.03,0.42,0.24,0.39,0.49
								c-0.18,1.73-0.36,3.52-0.55,5.36C613.49,629.46,613.29,629.63,613.07,629.63z M614.2,618.91c-0.02,0-0.03,0-0.05,0
								c-0.24-0.03-0.42-0.24-0.39-0.49c0.21-1.91,0.42-3.7,0.63-5.36c0.03-0.24,0.26-0.41,0.49-0.38c0.24,0.03,0.41,0.25,0.38,0.49
								c-0.2,1.66-0.41,3.45-0.63,5.35C614.61,618.74,614.42,618.91,614.2,618.91z M615.54,608.2c-0.02,0-0.04,0-0.06-0.01
								c-0.24-0.03-0.41-0.26-0.37-0.5c0.34-2.33,0.66-4.14,0.94-5.36c0.05-0.24,0.3-0.39,0.53-0.33c0.24,0.06,0.38,0.29,0.33,0.53
								c-0.28,1.2-0.59,2.97-0.93,5.28C615.94,608.05,615.75,608.2,615.54,608.2z M620.48,600.36c-0.22,0-0.41-0.16-0.44-0.39
								c-0.03-0.24,0.14-0.46,0.38-0.49c1.38-0.17,3.14-0.36,5.39-0.55c0.24-0.03,0.45,0.16,0.48,0.4c0.02,0.24-0.16,0.46-0.4,0.48
								c-2.24,0.2-3.99,0.38-5.36,0.55C620.52,600.36,620.5,600.36,620.48,600.36z M631.24,599.37c-0.23,0-0.42-0.18-0.44-0.41
								c-0.02-0.24,0.16-0.45,0.41-0.47c1.69-0.13,3.49-0.25,5.39-0.38c0.26-0.03,0.45,0.17,0.47,0.41
								c0.02,0.24-0.17,0.45-0.41,0.47c-1.9,0.13-3.7,0.26-5.38,0.38C631.26,599.37,631.25,599.37,631.24,599.37z M642.01,598.64
								c-0.23,0-0.43-0.18-0.44-0.41c-0.02-0.24,0.17-0.45,0.41-0.47c1.74-0.11,3.54-0.22,5.38-0.34c0.29,0,0.45,0.17,0.47,0.41
								c0.01,0.24-0.17,0.45-0.41,0.47c-1.84,0.11-3.64,0.22-5.38,0.33C642.03,598.64,642.02,598.64,642.01,598.64z M652.78,597.98
								c-0.23,0-0.43-0.18-0.44-0.41c-0.01-0.24,0.17-0.45,0.41-0.47l5.38-0.32c0.24-0.01,0.45,0.17,0.47,0.41
								c0.01,0.24-0.17,0.45-0.41,0.47l-5.38,0.32C652.8,597.98,652.79,597.98,652.78,597.98z M663.55,597.35
								c-0.23,0-0.43-0.18-0.44-0.41c-0.01-0.24,0.17-0.45,0.41-0.47l5.38-0.31c0.24-0.02,0.45,0.17,0.47,0.41
								c0.01,0.24-0.17,0.45-0.41,0.47l-5.38,0.31C663.57,597.35,663.56,597.35,663.55,597.35z M674.32,596.73
								c-0.23,0-0.43-0.18-0.44-0.41c-0.01-0.24,0.17-0.45,0.41-0.47l5.38-0.31c0.24-0.02,0.45,0.17,0.47,0.41
								c0.01,0.24-0.17,0.45-0.41,0.47l-5.38,0.31C674.34,596.73,674.33,596.73,674.32,596.73z M685.09,596.1
								c-0.23,0-0.43-0.18-0.44-0.41c-0.01-0.24,0.17-0.45,0.41-0.47c1.83-0.11,3.62-0.22,5.38-0.33c0.25-0.04,0.45,0.17,0.47,0.41
								c0.01,0.24-0.17,0.45-0.41,0.47c-1.76,0.11-3.56,0.22-5.39,0.33C685.11,596.1,685.1,596.1,685.09,596.1z M695.86,595.42
								c-0.23,0-0.43-0.18-0.44-0.41c-0.02-0.24,0.17-0.45,0.41-0.47c1.86-0.12,3.66-0.24,5.38-0.36c0.25-0.03,0.45,0.17,0.47,0.41
								c0.02,0.24-0.17,0.45-0.41,0.47c-1.73,0.12-3.53,0.24-5.39,0.36C695.88,595.42,695.87,595.42,695.86,595.42z M706.63,594.66
								c-0.23,0-0.42-0.18-0.44-0.41c-0.02-0.24,0.16-0.45,0.4-0.47c1.95-0.15,3.75-0.3,5.38-0.45c0.27-0.03,0.46,0.16,0.48,0.4
								c0.02,0.24-0.16,0.46-0.4,0.48c-1.63,0.15-3.44,0.3-5.39,0.45C706.65,594.66,706.64,594.66,706.63,594.66z M717.38,593.65
								c-0.22,0-0.41-0.16-0.44-0.39c-0.03-0.24,0.14-0.46,0.38-0.49c2.83-0.36,3.59-0.62,3.79-0.74c0.36-0.22,0.73-0.45,1.11-0.71
								c0.2-0.14,0.47-0.08,0.61,0.12c0.14,0.2,0.08,0.48-0.12,0.61c-0.4,0.27-0.78,0.51-1.15,0.73c-0.33,0.2-1.09,0.47-4.14,0.86
								C717.42,593.65,717.4,593.65,717.38,593.65z M726.64,588.73c-0.12,0-0.23-0.04-0.32-0.13c-0.17-0.17-0.17-0.45,0.01-0.62
								c1.32-1.28,2.48-2.63,3.44-4.01c0.14-0.2,0.42-0.25,0.61-0.11c0.2,0.14,0.25,0.41,0.11,0.61c-1,1.43-2.19,2.82-3.55,4.14
								C726.86,588.69,726.75,588.73,726.64,588.73z"/>
						</g>
						<g>
							<path class="st24" d="M732.45,580.42c-0.05,0-0.11-0.01-0.16-0.03c-0.23-0.09-0.34-0.34-0.25-0.57
								c0.32-0.82,0.57-1.65,0.74-2.46c0.05-0.24,0.29-0.39,0.52-0.34c0.24,0.05,0.39,0.28,0.34,0.52c-0.18,0.86-0.44,1.74-0.78,2.6
								C732.79,580.31,732.62,580.42,732.45,580.42z"/>
						</g>
					</g>
				</g>
				<g>
					<polygon class="st24" points="571.12,730.79 619,732.22 622.04,716.8 569.13,714.53 					"/>
					<path class="st26" d="M592.6,727.26c-4.57-2.01-8.93-4.51-12.88-7.57c-1.93-1.49-3.8-3.13-5.48-4.94l-5.11-0.22l1.99,16.26
						l37.03,1.11C602.8,730.99,597.55,729.44,592.6,727.26z"/>
				</g>
			</g>
			<g>
				<path class="st28" d="M656.35,465.54c0,0-31.05,35.11-35.62,36.58c-4.57,1.47-52.75,9.65-52.75,9.65l-2.57,15.43
					c0,0,58.42,5.71,65.11,1.72c6.68-4,46.21-37.38,46.21-37.38L656.35,465.54z"/>
			</g>
			<path class="st3" d="M634.8,483.57c0,0,25.76-40.51,37.04-43.45c11.28-2.93,32.76,5.73,20.73,28.21
				c-12.03,22.49-27.38,38.55-27.38,38.55S642.06,504.05,634.8,483.57z"/>
			<path class="st14" d="M676.15,439.58c-3.1,4.1-5.74,8.55-8.19,13.06c-3.04,5.6-5.73,11.38-8.34,17.19
				c-2.65,5.91-5.1,11.91-7.14,18.05c-1.41,4.25-2.61,8.57-3.53,12.93c8.13,5.07,16.26,6.07,16.26,6.07s15.34-16.06,27.38-38.55
				C703.2,448.47,687.69,439.41,676.15,439.58z"/>
			<g>
				<defs>
					<path id="SVGID_1_" d="M760.59,510.15c-3.2-47.15-5.37-58.88-10.88-65.78c-5.47-6.84-25.63-9.83-39.83-10.39
						c-14.2-0.56-34.93,3.46-40.82,7.5c-5.91,4.05-9.45,21.24-8.54,42.61c0.79,18.52,4.69,38.2,4.53,46.77
						c-0.29,15.91-3.41,22.04-5.68,33.88c17.75,12.35,86.45,18.98,101.19,16.02C762,564.66,762.14,532.98,760.59,510.15z"/>
				</defs>
				<use xlink:href="#SVGID_1_"  style="overflow:visible;fill:#FFFFFF;"/>
				<clipPath id="SVGID_2_">
					<use xlink:href="#SVGID_1_"  style="overflow:visible;"/>
				</clipPath>
				<path class="st29" d="M685.16,444.93c-0.44,2.12,0.42,4.43,1.9,6.04c1.48,1.62,3.67,2.4,5.75,2.97
					c4.04,1.11,13.18-0.08,17.29-4.69c6.84,16.25,14.74,33.54,30.71,42.26c4.43,2.42,9.17,4.46,14.14,5.11
					c5,0.66,10.26-0.21,14.13-3.17c4.57-3.5,6.63-9.49,6.63-15.36c0-5.86-1.83-11.66-3.91-17.22c-3.57-9.54-8.15-18.98-15.59-25.9
					c-11.21-10.42-27.09-13.46-41.75-13.96c-12.33-0.42-24.63,0.67-35.91,4.65c-11.14,3.93-21.34,10.87-28,20.67
					c-8.62,12.69-10.75,30.11-5.49,45.23c0.83,0.1,2.2,0.28,2.91-0.17c7.89-4.96,11.88-14.49,16.8-22.76
					C670.03,459.76,677.2,451.48,685.16,444.93z"/>
				<path class="st30" d="M734.1,551.11c-2.07,6.42-4.42,13.05-9.26,17.75c-8.1,7.87-20.93,8.31-30.35,14.55
					c2.44,6.86,10.56,9.55,17.66,11.17c14.02,3.18,28.97,5.64,42.53,0.87c4.58-1.61,9.04-4.17,11.69-8.24
					c2.09-3.21,2.88-7.07,3.47-10.85c2.99-18.96,2.13-38.29,1.04-57.46c-1.15-20.13-2.54-40.25-4.25-60.34
					c-0.49-5.72-1.09-11.71-4.29-16.47c-1.93-2.87-4.85-5.23-8.11-6.42c-5.08-1.86-4.17,1.9-3.88,5.81c0.68,9,0.73,18.04,0.27,27.05
					c-0.92,17.86-3.87,35.58-8.1,52.95C740.11,531.45,737.25,541.33,734.1,551.11z"/>
				<path class="st30" d="M698.67,577.43c-7.48-2.7-14.67-5.19-21.66-8.9c-3.28-1.74-6.64-3.78-8.18-6.86
					c3.9-0.49,7.85-0.06,11.75,0.37c6.32,0.69,12.64,1.39,18.97,2.08c-6.66-2.24-12.89-5.92-18.93-9.36
					c-3.04-1.73-11.55-5.24-9.1-10.12c0.84-1.66,2.72-2.41,4.18-3.41c1.86-1.28,2.12-3.08,1.02-5.06c-1.44-2.58-4.24-4.24-6.65-5.8
					c-2.69-1.74-5.09-3.65-7.38-5.89c-1.27-1.25-2.51-2.59-3.65-4.01c-0.5,3.89,0.37,7.96,0.2,11.93
					c-0.17,3.98-1.42,7.85-2.33,11.76c-2.04,8.8-2.34,17.9-0.88,26.76c0.27,1.61,0.61,3.27,1.63,4.63c1.17,1.55,3.09,2.54,5,3.35
					c9.83,4.21,20.96,5.43,31.89,6.32C701.11,585.73,706.02,580.08,698.67,577.43z"/>
			</g>
			<g>
				<g>
					<path class="st31" d="M586.01,506.17c1.82-4.52,5.53-8.45,9.87-11.42c1.33-0.91,2.75-1.76,4.31-2.23
						c3.15-0.95,6.83-0.5,9.81,0.19c3.8,0.87,7.31,2.44,10.86,3.8c3.32,1.27,6.63,2.54,9.94,3.83c0.75,0.29,1.69,0.89,2.52,1
						c6.77,0.88,48.92,6.31,56.49,6.56c7.76-8.21,19.52-30.13,19.52-30.13s20.99,2.56,27.3,14.67c0.07-0.33-25.49,36.22-29.3,38.22
						c-3.81,2-21.05-0.86-41.9-6.26c-15.78-4.09-29.42-8.34-35.12-10.17c-0.84,0.22-1.77,0.38-2.8,0.45
						c-11.03,0.77-9.36-5.5-9.89-5.87l0.28-0.36c-2.13,0.75-4.28,1.46-6.44,2.09c-0.88,0.26-2.04,0.41-2.42-0.28
						c-0.29-0.54,0.14-1.22,0.56-1.75c1.42-1.78,2.99-3.46,4.69-5.03c-3.56,2.37-7.13,4.74-10.69,7.11
						c-0.71,0.47-1.68,0.96-2.33,0.53c-0.64-0.43-0.37-1.37,0-2.07c1.78-3.41,4.47-6.5,7.76-8.91c-2.4,1.81-4.8,3.62-7.2,5.43
						c-1.65,1.24-3.3,2.49-5.05,3.6c-1.58,1-3.56,1.92-5.23,1.35c-0.22-0.07-0.44-0.19-0.5-0.39c-0.06-0.19,0.04-0.4,0.14-0.59
						c2.06-4,5.72-7.24,9.28-10.36c-3.18,2.44-6.36,4.88-9.54,7.32c-1.23,0.94-2.76,1.96-4.21,1.61c-0.31-0.08-0.61-0.22-0.78-0.47
						C585.65,507.21,585.81,506.65,586.01,506.17z"/>
					<path class="st31" d="M702.65,507.01c-2.51-2.91-4.11-5.97-5.25-9.18c6.14-9.28,11.93-20.07,11.93-20.07s20.99,2.56,27.3,14.67
						c0.05-0.21-10.67,15.06-19.26,26.38C711.45,516.78,706.08,510.99,702.65,507.01z"/>
					<path class="st32" d="M617.44,506.75c2.58,0.31,4.83,1.38,7.32,1.98c2.39,0.57,4.89,0.79,7.33,1.22
						c6.55,1.16,12.77,3.45,18.95,5.48c11.64,3.82,23.54,7.09,35.72,9.7c7.38,1.58,15.19,3.69,23.01,3.21
						c-1.1,1.23-1.94,2.06-2.43,2.32c-3.81,2-21.05-0.86-41.9-6.26c-15.78-4.09-29.42-8.34-35.12-10.17
						c-0.84,0.22-1.77,0.38-2.8,0.45c-11.03,0.77-9.36-5.5-9.89-5.87l0.28-0.36c-2.13,0.75-4.28,1.46-6.44,2.09
						c-0.56,0.16-1.23,0.28-1.75,0.17C612.21,509.17,614.8,508.02,617.44,506.75z"/>
				</g>
				<g>
					<g>
						<path class="st3" d="M694.52,494.6c1.96-2.72,17.65-27.26,23.04-36.4c2.84-4.82,6.02-9.69,10.74-13.3
							c3.35-2.58,12.8-8.4,19.61-0.5c0.36,0.42,0.7,0.86,1.03,1.3c0.36,0.51,0.68,1.02,0.98,1.55c4.52,7.83,3.19,18.56,0.51,27.61
							c-0.52,1.78-1.16,3.51-1.91,5.22c-4.72,10.98-12.65,24.65-20.48,34.63C717.6,513.95,699.75,504.52,694.52,494.6z"/>
					</g>
				</g>
				<g>
					<g>
						<path class="st14" d="M749.18,475.47c-2.01,2.69-4.09,5.33-6.26,7.89c-3.65,4.32-7.61,8.39-11.61,12.39
							c-3.92,3.92-7.96,7.74-12.17,11.35c-1.48,1.27-3,2.5-4.53,3.7c4.82,2.2,9.63,3.64,13.44,3.92
							c7.84-9.98,15.77-23.65,20.48-34.63c0.74-1.71,1.38-3.44,1.91-5.22c0.18-0.6,0.35-1.22,0.52-1.83
							C750.37,473.85,749.78,474.66,749.18,475.47z"/>
					</g>
				</g>
			</g>
			<g>
				<defs>
					<path id="XMLID_3_" d="M687.58,420.8l24.19-3.5l2.64,19.94c0.19,1.45-0.22,2.87-1.17,4.02c-2.07,2.52-6.47,6.6-13.69,7.45
						c-7.42,0.87-8.36-2.54-8.25-4.66c0.1-1.96-0.15-3.93-0.52-5.89L687.58,420.8z"/>
				</defs>
				<use xlink:href="#XMLID_3_"  style="overflow:visible;fill:#FFC9AF;"/>
				<clipPath id="XMLID_6_">
					<use xlink:href="#XMLID_3_"  style="overflow:visible;"/>
				</clipPath>
				<path class="st33" d="M683.24,434.48c19.96,0.76,28.53-18.44,27.96-19.25c-0.71-1.01-2.62-0.95-4.17-0.69
					c-10.91,1.85-26.12,6.81-27.85,10.88C677.45,429.5,680.42,434.37,683.24,434.48z"/>
			</g>
			<g>
				<path d="M729.36,398.71c-1.28-0.06-2.81-0.15-3.77-1.05c-0.91-0.86-1.11-2.28-1.64-3.33c-1.76-3.47-5.73-5.32-9.3-2.88
					c-8.76,5.99-4.63,16.14-3.84,17.75c1.13,2.28,3.53,4.45,6.05,5.22c0.84,0.26,2.4,0.57,2.64-0.62c0.14-0.7-0.67-1.37-0.77-2
					c1.69,0.66,3.09,1.43,5,1.49c2.16,0.07,5.78-0.55,6.86-2.63c1.14-2.18-1.05-3.12-2.69-4.02c2.8,0.1,5.55-3.65,6.54-5.78
					C735.72,398.11,731.09,398.78,729.36,398.71z"/>
				<g>
					<path d="M650.81,354.05c-0.88,1.39-1.28,3-1.57,4.6c-0.74,4.06-0.82,8.22-0.24,12.3c0.25,1.78,0.65,3.59,1.62,5.13
						c1.35,2.14,3.67,3.55,6.01,4.66c1.45,0.69,3.14,1.3,4.64,0.72c1-0.39,1.72-1.26,2.21-2.18c1.73-3.21,1.23-7.06,0.65-10.63
						c-0.55-3.42-1.13-6.89-2.55-10.07c-1.06-2.37-2.65-4.61-4.8-6.19C654.41,350.65,652.31,351.67,650.81,354.05z"/>
				</g>
				<g>
					<path class="st31" d="M688.66,428.4c-14.47,3.49-22.29,0-26.54-4.89c-0.32-0.36-0.61-0.74-0.9-1.12
						c-3.98-5.46-7.23-17.66-8.17-22.32c-0.07-0.4-0.14-0.79-0.23-1.21c0-0.05,0-0.1-0.02-0.14c-1.21-6.67-1.62-13.96-1.37-21.54
						c1.17-32.25,28.25-46.16,51.26-35.54c8.69,4.03,16.14,11.54,20.53,20.59c0.34,0.69,0.67,1.4,0.97,2.12
						C737.94,396.71,716.13,421.82,688.66,428.4z"/>
					<g class="st34">
						<g>
							<path class="st13" d="M664.87,421.71c-0.67,0.86-1.64,1.45-2.75,1.8c-0.32-0.36-0.61-0.74-0.9-1.12
								c-3.98-5.46-7.23-17.66-8.17-22.32c-0.07-0.4-0.14-0.79-0.23-1.21c1.85,0.21,3.56,1.36,4.93,2.61
								c4.53,4.18,7.41,9.76,8.01,15.53C665.93,418.62,665.89,420.36,664.87,421.71z"/>
							<path class="st13" d="M707.68,416.36c0.34-0.26,0.66-0.52,0.97-0.78c5.14-4.45,10.96-13.59,5.74-20.45
								c-2.58-3.39-7.39-4.3-11.2-2.85c-3.8,1.44-6.66,4.82-8.51,8.58c-1.38,2.81-2.3,5.96-2.05,9.15c0.24,3.19,1.78,6.41,4.41,8.1
								C700.5,420.34,704.66,418.65,707.68,416.36z"/>
						</g>
					</g>
				</g>
				<g>
					<path d="M738.13,371.47c-0.43,2.73-1.04,5.43-1.75,8.11c-0.28,1-1.45,7.25-2.33,7.55c-0.38,0.12-0.76,0.2-1.14,0.17
						c-0.84-0.05-1.57-0.54-2.18-1.12c-1.22-1.17-2.36-2.68-4.34-2.39c-2.84,0.37-4.97,6.79-7.86,6.89
						c-3.52,0.12-4.92-3.26-5.93-6.57c0.18-3.46-0.15-5.28,0.81-12.58c0.05-0.22,0.05-0.44,0.08-0.66
						c-0.18-0.32-0.36-0.58-0.51-0.78c-2.18-3.04-5.83-4.16-9.05-5.79c-2.13-1.07-3.83-2.78-5.6-4.31c-2.05-1.78-3.85-3.82-4.97-6.3
						c-1.06-2.39-1.67-5.09-2.41-7.57c-4.26,5.01-9.86,9.52-16,12.32c-4.23,1.97-8.97,3.87-13.51,4.99
						c-3.57,0.88-9.13,1.8-12.19-0.78c-2.81-2.36-2.69-5.89-2-9.2c1.04-4.99,4.51-8.35,8.39-11.54c10.57-8.69,24.11-14.51,38-15.19
						c3.04-0.15,6.11-0.05,9.15,0.34c4.01,0.49,7.94,1.46,11.66,2.95c1.29,0.49,2.54,1.05,3.78,1.68c0.96,0.51,1.93,1.02,2.86,1.61
						c3.17,1.9,6.16,4.36,8.72,7.16c3.83,4.11,6.74,9.06,8.01,14.36c0.03,0.07,0.03,0.15,0.05,0.22
						C739.11,360.42,738.99,366.04,738.13,371.47z"/>
					<path class="st10" d="M729.81,340.43c-2.33,0.88-6.08-1.63-8.04-2c-5.45-0.97,0.43,6.79-0.13,8.74
						c-0.61,2.14-3.4,2.24-5.3,2.02c-3.14-0.32-4.74-2.43-7.4-3.63c-1.98-0.88-3.95,0.05-4.51,2.19c-0.41,1.51,1.5,5.38,0.38,6.43
						c-1.67,1.53-6.14-0.95-7.33-2.02c-2.23-2-3.96-5.82-2.71-8.74c0.33-0.92,2.81-1.19,3.83-1.75c2.08-1.07,3.98-2.43,6.03-3.53
						c2.92-1.53,5.7-3.63,8.82-4.87c1.39-0.56,3.04-1.14,4.77-1.61c0.96,0.51,1.93,1.02,2.86,1.61
						C724.26,335.17,727.25,337.63,729.81,340.43z"/>
					<path class="st10" d="M714.45,329.99c-1.5,0.73-2.99,1.46-4.59,2.04c-3.47,1.29-6.77,2.73-9.99,4.5
						c-2.79,1.53-5.65,3.07-8.09,5.11c-1.45,1.22-3.19,4.09-4.41,4.09c-2.89,4.24-8.92,4.04-13.11,2.17
						c-2.46-1.1-3.09-2.87-0.3-4.31c3.04-1.56,6.79-1.51,9.96-2.95c2.48-1.14,4.74-3.14,3.78-5.96c-0.61-1.75-2.64-4.41,0.43-5.06
						c2.33-0.49,5.05,1.78,7.35,2.19c2.18,0.39,3.17-0.05,4.44-1.75c0.99-1.31,1.55-2.31,2.86-3.02
						C706.79,327.53,710.72,328.5,714.45,329.99z"/>
				</g>
				<g>
					<path d="M664.22,394.72c0.38,2.31-0.5,4.36-1.95,4.58c-1.45,0.22-2.94-1.48-3.31-3.79c-0.38-2.31,0.5-4.36,1.95-4.58
						C662.37,390.71,663.85,392.41,664.22,394.72z"/>
					<path d="M694.41,390.79c0.39,2.39-0.66,4.54-2.34,4.79c-1.68,0.25-3.36-1.49-3.75-3.88c-0.39-2.39,0.66-4.54,2.34-4.79
						C692.34,386.66,694.02,388.4,694.41,390.79z"/>
					<path class="st12" d="M671.81,409.43c3.33-0.25,6.68-1.01,9.69-2.42c3.02-1.41,5.58-3.38,8.03-5.55
						c0.21-0.18,0.58,0.06,0.41,0.3c-3.81,5.46-11.41,8.58-18.13,8.33C671.36,410.08,671.37,409.47,671.81,409.43z"/>
					<path class="st12" d="M672.02,403.85c-1.94-0.45-3.91-1.9-3.86-4c0.02-0.93,0.45-1.88,1.26-2.4c0.64-0.41,1.43-0.53,2.09-0.92
						c1.66-0.97,0.85-2.69,0.39-4.12c-0.66-2.06-1.18-4.47-2.4-6.3c-0.17-0.25-0.69-0.18-0.65,0.17c0.13,1.14,0.57,2.27,0.95,3.35
						c0.42,1.18,0.82,2.36,1.22,3.54c0.2,0.59,0.74,1.55,0.38,2.15c-0.21,0.35-0.73,0.53-1.1,0.68c-0.79,0.33-1.52,0.6-2.09,1.24
						c-1.05,1.18-1.22,2.94-0.54,4.32c0.78,1.59,2.56,2.46,4.3,2.67C672.2,404.27,672.25,403.9,672.02,403.85z"/>
					<path d="M663.6,375.94c0.52,1.31-1.39,1.15-4.26,1.96c-2.87,0.81-3.05,3.32-3.91,3.22c-0.87-0.1-0.75-4.5,2.96-6.02
						C661.21,373.94,663.25,375.07,663.6,375.94z"/>
					<path d="M681.51,372.8c-0.26,1.18,3.29,0.69,7.21,0.43c3.93-0.26,6.75,2.54,7.2,1.51c0.44-1.02-2.36-4.33-7.13-4.44
						C684.03,370.19,681.68,372.03,681.51,372.8z"/>
				</g>
				<g>
					<path class="st31" d="M719.33,386.21c2.07-5.32,6.39-9.59,12.58-7.67c2.01,0.62,3.52,2.34,4.21,4.26
						c0.7,1.92,0.67,4.01,0.36,6.02c-0.78,5.07-3.48,10.01-7.93,12.84c-1.68,1.07-3.81,1.84-5.71,1.17
						c-2.6-0.91-3.94-3.69-4.54-6.11C717.57,393.76,717.95,389.75,719.33,386.21z"/>
					<path class="st32" d="M726.25,381.3c-1.51,1.52-2.34,3.62-3.79,5.1c-1.02,1.04-1.67,2.58-3.41,0.81
						c-0.02-0.02-0.03-0.04-0.05-0.06c0.1-0.31,0.21-0.63,0.33-0.94c1.94-4.98,5.86-9.04,11.43-7.96
						C729.1,378.89,727.57,379.98,726.25,381.3z"/>
					<path class="st12" d="M732.23,383.57c-0.58-0.4-1.29-0.57-1.99-0.52c-1.63,0.1-3,1.2-3.87,2.47c-0.9,1.32-1.52,2.89-2.02,4.39
						c-0.52,1.57-0.76,3.23-0.66,4.88c0.02,0.33,0.6,0.32,0.6-0.01c0.04-2.71,1.12-5.47,2.46-7.82c0.21-0.36,0.45-0.71,0.71-1.05
						c0.82,1.12,1.29,2.46,1.38,3.84c0.1,1.66-0.3,3.17-0.83,4.72c-0.05,0.16,0.16,0.29,0.27,0.14c2-2.74,1.87-6.67-0.36-9.24
						c0.48-0.49,1.05-0.89,1.73-1.09c1.07-0.32,2.57,0.02,3.2,0.98c0.12,0.18,0.46,0.03,0.4-0.17
						C733.06,384.47,732.78,383.95,732.23,383.57z"/>
				</g>
			</g>
		</g>
	</g>
	<g>
		<g>
			<g>
				<polygon points="238.1,836.74 229.74,836.74 257.98,552.06 281.24,552.06 				"/>
				<polygon points="705.92,836.74 714.28,836.74 686.04,552.06 662.78,552.06 				"/>
			</g>
			<g>
				<rect x="244.77" y="527.34" class="st10" width="454.48" height="31.12"/>
				<rect x="244.77" y="527.33" class="st18" width="454.48" height="12.18"/>
				<rect x="234.88" y="518.36" class="st10" width="474.26" height="15.39"/>
			</g>
		</g>
		<g>
			<g>
				<path class="st2" d="M390.12,417.3h123.69c2.43,0,4.6,1.51,5.45,3.78l33.24,88.72H419.24l-32.71-87.32
					C385.58,419.98,387.44,417.3,390.12,417.3z"/>
				
					<rect x="414.72" y="509.8" transform="matrix(-1 -1.224647e-16 1.224647e-16 -1 1026.2604 1028.8361)" class="st2" width="196.82" height="9.23"/>
				<path class="st3" d="M588.1,517.78c5-0.99,14.68-3.44,20.17-7.98h3.26v9.23h-30.63C583.34,518.67,585.75,518.25,588.1,517.78z"
					/>
				
					<rect x="414.72" y="509.8" transform="matrix(-1 -1.224647e-16 1.224647e-16 -1 962.7033 1028.8361)" class="st3" width="133.26" height="9.23"/>
				<g>
					<rect x="495.44" y="512.62" class="st35" width="38.33" height="3.97"/>
					<rect x="419.04" y="512.62" class="st35" width="8.86" height="3.97"/>
					<rect x="430.81" y="512.62" class="st35" width="8.86" height="3.97"/>
				</g>
				<path class="st3" d="M385.6,417.3h123.69c2.43,0,4.6,1.51,5.45,3.78l33.24,88.72H414.72l-32.71-87.32
					C381.07,419.98,382.92,417.3,385.6,417.3z"/>
				<path class="st36" d="M385.6,417.3h104.21c-50.68,1.29-77.76,2.82-88.18,4.36s-17.44,3.84-15.62,11.52l-4.01-10.7
					C381.07,419.98,382.92,417.3,385.6,417.3z"/>
				<path class="st37" d="M414.06,502.44c27.28,7.4,62.22,5.56,84.01-14.42c11.56-10.6,17.19-26.79,16.97-42.26
					c-0.13-8.72-1.74-19.5-5.79-28.47h0.05c2.43,0,4.6,1.51,5.45,3.78l33.24,88.72H414.72l-3.01-8.03
					C412.5,502.01,413.28,502.23,414.06,502.44z"/>
				<g>
					<path class="st38" d="M537.42,514.42c0,1.41,1.14,2.54,2.54,2.54c1.41,0,2.54-1.14,2.54-2.54c0-1.41-1.14-2.54-2.54-2.54
						C538.55,511.87,537.42,513.01,537.42,514.42z"/>
					<path class="st35" d="M538.26,514.42c0,0.94,0.76,1.7,1.7,1.7s1.7-0.76,1.7-1.7c0-0.94-0.76-1.7-1.7-1.7
						S538.26,513.48,538.26,514.42z"/>
				</g>
			</g>
			<g>
				<g>
					<path class="st39" d="M479.43,479.9l-9.37-7.52c-0.89-0.72-1.98-1.02-2.91-0.82l-9.75,2.14c-2.34,0.51-4.95-2.11-4.41-4.44
						l2.22-9.72c0.21-0.93-0.09-2.02-0.8-2.91l-7.45-9.42c-1.79-2.26-0.65-5,1.93-4.64l10.75,1.51c1.02,0.14,1.93-0.22,2.42-0.98
						l5.14-7.97c1.23-1.91,4.55-0.98,5.61,1.58l4.42,10.66c0.42,1.02,1.28,1.88,2.29,2.31l10.63,4.5c2.55,1.08,3.46,4.4,1.53,5.61
						l-8.02,5.07c-0.76,0.48-1.14,1.38-1,2.41l1.43,10.75C484.43,480.59,481.68,481.7,479.43,479.9z"/>
					<path class="st6" d="M479.39,476.11l-10.13-8.13c-0.3-0.24-0.67-0.35-0.99-0.28l-10.54,2.32c-0.79,0.17-1.68-0.72-1.5-1.51
						l2.4-10.51c0.07-0.31-0.03-0.68-0.27-0.99l-8.06-10.18c-0.61-0.77-0.22-1.7,0.66-1.58l11.62,1.64
						c0.35,0.05,0.65-0.08,0.82-0.33l5.56-8.61c0.42-0.65,1.54-0.33,1.9,0.54l4.78,11.52c0.14,0.34,0.43,0.64,0.78,0.78l11.49,4.86
						c0.87,0.37,1.17,1.49,0.52,1.91l-8.66,5.48c-0.26,0.16-0.39,0.47-0.34,0.82l1.54,11.62
						C481.08,476.34,480.15,476.72,479.39,476.11z"/>
					<path class="st5" d="M472.76,462.59l-3.51-2.82c-0.11-0.08-0.23-0.12-0.34-0.1l-3.65,0.8c-0.28,0.06-0.58-0.25-0.52-0.52
						l0.83-3.64c0.02-0.11-0.01-0.24-0.09-0.34l-2.79-3.53c-0.21-0.27-0.08-0.59,0.23-0.55l4.03,0.57c0.12,0.02,0.23-0.03,0.28-0.12
						l1.93-2.98c0.15-0.22,0.54-0.12,0.66,0.19l1.65,3.99c0.05,0.12,0.15,0.22,0.27,0.27l3.98,1.69c0.3,0.13,0.41,0.52,0.18,0.66
						l-3,1.9c-0.09,0.06-0.13,0.16-0.12,0.28l0.54,4.03C473.35,462.67,473.02,462.8,472.76,462.59z"/>
				</g>
				<path class="st5" d="M441.68,480.71c2.77,9.69,11.86,17.17,20.32,16.72c8.46-0.45,13.07-8.67,10.31-18.36
					c-2.77-9.69-11.86-17.17-20.32-16.72C443.53,462.81,438.92,471.02,441.68,480.71z"/>
				<path class="st13" d="M444.48,480.56c2.26,7.92,9.7,14.04,16.61,13.67c6.91-0.37,10.69-7.09,8.43-15.01
					c-2.26-7.92-9.7-14.04-16.61-13.67C445.99,465.93,442.22,472.64,444.48,480.56z"/>
				<path class="st6" d="M466.43,478.69c-0.17-0.39-0.57-0.52-0.91-0.24c-1.18,0.97-2.54-1.48-3.11-2.18
					c-1.2-1.46-2.4-2.93-3.59-4.39c-0.47-0.57-1.65-0.3-1.75,0.46c-0.14,1.03-0.07,2.03,0.08,3.02c-0.17-0.26-0.32-0.52-0.5-0.77
					c-0.66-0.9-1.7-1.77-2.88-1.31c-1.26,0.5-1.3,1.95-1.3,3.1c0.01,2.81,0.76,5.57,1.58,8.24c0.21,0.68,0.44,1.35,0.66,2.03
					c0.2,0.61,0.32,1.34,0.6,1.92c-0.05-0.02-0.09-0.04-0.14-0.07c-0.24-0.14-0.46-0.35-0.67-0.53c-0.46-0.4-0.89-0.84-1.29-1.3
					c-0.93-1.08-1.7-2.34-2.24-3.66c-0.43-1.05-1.22-2.91-0.37-3.92c0.42-0.49-0.22-1.14-0.71-0.71c-1.81,1.59-0.61,4.62,0.21,6.42
					c0.54,1.18,1.26,2.26,2.09,3.25c0.71,0.85,1.59,1.87,2.65,2.26c1.03,0.38,2.26,0,2.39-1.23c0.07-0.64-0.19-1.32-0.35-1.93
					c-0.21-0.78-0.43-1.57-0.65-2.35c-0.81-2.86-1.73-5.72-1.66-8.73c0-0.19,0-0.41,0.03-0.6l0-0.02c0.1,0.11,0.23,0.23,0.29,0.31
					c0.49,0.65,0.91,1.38,1.3,2.1c0.79,1.46,1.39,2.99,1.83,4.59c0.33,1.21,1.96,0.86,2.07-0.28c0.22-2.2-0.49-4.31-0.85-6.45
					c1.05,1.32,2.11,2.63,3.25,3.84c0.69,0.73,1.67,1.32,2.71,1.07C466.1,480.44,466.82,479.6,466.43,478.69z"/>
			</g>
		</g>
		<g>
			<g>
				<path class="st2" d="M349.12,443.53c-5.38-4.43-5.82-12.65-3.93-18.83c0.97-3.17,1.95-6.55,2.37-9.85
					c0.35-2.72,0.62-5.74-0.35-8.37c0.73,1.18,1.56,2,2.31,3.16c1.15,1.81,1.86,3.75,2.53,5.78c1.05,3.17,1.85,6.25,1.85,9.61
					c0,3.2-0.8,6.32-1.32,9.46c-0.35,2.09-0.61,4.23-1.32,6.24C351.04,441.32,350,444.25,349.12,443.53z"/>
				<path class="st2" d="M344.28,444.08c-6.44-2.62-11.06-6.9-13.33-12.88c-0.99-2.6-1.64-5.26-2.12-7.99
					c-0.24-1.33-0.6-2.73-0.63-4.09c0.02,0.76,0.69,1.41,1.18,1.95c1.09,1.19,2.33,2.17,3.55,3.21c1.35,1.15,2.62,2.27,4.09,3.27
					c1.57,1.06,3.28,2.07,4.7,3.34c2.8,2.51,5.1,5.7,6.06,9.38c0.35,1.33,0.21,3.07-0.36,3.57
					C346.76,444.41,345.41,444.54,344.28,444.08z"/>
				<path class="st2" d="M348.92,443.33c-0.99-1.49,0.6-4.31,1.42-5.46c2.03-2.84,5.12-5.16,8.18-6.8c3.4-1.83,7.12-3.05,10.75-4.34
					c1.54-0.55,3.19-1.02,4.55-1.96c0.72-0.49,1.83-1.21,2.04-2.13c-0.02,4-2.91,7.5-5.37,10.39c-2.56,3.01-5.4,5.31-8.99,6.96
					c-2.16,1-4.27,1.86-6.5,2.64c-1.27,0.44-2.57,0.88-3.92,0.94C350.28,443.62,349.32,443.94,348.92,443.33z"/>
				<path class="st10" d="M373.36,397.65c-3.13,3.12-5.64,6.89-8.03,10.59c-2.52,3.92-4.83,7.97-6.9,12.14
					c-4.03,8.11-7.29,16.78-9.05,25.68c-0.07,0.36,0.45,0.51,0.56,0.15c2.69-8.7,5.76-17.21,9.86-25.35
					c1.97-3.92,4.14-7.73,6.51-11.42c2.46-3.84,5.3-7.42,7.75-11.26C374.32,397.75,373.71,397.3,373.36,397.65z"/>
				<path class="st10" d="M344.39,422.38c-2.16-7.2-5.1-14.8-10.52-20.2c-0.18-0.18-0.52,0.06-0.36,0.28
					c4.61,6.18,7.52,13.2,9.55,20.6c2.17,7.88,2.82,15.82,3.68,23.91c0.05,0.48,0.71,0.49,0.76,0
					C348.34,438.82,346.73,430.17,344.39,422.38z"/>
				<path class="st13" d="M331.99,408.5c-1.35,0.04-3.03-0.46-4.15-1.23c-1.01-0.69-1.44-1.79-1.78-2.92
					c-0.41-1.37-1.18-2.25-2.25-3.17c-1.43-1.22-2.97-2.1-4.85-2.33c-0.36-0.04-1.37,0.06-1.47-0.4c-0.14-0.59,1.38-1.45,1.76-1.64
					c1.23-0.61,2.75-0.91,4.12-0.92c1-0.01,2.05,0.55,3.01,0.42c-1.05-0.81-1.84-2.5-1.92-3.79c-0.08-1.26,0.35-3.84,1.78-4.34
					c1.05-0.37,1.02,1.27,1.14,1.93c0.24,1.22,0.74,3.16,1.7,3.99c-0.01-1.87,1.02-4.62,2.97-5.22c0.11,1.19-0.82,2.56-0.35,3.77
					c0.38-0.73,0.82-1.36,1.49-1.9c0.41-0.33,1.04-1.1,1.61-1.06c-0.37,0.8-0.39,1.96-0.43,2.83c-0.09,1.92,1.46,2.68,2.67,3.91
					c0.65,0.67,1.47,1.22,1.89,2.07c0.62,1.27,0.61,2.98,0.42,4.34C339.02,405.2,337.01,408.35,331.99,408.5z"/>
				<path class="st13" d="M383.59,392.11c0.24-0.08,0.7-0.09,0.77-0.37c0.2-0.8-2.37-1.2-2.78-1.29c-0.92-0.2-1.87-0.12-2.78,0.05
					c-0.3,0.06-0.84,0.35-0.96,0.02c-0.11-0.3,0.51-1.26,0.63-1.52c0.19-0.41,0.59-0.93,0.52-1.41c-1.13-0.19-3.33,0.98-3.56,2.15
					c-0.65-0.91-0.88-2.11-1.6-3.02c-0.36-0.45-0.82-1-1.36-1.22c-0.27-0.11-1.02-0.27-1.29-0.05c-0.27,0.21-0.18,0.78-0.16,1.08
					c0.08,1.02,0.25,2.14-0.01,3.16c-0.32,1.31-1.28,1.6-2.33,2.21c-0.68,0.4-1.33,0.99-1.83,1.59c-0.76,0.89-1.26,1.99-1.33,3.17
					c-0.14,2.27,1.22,4.38,2.91,5.77c0.47,0.38,0.97,0.72,1.5,1c3.32,1.76,8.29,2.56,10.24-1.53c0.85-1.77,0.8-3.56,0.66-5.47
					c-0.02-0.31-0.04-0.63,0.1-0.9c0.27-0.53,0.95-0.76,1.49-0.88c0.43-0.1,1.23-0.29,0.51-0.72c-0.57-0.35-1.39-0.09-2.01-0.13
					c0.48-0.48,0.97-0.82,1.55-1.15C382.83,392.43,383.18,392.25,383.59,392.11z"/>
			</g>
			<g>
				<path class="st6" d="M375.01,484.65c0-8.38-4.02-14.05-10.23-17.28c-4.12-2.15-6.88-6.23-6.88-10.88v-13.33h-17.23v13.33
					c0,4.65-2.75,8.73-6.88,10.88c-6.21,3.24-10.23,8.9-10.23,17.28c0,5.56,1.77,11.48,4.77,16.63c2.73,4.68,9.23,10,9.23,15.42v0
					h23.43l0,0c0-5.41,6.51-10.74,9.23-15.41C373.24,496.12,375.01,490.21,375.01,484.65z"/>
				<path class="st24" d="M359.13,445.41h-19.69c-0.34,0-0.62-0.28-0.62-0.62v-1.92c0-0.34,0.28-0.62,0.62-0.62h19.69
					c0.34,0,0.62,0.28,0.62,0.62v1.92C359.76,445.13,359.48,445.41,359.13,445.41z"/>
				<path class="st24" d="M362.1,515.54h-25.63c-0.34,0-0.61,0.27-0.61,0.61v1.88c0,0.34,0.27,0.61,0.61,0.61h25.63
					c0.34,0,0.61-0.27,0.61-0.61v-1.88C362.71,515.81,362.44,515.54,362.1,515.54z"/>
			</g>
		</g>
	</g>
</g>
</svg>
