<?xml version="1.0" encoding="utf-8"?>
<!-- Generator: Adobe Illustrator 24.0.0, SVG Export Plug-In . SVG Version: 6.00 Build 0)  -->
<svg version="1.1" id="Layer_1" xmlns="http://www.w3.org/2000/svg" xmlns:xlink="http://www.w3.org/1999/xlink" x="0px" y="0px"
	 viewBox="0 0 1000 1000" style="enable-background:new 0 0 1000 1000;" xml:space="preserve">
<style type="text/css">
	.st0{opacity:0.4;fill:#12213A;}
	.st1{fill:#1A2E35;}
	.st2{fill:#FFFFFF;}
	.st3{opacity:0.1;}
	.st4{fill:#007CFF;}
	.st5{fill:#E1E1E1;}
	.st6{fill:#FF8935;}
	.st7{fill:#FFB570;}
	.st8{opacity:0.3;}
	.st9{opacity:0.2;}
	.st10{fill:#FFC3BD;}
	.st11{fill:#FF847F;}
	.st12{opacity:0.5;fill:#FFFFFF;}
	.st13{fill:#CD5B51;}
	.st14{fill:#CE5B51;}
	.st15{fill:#F5F5F5;}
	.st16{fill:#BA221F;}
</style>
<ellipse id="_x3C_Path_x3E__84_" class="st0" cx="491.49" cy="865.14" rx="482.81" ry="28.2"/>
<g>
	<rect x="500.48" y="108.6" class="st1" width="480.04" height="349.69"/>
	<path class="st2" d="M628.05,269.81c-2.48,0-4.81-0.99-7.06-1.94c-1.58-0.67-3.08-1.31-4.59-1.61c-1.59-0.31-3.33-0.3-5.02-0.29
		c-2.41,0.02-4.9,0.04-7.11-0.88c-2.26-0.94-4.02-2.73-5.72-4.47c-1.22-1.24-2.37-2.41-3.68-3.29c-1.33-0.89-2.93-1.54-4.48-2.17
		c-2.24-0.91-4.56-1.85-6.27-3.56c-1.71-1.71-2.65-4.03-3.56-6.27c-0.63-1.55-1.28-3.16-2.17-4.48c-0.88-1.31-2.05-2.46-3.29-3.68
		c-1.74-1.7-3.53-3.46-4.47-5.72c-0.91-2.21-0.9-4.7-0.88-7.11c0.01-1.69,0.03-3.43-0.29-5.02c-0.3-1.52-0.93-3.01-1.61-4.59
		c-0.95-2.25-1.94-4.58-1.94-7.06c0-2.48,0.99-4.81,1.94-7.06c0.67-1.58,1.31-3.08,1.61-4.59c0.31-1.59,0.3-3.33,0.29-5.02
		c-0.02-2.41-0.04-4.91,0.88-7.11c0.93-2.26,2.73-4.02,4.47-5.72c1.24-1.22,2.41-2.37,3.29-3.67c0.89-1.33,1.54-2.93,2.17-4.48
		c0.91-2.24,1.85-4.56,3.56-6.27c1.71-1.71,4.03-2.65,6.27-3.56c1.55-0.63,3.16-1.28,4.48-2.17c1.31-0.88,2.46-2.05,3.68-3.29
		c1.7-1.74,3.46-3.53,5.72-4.47c2.21-0.92,4.7-0.9,7.11-0.88c1.68,0.01,3.43,0.03,5.02-0.29c1.52-0.3,3.01-0.93,4.59-1.61
		c2.25-0.96,4.58-1.94,7.06-1.94c2.48,0,4.81,0.99,7.06,1.94c1.58,0.67,3.08,1.31,4.59,1.61c1.59,0.31,3.33,0.3,5.02,0.29
		c2.41-0.02,4.91-0.04,7.11,0.88c2.26,0.94,4.02,2.73,5.72,4.47c1.22,1.24,2.37,2.41,3.68,3.29c1.33,0.89,2.93,1.54,4.48,2.17
		c2.24,0.91,4.56,1.85,6.27,3.56c1.71,1.71,2.65,4.03,3.56,6.27c0.63,1.55,1.28,3.16,2.17,4.48c0.88,1.31,2.05,2.46,3.29,3.68
		c1.74,1.7,3.53,3.46,4.47,5.72c0.91,2.21,0.9,4.7,0.88,7.11c-0.01,1.69-0.03,3.43,0.29,5.02c0.3,1.52,0.93,3.01,1.61,4.59
		c0.95,2.25,1.94,4.58,1.94,7.06c0,2.48-0.99,4.81-1.94,7.06c-0.67,1.58-1.31,3.08-1.61,4.59c-0.31,1.59-0.3,3.33-0.29,5.02
		c0.02,2.41,0.04,4.91-0.88,7.11c-0.94,2.26-2.73,4.02-4.47,5.72c-1.24,1.22-2.41,2.37-3.29,3.67c-0.89,1.33-1.54,2.93-2.17,4.48
		c-0.91,2.24-1.85,4.56-3.56,6.27c-1.71,1.71-4.03,2.65-6.27,3.56c-1.55,0.63-3.16,1.28-4.48,2.17c-1.31,0.88-2.46,2.05-3.67,3.29
		c-1.7,1.74-3.46,3.53-5.72,4.47c-2.21,0.92-4.7,0.9-7.11,0.88c-1.69-0.01-3.43-0.03-5.02,0.29c-1.52,0.3-3.01,0.93-4.59,1.61
		C632.86,268.82,630.53,269.81,628.05,269.81z M612.39,264.71c1.42,0,2.87,0.04,4.25,0.32c1.64,0.33,3.27,1.01,4.84,1.68
		c2.14,0.91,4.34,1.84,6.57,1.84c2.23,0,4.43-0.94,6.57-1.84c1.57-0.67,3.2-1.36,4.84-1.68c1.71-0.34,3.52-0.32,5.27-0.31
		c2.39,0.02,4.65,0.04,6.62-0.78c2.02-0.84,3.62-2.46,5.31-4.19c1.21-1.23,2.46-2.5,3.87-3.45c1.43-0.96,3.1-1.64,4.71-2.29
		c2.22-0.9,4.33-1.76,5.85-3.28c1.53-1.53,2.38-3.63,3.28-5.85c0.65-1.61,1.33-3.28,2.29-4.71c0.95-1.42,2.22-2.66,3.45-3.87
		c1.72-1.69,3.35-3.29,4.19-5.31c0.82-1.97,0.8-4.23,0.78-6.62c-0.01-1.75-0.03-3.56,0.31-5.27c0.33-1.64,1.01-3.27,1.68-4.84
		c0.91-2.14,1.84-4.34,1.84-6.57c0-2.23-0.94-4.43-1.84-6.57c-0.67-1.57-1.36-3.2-1.68-4.84c-0.34-1.71-0.33-3.52-0.31-5.27
		c0.02-2.39,0.04-4.65-0.78-6.62c-0.84-2.02-2.46-3.62-4.19-5.31c-1.23-1.21-2.5-2.46-3.45-3.87c-0.96-1.43-1.63-3.1-2.29-4.71
		c-0.9-2.22-1.75-4.33-3.28-5.85c-1.53-1.53-3.63-2.38-5.85-3.28c-1.61-0.65-3.28-1.33-4.71-2.29c-1.42-0.95-2.66-2.22-3.87-3.45
		c-1.69-1.72-3.29-3.35-5.31-4.19c-1.97-0.82-4.23-0.8-6.62-0.78c-1.75,0.01-3.56,0.03-5.27-0.31c-1.64-0.33-3.27-1.01-4.84-1.68
		c-2.14-0.91-4.34-1.84-6.57-1.84c-2.23,0-4.43,0.94-6.57,1.84c-1.57,0.67-3.2,1.36-4.84,1.68c-1.71,0.34-3.52,0.32-5.27,0.31
		c-2.39-0.02-4.65-0.03-6.62,0.78c-2.02,0.84-3.62,2.46-5.31,4.19c-1.21,1.23-2.46,2.5-3.87,3.45c-1.43,0.96-3.1,1.64-4.71,2.29
		c-2.22,0.9-4.33,1.76-5.85,3.28c-1.53,1.53-2.38,3.63-3.28,5.85c-0.65,1.61-1.33,3.28-2.29,4.71c-0.95,1.42-2.22,2.66-3.45,3.87
		c-1.72,1.69-3.35,3.29-4.19,5.31c-0.82,1.97-0.8,4.23-0.78,6.62c0.01,1.75,0.03,3.56-0.31,5.27c-0.33,1.64-1.01,3.27-1.68,4.84
		c-0.91,2.14-1.84,4.34-1.84,6.57c0,2.23,0.94,4.43,1.84,6.57c0.67,1.57,1.36,3.2,1.68,4.84c0.34,1.71,0.33,3.52,0.31,5.27
		c-0.02,2.39-0.04,4.65,0.78,6.62c0.84,2.02,2.46,3.62,4.19,5.31c1.23,1.21,2.5,2.46,3.45,3.87c0.96,1.43,1.63,3.1,2.29,4.71
		c0.9,2.22,1.76,4.33,3.28,5.85c1.53,1.53,3.63,2.38,5.85,3.28c1.61,0.65,3.27,1.33,4.71,2.29c1.42,0.95,2.67,2.22,3.87,3.45
		c1.69,1.72,3.29,3.35,5.31,4.19c1.97,0.82,4.23,0.8,6.62,0.78C611.71,264.72,612.05,264.71,612.39,264.71z"/>
	<circle class="st2" cx="628.05" cy="207.69" r="34.94"/>
	<path class="st2" d="M653,173.37c-0.16,0-0.32-0.06-0.44-0.18c-0.24-0.24-0.24-0.64,0-0.89l27.3-27.3
		c0.12-0.12,0.28-0.18,0.44-0.18h54.04c0.35,0,0.63,0.28,0.63,0.63c0,0.35-0.28,0.63-0.63,0.63h-53.78l-27.11,27.11
		C653.32,173.31,653.16,173.37,653,173.37z"/>
	<path class="st2" d="M585.03,306.13H531c-0.35,0-0.63-0.28-0.63-0.63c0-0.35,0.28-0.63,0.63-0.63h53.78l27.11-27.11
		c0.24-0.24,0.64-0.24,0.89,0c0.24,0.24,0.24,0.64,0,0.89l-27.3,27.3C585.36,306.07,585.2,306.13,585.03,306.13z"/>
	<g>
		<path class="st2" d="M765.96,147.03c-0.17,0-0.33-0.08-0.44-0.22c-0.17-0.24-0.12-0.57,0.12-0.75c2.08-1.49,4.34-2.88,6.72-4.1
			c1-0.52,2.18-1.07,3.52-1.07c0,0,0.01,0,0.01,0c1.29,0,2.38,0.51,3.43,0.99c0.4,0.19,0.81,0.38,1.23,0.53
			c3.55,1.34,7.46,0.31,11.59-0.78c3.68-0.97,7.5-1.97,11.18-1.24c0.91,0.18,1.78,0.46,2.61,0.74c0.51,0.17,1.01,0.33,1.53,0.48
			c4.99,1.39,10.53,0.54,15.88-0.27c1.11-0.17,2.22-0.34,3.32-0.49c7.24-0.98,12.82-0.57,17.07,1.24c0.71,0.3,1.39,0.65,2.08,1
			c1.67,0.85,3.25,1.65,5.13,1.8c2.09,0.17,4.03-0.49,6.08-1.19c0.66-0.23,1.33-0.45,1.99-0.65c6.02-1.76,12.67-1.14,19.1-0.53
			l1.17,0.11c17.45,1.62,35.16,1.74,52.64,0.36c0.29-0.02,0.55,0.2,0.58,0.49c0.02,0.29-0.2,0.55-0.49,0.58
			c-17.55,1.38-35.32,1.26-52.83-0.36l-1.17-0.11c-6.33-0.6-12.88-1.21-18.7,0.5c-0.65,0.19-1.3,0.41-1.95,0.63
			c-2.07,0.7-4.2,1.43-6.51,1.24c-2.09-0.17-3.84-1.06-5.53-1.91c-0.66-0.34-1.33-0.67-2.01-0.97c-4.07-1.74-9.46-2.12-16.51-1.17
			c-1.09,0.15-2.2,0.32-3.3,0.48c-5.46,0.83-11.11,1.69-16.32,0.25c-0.54-0.15-1.06-0.32-1.58-0.49c-0.84-0.28-1.64-0.54-2.48-0.71
			c-3.45-0.68-7.13,0.29-10.7,1.23c-4.11,1.08-8.37,2.2-12.24,0.75c-0.44-0.17-0.87-0.37-1.3-0.56c-0.99-0.46-1.94-0.84-2.99-0.89
			c-1.09,0-2.09,0.47-3.02,0.95c-2.33,1.2-4.55,2.56-6.58,4.02C766.17,147,766.06,147.03,765.96,147.03z"/>
		<path class="st2" d="M860.32,161.31c-2.2,0-4.35-0.76-6.45-1.5c-2.14-0.75-4.3-1.54-6.59-1.51c-1.58,0.01-3.06,0.41-4.62,0.83
			c-0.98,0.26-2,0.53-3.04,0.7c-2.71,0.44-5.5,0.17-8.21-0.09l-0.33-0.03c-12.16-1.16-24.62-1.62-36.67-2.06
			c-4.16-0.15-8.8,0.51-9.38,2.84c-0.05,0.21-0.23,0.37-0.45,0.4c-0.22,0.03-0.43-0.08-0.54-0.27c-1.25-2.26-5.11-3.23-8.28-3.02
			c-3.49,0.23-6.74,1.58-9.6,2.77c-0.27,0.11-0.59-0.02-0.7-0.29c-0.11-0.27,0.02-0.59,0.29-0.7c2.94-1.22,6.28-2.6,9.94-2.85
			c3.04-0.2,6.84,0.59,8.71,2.75c1.74-2.69,7.48-2.8,10.04-2.7c12.07,0.44,24.55,0.9,36.73,2.07l0.33,0.03
			c2.64,0.25,5.36,0.51,7.93,0.1c0.99-0.16,1.98-0.42,2.94-0.68c1.56-0.42,3.18-0.85,4.89-0.86c2.45,0.01,4.73,0.79,6.96,1.57
			c2.75,0.97,5.35,1.88,7.98,1.2c0.86-0.22,1.62-0.6,2.42-1c0.43-0.21,0.86-0.43,1.3-0.62c3.98-1.71,8.67-1.4,13.21-1.11
			c2.61,0.17,5.31,0.34,7.85,0.14c0.31-0.02,0.55,0.2,0.58,0.49c0.02,0.29-0.2,0.55-0.49,0.58c-2.62,0.21-5.36,0.03-8.01-0.14
			c-4.61-0.3-8.97-0.58-12.72,1.02c-0.42,0.18-0.83,0.39-1.24,0.59c-0.82,0.41-1.66,0.83-2.63,1.08
			C861.75,161.23,861.03,161.31,860.32,161.31z"/>
		<path class="st2" d="M765.95,177.74c-0.21,0-0.41-0.13-0.5-0.33c-0.11-0.27,0.02-0.59,0.29-0.7c4.06-1.67,8.35-3.07,12.75-4.18
			c2.12-0.53,4.59-1.08,7.13-0.87c1.49,0.12,2.91,0.51,4.28,0.88c1.4,0.38,2.73,0.74,4.14,0.85c1.61,0.13,3.32-0.09,4.97-0.29
			c2.5-0.31,5.09-0.63,7.42,0.21c0.74,0.27,1.4,0.63,2.03,0.99c0.65,0.36,1.26,0.71,1.95,0.94c3.24,1.11,6.47-0.36,9.88-1.92
			c3.08-1.41,6.26-2.86,9.71-2.51c2.38,0.24,4.38,1.32,6.32,2.37c2.22,1.2,4.31,2.33,6.84,2.19c1.14-0.06,2.25-0.4,3.32-0.72
			l0.32-0.1c8.82-2.65,18.48-3.62,27.95-2.82l0.49,0.04c1.3,0.12,2.65,0.24,3.93,0.08c0.81-0.1,1.57-0.29,2.38-0.5
			c0.57-0.15,1.15-0.29,1.73-0.41c3.59-0.68,7.27,0.05,10.83,0.75c0.69,0.14,1.38,0.27,2.06,0.4c9.14,1.67,19.07,1.36,27.98-0.88
			c0.29-0.07,0.58,0.1,0.65,0.39c0.07,0.29-0.1,0.58-0.39,0.65c-9.05,2.28-19.15,2.6-28.43,0.9c-0.69-0.13-1.38-0.26-2.07-0.4
			c-3.45-0.68-7.03-1.39-10.42-0.75c-0.56,0.11-1.11,0.25-1.66,0.39c-0.81,0.21-1.65,0.42-2.53,0.53c-1.39,0.16-2.79,0.04-4.15-0.08
			l-0.49-0.04c-9.33-0.8-18.86,0.16-27.55,2.77l-0.31,0.09c-1.14,0.34-2.31,0.7-3.58,0.77c-2.82,0.15-5.15-1.1-7.41-2.32
			c-1.85-1-3.76-2.03-5.92-2.25c-3.15-0.32-6.2,1.07-9.15,2.41c-3.45,1.58-7.02,3.2-10.67,1.96c-0.78-0.27-1.47-0.65-2.13-1.02
			c-0.62-0.35-1.21-0.68-1.87-0.91c-2.09-0.75-4.44-0.46-6.92-0.16c-1.7,0.21-3.47,0.43-5.19,0.29c-1.51-0.12-2.95-0.51-4.34-0.88
			c-1.38-0.38-2.69-0.73-4.09-0.84c-2.36-0.2-4.74,0.33-6.78,0.85c-4.36,1.09-8.6,2.48-12.61,4.13
			C766.09,177.73,766.02,177.74,765.95,177.74z"/>
		<g>
			<path class="st2" d="M765.95,191.23c-0.24,0-0.46-0.16-0.52-0.41c-0.07-0.29,0.1-0.58,0.39-0.65c4.85-1.22,9.9-1.99,15.02-2.31
				c1.46-0.09,3.01-0.14,4.42,0.31c0.32,0.1,0.63,0.23,0.93,0.36c0.42,0.18,0.82,0.34,1.25,0.43c0.91,0.19,1.92,0.03,2.9-0.13
				c4.48-0.71,8.96-1.03,13.44-0.96c0.3,0,0.53,0.25,0.53,0.54c-0.01,0.3-0.2,0.52-0.54,0.53c-4.41-0.07-8.84,0.24-13.15,0.93
				c-1.18,0.19-2.29,0.36-3.39,0.13c-0.53-0.11-0.99-0.3-1.44-0.49c-0.28-0.12-0.55-0.23-0.84-0.32c-1.23-0.39-2.67-0.35-4.03-0.26
				c-5.05,0.31-10.03,1.08-14.82,2.28C766.04,191.23,766,191.23,765.95,191.23z"/>
			<path class="st2" d="M824.61,189.4c-0.29,0-0.52-0.23-0.53-0.52c-0.01-0.3,0.22-0.54,0.52-0.55c2.98-0.11,6.02-0.1,8.95-0.1
				l0.23,0c21.38,0.04,43.05-0.06,64.42-0.29c0,0,0,0,0.01,0c0.29,0,0.53,0.24,0.54,0.53c0,0.3-0.23,0.54-0.53,0.54
				c-21.38,0.24-43.06,0.34-64.43,0.29l-0.23,0c-2.92-0.01-5.95-0.01-8.91,0.1C824.62,189.4,824.62,189.4,824.61,189.4z"/>
		</g>
	</g>
	<g class="st3">
		<path class="st2" d="M895.01,323.28c0,5.97-4.13,11.47-5.25,17.11c-1.15,5.82,0.54,12.47-1.68,17.82
			c-2.26,5.45-8.18,8.94-11.42,13.78c-3.27,4.88-4.25,11.68-8.38,15.81c-4.14,4.14-10.94,5.12-15.81,8.38
			c-4.84,3.24-8.34,9.16-13.78,11.42c-5.35,2.22-12,0.53-17.82,1.68c-5.65,1.12-11.14,5.25-17.11,5.25
			c-5.97,0-11.47-4.13-17.11-5.25c-5.82-1.15-12.47,0.54-17.82-1.68c-5.45-2.26-8.94-8.18-13.78-11.42
			c-4.88-3.27-11.68-4.25-15.81-8.38c-4.14-4.14-5.12-10.94-8.38-15.81c-3.24-4.84-9.16-8.34-11.42-13.78
			c-2.22-5.35-0.53-12-1.68-17.82c-1.12-5.65-5.25-11.14-5.25-17.11c0-5.97,4.13-11.47,5.25-17.11c1.15-5.82-0.54-12.47,1.68-17.82
			c2.26-5.45,8.18-8.94,11.42-13.78c3.27-4.88,4.25-11.68,8.38-15.81c4.14-4.14,10.94-5.12,15.81-8.38
			c4.84-3.24,8.34-9.16,13.78-11.42c5.35-2.22,12-0.53,17.82-1.68c5.65-1.12,11.14-5.25,17.11-5.25c5.97,0,11.47,4.13,17.11,5.25
			c5.82,1.15,12.47-0.54,17.82,1.68c5.45,2.26,8.94,8.18,13.78,11.42c4.88,3.27,11.68,4.25,15.81,8.38
			c4.14,4.14,5.12,10.94,8.38,15.81c3.24,4.84,9.16,8.34,11.42,13.78c2.22,5.35,0.53,12,1.68,17.82
			C890.88,311.81,895.01,317.3,895.01,323.28z"/>
	</g>
	<g>
		<path class="st4" d="M531.39,431.5h52.13c1.06,0,1.93,0.87,1.93,1.93v14.25c0,1.06-0.87,1.93-1.93,1.93h-52.13
			c-1.06,0-1.93-0.87-1.93-1.93v-14.25C529.46,432.37,530.33,431.5,531.39,431.5z"/>
		<path class="st2" d="M530.6,431.5h53.72c0.62,0,1.13-0.51,1.13-1.13v-5.26c0-0.62-0.51-1.13-1.13-1.13H530.6
			c-0.62,0-1.13,0.51-1.13,1.13v5.26C529.46,430.99,529.97,431.5,530.6,431.5z"/>
	</g>
	<rect x="736.74" y="456.2" class="st1" width="7.53" height="395.34"/>
	<path class="st1" d="M753.43,742.39h-25.84c-0.94,0-1.7-0.76-1.7-1.7v-10.5c0-0.94,0.76-1.7,1.7-1.7h25.84c0.94,0,1.7,0.76,1.7,1.7
		v10.5C755.13,741.63,754.37,742.39,753.43,742.39z"/>
	<polygon class="st1" points="666.1,851.54 658.57,851.54 736.74,735.44 744.27,735.44 	"/>
	<polygon class="st1" points="814.91,851.54 822.44,851.54 744.27,735.44 736.74,735.44 	"/>
	<path class="st5" d="M981.97,112.15H499.04c-1.96,0-3.55-1.59-3.55-3.55l0,0c0-1.96,1.59-3.55,3.55-3.55h482.94
		c1.96,0,3.55,1.59,3.55,3.55l0,0C985.52,110.56,983.93,112.15,981.97,112.15z"/>
	<polygon class="st5" points="1001.23,449.61 479.78,449.61 491.94,462.79 989.07,462.79 	"/>
</g>
<g>
	<rect x="127.54" y="563.79" class="st4" width="239.04" height="5.86"/>
	<rect x="303.19" y="563.79" class="st1" width="63.38" height="5.86"/>
	<path class="st1" d="M268.98,860.39h-3.63l-15.08-154.5c-1.26-12.82-9.6-22.5-19.4-22.5h-29.74c-9.82,0-18.14,9.68-19.4,22.5
		l-15.08,154.5h-3.63l15.15-155.12c1.47-15.16,11.34-26.61,22.95-26.61h29.74c11.61,0,21.48,11.45,22.95,26.61L268.98,860.39z"/>
	<path class="st1" d="M156.51,860.39h-3.63l-15.08-154.5c-1.26-12.82-9.6-22.5-19.4-22.5H88.67c-9.82,0-18.14,9.68-19.4,22.5
		l-15.08,154.5h-3.63l15.15-155.12c1.47-15.16,11.34-26.61,22.95-26.61h29.74c11.61,0,21.48,11.45,22.95,26.61L156.51,860.39z"/>
	<g>
		<g>
			<path class="st1" d="M140.3,362.85c0.54,1.56,1.82,2.56,2.85,2.24c1.03-0.32,1.42-1.84,0.88-3.4c-0.54-1.56-1.82-2.56-2.85-2.24
				C140.15,359.78,139.76,361.3,140.3,362.85z"/>
			<path class="st6" d="M141.82,363.93c0,0,6.08,6.38,10.86,8.76c-1.44,3.01-5.8,3.5-5.8,3.5L141.82,363.93z"/>
			<path class="st1" d="M133.73,357.82c-0.15,0.05-0.31,0.07-0.48,0.04c-0.53-0.09-0.88-0.59-0.79-1.12c0.91-5.21,5.06-6.93,5.24-7
				c0.45-0.23,1.06,0.04,1.26,0.54c0.2,0.5-0.04,1.06-0.54,1.26c-0.17,0.07-3.34,1.45-4.05,5.54
				C134.3,357.44,134.05,357.71,133.73,357.82z"/>
			<path class="st7" d="M92.16,387.12l15.98,15.14l21.19,11.9c-0.75,0.68-0.49,5.42-0.17,7.79c0.66,4.93,2,8.7,8.72,11.48
				c2.59,1.07,5.05,2.43,5.46,4.81c0.5,2.89-1.62,6.49-13.48,8.2c-13.74,1.98-24.77-1.2-33.44-4.71c-5.01-2.03-4.12-4.27-2.88-9.01
				C96.74,420.66,96.01,399.34,92.16,387.12z"/>
			<path class="st1" d="M85.79,438.27c4.27-11.05,6.04-19.52,6.04-19.52s32.44-2.35,43.15,1.88c10.71,4.23,17.35,22.58,17.35,22.58
				L85.79,438.27z"/>
			<path class="st7" d="M88.61,378.58c7.64,18.23,11.19,29.31,23.89,35.43c19.11,9.22,39.01-7.75,36.95-28
				c-1.86-18.22-14.04-44.98-34.78-45.72C94.24,339.57,80.97,360.35,88.61,378.58z"/>
			<path class="st1" d="M127.07,377.62c7.19-8.2,2.2-22.36-4.19-27.96c6.19-0.21,22.17-1.61,17.38-15.39
				c-4.79-13.78-21.17-15.38-25.97-8.59c-13.58-7.59-29.96-1-25.97,9.39c-15.98-2.4-20.57,13.38-13.98,19.77
				c-8.39,6.99-11.39,20.77-0.4,25.97s11.19,18.18,22.37,24.97C107.49,412.57,133.26,401,127.07,377.62z"/>
			<path class="st7" d="M117.83,380.38c2.57,4.07,6.62,6.7,10.29,7.68c5.51,1.47,8.16-4.62,6.13-9.84
				c-1.84-4.69-7.42-10.02-12.71-9.19C116.32,369.86,114.88,375.74,117.83,380.38z"/>
			<g>
				<g>
					<g>
						<g>
							<g>
								<path class="st7" d="M100.97,462.64L84.77,495c-2.71,5.39-5.35,10.77-7.91,16.16c-2.56,5.35-5.12,10.73-7.34,16.01
									c-1.2,2.67-2.2,5.21-3.28,7.81l-1.37,3.72l-0.17,0.47l-0.09,0.23l-0.04,0.12l-0.02,0.05l0.06-0.24
									c0.33-1.35,0.36-2.47,0.33-3.2c-0.08-1.53-0.34-2.05-0.45-2.29c-0.22-0.35-0.14,0.33,0.13,1.13
									c0.26,0.82,0.71,1.84,1.23,2.91c1.07,2.15,2.43,4.51,3.84,6.92c5.83,9.66,12.98,19.78,19.47,30.06l0.16,0.25
									c2.86,4.53,1.5,10.52-3.03,13.37c-3.28,2.07-7.34,1.92-10.41-0.04c-5.58-3.57-10.69-7.33-15.71-11.45
									c-5.02-4.1-9.88-8.44-14.59-13.37c-2.39-2.45-4.7-5.07-6.99-8.1c-1.15-1.52-2.31-3.14-3.48-5.06
									c-1.16-1.93-2.37-4.07-3.45-7.39c-0.52-1.73-1.07-3.78-1.16-6.85c-0.04-1.5,0.08-3.39,0.59-5.5l0.4-1.59l1.33-5.14
									c0.98-3.22,1.91-6.55,2.99-9.63c2.12-6.29,4.44-12.26,6.79-18.26c2.46-5.9,4.92-11.77,7.54-17.53
									c5.26-11.56,10.74-22.73,16.96-33.94c5.14-9.26,16.82-12.6,26.08-7.45c9.01,5,12.41,16.18,7.86,25.31L100.97,462.64z"/>
								<g>
									<g>
										<path class="st4" d="M88.4,430.18c20.85,0.77,30.33,16.38,13.04,44.16c-14.87,23.88-16.91,24.37-16.91,24.37L46.76,480
											C59.45,455.82,67.06,429.4,88.4,430.18z"/>
									</g>
									<g class="st8">
										<path d="M88.4,430.18c20.85,0.77,30.33,16.38,13.04,44.16c-14.87,23.88-16.91,24.37-16.91,24.37L46.76,480
											C59.45,455.82,67.06,429.4,88.4,430.18z"/>
									</g>
								</g>
								<path class="st7" d="M99.25,579.17l-2.1-2.35c-6.54-6.07-9.31-5.31-16.8-5.31l-9.13,6.83c5.53,15.2,16.7,14.53,16.7,14.53
									l3.25,3.02c3.08,2.86,8.08,1.62,9.47-2.35l0.95-2.7C102.99,586.82,102.1,582.34,99.25,579.17z"/>
							</g>
							<g>
								<polygon class="st7" points="318.31,805.32 336.16,795.31 317.15,751.79 299.31,761.81 								"/>
								<polygon class="st9" points="308.52,782.9 326.65,773.52 317.15,751.79 299.31,761.81 								"/>
								<path class="st1" d="M333.84,786.17l-22.9,1.61c-0.83,0.06-1.42,0.68-1.41,1.5l0.17,18.2c0.02,1.89,1.91,3.54,3.82,3.37
									c7.96-0.7,11.19-2.68,21.18-4.11c6.15-0.88,20.92-1.75,29.19-4.02c8.09-2.22,6.95-9.9,0.16-9.61
									c-8.79,0.38-20.54-1.82-26.61-5.94C336.34,786.43,335.06,786.08,333.84,786.17z"/>
								<g>
									<path class="st1" d="M177.63,596.82c0,0,104.28-6.22,113.1,34.23c17.95,82.29,35.24,127.81,35.24,127.81l-27.58,14.24
										c0,0-40.55-56.92-52.53-115.24c-42.47-6.38-116.72,16.11-134.5-15.78c-15.69-28.15-1.92-48.36-1.92-48.36L177.63,596.82z"
										/>
								</g>
								<polygon class="st4" points="299.01,780.53 331.13,764.96 327.51,751.79 292.2,768.37 								"/>
								<path class="st4" d="M341.32,789.21c-1.88,0.13-3.99-0.11-5.48-0.35c-0.19-0.03-0.34-0.17-0.38-0.35
									c-0.05-0.18,0.02-0.37,0.16-0.49c0.62-0.5,6.11-4.85,8.67-4.05c0.59,0.18,1.01,0.62,1.2,1.27c0.32,1.06,0.18,1.94-0.41,2.62
									C344.31,788.72,342.89,789.1,341.32,789.21z M337.09,788.08c3.7,0.47,6.37,0.17,7.26-0.85c0.37-0.42,0.44-0.98,0.22-1.72
									c-0.1-0.34-0.28-0.54-0.57-0.63C342.62,784.45,339.35,786.41,337.09,788.08z"/>
								<path class="st4" d="M335.94,788.87c-0.07,0.01-0.15-0.01-0.22-0.04c-0.15-0.07-0.26-0.2-0.28-0.36
									c-0.04-0.25-0.91-6.08,1.01-8.2c0.52-0.57,1.18-0.84,1.97-0.81c0.95,0.05,1.59,0.51,1.82,1.32
									c0.63,2.19-2.11,6.66-4.06,8.01C336.11,788.83,336.02,788.86,335.94,788.87z M338.14,780.41c-0.39,0.03-0.72,0.19-0.99,0.49
									c-1.15,1.27-1.07,4.64-0.88,6.57c1.67-1.62,3.46-5,3.05-6.43c-0.08-0.27-0.26-0.59-0.95-0.63
									C338.29,780.4,338.21,780.4,338.14,780.41z"/>
							</g>
							<g>
								<polygon class="st7" points="200.61,842.63 220.88,841.67 224.2,793.81 203.93,794.77 								"/>
								<path class="st1" d="M222.95,835.23L200,834.5c-0.83-0.03-1.48,0.53-1.56,1.35l-1.69,18.12c-0.17,1.88,1.54,3.72,3.46,3.74
									c7.99,0.12,11.35-0.89,21.44-0.57c6.21,0.2,17.51,1.21,27.9,1.21c10.39,0,6.25-8.47,0.67-9.27
									c-8.71-1.25-18.17-7.78-23.8-12.49C225.41,835.75,224.17,835.27,222.95,835.23z"/>
								<path class="st4" d="M230.07,839.02c-1.89-0.06-3.96-0.51-5.42-0.9c-0.18-0.05-0.32-0.2-0.35-0.38
									c-0.03-0.19,0.05-0.37,0.21-0.47c0.67-0.43,6.57-4.2,9.04-3.14c0.57,0.24,0.94,0.72,1.07,1.38
									c0.21,1.09-0.02,1.95-0.68,2.56C233.1,838.84,231.66,839.07,230.07,839.02z M225.98,837.46c3.63,0.84,6.32,0.82,7.31-0.1
									c0.41-0.38,0.54-0.93,0.39-1.69c-0.07-0.35-0.23-0.57-0.5-0.69C231.85,834.42,228.4,836.03,225.98,837.46z"/>
								<path class="st4" d="M224.76,838.13c-0.07,0-0.15-0.02-0.22-0.06c-0.14-0.08-0.24-0.23-0.24-0.39
									c-0.01-0.25-0.29-6.14,1.84-8.06c0.57-0.52,1.26-0.72,2.04-0.6c0.94,0.14,1.53,0.67,1.68,1.5c0.4,2.24-2.78,6.41-4.85,7.56
									C224.93,838.11,224.85,838.13,224.76,838.13z M227.81,829.94c-0.4-0.01-0.74,0.11-1.04,0.39c-1.27,1.14-1.54,4.5-1.55,6.45
									c1.82-1.44,3.95-4.62,3.69-6.09c-0.05-0.28-0.2-0.62-0.89-0.72C227.96,829.95,227.89,829.94,227.81,829.94z"/>
								<g>
									<polygon class="st9" points="203.93,794.78 224.2,793.82 222.3,821.19 202.09,821.16 									"/>
								</g>
								<path class="st1" d="M130.04,594.66c0,0,126.59,23.59,124.14,59.16c-4.41,64.01-25.88,155.5-25.88,155.5l-30.41,0.43
									c0,0-4.15-95.15-0.39-141.48c-37.97,0-112.7-1.32-127.33-20.85c-16.16-21.57,0.46-55.46,0.46-55.46L130.04,594.66z"/>
								<polygon class="st4" points="195.33,815.25 233.69,814.69 235.51,802.22 193.73,803.45 								"/>
							</g>
							<g>
								<path class="st4" d="M157.23,431.61c-12.43-2.42-68.52-1.73-68.52-1.73c-11.59-0.29-21.55,8.28-22.85,19.8
									c-1.96,17.3,3.85,55.56,4.24,75.29c0.47,24.21,1,34.41,0.54,66.99l130.55,6.83c4.84-59.35-14.38-87.98-25.89-147.06
									C173.55,442.81,169.65,434.03,157.23,431.61z"/>
								<path class="st8" d="M157.23,431.61c-12.43-2.42-68.52-1.73-68.52-1.73c-11.59-0.29-21.55,8.28-22.85,19.8
									c-1.96,17.3,3.85,55.56,4.24,75.29c0.47,24.21,1,34.41,0.54,66.99l130.55,6.83c4.84-59.35-14.38-87.98-25.89-147.06
									C173.55,442.81,169.65,434.03,157.23,431.61z"/>
							</g>
							<g>
								<path class="st7" d="M173.1,450.72c5.88,10.45,11.93,21.42,18.04,31.91c3.01,5.3,6.14,10.51,9.28,15.6
									c3.09,5.17,6.37,10,9.59,14.68l2.43,3.36c0.81,1.15,1.61,2.03,2.41,3.08l0.6,0.76l0.3,0.38l0.07,0.09l-0.1-0.1l-0.21-0.19
									c-0.14-0.12-0.29-0.23-0.45-0.33c-0.09-0.05-0.04-0.02-0.07-0.02c-0.01,0.01-0.12,0,0.06,0.14c0.31,0.36,1.4,1.05,2.32,1.71
									c4.27,2.77,9.8,5.58,15.15,8.41c10.85,5.66,22.22,11.26,33.21,17.51l0.15,0.08c4.64,2.64,6.27,8.55,3.63,13.19
									c-1.98,3.48-5.8,5.26-9.53,4.83c-13.05-1.53-25.59-4.13-38.32-7.57c-6.42-1.75-12.63-3.69-19.63-6.62
									c-1.86-0.83-3.57-1.61-5.89-3.01c-0.5-0.27-1.22-0.77-1.87-1.23c-0.35-0.25-0.63-0.43-1.02-0.73l-1.33-1.12l-0.65-0.58
									l-0.45-0.43l-0.5-0.5l-0.99-1c-1.28-1.33-2.71-2.69-3.87-4.01l-3.55-3.99c-8.97-10.68-16.45-21.5-23.49-32.54
									c-6.97-11.13-13.39-22.15-19.32-34.04c-4.73-9.48-0.88-20.99,8.6-25.72c9.18-4.58,20.27-1.11,25.25,7.72L173.1,450.72z"/>
								<g>
									<g>
										<path class="st4" d="M138.09,443.92c11.24-17.58,29.5-17.83,44.67,11.16c13.04,24.93,12.43,26.93,12.43,26.93
											l-35.29,23.06C145.5,481.88,126.59,461.92,138.09,443.92z"/>
									</g>
									<g class="st8">
										<path d="M138.09,443.92c11.24-17.58,29.5-17.83,44.67,11.16c13.04,24.93,12.43,26.93,12.43,26.93l-35.29,23.06
											C145.5,481.88,126.59,461.92,138.09,443.92z"/>
									</g>
								</g>
								<path class="st7" d="M275.26,546.15l-3.1-0.57c-8.88-0.81-10.62,1.49-16.54,6.07l-3.05,10.98
									c13.67,8.65,22.1,1.29,22.1,1.29l4.42,0.4c4.18,0.38,7.38-3.66,6.06-7.64l-0.9-2.71
									C282.9,549.92,279.46,546.92,275.26,546.15z"/>
							</g>
						</g>
					</g>
				</g>
			</g>
		</g>
	</g>
	<path class="st4" d="M1.39,581.2c-2.33-13.69-1.72-27.46,1.77-39.81l2.4,0.68c-3.38,12-3.97,25.39-1.71,38.72L1.39,581.2z"/>
	
		<rect x="4.28" y="591.06" transform="matrix(0.9858 -0.1677 0.1677 0.9858 -100.2472 9.4015)" class="st4" width="2.49" height="14.15"/>
	<path class="st4" d="M258.92,667.74l-55.69-2.21l-14.6-85.8c-7.52-44.18-45.76-80-85.41-80H68.17c-39.66,0-65.71,35.82-58.19,80
		l10.08,59.23c3.73,21.92,22.7,39.68,42.37,39.68h143.04h77.44c2.08,0,2.73-3.18,0.84-4.15
		C275.7,670.39,267.24,668.07,258.92,667.74z"/>
	<path class="st1" d="M272.03,676.76h-17.67v-4.54h17.67c44.47,0,80.64-40.42,80.64-90.11v-15.38h4.54v15.38
		C357.22,634.3,319,676.76,272.03,676.76z"/>
</g>
<g>
	<rect x="395.99" y="563.79" class="st4" width="239.04" height="5.86"/>
	<rect x="475.49" y="560.86" class="st5" width="80.03" height="2.93"/>
	<rect x="571.64" y="563.79" class="st1" width="63.38" height="5.86"/>
	<path class="st1" d="M537.43,860.39h-3.63l-15.08-154.5c-1.26-12.82-9.6-22.5-19.4-22.5h-29.74c-9.82,0-18.14,9.68-19.4,22.5
		l-15.08,154.5h-3.63l15.15-155.12c1.47-15.16,11.34-26.61,22.95-26.61h29.74c11.61,0,21.48,11.45,22.95,26.61L537.43,860.39z"/>
	<path class="st1" d="M424.96,860.39h-3.63l-15.08-154.5c-1.26-12.82-9.6-22.5-19.4-22.5h-29.74c-9.82,0-18.14,9.68-19.4,22.5
		l-15.08,154.5h-3.63l15.15-155.12c1.47-15.16,11.34-26.61,22.95-26.61h29.74c11.61,0,21.48,11.45,22.95,26.61L424.96,860.39z"/>
	<g>
		<g>
			<g>
				<path class="st10" d="M374.13,502.71l-4.8,35.33c-1.52,11.77-3.1,23.56-4.23,35.15l-0.38,4.31l-0.18,2.14
					c0.01-0.16,0-0.73-0.07-1.05c-0.03-0.34-0.14-0.71-0.24-1c-0.19-0.58-0.42-0.97-0.61-1.21c-0.37-0.48-0.41-0.41-0.31-0.31
					c0.08,0.12,0.38,0.35,0.72,0.6c0.71,0.51,1.7,1.09,2.79,1.63c4.47,2.19,10,4.05,15.47,5.74c11.04,3.43,22.66,6.23,34.12,9.08
					l-1.3,10.07c-12.27-0.4-24.28-1.65-36.54-3.78c-6.14-1.17-12.22-2.45-18.78-4.96c-1.66-0.65-3.36-1.39-5.2-2.44
					c-0.93-0.54-1.88-1.14-2.94-2c-1.04-0.86-2.18-1.84-3.36-3.58c-0.59-0.88-1.16-1.94-1.59-3.22c-0.21-0.65-0.38-1.39-0.5-2.09
					c-0.1-0.7-0.13-1.64-0.12-2.17l0.05-2.34l0.14-4.66c0.5-12.31,1.6-24.32,2.92-36.34c1.28-12.01,2.82-23.92,4.7-35.88
					L374.13,502.71z"/>
				<path class="st10" d="M442.93,603.74l-7.73,7.06c-1.8,1.65-4.43,2.03-6.63,0.97l-8.54-4.11c0,0-12.66-0.52-14.47-8.26l3.27-6.01
					l19.62-2.18c2.02-0.22,4.05,0.23,5.78,1.28l8.09,4.94C444.57,598.81,444.88,601.96,442.93,603.74z"/>
				<path class="st10" d="M396.66,430.1c2,12.12,3.7,34.27-4.96,42.06c0,0,21.16,11.08,35.04,30.42c14.84-11.76,2.41-29.3,2.41-29.3
					c-13.34-3.61-12.7-13.57-10.08-22.86L396.66,430.1z"/>
				<path class="st1" d="M367.75,475.32c-15.26,4.96-18.54,25.42-17.16,41.34l30.8,18.94c0,0,7.48-23.25,7.41-35.66
					C388.73,486.73,378.11,471.95,367.75,475.32z"/>
				<path class="st1" d="M464.76,505.05c-1.29,17.52-5.19,47.04-14.79,96.72l-82.47-2.45c2.16-30.44-1.1-53.14-8.56-106.42
					c-1.36-9.72,5.63-18.62,15.4-19.62c5.3-0.55,11.31-1,17.37-1.11c13.9-0.26,25.28-0.36,37.45,1.12c4.02,0.49,8.17,1.12,12.13,1.8
					C455.66,477.53,465.83,490.49,464.76,505.05z"/>
				<path class="st1" d="M434.78,405.62c0.5,1.56,1.74,2.56,2.76,2.23c1.02-0.33,1.44-1.86,0.94-3.42c-0.5-1.56-1.74-2.56-2.76-2.23
					C434.69,402.53,434.27,404.06,434.78,405.62z"/>
				<path class="st1" d="M435.29,402.44l3.4-2.29C438.69,400.15,437.71,403.69,435.29,402.44z"/>
				<path class="st11" d="M435.81,407.99c0,0,4.81,5.86,8.77,8.16c-1.44,2.59-5.22,2.84-5.22,2.84L435.81,407.99z"/>
				<path class="st1" d="M432.24,391.58c0.13-0.3,0.1-0.66-0.11-0.95c-0.32-0.43-0.92-0.52-1.35-0.2c-4.28,3.16-4.08,7.6-4.07,7.79
					c0.03,0.53,0.49,0.94,1.02,0.91c0.53-0.03,0.93-0.48,0.91-1.01l0,0c-0.01-0.15-0.13-3.61,3.29-6.13
					C432.07,391.88,432.18,391.74,432.24,391.58z"/>
				<path class="st10" d="M379.62,416c7.35,18.77,10.06,26.88,22.9,33.59c19.32,10.1,40.77-3.04,39.18-23.63
					c-1.43-18.54-13.21-46.12-34.42-47.7C386.39,376.7,372.27,397.23,379.62,416z"/>
				<path class="st1" d="M424.71,411.67c3.65-1.06,9.96-8.3-1.08-22.9c5.92-1.06,10.72-11.9-5.47-18.1
					c-16.18-6.2-33.83-3.17-44.56,11.67c0,0-34.14,10.09-6.32,45.2C395.1,462.66,430.42,448.38,424.71,411.67z"/>
				<path class="st4" d="M360.97,382.31c-0.28,1.76,1.02,3.46,2.7,4.88c3.27,2.78,8.02,3.02,11.62,0.69
					c2.78-1.8,6.38-4.59,10.28-8.81c3.8-4.1,3.51-10.64-0.77-14.24c-0.83-0.7-1.43-1.03-1.43-1.03S363.83,364.47,360.97,382.31z"/>
				<path class="st1" d="M363.74,379.97c11.17-1.78,17.11-10.73,17.77-13.39c-2.58-6.59-34.86-48.37-62.46-17.8
					c-29.14,32.28,27.9,64.92,7.53,103.87C361.89,440.72,390.95,416.17,363.74,379.97z"/>
				<path class="st10" d="M416.64,415.56c2,4.01,5.66,6.73,9.18,7.85c5.28,1.68,8.12-3,6.81-8.09c-1.18-4.58-5.34-10.97-10.72-10.43
					C416.61,405.42,414.36,410.97,416.64,415.56z"/>
				<polygon class="st10" points="550.08,828.73 569.55,826.89 556.43,778.93 536.96,780.78 				"/>
				<path class="st1" d="M595.8,840.02c-11.91-3.51-11.52-8.75-23.4-18.41c-1.29-1.05-2.72-1.84-4.25-1.94l-19.39-1.34
					c-0.72-0.05-1.37,0.52-1.54,1.35l-2.73,13.42c-0.94,4.64,1.92,9.11,5.94,9.27c6.46,0.25,14.37,0.48,21.43,0.97
					c10.28,0.71,10.4,5.92,22.48,5.34C601.65,848.32,599.87,841.22,595.8,840.02z"/>
				<polygon class="st10" points="622.55,767.04 635.75,755.58 613.67,722.05 597.15,737.68 				"/>
				<path class="st1" d="M632.2,748.47l-15.72,14.57c-0.62,0.58-0.74,1.53-0.27,2.24l7.53,11.55c2.6,3.99,7.84,4.18,11.61,1.26
					c5.16-3.99,8.05-10.98,14.17-16.72c8.88-8.33,10.47-8.1,15.99-19.71c3.72-7.82-4.41-7.86-7.27-5.43
					c-7.2,6.12-4.37,6.36-21.14,9.92C635.28,746.54,633.53,747.23,632.2,748.47z"/>
				<g>
					<path class="st4" d="M421.2,600.33c0,0,133.52-19.75,147.34,14.47c24.05,59.55,58.87,126.64,58.87,126.64l-15.69,14.38
						c0,0-59.78-53.56-80.49-113.39c-24.74,8-103.44,33.76-132.26,33.76c-30.79,0-43.36-26.25-32.24-69.83
						c0.99-3.89,4.53-6.58,8.54-6.56C394.66,599.89,421.2,600.33,421.2,600.33z"/>
					<path class="st12" d="M421.2,600.33c0,0,133.52-19.75,147.34,14.47c24.05,59.55,58.87,126.64,58.87,126.64l-15.69,14.38
						c0,0-59.78-53.56-80.49-113.39c-24.74,8-103.44,33.76-132.26,33.76c-30.79,0-43.36-26.25-32.24-69.83
						c0.99-3.89,4.53-6.58,8.54-6.56C394.66,599.89,421.2,600.33,421.2,600.33z"/>
				</g>
				<g>
					<path class="st4" d="M434,617.72c0,0,109.58-3.3,110.51,35.52c1.53,64.2,21.22,156.05,21.22,156.05l-21.59,2.01
						c0,0-32.68-73.18-41.32-135.89c-39.03,2.53-75.02,0.79-103.85,0.79c-32.31,0-34.97-35.48-3.53-76.87
						C414.66,599.32,434,617.72,434,617.72z"/>
					<path class="st12" d="M434,617.72c0,0,109.58-3.3,110.51,35.52c1.53,64.2,21.22,156.05,21.22,156.05l-21.59,2.01
						c0,0-32.68-73.18-41.32-135.89c-39.03,2.53-75.02,0.79-103.85,0.79c-32.31,0-34.97-35.48-3.53-76.87
						C414.66,599.32,434,617.72,434,617.72z"/>
				</g>
				<path class="st2" d="M366.4,594.44l-2.33,7.32c-0.31,0.56,0.36,1.17,1.31,1.2l84.88,2.52c0.74,0.02,1.37-0.32,1.43-0.79
					l0.96-7.36c0.07-0.51-0.57-0.96-1.38-0.99l-83.51-2.48C367.15,593.84,366.6,594.08,366.4,594.44z"/>
				<g>
					<path class="st1" d="M377.34,604.11l-2.24-0.07c-0.45-0.01-0.78-0.25-0.74-0.53l1.33-9.56c0.04-0.28,0.44-0.5,0.88-0.48
						l2.24,0.07c0.45,0.01,0.78,0.25,0.74,0.53l-1.33,9.56C378.18,603.91,377.79,604.12,377.34,604.11z"/>
					<path class="st1" d="M443.95,606.09l-2.24-0.07c-0.45-0.01-0.78-0.25-0.74-0.53l1.33-9.56c0.04-0.28,0.44-0.5,0.88-0.48
						l2.24,0.07c0.45,0.01,0.78,0.25,0.74,0.53l-1.33,9.56C444.8,605.89,444.4,606.11,443.95,606.09z"/>
					<path class="st1" d="M410.65,605.1l-2.24-0.07c-0.45-0.01-0.78-0.25-0.74-0.53l1.33-9.56c0.04-0.28,0.44-0.5,0.88-0.48
						l2.24,0.07c0.45,0.01,0.78,0.25,0.74,0.53l-1.33,9.56C411.49,604.9,411.09,605.12,410.65,605.1z"/>
				</g>
				<path class="st10" d="M467.89,514.5c0.32,1.79,0.78,4.06,1.22,6.12c0.45,2.11,0.95,4.22,1.49,6.31
					c1.07,4.19,2.27,8.33,3.61,12.39c1.39,4.02,2.91,7.97,4.64,11.72c1.81,3.67,3.7,7.31,5.96,10.43l0.41,0.61
					c0.09,0.13-0.08-0.1-0.17-0.19c-0.1-0.11-0.22-0.22-0.33-0.33c-0.24-0.2-0.44-0.39-0.69-0.55c-0.94-0.64-1.68-0.8-2.05-0.84
					c-0.69-0.05-0.31,0.09,0.24,0.04c1.17-0.06,3.07-0.54,4.92-1.15c3.78-1.28,7.86-2.98,11.86-4.87c8.04-3.75,16.24-8,24.28-12.21
					l5.87,8.28c-7.13,6.36-14.51,12.14-22.6,17.45c-4.08,2.6-8.22,5.18-13.03,7.35c-2.45,1.08-4.95,2.14-8.34,2.87
					c-1.72,0.33-3.68,0.65-6.66,0.19c-1.5-0.27-3.35-0.83-5.24-2.14c-0.47-0.35-0.92-0.67-1.35-1.1l-0.63-0.64l-0.46-0.51
					l-0.63-0.78c-6.94-8.27-11.52-17.47-15.12-26.75c-1.78-4.65-3.25-9.37-4.5-14.13c-0.62-2.38-1.18-4.78-1.68-7.19
					c-0.53-2.46-0.93-4.73-1.31-7.52L467.89,514.5z"/>
				<path class="st1" d="M457.98,484.52c14.43,11.13,14.44,43.85,14.44,43.85l-24.87,6.91c0,0-17.91-21.69-13.37-31.97
					C438.9,492.6,450.18,478.5,457.98,484.52z"/>
				<path class="st1" d="M544.63,541.47c-0.43,0-0.85-0.23-1.06-0.64l-19.72-37.73c-0.31-0.59-0.08-1.31,0.51-1.62
					c0.59-0.31,1.31-0.08,1.62,0.51l19.72,37.73c0.31,0.59,0.08,1.31-0.51,1.62C545.01,541.43,544.82,541.47,544.63,541.47z"/>
				<path class="st10" d="M536.27,520.01l-7.54,4.57c-1.88,1.14-3.33,2.88-4.12,4.93l-6.98,18.18l-3.21,11.56
					c7.47,2.69,21.03-14.94,21.03-14.94l8.51-6.4c1.39-1.04,2-2.83,1.55-4.51l-2.92-10.85
					C541.85,519.81,538.69,518.54,536.27,520.01z"/>
			</g>
		</g>
	</g>
	<path class="st4" d="M527.37,667.74l-55.69-2.21l-14.6-85.8c-7.52-44.18-45.76-80-85.41-80h-35.05c-39.66,0-65.71,35.82-58.19,80
		l10.08,59.23c3.73,21.92,22.7,39.68,42.37,39.68h143.04h77.44c2.08,0,2.73-3.18,0.84-4.15
		C544.15,670.39,535.69,668.07,527.37,667.74z"/>
	<path class="st1" d="M540.49,676.76h-17.67v-4.54h17.67c44.47,0,80.64-40.42,80.64-90.11v-15.38h4.54v15.38
		C625.67,634.3,587.46,676.76,540.49,676.76z"/>
</g>
<g>
	<g>
		<polygon class="st13" points="816,809.65 847.91,802.88 853.91,840.98 827.26,846.69 		"/>
		<polygon class="st9" points="816.01,809.66 847.93,802.89 851.28,824.23 822.31,830.4 		"/>
	</g>
	<path class="st1" d="M835.05,664.47c10.61-49.41,32.54-100.99,11.82-148.05l-91.04-0.29c0,0,6.95,108.18,10.14,153.78
		c3.31,47.4,51.33,154.82,51.33,154.82l36.48-8.01C853.78,816.71,843.47,717.38,835.05,664.47z"/>
	<path class="st9" d="M836.09,659.77c6.52-28.59,16.22-57.85,18.77-86.44C820.35,535.68,824.71,612.46,836.09,659.77z"/>
	<path class="st1" d="M861.19,851.58l-8.41,1.87l-2.44-2.41l-3.07,3.66l-15.46,6.71c-5.66,2.46-11.77,3.73-17.95,3.73h-12.7
		c-0.74-4.26,2.05-9.81,2.05-9.81s12.25-2.14,18.57-12.33c0.7-1.12,2.18-1.56,3.6-1.59c5.85-0.15,21.23-1.02,28.9-6.05
		c0.73-0.48,1.81-0.02,2,0.86C857.82,843.48,861.19,851.58,861.19,851.58z"/>
	<g>
		<polygon class="st13" points="889.91,814.37 922.56,814.69 923.99,853.19 896.71,852.97 		"/>
		<polygon class="st9" points="889.92,814.39 922.58,814.7 923.37,836.26 893.72,836 		"/>
	</g>
	<path class="st1" d="M925.42,664.47c2.63-49.41,6.22-123.33-10.35-146.05l-101.67-2.28c0,0,28.27,108.18,38.83,153.78
		c10.97,47.4,37.86,159.47,37.86,159.47l35.29,0.09C925.38,829.47,938.69,720.86,925.42,664.47z"/>
	<g>
		<path class="st14" d="M796.56,369.48l-1.52,1.35l-1.16,0.97l-2.2,1.76c-1.45,1.11-2.9,2.14-4.35,3.12c-2.89,2-5.89,3.72-8.92,5.38
			c-6.09,3.23-12.47,5.95-19.13,7.94c-3.32,1.01-6.71,1.85-10.12,2.57c-3.44,0.65-6.91,1.14-10.4,1.48c-6.98,0.7-14.06,0.53-21-0.27
			l-2.64-0.31c-2.49-0.29-4.84-1.19-6.81-2.46c-6.39-4.18-11.19-8.92-15.16-13.73c-4-4.81-7.15-9.79-9.96-14.74
			c-2.74-5.01-5.05-10.06-7-15.2c-0.98-2.57-1.83-5.18-2.64-7.79c-0.8-2.69-1.41-5.18-2.09-8.21c-1.44-6.48,2.65-12.9,9.13-14.34
			c4.12-0.92,8.22,0.41,11.03,3.16l1.24,1.23c1.46,1.45,3.15,3.36,4.73,5.04c1.57,1.74,3.2,3.44,4.78,5.13
			c3.19,3.35,6.35,6.61,9.56,9.56c3.13,3,6.36,5.67,9.41,7.87c3.04,2.2,5.98,3.83,8.2,4.62l-9.44-2.77
			c4.15-0.25,8.2-0.91,12.21-1.77c3.99-0.96,7.93-2.21,11.8-3.73c3.84-1.6,7.67-3.35,11.31-5.45c1.84-1,3.61-2.13,5.33-3.21
			c0.86-0.54,1.68-1.12,2.46-1.65l1.11-0.76l0.46-0.33l0.17-0.11c0.03-0.02,0.05-0.03,0.04-0.02c0,0,0.04-0.02-0.14,0.14
			c9.81-8.76,24.86-7.91,33.62,1.9C807.22,345.67,806.37,360.72,796.56,369.48z"/>
	</g>
	<path class="st13" d="M678,336.38l9.49-9.95c5.62-13.31-12.74-17.57-12.74-17.57l-11.45-8.32c-2.71-1.9-6.65-1.28-9.32,1.47
		l-6.68,6.9c-3.05,3.15-3.33,7.92-0.62,10.58l9.54,8.68c1.77,1.74,3.94,3.01,6.33,3.71L678,336.38z"/>
	<g>
		<path class="st4" d="M807.18,315.05c-22.06-1.28-54.37,24.09-54.37,24.09c-3.07,8.44,4.47,39.84,17.96,53.53
			c0,0,15.5,3.7,29.05-12.66C814.56,362.22,830.56,316.41,807.18,315.05z"/>
	</g>
	<path class="st4" d="M811.58,314.33c26.9-2.81,62.83-2.47,90.71,1.44c17.4,2.44,28.9,19.21,25.48,36.45
		c-14.1,71.03-3.56,150.31-12.69,166.19c0,0-100.62,1.76-159.25-2.28c-16.06-77.1,15.52-124.29,31.4-184.5
		C789.94,321.34,801,315.44,811.58,314.33z"/>
	<g>
		<path class="st14" d="M935.02,343.57l2.25,2.81l1.98,2.56c1.28,1.7,2.5,3.43,3.71,5.15c2.43,3.44,4.66,6.99,6.86,10.59
			c4.31,7.24,8.34,14.75,11.71,22.82c3.43,8.03,6.35,16.55,8.21,25.86c1.94,9.24,2.73,19.49,1.08,30.41l-0.31,2.03
			c-0.26,1.71-0.85,3.34-1.66,4.76c-3.06,5.32-6.46,10.25-10,14.86c-3.53,4.61-7.35,8.9-11.23,12.98
			c-3.96,4.04-8.02,7.88-12.3,11.48c-4.34,3.62-8.59,6.91-13.63,10.15c-5.61,3.61-13.09,1.99-16.7-3.62
			c-2.38-3.7-2.49-8.21-0.68-11.89l0.46-0.92c2.13-4.3,4.73-8.85,7.04-13.23c2.36-4.41,4.7-8.77,6.9-13.12
			c2.3-4.29,4.26-8.66,6.27-12.85c1.97-4.22,3.57-8.42,5.12-12.43l-1.97,6.79c-0.01-4.19-0.89-9.26-2.56-14.73
			c-0.81-2.72-1.86-5.53-3.07-8.36c-1.14-2.85-2.45-5.73-3.9-8.61c-2.9-5.75-6.17-11.58-9.75-17.29c-1.76-2.88-3.66-5.69-5.52-8.51
			l-2.84-4.15l-2.61-3.72l-0.86-1.23c-7.56-10.75-4.97-25.58,5.78-33.14C913.1,331.74,927.23,333.89,935.02,343.57z"/>
		<g>
			<path class="st4" d="M910.11,317.96c20.8,7.46,40.43,42.68,40.43,42.68c-0.98,12.83-21.29,41.87-35.76,48.15
				c0,0-15.5-12.23-21.56-32.58C886.63,354.06,899.41,321.14,910.11,317.96z"/>
		</g>
	</g>
	<path class="st13" d="M825.87,319.57c1.31-2.84,5.15-7.18,9.15-8.66c1.42-3.48,1.61-7.37,0.31-11.93l44.7-14.23
		c-3.61,14.77-6.44,26.45-0.95,33.62c-8.78,5.36-24.88,14.99-42.44,14.49C819.08,332.36,823,325.76,825.87,319.57z"/>
	<path class="st9" d="M835.68,300.35l33.54-1.97c-10.49,11.21-26.38,15.42-33.64,10.87C836.35,306.56,836.42,303.64,835.68,300.35z"
		/>
	<g>
		<path class="st4" d="M835.59,332.82l7.25-6.04l9.75,4.89C852.59,331.67,846.36,337.5,835.59,332.82z"/>
		<path class="st8" d="M835.59,332.82l7.25-6.04l9.75,4.89C852.59,331.67,846.36,337.5,835.59,332.82z"/>
	</g>
	<path class="st15" d="M860.29,238.55c-0.54-13.73-13.78-19.99-25.27-12.77c-11.49,7.21-12.58,29.25-4,40.76
		C839.6,278.05,860.29,238.55,860.29,238.55z"/>
	<path class="st13" d="M888.73,262.12c-5.33,19.23-9.4,32.19-23.29,38.38c-27.59,12.29-39.93-0.75-40.9-21.05
		c-0.88-18.27,7.99-46.66,30.15-50.79C876.53,224.58,894.07,242.89,888.73,262.12z"/>
	<path class="st5" d="M873.45,252.11c-5.95,5.67-8.32,30.65,0.67,30.25c8.98-0.41,18.24-2.35,18.24-2.35s11.43-4.32,5.17-21.47
		C891.27,241.39,873.45,252.11,873.45,252.11z"/>
	<path class="st9" d="M857.43,259.8c0,0,4.39-1.2,7.47,1.02C860.73,261.07,857.43,259.8,857.43,259.8z"/>
	<path class="st9" d="M857.3,261.59c0,0,4.14-0.23,6.32,2.59C859.91,263.54,857.3,261.59,857.3,261.59z"/>
	<path class="st9" d="M840.61,239.45c0,0,10.49-0.11,18.79,1.89C848.89,240.67,840.61,239.45,840.61,239.45z"/>
	<path class="st9" d="M837.72,241.18c0,0,14.35,1.56,20.99,4.66C846.09,243.78,837.72,241.18,837.72,241.18z"/>
	<path class="st13" d="M892.69,284.65c-3.88,4.26-9.37,6.31-14.12,6.43c-7.14,0.18-9.03-6.64-5.64-12.48
		c3.05-5.26,10.45-11.68,16.94-9.08C896.26,272.09,897.12,279.78,892.69,284.65z"/>
	
		<ellipse transform="matrix(0.1768 -0.9843 0.9843 0.1768 444.0137 1049.2129)" class="st1" cx="849.21" cy="259.18" rx="3.16" ry="2.07"/>
	<path class="st1" d="M833.45,256.72c-0.32,1.71-1.49,2.92-2.61,2.71c-1.12-0.22-1.77-1.79-1.45-3.5c0.32-1.71,1.49-2.92,2.61-2.7
		C833.12,253.44,833.77,255.01,833.45,256.72z"/>
	<path class="st16" d="M839.08,259.18l-2.57,14.42c0,0-2.56,0.12-5.09-0.72c-1.46-0.48-1.71-2.48-0.46-3.36
		C835.36,266.46,839.08,259.18,839.08,259.18z"/>
	<path class="st1" d="M861.27,256.39c0.17,0.01,0.34-0.02,0.51-0.1c0.51-0.25,0.71-0.86,0.46-1.37c-2.53-5.1-7.21-5.73-7.41-5.76
		c-0.56-0.07-1.07,0.33-1.13,0.89c-0.06,0.56,0.34,1.07,0.89,1.14l0,0c0.15,0.02,3.8,0.55,5.82,4.62
		C860.57,256.16,860.91,256.37,861.27,256.39z"/>
	<path class="st1" d="M827.49,250.78c0.33,0.06,0.67-0.05,0.92-0.3c3.08-3.28,6.72-2.7,6.87-2.67c0.56,0.1,1.08-0.27,1.18-0.83
		c0.09-0.56-0.28-1.09-0.83-1.19c-0.2-0.03-4.86-0.84-8.72,3.28c-0.38,0.41-0.36,1.06,0.05,1.45
		C827.11,250.65,827.29,250.74,827.49,250.78z"/>
	<path class="st2" d="M876.01,308.41c0,0-14.39,17.48-33.17,18.37c10.93,5.18,12.77,17.44,12.77,17.44s23.41-7.14,27.84-32.05
		C880.65,308.17,876.01,308.41,876.01,308.41z"/>
	<g>
		<path class="st4" d="M835.59,332.82l-8.22-7.36l-10.47,3.11C816.9,328.56,824.81,337.5,835.59,332.82z"/>
		<path class="st8" d="M835.59,332.82l-8.22-7.36l-10.47,3.11C816.9,328.56,824.81,337.5,835.59,332.82z"/>
	</g>
	<path class="st2" d="M835.02,310.91c0,0-7.3,8.45-7.65,14.55c-8.78,2.48-13.01,15.35-13.01,15.35s-1.6-18.39,12.17-28.31
		C829.88,310.29,835.02,310.91,835.02,310.91z"/>
	<path class="st1" d="M928.61,865.11h-7.1l-1.92-2.88l-3.72,2.91h-42.83c-0.84-4.26,1.83-9.81,1.83-9.81s12.81-1.16,17.73-7.55
		c0.38-0.49,0.97-0.76,1.58-0.63c4.26,0.89,21.21,4.1,30.53,0.74c1.01-0.36,2.08,0.32,2.09,1.4
		C926.92,856.66,928.61,865.11,928.61,865.11z"/>
	<g>
		<path class="st1" d="M835.98,339.31c2.01-3.16,3.07-6.49,0.8-7.97c-1.63-1.06-6.48-2.57-7.36,0.77c-0.88,3.35-0.89,6.04,0.5,7.55
			C831.3,341.18,834.71,341.3,835.98,339.31z"/>
		<path class="st1" d="M837,332.03c4.23-5.87,16.69-7.98,16.68-3.13c-0.01,9.27-0.3,18.67-4.29,20.87
			c-3.99,2.2-10.26-12.19-13.32-12.38L837,332.03z"/>
		<path class="st1" d="M830.18,331.7c-2.56-6.2-10.39-8.39-11.68-3.77c-2.47,8.83-2.83,16.16,0.07,18.7
			c2.9,2.54,9.07-9.61,11.57-9.52L830.18,331.7z"/>
	</g>
	<path class="st13" d="M691.02,323.37c3.13-11.37-4.8-18.42-9.22-25.8c-0.75-1.25-4.58-0.57-4.77,2.07
		c-0.33,4.62,0.59,6.82,2.31,9.2c-2.31,2.88-5.74,12.99,2.34,19.57C687.07,328.09,691.02,323.37,691.02,323.37z"/>
	<g>
		<path class="st2" d="M906.65,316.11c-1.53-1.17-4.99-1.95-7.55-1.17c-7.76,8.95-41.52,74-27.63,194.6h7.9
			C865.47,388.94,898.89,325.07,906.65,316.11z"/>
		<path class="st2" d="M880.17,519.42l-0.7-8.9c-0.07-0.94-0.95-1.66-1.96-1.6l-3.82,0.22c-1,0.06-1.76,0.87-1.69,1.81l0.7,8.9
			c0.07,0.94,0.95,1.66,1.96,1.6l3.82-0.22C879.49,521.17,880.24,520.36,880.17,519.42z"/>
		<path class="st1" d="M880.35,513.72h-8.52c-0.9,0-1.75-0.74-1.9-1.63l-0.56-3.42c-0.15-0.9,0.47-1.63,1.37-1.63h8.52
			c0.9,0,1.75,0.74,1.9,1.63l0.56,3.42C881.86,512.98,881.25,513.72,880.35,513.72z"/>
	</g>
	<g>
		<path class="st2" d="M813.65,314.13c-1.47-1.17-6.1-0.49-8.42,0.82c-8.16,8.95-44.8,74-36.27,194.6h7.9
			C768.32,388.94,805.49,323.08,813.65,314.13z"/>
		<path class="st2" d="M777.23,519.42l-0.31-8.9c-0.03-0.94-0.88-1.66-1.89-1.6l-3.82,0.22c-1,0.06-1.8,0.87-1.77,1.81l0.31,8.9
			c0.03,0.94,0.88,1.66,1.89,1.6l3.82-0.22C776.47,521.17,777.26,520.36,777.23,519.42z"/>
		<path class="st1" d="M777.66,513.72h-8.52c-0.9,0-1.72-0.74-1.83-1.63l-0.41-3.42c-0.11-0.9,0.54-1.63,1.44-1.63h8.52
			c0.9,0,1.72,0.74,1.83,1.63l0.41,3.42C779.21,512.98,778.56,513.72,777.66,513.72z"/>
	</g>
	<path class="st15" d="M857.09,212.9c-9.67-7.69-25.67,12.86-4.53,24.3c26.5,14.34,23.31,37.49,57.56,30.72
		c-14.67-10.28-5.34-18.1-11.54-32.97C891.64,218.31,872.76,225.36,857.09,212.9z"/>
	<path class="st15" d="M842.35,225.23c3.13,11.49,6.94,14.19,10.49,17.2c-3.74-5.5-5.25-12.76-5.25-12.76L842.35,225.23z"/>
	<path class="st1" d="M828.21,278.92c0,0,7.45-0.59,27.67,2.42c-3.27,5.72-8.43,10.03-18.77,8.39
		C826.77,288.1,828.21,278.92,828.21,278.92z"/>
	<path class="st16" d="M842.62,285.67c-4.99-0.79-8.77-0.19-11.72,1.26c1.31,1.29,3.31,2.33,6.2,2.79
		c4.99,0.79,8.74,0.21,11.69-1.26C847.48,287.17,845.51,286.12,842.62,285.67z"/>
	<path class="st2" d="M829.16,278.88c0.38,1.38,0.76,2.76,2.72,3.49c4.17,0.91,15.13,1.32,18.12,1.14c1.9-0.03,3.58-0.43,5.01-2.3
		C839.43,278.93,831.67,278.83,829.16,278.88z"/>
	<path class="st15" d="M827.79,293.73c0.19,5.4,5.63,9.86,4.2,13.35c6.65,0.49,13.85-1.06,19.27-4.33c2.19-1.32,1.4-4.71-1.14-5.07
		c-5.04-0.72-9.52-2.39-11.92-4.34c-0.93-0.76-2.27-0.87-3.2-0.11C830.72,296.79,827.79,293.73,827.79,293.73z"/>
	<polygon class="st1" points="920.44,518.33 794.06,430.25 795.44,428.22 923.06,514.52 	"/>
	<path class="st13" d="M909.52,482.11l12.27,6.2c9.75,10.66-6.12,20.82-6.12,20.82l-5.66,7.97c-1.92,2.7-5.84,3.44-9.27,1.74
		l-8.61-4.27c-3.92-1.95-5.78-6.35-4.12-9.76l3.74-7.67c1.09-2.23,2.71-4.16,4.72-5.61L909.52,482.11z"/>
</g>
</svg>
