<?xml version="1.0" encoding="utf-8"?>
<!-- Generator: Adobe Illustrator 24.0.0, SVG Export Plug-In . SVG Version: 6.00 Build 0)  -->
<svg version="1.1" id="Layer_1" xmlns="http://www.w3.org/2000/svg" xmlns:xlink="http://www.w3.org/1999/xlink" x="0px" y="0px"
	 viewBox="0 0 1000 1000" style="enable-background:new 0 0 1000 1000;" xml:space="preserve">
<style type="text/css">
	.st0{opacity:0.3;fill:#FFFFFF;}
	.st1{fill:#007CFF;}
	.st2{opacity:0.7;fill:#FFFFFF;}
	.st3{fill:#1A2E35;}
	.st4{opacity:0.8;fill:#FFFFFF;}
	.st5{opacity:0.5;fill:#FFFFFF;}
	.st6{fill:#E67B62;}
	.st7{opacity:0.2;}
	.st8{opacity:0.6;}
	.st9{opacity:0.6;fill:#FFFFFF;}
	.st10{opacity:0.3;}
	.st11{fill:#FFFFFF;}
	.st12{fill:#D54C38;}
	.st13{fill:#BA221F;}
	.st14{fill:#263237;}
	.st15{fill:#CD5B51;}
	.st16{opacity:0.2;enable-background:new    ;}
	.st17{opacity:0.6;fill:#FFFFFF;enable-background:new    ;}
</style>
<path class="st0" d="M862.04,548.89L862.04,548.89c27.48,0,47.04,20.48,45.61,47.76l-3.14,59.64c-0.48,9.2-8.09,16.42-17.3,16.42
	H776.77l22.81-76.06C807.77,569.38,834.55,548.89,862.04,548.89z"/>
<g>
	<rect x="42.36" y="771.65" class="st1" width="254.13" height="24.73"/>
	<rect x="42.36" y="771.65" class="st0" width="254.13" height="24.73"/>
	<rect x="275.06" y="771.65" class="st1" width="412.03" height="24.73"/>
	<rect x="275.06" y="771.65" class="st2" width="412.03" height="24.73"/>
</g>
<g>
	<g>
		<path class="st3" d="M135.34,771.12L135.34,771.12c-1.18-0.1-2.06-1.14-1.96-2.32l43.22-517.88h4.3v4.3h-0.35l-42.89,513.94
			C137.56,770.34,136.52,771.21,135.34,771.12z"/>
	</g>
	<path class="st3" d="M327.4,771.12L327.4,771.12c1.18-0.1,2.06-1.14,1.96-2.32l-43.22-517.88h-4.3v4.3h0.35l27.64,331.17H170.79
		l-28-335.47h-4.3v4.3h0.35l42.89,513.94c0.1,1.18,1.14,2.06,2.32,1.96l0,0c1.18-0.1,2.06-1.14,1.96-2.32l-14.87-178.11h139.04
		l14.89,178.47C325.18,770.34,326.22,771.21,327.4,771.12z"/>
	<g>
		<polygon class="st1" points="337.35,517.98 131.99,517.98 106.06,207.31 311.42,207.31 		"/>
		<polygon class="st4" points="337.35,517.98 131.99,517.98 106.06,207.31 311.42,207.31 		"/>
		<path class="st1" d="M311.24,214.63h-205.5c-3.76,0-6.81-3.05-6.81-6.81l0,0c0-3.76,3.05-6.81,6.81-6.81h205.5
			c3.76,0,6.81,3.05,6.81,6.81l0,0C318.05,211.58,315,214.63,311.24,214.63z"/>
		<path class="st5" d="M311.24,214.63h-205.5c-3.76,0-6.81-3.05-6.81-6.81l0,0c0-3.76,3.05-6.81,6.81-6.81h205.5
			c3.76,0,6.81,3.05,6.81,6.81l0,0C318.05,211.58,315,214.63,311.24,214.63z"/>
	</g>
	<g>
		<path class="st1" d="M226.73,400.98l-3.04-36.37c-0.1-1.18,0.78-2.22,1.96-2.32l0,0c1.18-0.1,2.22,0.78,2.32,1.96l3.04,36.37
			c0.1,1.18-0.78,2.22-1.96,2.32l0,0C227.87,403.04,226.83,402.16,226.73,400.98z"/>
	</g>
	<g>
		<path class="st1" d="M192.29,365.48c-26.7,0-50.33-21.72-52.66-48.43c-2.34-26.7,17.49-48.43,44.19-48.43
			c26.7,0,50.33,21.72,52.66,48.43C238.81,343.76,218.99,365.48,192.29,365.48z M184,270.78c-25.52,0-44.46,20.76-42.23,46.28
			c2.23,25.52,24.81,46.28,50.33,46.28s44.46-20.76,42.23-46.28C232.1,291.54,209.52,270.78,184,270.78z"/>
	</g>
	<g>
		<path class="st1" d="M259.6,365.48c-26.7,0-50.33-21.72-52.66-48.43c-2.34-26.7,17.49-48.43,44.19-48.43
			c26.7,0,50.33,21.72,52.66,48.43C306.13,343.76,286.3,365.48,259.6,365.48z M251.31,270.78c-25.52,0-44.46,20.76-42.23,46.28
			c2.23,25.52,24.81,46.28,50.33,46.28c25.52,0,44.46-20.76,42.23-46.28C299.41,291.54,276.83,270.78,251.31,270.78z"/>
	</g>
	<g>
		<path class="st1" d="M208.11,317.96l20.32-22.27c-0.4-0.67-0.81-1.33-1.23-1.98l-19.32,21.18c0.03,0.72,0.07,1.44,0.14,2.17
			C208.04,317.36,208.08,317.66,208.11,317.96z"/>
		<path class="st1" d="M230.98,300.52c-0.34-0.73-0.69-1.45-1.06-2.17l-21.28,23.32c0.17,0.91,0.36,1.81,0.57,2.7L230.98,300.52z"/>
		<path class="st1" d="M233.08,305.85c-0.27-0.81-0.55-1.6-0.85-2.39l-22.08,24.2c0.26,0.81,0.53,1.62,0.83,2.42L233.08,305.85z"/>
		<path class="st1" d="M225.5,291.27c-0.45-0.61-0.92-1.21-1.39-1.8l-15.88,17.4c-0.16,1.22-0.27,2.45-0.33,3.7L225.5,291.27z"/>
		<path class="st1" d="M222.22,287.24c-0.5-0.56-1.02-1.1-1.54-1.64l-9.64,10.56c-0.69,1.69-1.27,3.44-1.74,5.24L222.22,287.24z"/>
		<path class="st1" d="M232.91,336.54c0.59-1.61,1.08-3.26,1.48-4.95l-13.57,14.87c0.5,0.56,1.01,1.12,1.52,1.66L232.91,336.54z"/>
		<path class="st1" d="M227.55,346.71l-3.14,3.45c0.07,0.07,0.14,0.14,0.21,0.21C225.67,349.2,226.64,347.98,227.55,346.71z"/>
		<path class="st1" d="M234.64,311.77c-0.18-0.9-0.38-1.78-0.61-2.66l-21.85,23.94c0.33,0.74,0.68,1.47,1.04,2.19L234.64,311.77z"/>
		<path class="st1" d="M235.31,326.29c0.13-1.18,0.21-2.38,0.25-3.6l-17.97,19.69c0.45,0.62,0.9,1.22,1.38,1.82L235.31,326.29z"/>
		<path class="st1" d="M235.49,318.46c-0.03-0.47-0.05-0.93-0.09-1.4c-0.05-0.55-0.12-1.09-0.18-1.63l-20.54,22.5
			c0.39,0.67,0.8,1.34,1.22,2L235.49,318.46z"/>
	</g>
	<g>
		<path class="st1" d="M298.77,422.63H163.6c-3.89,0-7.31-3.15-7.65-7.04l0,0c-0.34-3.89,2.53-7.04,6.42-7.04h135.17
			c3.89,0,7.31,3.15,7.65,7.04l0,0C305.53,419.48,302.65,422.63,298.77,422.63z"/>
		<path class="st1" d="M284.46,451.13h-94.35c-3.89,0-7.31-3.15-7.65-7.04l0,0c-0.34-3.89,2.53-7.04,6.42-7.04h94.35
			c3.89,0,7.31,3.15,7.65,7.04l0,0C291.22,447.98,288.34,451.13,284.46,451.13z"/>
	</g>
	<g>
		<path class="st1" d="M298.77,422.63H163.6c-3.89,0-7.31-3.15-7.65-7.04l0,0c-0.34-3.89,2.53-7.04,6.42-7.04h135.17
			c3.89,0,7.31,3.15,7.65,7.04l0,0C305.53,419.48,302.65,422.63,298.77,422.63z"/>
		<path class="st1" d="M284.46,451.13h-94.35c-3.89,0-7.31-3.15-7.65-7.04l0,0c-0.34-3.89,2.53-7.04,6.42-7.04h94.35
			c3.89,0,7.31,3.15,7.65,7.04l0,0C291.22,447.98,288.34,451.13,284.46,451.13z"/>
	</g>
</g>
<g>
	<g>
		<polygon class="st6" points="452.09,750.94 465.52,746.7 460.1,715.92 446.67,720.16 		"/>
		<path class="st3" d="M465.86,744.97l-15.08,4.76c-0.55,0.17-0.87,0.67-0.78,1.21l2.02,11.83c0.21,1.23,1.64,2,2.9,1.58
			c5.23-1.74,7.67-2.84,14.3-4.93c4.08-1.29,21.53-6.35,27.16-8.13c5.51-1.74,4.19-7.15,1.69-6.88c-11.23,1.18-25.22,2.33-29.7,0.63
			C467.56,744.74,466.67,744.72,465.86,744.97z"/>
		<g>
			<polygon class="st7" points="446.67,720.17 460.1,715.93 462.89,731.8 449.46,736.04 			"/>
		</g>
		<path class="st3" d="M442.12,408.56c0,0,8.77,111.71,10.85,150.68c2.28,42.67,14.99,167.48,14.99,167.48l-24.81,6.69
			c0,0-24.03-120.94-30.2-162.43c-6.7-45.02-19.87-162.43-19.87-162.43H442.12z"/>
		<polygon class="st3" points="442.49,733.89 469.06,726.74 469.49,716.17 439.38,726.28 		"/>
		<path class="st1" d="M471.16,745.74c-1.24,0.39-2.67,0.58-3.69,0.66c-0.13,0.01-0.24-0.05-0.29-0.16
			c-0.05-0.11-0.03-0.25,0.06-0.35c0.36-0.43,3.56-4.15,5.35-4.04c0.41,0.02,0.74,0.24,0.93,0.63c0.32,0.64,0.32,1.24,0,1.77
			C473.11,744.94,472.2,745.41,471.16,745.74z M468.23,745.69c2.51-0.29,4.26-0.92,4.75-1.73c0.2-0.33,0.19-0.71-0.04-1.16
			c-0.1-0.21-0.25-0.31-0.45-0.32C471.53,742.43,469.56,744.24,468.23,745.69z"/>
		<path class="st1" d="M467.54,746.39c-0.05,0.02-0.1,0.02-0.15,0.01c-0.11-0.02-0.19-0.09-0.23-0.19
			c-0.05-0.15-1.24-3.81-0.19-5.51c0.28-0.46,0.7-0.74,1.23-0.84c0.64-0.12,1.12,0.08,1.35,0.56c0.65,1.33-0.71,4.68-1.86,5.88
			C467.65,746.34,467.6,746.37,467.54,746.39z M468.13,740.52c-0.26,0.08-0.46,0.24-0.61,0.48c-0.63,1.01-0.23,3.2,0.1,4.42
			c0.94-1.33,1.78-3.82,1.36-4.69c-0.08-0.17-0.23-0.34-0.7-0.25C468.22,740.49,468.17,740.51,468.13,740.52z"/>
		<path class="st8" d="M411.31,443.22c-5.12-19.95-10.33-15.18-14.06-6.54c0.39,6.13,0.81,12.57,1.24,19.23
			c3.05,26.18,6.92,58.61,10.3,84.83C415.1,514.66,418.47,471.06,411.31,443.22z"/>
		<polygon class="st6" points="350.95,756.94 364.67,756.94 369.24,725.16 355.51,725.16 		"/>
		<path class="st3" d="M365.53,755.36h-15.42c-0.56,0-1.02,0.39-1.1,0.94l-1.81,12.2c-0.19,1.27,0.89,2.46,2.19,2.44
			c5.38-0.09,7.97-0.41,14.75-0.41c4.17,0,21.87,0.43,27.63,0.43c5.63,0,6.09-5.7,3.7-6.21c-10.74-2.31-24.03-5.5-27.64-8.55
			C367.17,755.65,366.35,755.36,365.53,755.36z"/>
		<g>
			<polygon class="st7" points="355.51,725.17 369.24,725.17 366.88,741.55 353.15,741.55 			"/>
		</g>
		<path class="st3" d="M417.52,407.86c0,0-7.87,104.88-13.53,144.17c-6.2,43.03-30.88,185.57-30.88,185.57h-25.14
			c0,0,12.92-139.07,15.13-181.67c2.4-46.24,7.05-148.07,7.05-148.07H417.52z"/>
		<polygon class="st3" points="346.96,737.6 374.12,737.6 376.46,728.06 346.36,729.55 		"/>
		<path class="st1" d="M370.19,757.75c-1.27,0-2.65-0.26-3.61-0.49c-0.12-0.03-0.21-0.13-0.22-0.25c-0.01-0.12,0.05-0.25,0.16-0.32
			c0.47-0.3,4.58-2.96,6.2-2.3c0.38,0.15,0.61,0.46,0.67,0.91c0.1,0.73-0.09,1.31-0.55,1.74
			C372.23,757.56,371.25,757.75,370.19,757.75z M367.49,756.79c2.41,0.49,4.23,0.41,4.92-0.22c0.29-0.26,0.4-0.64,0.33-1.14
			c-0.03-0.23-0.13-0.38-0.31-0.45C371.56,754.62,369.17,755.78,367.49,756.79z"/>
		<path class="st1" d="M366.64,757.26c-0.05,0-0.1-0.01-0.14-0.04c-0.09-0.05-0.15-0.15-0.15-0.26c0-0.17,0.04-4.11,1.54-5.45
			c0.4-0.36,0.87-0.51,1.39-0.45c0.63,0.08,1.01,0.42,1.07,0.97c0.19,1.5-2.11,4.36-3.55,5.18
			C366.76,757.25,366.7,757.26,366.64,757.26z M369.01,751.7c-0.27,0-0.5,0.09-0.71,0.28c-0.9,0.8-1.21,3.06-1.28,4.36
			c1.28-1.01,2.83-3.18,2.71-4.17c-0.02-0.19-0.11-0.41-0.57-0.47C369.1,751.7,369.05,751.7,369.01,751.7z"/>
	</g>
	<path class="st6" d="M447.86,296.21c3.36,7.75,7.15,15.83,11.17,23.31c2,3.77,4.14,7.42,6.37,10.81c2.19,3.36,4.69,6.53,6.9,8.53
		c0.54,0.49,1.05,0.89,1.44,1.15c0.39,0.27,0.65,0.38,0.64,0.41c-0.04,0.02-0.25,0.11-0.07,0.13c0.14,0.02,0.5-0.01,1-0.19
		c1.01-0.35,2.4-1.22,3.77-2.32c1.38-1.11,2.82-2.42,4.2-3.88c5.54-5.85,10.79-13.16,15.62-20.3l8.68,4.04
		c-3.07,9.06-6.86,17.51-12.59,25.78c-1.46,2.05-3.04,4.1-4.96,6.07c-1.93,1.96-4.11,3.93-7.13,5.63c-1.5,0.84-3.28,1.6-5.36,2.05
		c-2.03,0.47-4.54,0.55-6.79,0.1c-4.45-0.93-7.34-2.9-9.77-4.71c-4.77-3.75-7.92-7.75-10.93-11.73c-2.95-4-5.48-8.09-7.88-12.2
		c-2.35-4.13-4.56-8.28-6.56-12.52c-2.02-4.27-3.92-8.39-5.7-12.95L447.86,296.21z"/>
	<path class="st1" d="M470.56,329.11l-21.69,16.19c0,0-0.83-0.91-2.21-2.5c-1-1.17-2.29-2.71-3.79-4.53
		c-8.43-10.27-20.75-29.01-20.85-38.18c-0.15-13.68,14.06-15.7,30-1.7c6.88,6.04,10.47,16.06,13.97,22.27
		c1.16,2.05,2.13,3.84,2.88,5.23C469.95,327.91,470.56,329.11,470.56,329.11z"/>
	<path class="st9" d="M470.56,329.11l-21.69,16.19c0,0-0.83-0.91-2.21-2.5c-1-1.17-2.29-2.71-3.79-4.53
		c-8.43-10.27-20.75-29.01-20.85-38.18c-0.15-13.68,14.06-15.7,30-1.7c6.88,6.04,10.47,16.06,13.97,22.27
		c1.16,2.05,2.13,3.84,2.88,5.23C469.95,327.91,470.56,329.11,470.56,329.11z"/>
	<path class="st10" d="M421.88,301.67c4.9-3.24,8.48,5.15,18.16,12.23c4.32,3.16,13.78,23.76,13,28.29l-4.18,3.12
		C448.87,345.3,421.77,315.3,421.88,301.67z"/>
	<path class="st6" d="M497.88,314.43l4.72-15.09l12.26,8.98c0,0-6.69,13.45-11.23,12.23L497.88,314.43z"/>
	<polygon class="st1" points="470.56,327.01 446.86,344.73 449.81,347.82 472.37,331.17 	"/>
	<polygon class="st4" points="470.56,327.01 446.86,344.73 449.81,347.82 472.37,331.17 	"/>
	<path class="st1" d="M443.48,408.56h-73.4c-0.52-6.55,1-27.88-0.13-55.03c-0.76-18.23-2.72-39.1-7.29-59.87
		c-0.33-1.48-0.67-2.94-1.02-4.42c0,0,3.72-0.76,9.05-1.54c4.42-0.65,9.98-1.31,15.42-1.57c9.37-0.44,22.94-0.74,31.19,0
		c4.79,0.44,9.48,1.24,13.22,1.96c4.78,0.96,7.59,1.79,7.59,1.79S456.2,331.38,443.48,408.56z"/>
	<path class="st9" d="M443.48,408.56h-73.4c-0.52-6.55,1-27.88-0.13-55.03c-0.76-18.23-2.72-39.1-7.29-59.87
		c-0.33-1.48-0.67-2.94-1.02-4.42c0,0,3.72-0.76,9.05-1.54c4.42-0.65,9.98-1.31,15.42-1.57c9.37-0.44,22.94-0.74,31.19,0
		c4.79,0.44,9.48,1.24,13.22,1.96c4.78,0.96,7.59,1.79,7.59,1.79S456.2,331.38,443.48,408.56z"/>
	<polygon class="st6" points="515.52,293.56 522.42,302.01 514.86,308.32 502.6,299.33 	"/>
	<path class="st6" d="M372.55,303.56c-0.73,4.67-1.66,8.93-2.68,13.36c-1,4.39-2.21,8.75-3.56,13.12c-1.38,4.36-2.92,8.72-4.8,13.09
		c-1.94,4.37-4.07,8.75-7.4,13.24c-1.74,2.22-3.73,4.55-6.92,6.65c-1.59,1.03-3.55,2-5.85,2.5c-2.29,0.53-4.87,0.46-7.11-0.09
		c-4.53-1.21-7.3-3.71-9.36-5.88c-2.07-2.24-3.51-4.5-4.75-6.73c-2.46-4.45-4.07-8.87-5.4-13.31c-0.67-2.21-1.22-4.44-1.69-6.67
		c-0.48-2.25-0.91-4.41-1.22-6.8l9.24-2.53c3.52,7.42,7.47,15.22,11.93,21c1.11,1.41,2.29,2.65,3.3,3.46
		c1.01,0.85,1.89,1.01,1.63,0.77c-0.12-0.11-0.48-0.14-0.66-0.16c-0.19-0.01-0.17,0,0.03-0.19c0.41-0.35,1.3-1.36,2.12-2.63
		c1.71-2.59,3.31-6.11,4.67-9.76c1.4-3.66,2.62-7.54,3.72-11.5c2.22-7.86,4.13-16.22,5.67-24.17L372.55,303.56z"/>
	<path class="st6" d="M322.16,324.39l-4.72-15.09l-12.26,8.98c0,0,6.69,13.45,11.23,12.23L322.16,324.39z"/>
	<polygon class="st6" points="304.53,303.52 297.63,311.98 305.19,318.28 317.44,309.3 	"/>
	<path class="st10" d="M369.95,353.53c-0.76-18.23-2.72-39.1-7.29-59.87c4.91-0.43,13.29,0.06,14.68,7.98
		C378.84,310.16,376.95,330.19,369.95,353.53z"/>
	<path class="st1" d="M379.15,312.8c-2.69,9-7.24,19.83-10.61,27.41c-0.88,2.01-1.7,3.8-2.37,5.24c-1.17,2.54-1.91,4.07-1.91,4.07
		l-27.47-14c0,0,0.3-1.14,0.85-3.07c0.42-1.45,0.96-3.36,1.64-5.55c4.05-12.95,12.43-36.1,21.38-37.72
		C374.03,286.76,384.05,296.48,379.15,312.8z"/>
	<path class="st9" d="M379.15,312.8c-2.69,9-7.24,19.83-10.61,27.41c-0.88,2.01-1.7,3.8-2.37,5.24c-1.17,2.54-1.91,4.07-1.91,4.07
		l-27.47-14c0,0,0.3-1.14,0.85-3.07c0.42-1.45,0.96-3.36,1.64-5.55c4.05-12.95,12.43-36.1,21.38-37.72
		C374.03,286.76,384.05,296.48,379.15,312.8z"/>
	<path class="st11" d="M404.08,296.43c-18.12-0.5-20.84-9.35-20.96-9.74l-0.11-0.39c1.04-0.07,2.05-0.13,3.09-0.19
		c9.37-0.44,22.94-0.74,31.19,0c0.59,0.06,1.17,0.11,1.76,0.19c1.3,1.33,2.55,3.22,2.04,5.26c-0.8,3.09-5.04,4.13-8.76,4.55
		L404.08,296.43z"/>
	<polygon class="st1" points="337.44,330.59 367.46,345.94 364.06,350.1 336.15,335.6 	"/>
	<polygon class="st4" points="337.44,330.59 367.46,345.94 364.06,350.1 336.15,335.6 	"/>
	<path class="st3" d="M402.56,297.78l12.17-1.35l-2.69,8.15c0,0,8.35,43.51,9.98,58.18c0.98,8.77,1.83,35.27,1.83,35.27l-6.33,6.98
		l-9.42-4.48c0,0,0.22-29.81,0.18-39.74c-0.06-14.05-0.72-56.21-0.72-56.21l-5.45-5.25L402.56,297.78z"/>
	<path class="st1" d="M399.6,305.8l8.86-8.06l10.91,7.52c0,0,11.29-10.7,2.91-18.54c-1.62-0.23-3.28-0.43-4.97-0.59
		c-8.26-0.74-21.83-0.44-31.19,0c-2.14,0.1-4.27,0.28-6.37,0.48C380.36,289.63,383.58,299.59,399.6,305.8z"/>
	<path class="st4" d="M399.6,305.8l8.86-8.06l10.91,7.52c0,0,11.29-10.7,2.91-18.54c-1.62-0.23-3.28-0.43-4.97-0.59
		c-8.26-0.74-21.83-0.44-31.19,0c-2.14,0.1-4.27,0.28-6.37,0.48C380.36,289.63,383.58,299.59,399.6,305.8z"/>
	<path class="st6" d="M404.67,294.6c-17.46-0.31-19.77-8.4-19.77-8.4c6.79-6.7,4.18-25.01,1.87-35.06l8.35,6.92l11.37,9.44
		c-0.33,1.54-0.59,3.09-0.72,4.59c-0.61,6.16,0.98,11.77,10.05,13.92c0,0,10.76,7.13-5.21,8.42L404.67,294.6z"/>
	<path class="st7" d="M406.49,267.5c-0.33,1.54-0.59,3.09-0.72,4.59c-4.24-0.85-9.9-5.37-10.5-9.7c-0.22-1.63-0.26-3.2-0.15-4.33
		L406.49,267.5z"/>
	<path class="st6" d="M383.34,236.68c2.9,13.35,3.92,21.28,11.8,27.37c11.86,9.16,27.57,1.02,28.72-12.78
		c1.04-12.42-3.88-32.16-17.92-35.94C392.11,211.61,380.43,223.33,383.34,236.68z"/>
	<path class="st3" d="M404.39,238c0.17,1.09,0.89,1.91,1.61,1.83c0.72-0.09,1.16-1.04,1-2.14c-0.17-1.09-0.89-1.91-1.61-1.83
		C404.67,235.95,404.22,236.91,404.39,238z"/>
	<path class="st3" d="M416.82,236.53c0.17,1.09,0.89,1.91,1.61,1.83c0.72-0.09,1.16-1.04,1-2.14c-0.17-1.09-0.89-1.91-1.61-1.83
		C417.09,234.47,416.65,235.43,416.82,236.53z"/>
	<path class="st12" d="M412.95,237.54c0,0,3.47,6.02,6.69,8.74c-1.67,2.04-5.1,1.61-5.1,1.61L412.95,237.54z"/>
	<path class="st3" d="M399.93,234.46c-0.11,0-0.21-0.03-0.31-0.08c-0.31-0.17-0.43-0.57-0.25-0.88c1.72-3.11,4.74-3.29,4.86-3.29
		c0.34-0.05,0.66,0.26,0.68,0.62c0.02,0.36-0.26,0.66-0.62,0.68c-0.12,0.01-2.43,0.18-3.79,2.62
		C400.38,234.34,400.16,234.46,399.93,234.46z"/>
	<path class="st3" d="M421.5,231.64c-0.21,0-0.41-0.1-0.54-0.28c-1.67-2.44-4.08-2.49-4.11-2.49c-0.36,0-0.65-0.29-0.65-0.65
		c0-0.36,0.29-0.65,0.65-0.65h0c0.13,0,3.13,0.05,5.17,3.05c0.2,0.3,0.13,0.7-0.17,0.9C421.75,231.6,421.63,231.64,421.5,231.64z"/>
	<path class="st3" d="M388.19,247.53c0,0,5.91,3.89,5.37-0.81s-2.67-20.54-2.67-20.54l6.56-5.37c0,0,28,0.19,26.22-14
		c-1.78-14.19-14.81-2.98-14.81-2.98s2.66-8-6.72-7.86s-10.46,9-10.46,9s-8.85-5.24-13.22-0.54s-3.3,11.68-3.3,11.68
		s-21.48,3.02-7.52,23.73S391.94,262.83,388.19,247.53z"/>
	<path class="st6" d="M380.26,250.61c2.39,2.87,5.67,4.56,8.47,5.04c4.21,0.72,5.16-3.18,3.02-6.95c-1.93-3.39-6.43-7.85-10.19-6.85
		C377.85,242.82,377.53,247.33,380.26,250.61z"/>
	<path class="st3" d="M399.87,265.08c-1.91-4.85-4.56-13.39-1.75-20.77s13.16,5.37,16.78,5.37c3.63,0,6.68-5.65,8.85-1.75
		c2.16,3.9-7.1,26.25-9.05,20.39c0,0-2.61,4.01-5.03,0.34c0,0-1.62,3.09-4.16,0C405.51,268.65,401.91,270.24,399.87,265.08z"/>
	<path class="st0" d="M399.87,265.08c-1.91-4.85-4.56-13.39-1.75-20.77s13.16,5.37,16.78,5.37c3.63,0,6.68-5.65,8.85-1.75
		c2.16,3.9-7.1,26.25-9.05,20.39c0,0-2.61,4.01-5.03,0.34c0,0-1.62,3.09-4.16,0C405.51,268.65,401.91,270.24,399.87,265.08z"/>
	<g>
		<path class="st3" d="M418.26,251.51c0,0-4.06-1.05-15.55-1.36c1.25,3.49,3.69,6.37,9.57,6.48S418.26,251.51,418.26,251.51z"/>
		<path class="st13" d="M409.62,253.84c2.84,0.05,4.87,0.75,6.36,1.84c-0.85,0.58-2.06,0.97-3.7,0.94
			c-2.84-0.05-4.86-0.74-6.35-1.84C406.79,254.19,407.98,253.81,409.62,253.84z"/>
		<path class="st11" d="M417.74,251.4c-0.35,0.73-0.69,1.46-1.85,1.66c-2.4,0.1-8.5-0.75-10.14-1.14c-1.05-0.2-1.94-0.59-2.55-1.76
			C412.05,250.42,416.35,251.12,417.74,251.4z"/>
	</g>
</g>
<g>
	<g>
		<path class="st14" d="M824.46,414.23c-0.8-0.2-1.81,0.53-2.24,1.77c-0.43,1.24-0.14,2.49,0.69,2.69c0.82,0.2,1.83-0.55,2.26-1.77
			C825.66,415.68,825.27,414.43,824.46,414.23z"/>
		<path class="st13" d="M820.07,427.52c-1.86-0.2-3.53-1.21-4.57-2.77c3.15-1.91,6.02-4.24,8.56-6.91L820.07,427.52z"/>
		<path class="st14" d="M829.92,412.35c-0.29-1.89-1.48-3.52-3.2-4.38c-0.32-0.17-0.48-0.54-0.38-0.89
			c0.12-0.41,0.54-0.64,0.95-0.52c2.21,1.04,3.75,3.11,4.12,5.51c0,0.01,0,0.02,0,0.02c0.07,0.41-0.21,0.79-0.61,0.86
			c-0.13,0.03-0.26,0.03-0.39,0C830.15,412.85,829.96,412.62,829.92,412.35z"/>
		<path class="st15" d="M860.29,471.99c0.83,3.73,1.4,5.5-1.93,7.1c-7.03,3.63-14.78,4.91-22.39,3.71
			c-7.93-1.35-9.35-4.18-9.02-6.46c0.32-1.84,1.98-2.96,3.65-3.81c3.39-1.24,5.74-4.87,5.85-9.05c0.2-1.86,0.38-5.59-0.12-6.14
			l14.19-9.38l10.7-11.93C858.64,445.67,858.15,462.47,860.29,471.99z"/>
		<path class="st1" d="M815.69,480.29c0,0,5.24-14.46,13.74-17.8c8.5-3.34,34.01-1.47,34.01-1.47c1.21,5.22,2.8,10.34,4.77,15.33
			L815.69,480.29z"/>
		<path class="st15" d="M867.74,420.05c-0.37-11.92-10.32-21.28-22.24-20.92c-16.41,0.59-26,21.67-27.48,36.03
			c-1.63,15.96,14.07,29.32,29.12,22.06c10.01-4.83,12.8-13.54,18.82-27.93C867.24,426.39,867.84,423.23,867.74,420.05z"/>
		<path class="st7" d="M865.12,467.31c0.9,3.05,1.92,6.07,3.09,9.03l-48.53,3.65c1.03-2.41,2.53-5.44,4.49-8.15
			C835.9,467.1,856.4,467.08,865.12,467.31z"/>
		<path class="st3" d="M856.23,451.01c-1.78-0.4-4.37-0.6-7.84,0.07c-2.61,0.5-5.24-0.73-6.39-3.12l-7.67-15.94
			c0,0-10.99-3.65,2.47-25.62c0,0-25.64-8.48-6.7-25.89c18.94-17.42,6.7,6.13,6.7,6.13s23.94-12.89,11.97,3.43
			c0,0,36.58,1.85,27.5,21.65c0,0,15.14,0.3-14.4,37.25C860.53,450.66,858.34,451.48,856.23,451.01z"/>
		<path class="st15" d="M840.03,421.69c-4.12-0.61-8.56,3.55-10.01,7.24c-1.61,4.2,0.49,9.01,4.83,7.85
			c3.35-0.95,6.23-3.11,8.11-6.04C845.27,427.07,844.15,422.3,840.03,421.69z"/>
		<g>
			<path class="st15" d="M861.86,490.75c1.88,3.74,3.97,7.83,5.84,11.8c1.87,4.01,3.75,8.01,5.46,12.02c1.74,4,3.35,8.01,4.73,11.96
				c1.39,3.91,2.55,7.87,3.09,11.24c0.29,1.64,0.38,3.18,0.35,3.93c-0.01,0.18-0.01,0.31,0,0.35c0,0.01,0.02,0.05,0.03,0.01
				l0.04-0.03l0.12-0.2c0.35-0.49-1.73,1.93-3.21,2.96c-1.52,1.04-3.24,2.11-5.05,3.14c-7.29,4.1-15.72,7.78-23.84,11.51l2.73,11.34
				c4.92-0.38,9.59-1.04,14.35-2c4.74-0.95,9.48-2.12,14.28-3.79c2.41-0.83,4.84-1.77,7.33-3c2.5-1.27,5.07-2.62,7.92-5.09
				c1.4-1.27,2.94-2.83,4.35-5.36c0.17-0.32,0.35-0.67,0.49-0.97l0.36-0.83c0.25-0.57,0.41-1.09,0.59-1.62
				c0.34-1.06,0.57-2.06,0.75-3.02c0.67-3.81,0.56-6.93,0.34-9.86c-0.55-5.79-1.79-10.78-3.16-15.65
				c-1.43-4.83-3.07-9.45-4.84-13.98c-1.81-4.5-3.69-8.93-5.77-13.24c-2.09-4.36-4.12-8.52-6.6-12.9L861.86,490.75z"/>
			<path class="st15" d="M854.72,559.92l-17.46-4.49l-1.44,15.7c0,0,11.77,4.85,19.02-2.74L854.72,559.92z"/>
			<polygon class="st15" points="830.22,557.74 826.51,570.41 835.82,571.13 837.26,555.43 			"/>
		</g>
		<path class="st1" d="M898.96,509.24L869.19,524c0,0-1.55-0.39-13.33-19.21c-13.64-21.9-6.16-34.21,10.28-34.8
			C882.97,469.36,888.95,490.18,898.96,509.24z"/>
		<polygon class="st7" points="889.69,513.84 875.45,520.9 868.21,512.35 876.25,490.89 878.49,488.44 884.07,487.63 		"/>
		<polygon class="st15" points="704.99,742.04 690.19,735.64 678.81,771.28 693.62,777.7 		"/>
		<polygon class="st16" points="704.99,742.04 690.19,735.64 684.51,753.45 699.48,759.32 		"/>
		<path class="st3" d="M677.16,765.02c-4.43,3.71-13.47,6.4-20.39,6.8c-5.34,0.27-5.79,6.4,0.89,7.52
			c6.69,1.13,18.33,0.59,23.23,0.8c7.94,0.31,10.64,1.6,16.93,1.51c1.57-0.08,2.78-1.4,2.73-2.97l-1.33-14.26
			c-0.05-0.63-0.6-1.11-1.24-1.08l-18.09,0.58C678.88,763.98,677.92,764.36,677.16,765.02z"/>
		<path class="st3" d="M840.21,594.91c0,0,12.43,14.74,2.41,38.07c-11.32,26.44-71.35,14.82-104.14,23.26
			c-4.67,46.69-31.93,94.6-31.93,94.6l-22.78-8.93c0,0,9.88-37.18,17.28-103.06c3.64-32.42,85.9-35.97,85.9-35.97L840.21,594.91z"/>
		<polygon class="st3" points="711.09,746.62 682.07,736.47 680.3,747.09 706.74,756.7 		"/>
		<polygon class="st15" points="775.09,757.32 759.11,756.56 761.72,794.28 777.7,795.04 		"/>
		<path class="st3" d="M757.36,790.31c-4.44,3.69-11.89,8.83-18.76,9.81c-4.4,0.63-7.71,7.3,0.53,7.3s17.09-0.78,21.98-0.94
			c7.95-0.26,10.6,0.45,16.9,0.45c0,0,0,0,0,0c1.57-0.07,2.79-1.39,2.72-2.96l-1.31-14.27c-0.06-0.63-0.61-1.09-1.24-1.06
			l-18.08,0.57C759.1,789.26,758.13,789.65,757.36,790.31z"/>
		<polygon class="st16" points="776.54,778.13 760.62,778.15 759.11,756.58 775.09,757.34 		"/>
		<path class="st3" d="M880.16,597.47c0,0,13.09,26.71,0.35,43.71c-11.52,15.41-70.42,16.45-100.35,16.45
			c2.96,36.5-0.31,111.49-0.31,111.49l-23.96-0.33c0,0-16.92-72.1-20.39-122.56c-1.94-28.03,97.83-46.61,97.83-46.61L880.16,597.47z
			"/>
		<polygon class="st3" points="783.13,764.15 750.2,763.19 751.63,773.02 781.88,773.46 		"/>
		<path class="st1" d="M883.06,598.87l-98.46,4.1l9.27-110.45c1.05-12.51,11.51-22.13,24.06-22.13H867
			c9.49,0,17.16,7.74,17.08,17.23L883.06,598.87z"/>
		<path class="st15" d="M799.22,486.93l-2.7,5.83c-0.94,1.99-1.91,3.98-2.9,5.95c-2.02,3.93-4.03,7.86-6.2,11.67
			c-2.13,3.83-4.37,7.57-6.71,11.15c-2.32,3.6-4.8,7.04-7.39,10.19c-1.28,1.6-2.61,3.09-3.97,4.49c0,0-0.78,0.71-2.3,0.31
			c-1.55-0.39-3.37-0.98-5.2-1.76c-7.41-3.12-15.31-8.01-22.86-12.64l-7.93,8.56c3.15,3.95,6.41,7.44,10.03,10.85
			c3.61,3.38,7.44,6.62,11.92,9.51c2.25,1.44,4.64,2.86,7.47,4.03c2.84,1.14,6.05,2.28,10.6,2.29c2.27-0.03,4.97-0.48,7.64-1.77
			c1.31-0.6,2.66-1.54,3.68-2.39l1.55-1.32c2.04-1.78,3.96-3.61,5.75-5.5c7.18-7.57,12.88-15.75,18.01-24.13
			c2.51-4.22,4.92-8.47,7.09-12.84c1.09-2.18,2.16-4.37,3.19-6.58c1.06-2.25,1.97-4.37,2.99-6.9L799.22,486.93z"/>
		<path class="st15" d="M741.54,526.08l-7.78-16.27l-12.95,8.98c0,0,3.84,12.14,14.32,12.82L741.54,526.08z"/>
		<polygon class="st15" points="727.48,505.9 715.39,511.2 720.81,518.8 733.76,509.81 		"/>
		<path class="st1" d="M809.76,529.02l-27.81-18.19c0,0-0.45-1.59,9.81-21.22c11.95-22.86,26.36-22.67,35.21-8.81
			C836.04,494.99,821.15,510.73,809.76,529.02z"/>
	</g>
	<g>
		<g>
			<path class="st1" d="M929.77,806.84L929.77,806.84c0.95-0.52,1.3-1.71,0.79-2.66l-75.93-139.72c-0.52-0.95-1.71-1.3-2.66-0.79
				l0,0c-0.95,0.52-1.3,1.71-0.79,2.66l75.93,139.72C927.62,807.01,928.81,807.36,929.77,806.84z"/>
		</g>
		<g class="st7">
			<path d="M929.77,806.84L929.77,806.84c0.95-0.52,1.3-1.71,0.79-2.66l-75.93-139.72c-0.52-0.95-1.71-1.3-2.66-0.79l0,0
				c-0.95,0.52-1.3,1.71-0.79,2.66l75.93,139.72C927.62,807.01,928.81,807.36,929.77,806.84z"/>
		</g>
		<polygon class="st7" points="893.1,743.48 886.4,731.15 888.63,727.04 895.33,739.37 		"/>
		<g>
			<path class="st1" d="M821.26,806.84L821.26,806.84c0.95-0.52,1.3-1.71,0.79-2.66l-75.93-139.72c-0.52-0.95-1.71-1.3-2.66-0.79
				l0,0c-0.95,0.52-1.3,1.71-0.79,2.66l75.93,139.72C819.12,807.01,820.31,807.36,821.26,806.84z"/>
		</g>
		<g class="st7">
			<path d="M821.26,806.84L821.26,806.84c0.95-0.52,1.3-1.71,0.79-2.66l-75.93-139.72c-0.52-0.95-1.71-1.3-2.66-0.79l0,0
				c-0.95,0.52-1.3,1.71-0.79,2.66l75.93,139.72C819.12,807.01,820.31,807.36,821.26,806.84z"/>
		</g>
		<polygon class="st7" points="784.59,743.48 777.89,731.15 780.13,727.04 786.83,739.37 		"/>
		<g>
			<path class="st1" d="M746.12,806.05l75.93-139.72c0.52-0.95,0.16-2.14-0.79-2.66l0,0c-0.95-0.52-2.14-0.17-2.66,0.79
				l-75.93,139.72c-0.52,0.95-0.16,2.14,0.79,2.66l0,0C744.41,807.36,745.6,807.01,746.12,806.05z"/>
		</g>
		<g class="st7">
			<path d="M746.12,806.05l75.93-139.72c0.52-0.95,0.16-2.14-0.79-2.66l0,0c-0.95-0.52-2.14-0.17-2.66,0.79l-75.93,139.72
				c-0.52,0.95-0.16,2.14,0.79,2.66l0,0C744.41,807.36,745.6,807.01,746.12,806.05z"/>
		</g>
		<g>
			<path class="st1" d="M854.62,806.05l75.93-139.72c0.52-0.95,0.17-2.14-0.79-2.66l0,0c-0.95-0.52-2.14-0.17-2.66,0.79
				l-75.93,139.72c-0.52,0.95-0.17,2.14,0.79,2.66l0,0C852.92,807.36,854.11,807.01,854.62,806.05z"/>
		</g>
		<g class="st7">
			<path d="M854.62,806.05l75.93-139.72c0.52-0.95,0.17-2.14-0.79-2.66l0,0c-0.95-0.52-2.14-0.17-2.66,0.79l-75.93,139.72
				c-0.52,0.95-0.17,2.14,0.79,2.66l0,0C852.92,807.36,854.11,807.01,854.62,806.05z"/>
		</g>
		<path class="st1" d="M838.57,657.47h-88.18c-5.59,0-10.13,4.53-10.13,10.13l0,0h98.31V657.47z"/>
		<path class="st1" d="M901.14,527.95L901.14,527.95c31,0,53.06,23.1,51.44,53.87l-3.54,67.27c-0.55,10.38-9.12,18.52-19.52,18.52
			H804.98l25.73-85.78C839.94,551.05,870.15,527.95,901.14,527.95z"/>
		<path class="st0" d="M901.14,527.95L901.14,527.95c31,0,53.06,23.1,51.44,53.87l-3.54,67.27c-0.55,10.38-9.12,18.52-19.52,18.52
			H804.98l25.73-85.78C839.94,551.05,870.15,527.95,901.14,527.95z"/>
	</g>
</g>
<g>
	<g>
		<path class="st6" d="M636.26,475.93c2.14,7.59,2.67,15.73-8.24,18.68c0,0-10.18,14.35,2.04,23.96
			c7.73-10.18,17.49-18.65,28.66-24.87c-7.08-6.35-5.7-24.46-4.07-34.38L636.26,475.93z"/>
		<path class="st14" d="M622.73,436.53c-0.83-0.2-1.85,0.57-2.26,1.83c-0.41,1.26-0.06,2.58,0.77,2.79c0.83,0.2,1.85-0.55,2.26-1.83
			C623.95,438.06,623.56,436.73,622.73,436.53z"/>
		<path class="st14" d="M620.3,434.84l2.77,1.87C621.1,437.75,620.3,434.84,620.3,434.84z"/>
		<path class="st12" d="M619.75,450.25c-1.7-0.1-3.26-0.95-4.27-2.32c2.69-1.88,5.1-4.13,7.16-6.68L619.75,450.25z"/>
		<path class="st14" d="M625.74,428.18c1.66,1.13,2.67,3,2.69,5.01l0,0c0,0.01,0,0.01,0,0.02c-0.01,0.43,0.33,0.78,0.75,0.79
			c0.01,0,0.03,0,0.04,0c0.42,0.01,0.76-0.32,0.77-0.73c0-2.54-1.24-4.92-3.32-6.37c-0.35-0.25-0.84-0.18-1.1,0.16
			c-0.14,0.24-0.14,0.53,0,0.77C625.59,427.97,625.65,428.09,625.74,428.18z"/>
		<path class="st6" d="M670.2,437.33c-1.06-12.32-11.91-21.45-24.23-20.39c-17.34,1.3-26.97,23.85-28.13,39
			c-1.3,16.83,16.22,27.58,32.02,19.32c10.58-5.5,12.62-12.11,18.73-27.46C669.95,444.49,670.5,440.9,670.2,437.33z"/>
		<path class="st3" d="M678.66,457.25c22.73-28.72-5.17-36.96-5.17-36.96c-8.75-12.13-23.18-14.59-36.41-9.53
			c-13.23,5.07-9.3,13.92-4.48,14.8c-9.02,11.93-3.85,17.85-0.88,18.7C627.06,474.26,655.92,485.97,678.66,457.25z"/>
		<path class="st6" d="M639.08,445.17c0.38-3.18-1.9-6.06-5.08-6.44c-4.4-0.45-7.8,4.78-8.75,8.53c-1.08,4.15,1.24,7.98,5.56,6.61
			c3.26-1.06,5.96-3.38,7.51-6.43C638.73,446.74,638.99,445.97,639.08,445.17z"/>
		<path class="st1" d="M662.93,495.89c0,0-4.61-2.98-4.22-8.32c0,0-31.81-4.63-38.41,2.54c0,0,9.56-0.51,5.74,7.38L662.93,495.89z"
			/>
		<path class="st9" d="M662.93,495.89c0,0-4.61-2.98-4.22-8.32c0,0-31.81-4.63-38.41,2.54c0,0,9.56-0.51,5.74,7.38L662.93,495.89z"
			/>
		<path class="st6" d="M629.99,589.6l-0.18,8.21c9.95,1.19,19.97,1.68,29.98,1.46c5.3-0.08,10.59-0.65,15.79-1.7
			c1.54-0.34,3.04-0.8,4.51-1.37c0.9-0.34,1.78-0.76,2.62-1.25c1.18-0.66,2.25-1.5,3.18-2.48c0.66-0.73,1.23-1.55,1.69-2.42
			c0.25-0.53,0.48-1.07,0.66-1.63c0.13-0.58,0.21-1.16,0.27-1.75l0.29-1.89l0.58-3.76c1.12-10,1.7-19.86,2.14-29.71
			c0.44-9.86,0.69-19.68,0.63-29.57l-16.77,0.05l-0.49,29.14c-0.23,9.7-0.42,19.41-0.92,28.91l-0.21,3.17
			c-0.61,0.27-1.23,0.54-1.87,0.73c-4.33,1.24-8.74,2.15-13.21,2.74C649.32,587.88,639.6,588.7,629.99,589.6z"/>
		<path class="st3" d="M661.03,516.42c0,10.16,6.11,29.15,6.11,29.15l25.18-15.49c1.12-13.01-1.57-29.72-14.04-33.79
			C669.8,493.54,661.13,505.61,661.03,516.42z"/>
		<path class="st8" d="M679.12,509.11l5.78,5.72l1.11,19.11l-18.88,11.62c0,0-6.11-18.99-6.11-29.15c0.02-2.58,0.55-5.22,1.43-7.72
			l8.7-2.64L679.12,509.11z"/>
		<path class="st6" d="M606.87,594.17c-0.7-1.64,0.06-3.55,1.71-4.25l7.13-3.03c1.54-0.64,3.24-0.75,4.85-0.33l15.56,4.19l1.91,5.26
			c-2.43,6.03-12.71,4.89-12.71,4.89l-7.41,2.26c-1.91,0.59-3.98-0.05-5.23-1.6l-5.38-6.67
			C607.12,594.68,606.98,594.43,606.87,594.17z"/>
		<path class="st3" d="M618.21,496.04c3.24-0.55,6.61-1.06,9.91-1.47c10.14-1.02,20.34-1.33,30.53-0.92
			c5.01,0.1,9.93,0.47,14.25,0.92c0.12,0.01,0.23,0.03,0.35,0.04c7.8,1.03,13.29,8.2,12.25,16c-6.11,43.56-8.77,62.1-7,86.99
			l-67.41,2.04c-7.86-40.6-11.05-64.81-12.09-79.05C598.1,508.67,606.43,498.04,618.21,496.04z"/>
		<polygon class="st6" points="539.97,745.96 524.05,744.45 513.33,783.66 529.24,785.16 		"/>
		<polygon class="st6" points="490.77,710.73 477.28,697.95 459.23,725.36 470.01,734.73 		"/>
		<path class="st1" d="M672.12,598.11c3.29-0.03,6.17,2.19,6.98,5.37c9.1,35.54-1.18,56.99-26.34,56.99
			c-23.57,0-87.91-21.05-108.12-27.6c-16.93,48.91-65.78,92.69-65.78,92.69l-12.82-11.76c0,0,28.45-54.83,48.12-103.5
			c11.3-27.99,120.43-11.83,120.43-11.83S656.29,598.11,672.12,598.11z"/>
		<path class="st17" d="M672.12,598.11c3.29-0.03,6.17,2.19,6.98,5.37c9.1,35.54-1.18,56.99-26.34,56.99
			c-23.57,0-87.91-21.05-108.12-27.6c-16.93,48.91-65.78,92.69-65.78,92.69l-12.82-11.76c0,0,28.45-54.83,48.12-103.5
			c11.3-27.99,120.43-11.83,120.43-11.83S656.29,598.11,672.12,598.11z"/>
		<path class="st1" d="M655.64,597.56c25.62,33.83,23.59,62.83-2.87,62.83c-23.57,0-52.98,1.38-84.89-0.65
			c-7.02,51.35-33.77,111.17-33.77,111.17l-17.65-1.65c0,0,16.1-75.06,17.34-127.55c0.77-31.73,90.33-29.02,90.33-29.02
			S639.92,597.65,655.64,597.56z"/>
		<path class="st17" d="M655.64,597.56c25.62,33.83,23.59,62.83-2.87,62.83c-23.57,0-52.98,1.38-84.89-0.65
			c-7.02,51.35-33.77,111.17-33.77,111.17l-17.65-1.65c0,0,16.1-75.06,17.34-127.55c0.77-31.73,90.33-29.02,90.33-29.02
			S639.92,597.65,655.64,597.56z"/>
		<path class="st3" d="M678.27,593.07L610,595.1c-0.67,0.02-1.12,0.41-1.12,0.81l0.77,6.11c0.06,0.37,0.57,0.63,1.18,0.63
			l69.36-2.04c0.79-0.02,1.32-0.51,1.08-0.98l-1.91-5.98C679.15,593.26,678.72,593.03,678.27,593.07z"/>
		<path class="st6" d="M555.37,566.58c6.54,4.22,13.39,7.94,20.48,11.14c3.71,1.69,7.54,3.11,11.46,4.24
			c2.31,0.68,4.7,1.09,7.1,1.23c1.82,0.1,3.65-0.14,5.39-0.7c1.48-0.51,2.83-1.33,3.96-2.41c0.34-0.33,0.66-0.68,0.94-1.06l0.42-0.6
			l0.32-0.46l0.4-0.72c4.2-7.3,7.16-15.26,8.73-23.54c0.82-3.96,1.42-7.96,1.81-11.98c0.18-2.09,0.33-4.01,0.44-6.03
			c0.11-2.02,0.13-3.94,0.08-6.2l-16.7,0.25c-0.03,1.47-0.12,3.38-0.19,5.08c-0.08,1.7-0.21,3.54-0.39,5.3
			c-0.32,3.51-0.75,7.03-1.3,10.52c-0.58,3.39-1.32,6.75-2.24,10.07c-0.75,2.67-1.74,5.27-2.86,7.8c-0.95-0.02-1.9-0.09-2.83-0.27
			c-3.44-0.6-6.84-1.4-10.19-2.38c-6.98-1.99-14.14-4.35-21.17-6.7L555.37,566.58z"/>
		<path class="st3" d="M625.99,516.33c4.99,7.71-6.65,27.54-6.65,27.54l-20.99-2.34c0,0-4.24-26.41,5.98-37.26
			C609.84,498.45,620.76,508.31,625.99,516.33z"/>
		<path class="st14" d="M541.28,561.4c0,0-0.01,0-0.01,0c-0.51-0.17-0.79-0.72-0.62-1.23l11.03-33c0.18-0.5,0.73-0.77,1.24-0.61
			c0,0,0.01,0,0.01,0c0.51,0.17,0.79,0.72,0.62,1.23l-11.01,33c-0.13,0.34-0.42,0.59-0.78,0.66
			C541.6,561.47,541.44,561.46,541.28,561.4z"/>
		<path class="st6" d="M544.62,542.78c-1.92-0.16-3.6,1.27-3.75,3.18l-0.95,9.14c-0.15,1.41,0.58,2.77,1.83,3.44l7.7,4.06
			c0,0,13.22,12.47,18.9,9.34l-4.09-8.91l-7.98-13.77c-0.9-1.57-2.29-2.8-3.96-3.49l-6.62-2.73
			C545.35,542.9,544.99,542.81,544.62,542.78z"/>
		<path class="st1" d="M459.02,719.29c-5.38-0.42-13.16-4.52-18.04-8.78c-3.74-3.3-8.04,0.49-4.31,5.6
			c3.73,5.12,11.84,12.36,14.97,15.7c5.1,5.39,6.05,8.02,10.31,12.06c1.1,0.97,2.77,0.88,3.76-0.19l8.42-10.39
			c0.38-0.46,0.32-1.13-0.12-1.52l-12.45-11.42C460.85,719.72,459.96,719.35,459.02,719.29z"/>
		<path class="st1" d="M511.99,782.68c-3.78,3.84-10.23,9.31-16.52,10.85c-4.02,0.99-6.49,7.5,1.17,6.73
			c7.66-0.76,15.8-2.31,20.33-2.91c7.36-0.97,9.88-0.56,15.74-1.15c0,0,0,0,0,0c1.45-0.21,2.46-1.55,2.25-3l-2.54-13.13
			c-0.12-0.58-0.67-0.96-1.25-0.87l-16.73,2.2C513.5,781.54,512.63,781.99,511.99,782.68z"/>
	</g>
	<g>
		<g>
			<path class="st1" d="M722.15,807.19L722.15,807.19c0.95-0.52,1.31-1.71,0.79-2.66l-75.93-139.72c-0.52-0.95-1.71-1.31-2.66-0.79
				l0,0c-0.95,0.52-1.3,1.71-0.79,2.66l75.93,139.72C720.01,807.35,721.2,807.71,722.15,807.19z"/>
		</g>
		<g class="st7">
			<path d="M722.15,807.19L722.15,807.19c0.95-0.52,1.31-1.71,0.79-2.66l-75.93-139.72c-0.52-0.95-1.71-1.31-2.66-0.79l0,0
				c-0.95,0.52-1.3,1.71-0.79,2.66l75.93,139.72C720.01,807.35,721.2,807.71,722.15,807.19z"/>
		</g>
		<polygon class="st7" points="685.48,743.83 678.78,731.5 681.02,727.39 687.72,739.72 		"/>
		<g>
			<path class="st1" d="M613.65,807.19L613.65,807.19c0.95-0.52,1.3-1.71,0.79-2.66L538.5,664.81c-0.52-0.95-1.71-1.31-2.66-0.79
				l0,0c-0.95,0.52-1.3,1.71-0.79,2.66l75.93,139.72C611.5,807.35,612.69,807.71,613.65,807.19z"/>
		</g>
		<g class="st7">
			<path d="M613.65,807.19L613.65,807.19c0.95-0.52,1.3-1.71,0.79-2.66L538.5,664.81c-0.52-0.95-1.71-1.31-2.66-0.79l0,0
				c-0.95,0.52-1.3,1.71-0.79,2.66l75.93,139.72C611.5,807.35,612.69,807.71,613.65,807.19z"/>
		</g>
		<polygon class="st7" points="576.98,743.83 570.28,731.5 572.51,727.38 579.21,739.72 		"/>
		<g>
			<path class="st1" d="M538.5,806.4l75.93-139.72c0.52-0.95,0.16-2.14-0.79-2.66l0,0c-0.95-0.52-2.14-0.17-2.66,0.79l-75.93,139.72
				c-0.52,0.95-0.16,2.14,0.79,2.66l0,0C536.79,807.71,537.99,807.35,538.5,806.4z"/>
		</g>
		<g class="st7">
			<path d="M538.5,806.4l75.93-139.72c0.52-0.95,0.16-2.14-0.79-2.66l0,0c-0.95-0.52-2.14-0.17-2.66,0.79l-75.93,139.72
				c-0.52,0.95-0.16,2.14,0.79,2.66l0,0C536.79,807.71,537.99,807.35,538.5,806.4z"/>
		</g>
		<g>
			<path class="st1" d="M647.01,806.4l75.93-139.72c0.52-0.95,0.16-2.14-0.79-2.66l0,0c-0.95-0.52-2.14-0.17-2.66,0.79
				l-75.93,139.72c-0.52,0.95-0.16,2.14,0.79,2.66l0,0C645.3,807.71,646.49,807.35,647.01,806.4z"/>
		</g>
		<g class="st7">
			<path d="M647.01,806.4l75.93-139.72c0.52-0.95,0.16-2.14-0.79-2.66l0,0c-0.95-0.52-2.14-0.17-2.66,0.79l-75.93,139.72
				c-0.52,0.95-0.16,2.14,0.79,2.66l0,0C645.3,807.71,646.49,807.35,647.01,806.4z"/>
		</g>
		<path class="st1" d="M630.95,657.82h-88.18c-5.59,0-10.13,4.53-10.13,10.13l0,0h98.31V657.82z"/>
		<path class="st1" d="M693.53,528.3L693.53,528.3c31,0,53.06,23.1,51.44,53.87l-3.54,67.27c-0.55,10.38-9.12,18.52-19.52,18.52
			H597.36l25.73-85.78C632.32,551.4,662.53,528.3,693.53,528.3z"/>
		<path class="st0" d="M693.53,528.3L693.53,528.3c31,0,53.06,23.1,51.44,53.87l-3.54,67.27c-0.55,10.38-9.12,18.52-19.52,18.52
			H597.36l25.73-85.78C632.32,551.4,662.53,528.3,693.53,528.3z"/>
	</g>
</g>
</svg>
