<?xml version="1.0" encoding="utf-8"?>
<!-- Generator: Adobe Illustrator 24.0.0, SVG Export Plug-In . SVG Version: 6.00 Build 0)  -->
<svg version="1.1" id="Layer_1" xmlns="http://www.w3.org/2000/svg" xmlns:xlink="http://www.w3.org/1999/xlink" x="0px" y="0px"
	 viewBox="0 0 1000 1000" style="enable-background:new 0 0 1000 1000;" xml:space="preserve">
<style type="text/css">
	.st0{opacity:0.4;fill:#123752;}
	.st1{fill:#140F0E;}
	.st2{fill:#301F23;}
	.st3{fill:#140D0F;}
	.st4{fill:#D88D5B;}
	.st5{fill:#176E82;}
	.st6{fill:#1C92A5;}
	.st7{fill:#BACAE0;}
	.st8{fill:#125A66;}
	.st9{fill:#3F2935;}
	.st10{fill:#FFB278;}
	.st11{fill:#E5804E;}
	.st12{fill:#23161E;}
	.st13{fill:#D8250E;}
	.st14{fill:#E25B00;}
	.st15{fill:#E59E00;}
	.st16{fill:#69999E;}
	.st17{fill:#FFFFFF;}
	.st18{fill:#BA562F;}
	.st19{fill:#1E1714;}
	.st20{fill:#2D221E;}
	.st21{fill:#AA160B;}
	.st22{fill:#F9DD50;}
	.st23{fill:#601E13;}
	.st24{fill:#822316;}
	.st25{fill:#F5DFD4;}
	.st26{fill:#E2C5B7;}
	.st27{fill:#617695;}
	.st28{fill:#4F6177;}
	.st29{fill:#F72828;}
	.st30{fill:#E52323;}
	.st31{fill:#3F1411;}
	.st32{fill:#1E1316;}
	.st33{fill:#2F4C1C;}
	.st34{fill:#E8E2DD;}
	.st35{fill:#47722B;}
	.st36{fill:#6BAA43;}
	.st37{fill:#FFFBF8;}
	.st38{fill:#F72E1E;}
	.st39{fill:#3B3348;}
	.st40{fill:#68300B;}
	.st41{fill:#260F0E;}
	.st42{fill:#086A97;}
	.st43{fill:#084B63;}
	.st44{fill:#0B8BB7;}
	.st45{fill:#095E7C;}
	.st46{fill:#3F1616;}
	.st47{fill:#160808;}
	.st48{fill:#A18BBC;}
	.st49{opacity:0.4;}
	.st50{fill:#AD4B14;}
	.st51{fill:#441E08;}
	.st52{fill:#BABABA;}
	.st53{fill:#E2E2E2;}
	.st54{fill:#F9A56B;}
	.st55{fill:#0E0E11;}
	.st56{fill:#18181E;}
	.st57{fill:#313944;}
	.st58{fill:#384150;}
	.st59{fill:#C7C7DD;}
	.st60{fill:#DADAEF;}
	.st61{fill:#F8F8FF;}
	.st62{fill:#3D2726;}
	.st63{fill:#D86F41;}
	.st64{fill:#16100F;}
	.st65{fill:#73504A;}
	.st66{fill:#684743;}
	.st67{fill:#2E2A29;}
	.st68{fill:#423D3C;}
	.st69{fill:#E2231A;}
	.st70{fill:#F92828;}
	.st71{fill:#075975;}
</style>
<path class="st0" d="M998.3,927.8c0,5.37-223.48,9.72-499.15,9.72S0,933.17,0,927.8c0-5.37,223.48-9.72,499.15-9.72
	S998.3,922.43,998.3,927.8z"/>
<g>
	<path class="st1" d="M839.44,214.44c14.79,2.57,33.5,1.68,47.03,10.52c15.02,9.82,18.07,37.25,21.53,53.25
		c7.69,35.67,12.85,72.46,17.76,108.61c3.31,24.4,10.89,60.02-1.79,82.67c-18.55,33.1-80.2,36.88-112.46,27.77
		c-41.96-11.85-45.68-59.09-45.38-95.58c-0.38-1.03-0.34,0.67-0.82,0.89L839.44,214.44z"/>
	<g>
		<g>
			<g>
				<path class="st2" d="M646.42,926.5c5.32,3.76,43.42,2.99,55.51,0.98c0.03,0,0.07-0.01,0.11-0.02c1.97-0.33,3.34-0.71,3.89-1.12
					c0.04-0.03,0.08-0.07,0.12-0.1c1.6-1.56,1.15-7.92-0.17-15.53c-2.12-12.22-6.49-27.65-8.22-31.56l-16.79,2.14
					C670.45,907.31,641.81,909.75,646.42,926.5z"/>
			</g>
			<g>
				<path class="st3" d="M706.04,926.25c-0.03,0.03-0.07,0.07-0.12,0.1c-0.56,0.41-1.93,0.79-3.89,1.12c-0.04,0-0.07,0.01-0.11,0.02
					c-12.09,2-50.19,2.78-55.51-0.98c-0.75-2.73-0.62-5.08,0.17-7.21c0.06,0.29,0.13,0.59,0.21,0.88
					c5.32,3.76,43.42,2.99,55.51,0.98c0.03-0.01,0.07-0.01,0.11-0.02c1.96-0.33,3.34-0.71,3.89-1.12c0.01-0.01,0.3-0.08,0.7-0.18
					C707.19,923.05,706.93,925.38,706.04,926.25z"/>
			</g>
			<path class="st4" d="M705.44,833.02l-27.32-13.16c0.73,19.04-0.73,72.21,1.12,75.93c0,0,8.07,2.45,11.56,0.56
				C697.93,892.49,706.63,845.04,705.44,833.02z"/>
			<path class="st2" d="M679.47,873.65c-8.8,0.42-11.87,4-9.8,11.6c0.97,3.54,4.29,18.18,1.19,19.18l17.23,0.52
				C691.25,896,697.42,872.8,679.47,873.65z"/>
		</g>
		<g>
			<g>
				<path class="st2" d="M870.04,927.06c-0.98,0.69-2.86,1.21-5.35,1.58c-11.09,1.67-34.32,0.48-44.19-1.16
					c-0.03-0.01-0.07-0.01-0.1-0.02c-0.83-0.14-1.56-0.29-2.17-0.44c-0.82-0.21-1.41-0.44-1.73-0.67c-0.05-0.03-0.08-0.07-0.12-0.1
					c-0.9-0.87-1.15-3.25-0.96-6.51c0.03-0.51,0.07-1.04,0.12-1.59c0.2-2.22,0.55-4.75,1.02-7.43c2.13-12.22,6.49-27.65,8.23-31.56
					l16.79,2.14c4.83,12.07,12.3,19.19,18.46,25.02c5.29,5.01,9.61,9.07,10.46,14.51C870.8,922.71,870.68,924.76,870.04,927.06z"/>
			</g>
			<g>
				<path class="st3" d="M870.04,927.06c-0.98,0.69-2.86,1.21-5.35,1.58c-13.28,1.09-35.81-0.04-45.89-1.53
					c-0.04-0.01-0.08-0.02-0.11-0.02c-0.16-0.02-0.31-0.05-0.46-0.07c-0.82-0.21-1.41-0.44-1.73-0.67c-0.05-0.03-0.08-0.07-0.12-0.1
					c-0.9-0.87-1.15-3.25-0.96-6.51c1.24,0.08,2.45,0.16,3.26,0.29c0.04,0,0.08,0.01,0.11,0.02c11.77,1.75,40.52,2.98,51.69,0.79
					C870.8,922.71,870.68,924.76,870.04,927.06z"/>
			</g>
			<path class="st4" d="M816.99,833.02l27.32-13.16c-0.73,19.04,0.73,72.21-1.12,75.93c0,0-8.07,2.45-11.56,0.56
				C824.5,892.49,815.8,845.04,816.99,833.02z"/>
			<path class="st2" d="M842.96,873.65c8.8,0.42,11.87,4,9.8,11.6c-0.96,3.54-4.29,18.18-1.19,19.18l-17.23,0.52
				C831.18,896,825.01,872.8,842.96,873.65z"/>
		</g>
		<path class="st5" d="M862.1,500.65c-0.05,1.11-0.1,2.23-0.15,3.36c-2.62,60.64-8.4,157.63-6.78,235.05
			c1.12,53.42-3.31,101.34-6.39,126.01l-32.35,1.13c-5.3-28.56-14.26-79.8-11.22-125.65c4.08-61.6-7.7-129.64-14.04-193.88
			c-0.74-7.45-1.4-14.84-1.96-22.17v0c-0.08-1.08-0.16-2.17-0.24-3.25l0.06-1.87l0.01-0.35c0,0,0,0,0,0l0.1-3l1.76-53.74l0.23-6.91
			l71.72-3.69C863.54,460.1,863.07,477.53,862.1,500.65z"/>
		<path class="st5" d="M669.97,862.64l30.82,2.35c1.34-3.43,2.82-7.26,4.38-11.43c10.79-28.77,25.75-73.52,30.72-113.38
			c8.64-69.25,34.06-142.3,52.6-211.45c0.05-0.18,0.09-0.36,0.15-0.55l0.59-3.7v0l0.82-5.17l0.54-3.4l0.03-0.19l7.51-47.25
			l0.86-5.43l-8.07-0.77l-64.08-6.13c-1.97,7.13-3.9,20.64-6.01,38.54c-0.12,1.1-0.26,2.22-0.39,3.36
			c-6.56,56.6-15.01,153.44-32.02,232.81c-4.94,23.06-8.06,47.34-10.47,69.07c-2.44,21.97-4.14,41.33-6.25,54.19
			C671.15,857.42,670.58,860.27,669.97,862.64z"/>
		<path class="st6" d="M811.83,851.69c-1.25,4.32,1.55,11.74,1.73,16.19l36.31,1.12c1.95-4.73,1.92-12.4,2.22-17.78
			C838.34,851.69,824.35,852.34,811.83,851.69z"/>
		<path class="st7" d="M750.23,458.73c-0.05,0.51-0.1,1.04-0.16,1.58c-0.94,9.62-2.36,24.15-10.54,31.33
			c-5.53,4.85-12.01,6.41-18.64,6.41c-0.15,0-0.3,0-0.45,0c0.13-1.14,0.27-2.26,0.39-3.37c5.92-0.01,11.64-1.37,16.38-5.53
			c7.19-6.3,8.53-20.06,9.42-29.16c0.05-0.54,0.11-1.07,0.16-1.59L750.23,458.73z"/>
		<path class="st8" d="M671.68,854.13c6.17-0.51,12.97-0.22,18.84-0.8c2.89-0.29,8.85,0.13,14.64,0.24
			c10.79-28.77,25.75-73.52,30.72-113.38c8.64-69.25,34.06-142.3,52.6-211.45c0.05-0.18,0.09-0.36,0.15-0.55l0.59-3.7v0l0.82-5.17
			l0.54-3.4l0.03-0.19h-13.8c-7.74,9.96-10.33,32.35-13.05,45.94c-3.26,16.26-8.18,31.75-13.98,48.25
			c-11.38,32.38-20.94,63.09-24.33,96.98c-2.76,27.54-7.86,104.71-47.51,93.04C675.5,821.91,673.8,841.27,671.68,854.13z"/>
		<path class="st7" d="M862.1,500.65c-0.05,1.11-0.1,2.23-0.15,3.36c-7.57-0.01-14.97-1.56-21.28-6.33
			c-9.5-7.18-11.15-21.74-12.25-31.38c-0.06-0.54-0.12-1.07-0.18-1.58l3.43-0.38c0.06,0.51,0.12,1.05,0.18,1.59
			c1.03,9.08,2.59,22.8,10.93,29.11C848.4,499.26,855.13,500.64,862.1,500.65z"/>
		<g>
			<path class="st6" d="M777.29,519.74l-0.43-1.11c-4.06-10.5,0.9-39.28,4.88-47.9l3.16,1.37c-3.68,7.97-8.12,33.88-5.17,44.24
				c5.35-0.11,9.08-0.26,11.12-0.43l0.3,3.34c-2.3,0.2-6.44,0.35-12.64,0.47L777.29,519.74z"/>
			<path class="st6" d="M799.61,468.81c-6.13,25.95-7.43,50.61-8.41,77.86h-0.02c-0.74-7.45-1.4-14.84-1.96-22.17l-0.59,3.7
				c-0.05,0.18-0.1,0.36-0.15,0.54c0.16-3.14,0.34-6.26,0.55-9.36c0.01-0.12,0.02-0.23,0.02-0.35c0,0,0,0,0,0
				c0.07-1,0.14-2.01,0.21-3.01c1.18-16.08,3.14-31.75,6.97-47.95l1.89,0.42L799.61,468.81z"/>
		</g>
		<path class="st6" d="M670.71,847.3c-1.25,4.32-2.57,11.09-2.39,15.55l36.89,2.79c1.95-4.73,3.65-12.4,3.95-17.78
			C695.41,848.34,683.23,847.96,670.71,847.3z"/>
	</g>
	<path class="st9" d="M884.24,307.82c-4.38,29.64-15.77,73.63-16.4,87.05c-0.01,0.25-0.02,0.51-0.03,0.77
		c-0.97,21.88,0.01,53.47-0.97,74.29c-4.2,13.56-77.78,9.42-117.81,2.63c-0.24-0.04-0.48-0.08-0.71-0.12
		c-0.23-0.04-0.47-0.08-0.7-0.12c-0.38-0.07-0.76-0.14-1.14-0.2c-12.48-2.23-21.2-4.71-22.66-6.91c0,0,0,0,0,0
		c-0.05-0.08-0.1-0.16-0.13-0.24c-0.04-0.08-0.06-0.16-0.07-0.24c-1.39-8.09,5.27-31.24,6.88-39.39c4.13-20.83,0.19-71.4-0.32-81.6
		c-0.14-2.69-0.42-5.47-0.83-8.27c-0.92-6.36-2.48-12.88-4.34-18.98c-0.49-1.61-1-3.19-1.53-4.73c-3.41-9.91-9.24-21.39-10.24-31.56
		c-0.98-9.96,7.45-48.25,9.04-58.58c1.52-9.84,33.46-9.1,40.14-16.72l17.09,7.78c6.14-1.71,14.8,0.99,21.63-0.26
		c5.39-0.98,10.77-3.47,15.96-5c4.67-1.38,9.63-5.39,14.03-6.08c8.73-1.38,46.1,6.31,54.2,9.16c0.06,0.02,0.11,0.04,0.16,0.06
		c1.68,0.61,2.95,2.34,3.9,4.94C895.64,232.83,887.05,288.78,884.24,307.82z"/>
	<path class="st10" d="M756.08,208.58c2.66,10.42,14.33,28.39,29.87,29.01c14.95,0.6,41.47-17.24,50.84-35.39
		c-5.27-1.17-10.91,1.38-13.47-5.86c-1.52-4.29-2.81-6.04-3.44-10.6c0-0.04-0.01-0.07-0.02-0.1c-0.16-1.13-0.31-2.24-0.46-3.35
		c-0.67-4.83-0.75-10.14-0.67-15.42c0.08-5.92,0.36-11.81,0.2-16.9c-0.02-0.77-0.06-1.51-0.11-2.24l-38.7,19.15l-16.94,8.38
		c-0.01,0.55,0.02,1.14,0.07,1.76c0.17,2.1,0.65,4.57,1.22,7.24c0.82,3.91,1.25,7.58,0.98,10.9
		C764.98,200.9,762.38,205.58,756.08,208.58z"/>
	<path class="st11" d="M763.19,175.25c-0.01,0.55,0.02,1.14,0.07,1.76c0.17,2.1,0.65,4.57,1.22,7.24c0.82,3.91,1.25,7.58,0.98,10.9
		c9.15,9.18,17.39,9.71,24.03,8.12c16.54-3.97,29.17-31.13,29.25-36.4h-38.61L763.19,175.25z"/>
	<path class="st12" d="M884.24,307.82c-4.38,29.64-15.77,73.63-16.4,87.05c-0.01,0.25-0.02,0.51-0.03,0.77
		c-0.97,21.88,0.01,53.47-0.97,74.29c-0.67,14.27-76.83,9.69-117.81,2.63c-0.24-0.04-0.48-0.08-0.71-0.12
		c-0.23-0.04-0.47-0.08-0.7-0.12c-0.38-0.07-0.76-0.14-1.14-0.2c-12.47-2.26-21.18-4.74-22.66-6.91c0,0,0,0,0,0
		c-0.05-0.08-0.1-0.16-0.13-0.24c-0.04-0.08-0.06-0.16-0.07-0.24c-1.39-8.09,5.27-31.24,6.88-39.39c4.13-20.83,0.19-71.4-0.32-81.6
		c-0.14-2.69-0.42-5.47-0.83-8.27c-0.92-6.36-2.48-12.88-4.34-18.98c9.83,5.64,48.67,15.4,63.4,17.19
		c52.87,6.4,78.63-27.41,82.87-41.01c7.02-22.48,12.42-52.25,18.09-77.16C895.64,232.83,887.05,288.78,884.24,307.82z"/>
	<g>
		<path class="st13" d="M872.9,295.17c10.3,17.45,13.67,23.85,17.06,30.56c6.66,13.17,13.43,27.55,18.16,39.4
			c0.08,0.22,0.17,0.43,0.25,0.64c3.6,9.08,6.4,26.43,16.15,32.29c3.34,2.01,7.5,2.67,12.79,1.18c0,0,0.01,0,0.01,0
			c0.27-0.08,0.53-0.16,0.81-0.24c13.13-4.15,17.56-16.59,17-32.43c-1.4-39.99-48.72-144.16-67.85-155.32
			c0,0-30.58,40.55-30.29,56.6C857.12,275.75,872.9,295.17,872.9,295.17z"/>
	</g>
	<path class="st13" d="M799.58,525.33c12.76,4.43,34.16,0.5,48.05-0.76c6.99-0.63,13.31-2.69,20.51-2.43
		c6.2,0.23,16.8,4.35,22.32,3.19c0.4-5.02-9.99-153.97-8.77-167.41c3.56-38.95,14.35-88.49,13.53-134.7
		c-0.08-4.6-7.29-13.02-11.93-14.37c-6.95-2.02-16.1-3.74-24.94-5.09c-11.58-1.78-22.63-2.95-27.48-3.43
		c-1.65-0.16-2.58-0.25-2.58-0.25c0.06,0.59-0.03,2.78-0.25,6.33c-0.98,15.64-4.49,57.76-8.74,106.49
		C811.55,401.77,801.36,512.67,799.58,525.33z"/>
	<path class="st13" d="M765.13,527.79c-10.63,3.85-27.91-0.87-39.19-2.67c-5.67-0.9-10.74-3.18-16.62-3.21
		c-5.07-0.02-13.92,3.61-18.38,2.24c-0.08-4.96,19.23-303.94,32.13-310.65c5.33-2.77,34.32-6.87,34.32-6.87
		c-0.08,0.58-0.11,2.73-0.1,6.24c0.04,15.43,0.88,57,2,105.13C761.32,405.74,764.29,515.26,765.13,527.79z"/>
	<g>
		<path class="st14" d="M657.57,519.76c-3.35-0.48-5.68-3.59-5.2-6.95l10.12-70.47c0.48-3.35,3.59-5.68,6.95-5.2l103.68,14.88
			c3.35,0.48,5.68,3.59,5.2,6.95l-10.12,70.47c-0.48,3.35-3.59,5.68-6.95,5.2L657.57,519.76z"/>
		<path class="st15" d="M658.3,514.68c-3.36-0.48-5.68-3.59-5.2-6.95l10.12-70.47c0.48-3.36,3.59-5.68,6.95-5.2l103.68,14.88
			c3.35,0.48,5.68,3.59,5.2,6.95l-10.12,70.47c-0.48,3.36-3.59,5.68-6.95,5.2L658.3,514.68z"/>
		<g>
			<path class="st16" d="M760.7,452.06c-1.27-0.18-2.16-1.36-1.97-2.63l0,0c0.18-1.27,1.36-2.15,2.63-1.97l0,0
				c1.27,0.18,2.16,1.36,1.97,2.63l0,0C763.15,451.36,761.97,452.24,760.7,452.06L760.7,452.06z"/>
			<path class="st16" d="M749.36,450.43c-1.27-0.18-2.15-1.36-1.97-2.63l0,0c0.18-1.27,1.36-2.16,2.64-1.97l0,0
				c1.27,0.18,2.16,1.36,1.97,2.63l0,0C751.81,449.73,750.63,450.62,749.36,450.43L749.36,450.43z"/>
			<path class="st16" d="M738.02,448.81c-1.27-0.18-2.16-1.36-1.97-2.63l0,0c0.18-1.27,1.36-2.16,2.63-1.97l0,0
				c1.27,0.18,2.16,1.36,1.97,2.63l0,0C740.47,448.11,739.29,448.99,738.02,448.81L738.02,448.81z"/>
			<path class="st16" d="M726.68,447.18c-1.27-0.18-2.16-1.36-1.97-2.63l0,0c0.18-1.27,1.36-2.16,2.63-1.97l0,0
				c1.27,0.18,2.16,1.36,1.97,2.63l0,0C729.13,446.48,727.95,447.36,726.68,447.18L726.68,447.18z"/>
			<path class="st16" d="M715.34,445.55c-1.27-0.18-2.16-1.36-1.97-2.63l0,0c0.18-1.27,1.36-2.16,2.63-1.97l0,0
				c1.27,0.18,2.16,1.36,1.97,2.63l0,0C717.79,444.85,716.61,445.73,715.34,445.55L715.34,445.55z"/>
			<path class="st16" d="M704,443.92c-1.27-0.18-2.16-1.36-1.97-2.63l0,0c0.18-1.27,1.36-2.16,2.63-1.97l0,0
				c1.27,0.18,2.16,1.36,1.97,2.63l0,0C706.45,443.22,705.27,444.11,704,443.92L704,443.92z"/>
			<path class="st16" d="M692.66,442.3c-1.27-0.18-2.16-1.36-1.97-2.63l0,0c0.18-1.27,1.36-2.15,2.63-1.97l0,0
				c1.27,0.18,2.16,1.36,1.97,2.63l0,0C695.11,441.59,693.93,442.48,692.66,442.3L692.66,442.3z"/>
			<path class="st16" d="M681.32,440.67c-1.27-0.18-2.15-1.36-1.97-2.63l0,0c0.18-1.27,1.36-2.16,2.63-1.97l0,0
				c1.27,0.18,2.16,1.36,1.97,2.63l0,0C683.77,439.97,682.59,440.85,681.32,440.67L681.32,440.67z"/>
		</g>
		<g>
			<path class="st17" d="M761.01,449.86c-0.78-0.11-1.33-0.84-1.21-1.62l1.28-8.91c0.11-0.78,0.84-1.33,1.62-1.21l0,0
				c0.78,0.11,1.33,0.84,1.21,1.62l-1.28,8.91C762.52,449.43,761.8,449.97,761.01,449.86L761.01,449.86z"/>
			<path class="st17" d="M749.68,448.23c-0.78-0.11-1.33-0.84-1.21-1.62l1.28-8.91c0.11-0.78,0.84-1.33,1.62-1.21l0,0
				c0.78,0.11,1.33,0.84,1.21,1.62l-1.28,8.91C751.18,447.8,750.46,448.34,749.68,448.23L749.68,448.23z"/>
			<path class="st17" d="M738.34,446.6c-0.78-0.11-1.33-0.84-1.21-1.62l1.28-8.91c0.11-0.78,0.84-1.33,1.62-1.21l0,0
				c0.78,0.11,1.33,0.84,1.21,1.62l-1.28,8.91C739.84,446.17,739.12,446.72,738.34,446.6L738.34,446.6z"/>
			<path class="st17" d="M727,444.98c-0.78-0.11-1.33-0.84-1.21-1.62l1.28-8.91c0.11-0.78,0.84-1.33,1.62-1.21l0,0
				c0.78,0.11,1.33,0.84,1.21,1.62l-1.28,8.91C728.51,444.55,727.78,445.09,727,444.98L727,444.98z"/>
			<path class="st17" d="M715.66,443.35c-0.78-0.11-1.33-0.84-1.21-1.62l1.28-8.91c0.11-0.78,0.84-1.33,1.62-1.21l0,0
				c0.78,0.11,1.33,0.84,1.21,1.62l-1.28,8.91C717.16,442.92,716.44,443.46,715.66,443.35L715.66,443.35z"/>
			<path class="st17" d="M704.32,441.72c-0.78-0.11-1.33-0.84-1.21-1.62l1.28-8.91c0.11-0.78,0.84-1.33,1.62-1.21l0,0
				c0.78,0.11,1.33,0.84,1.21,1.62l-1.28,8.91C705.83,441.29,705.1,441.83,704.32,441.72L704.32,441.72z"/>
			<path class="st17" d="M692.98,440.09c-0.78-0.11-1.33-0.84-1.21-1.62l1.28-8.91c0.11-0.78,0.84-1.33,1.62-1.21l0,0
				c0.78,0.11,1.33,0.84,1.21,1.62l-1.28,8.91C694.49,439.66,693.76,440.21,692.98,440.09L692.98,440.09z"/>
			<path class="st17" d="M681.64,438.47c-0.78-0.11-1.33-0.84-1.21-1.62l1.28-8.91c0.11-0.78,0.84-1.33,1.62-1.21l0,0
				c0.78,0.11,1.33,0.84,1.21,1.62l-1.28,8.91C683.15,438.03,682.42,438.58,681.64,438.47L681.64,438.47z"/>
		</g>
	</g>
	<path class="st18" d="M871.35,286.54l0.23,0.64C871.45,286.95,871.38,286.73,871.35,286.54z"/>
	<g>
		<path class="st19" d="M744.71,90.87l14.75,8.37c-2.88,7.07-6.28,13.26-7.17,21.13c-0.85,7.49-1.17,15.07,0.01,22.38
			c-3.27-4.96-6.07-10.44-7.98-16.8C741.6,116.9,740.75,99.61,744.71,90.87z"/>
		<path class="st10" d="M823.54,140.21c-0.11,2.28,0.87,8.11,0.75,11.19c-0.28,7.61-1.2,19.79-4.79,24.23
			c-13.89,17.21-29.88,22.96-40.66,21.26c-14.27-2.25-21.53-16.14-23.65-19.93c-2.23-3.97-3.02-10.48-3.74-19.32
			c-1.86-22.73-0.11-58.01,1.25-68.49l9.61-4.98c8.79-2.69,14.8-4.44,24.03-3.48c14.3,1.48,32.45,4.8,36.33,20.93
			C824.65,109.72,823.94,131.93,823.54,140.21z"/>
		<g>
			<path class="st10" d="M744.02,130.08c4.96,0.33,7.35,7.78,8.09,11.62l0.38,15.63c-8.64,10.1-14.21-9.89-14.98-16.04
				C736.97,136.93,737.96,129.68,744.02,130.08z"/>
			<path class="st11" d="M748.09,140.9c-4.38,1.57-2.86,8.13,0.58,9.66c0.24-0.23-4.68,0.51-5.68-2.96
				c-1.03-3.56-0.13-6.76,2.19-9.29c-1.12-2.11-4.04-3.55-4.95-0.96C741.86,129.18,748.3,134.75,748.09,140.9z"/>
		</g>
		<g>
			<path class="st11" d="M796.24,139.9c0.61,0.38,1.34-1.95,1.94-1.66c4.43,2.14,8.45,2.01,11.35,1.36
				c2.85-0.64,4.48,0.87,4.48,0.87c-1.95-2.32-2.99-6.47-4.77-7.26c-1.04-0.46-2.29-0.68-4.03-0.68c-3.17,0-5.04,0.58-6.94,2.47
				C797.65,135.6,796.9,139,796.24,139.9z"/>
			<path class="st17" d="M796.24,139.9c0.61,0.38,1.22,0.7,1.81,0.99c4.43,2.14,8.45,2.01,11.35,1.36c2.85-0.64,4.6-1.78,4.6-1.78
				c-1.95-2.32-3.11-3.82-4.89-4.62c-1.04-0.46-2.29-0.68-4.03-0.68c-3.17,0-5.04,0.58-6.94,2.47
				C797.52,138.25,796.9,139,796.24,139.9z"/>
			<path class="st20" d="M797.98,139.59c0,0.44,0.02,0.88,0.07,1.3c4.43,2.14,8.45,2.01,11.35,1.36c0.19-0.84,0.29-1.73,0.29-2.66
				c0-1.34-0.21-2.6-0.58-3.73c-1.04-0.46-2.29-0.68-4.03-0.68c-3.17,0-5.04,0.58-6.94,2.47
				C798.04,138.27,797.98,138.92,797.98,139.59z"/>
			<path class="st17" d="M800.8,139.01c0,0.81,0.33,1.47,0.74,1.47c0.41,0,0.74-0.66,0.74-1.47c0-0.81-0.33-1.47-0.74-1.47
				C801.14,137.54,800.8,138.2,800.8,139.01z"/>
		</g>
		<g>
			<g>
				<path class="st11" d="M753.92,140.45c0.6,0.33,1.17-2.04,1.75-1.79c4.33,1.82,8.15,1.41,10.87,0.56
					c2.67-0.83,4.31,0.56,4.31,0.56c-1.98-2.18-3.2-6.25-4.94-6.92c-1.02-0.39-2.22-0.52-3.87-0.4c-3.02,0.22-4.76,0.93-6.47,2.95
					C755.03,136.07,754.51,139.5,753.92,140.45z"/>
				<path class="st17" d="M753.92,140.45c0.6,0.33,1.2,0.61,1.78,0.86c4.33,1.82,8.15,1.41,10.87,0.56c2.67-0.83,4.28-2.1,4.28-2.1
					c-1.98-2.18-3.17-3.59-4.91-4.26c-1.02-0.39-2.22-0.52-3.87-0.4c-3.02,0.22-4.76,0.93-6.47,2.95
					C755.06,138.72,754.51,139.5,753.92,140.45z"/>
				<path class="st20" d="M755.57,140.02c0.02,0.44,0.07,0.87,0.14,1.29c4.33,1.82,8.15,1.41,10.87,0.56
					c0.13-0.85,0.18-1.75,0.13-2.68c-0.07-1.33-0.34-2.58-0.76-3.68c-1.02-0.39-2.22-0.52-3.87-0.4c-3.02,0.22-4.76,0.93-6.47,2.95
					C755.55,138.69,755.53,139.35,755.57,140.02z"/>
				<path class="st17" d="M758.31,139.08c0.04,0.81,0.4,1.45,0.79,1.42c0.39-0.03,0.67-0.71,0.63-1.52
					c-0.04-0.81-0.4-1.45-0.79-1.42C758.54,137.59,758.26,138.27,758.31,139.08z"/>
			</g>
			<path class="st20" d="M762.68,127.76c2.6,0.51,5.47,0.62,8.17,1.25c3.63,0.84,1.44,5.45,1.44,5.45
				c-0.59,0.57-8.52-0.25-10.81-0.37c-3.16-0.16-8.27-2.01-11.11-0.44C753.95,128.05,755.92,126.42,762.68,127.76z"/>
		</g>
		<path class="st20" d="M803.91,127.1c-2.89,0.47-6.08,0.52-9.07,1.1c-4.03,0.77-1.62,5.42-1.62,5.42c0.66,0.58,9.46-0.09,12-0.17
			c3.51-0.11,9.19-1.86,12.34-0.24C813.61,127.55,811.42,125.88,803.91,127.1z"/>
		<path class="st11" d="M795.83,169.33c0,0-0.09,0.04-0.27,0.12c-0.17,0.08-0.43,0.2-0.74,0.36c-0.31,0.17-0.71,0.34-1.14,0.54
			c-0.21,0.1-0.44,0.21-0.68,0.33c-0.25,0.1-0.51,0.21-0.78,0.33c-0.53,0.25-1.12,0.47-1.74,0.71c-0.31,0.13-0.63,0.24-0.95,0.34
			c-0.33,0.1-0.65,0.24-1,0.34c-0.35,0.09-0.69,0.2-1.04,0.3c-0.17,0.06-0.35,0.1-0.53,0.14c-0.18,0.04-0.36,0.09-0.54,0.13
			c-0.36,0.09-0.72,0.18-1.09,0.24c-0.37,0.07-0.74,0.14-1.11,0.2c-0.74,0.09-1.48,0.2-2.22,0.23c-0.73,0.08-1.46,0.04-2.16,0.06
			c-0.7-0.06-1.39-0.05-2.03-0.16c-0.33-0.04-0.64-0.08-0.95-0.11c-0.3-0.06-0.6-0.12-0.88-0.17c-0.58-0.08-1.08-0.24-1.55-0.36
			c-0.23-0.06-0.45-0.11-0.66-0.16c-0.2-0.07-0.38-0.13-0.55-0.18c-0.33-0.11-0.6-0.18-0.78-0.24c-0.19-0.05-0.28-0.08-0.28-0.08
			s0.07,0.07,0.21,0.2c0.14,0.12,0.35,0.32,0.63,0.54c0.14,0.12,0.29,0.24,0.46,0.38c0.18,0.12,0.38,0.25,0.59,0.38
			c0.22,0.13,0.44,0.28,0.68,0.42c0.24,0.16,0.52,0.26,0.8,0.4c0.29,0.13,0.58,0.26,0.89,0.4c0.32,0.11,0.65,0.21,1,0.33
			c0.68,0.25,1.44,0.35,2.22,0.51c0.39,0.05,0.79,0.08,1.2,0.11c0.2,0.01,0.41,0.04,0.61,0.04c0.21,0,0.41-0.01,0.62-0.01
			c0.21,0,0.42-0.01,0.63-0.01l0.31-0.01l0.31-0.03c0.42-0.05,0.84-0.09,1.25-0.14c0.82-0.17,1.66-0.3,2.44-0.57
			c0.8-0.22,1.54-0.53,2.26-0.84c0.36-0.16,0.7-0.34,1.03-0.51c0.33-0.17,0.66-0.34,0.96-0.54c0.3-0.19,0.59-0.38,0.87-0.56
			c0.28-0.18,0.53-0.39,0.78-0.57c0.24-0.19,0.48-0.37,0.69-0.55c0.21-0.19,0.41-0.37,0.59-0.55c0.37-0.34,0.67-0.65,0.9-0.92
			c0.24-0.26,0.41-0.49,0.53-0.63C795.77,169.41,795.83,169.33,795.83,169.33z"/>
		<path class="st11" d="M776.87,144.15c-0.75,6.45-1.15,13.48,1.56,16.98c4.49,0.13,9.71-0.06,9.71-0.06
			c-3.83,2.84-11.71,5.14-14.66,1.15C773.54,162.23,774.62,149.2,776.87,144.15z"/>
		<g>
			<path class="st17" d="M787.5,144.15c0-5.9,6.75-10.7,15.04-10.7c8.29,0,15.04,4.8,15.04,10.7c0,5.9-6.75,10.7-15.04,10.7
				C794.25,154.85,787.5,150.05,787.5,144.15z M789.39,144.15c0,4.8,5.9,8.7,13.15,8.7c7.25,0,13.15-3.9,13.15-8.7
				c0-4.8-5.9-8.7-13.15-8.7C795.29,135.45,789.39,139.35,789.39,144.15z"/>
			<path class="st17" d="M746.97,143.89c0-5.9,6.58-10.7,14.66-10.7c8.09,0,14.66,4.8,14.66,10.7c0,5.9-6.58,10.7-14.66,10.7
				C753.55,154.58,746.97,149.78,746.97,143.89z M748.86,143.89c0,4.8,5.73,8.7,12.78,8.7c7.04,0,12.78-3.9,12.78-8.7
				c0-4.8-5.73-8.7-12.78-8.7C754.59,135.18,748.86,139.09,748.86,143.89z"/>
			<path class="st17" d="M787.69,143.01l1.52-1.18c-1.42-2.04-3.44-3.29-5.84-3.62c-3.02-0.42-6.51,0.7-9.11,2.9l1.18,1.55
				c2.21-1.88,5.15-2.83,7.68-2.48C785.03,140.45,786.57,141.4,787.69,143.01z"/>
		</g>
		<g>
			<path class="st20" d="M750.96,102.03c10.76,7.17,46.24,8,53.41,4.78c11.56-5.18,18.93,6.1,19.53,12.36
				c0.44,4.58-4.56,34.02,3.59,30.69c0,0,14.75-26.31,15.55-52.61c0.21-6.98-3.67-12.81-9.85-17.51
				c-15.23-11.6-44.39-16.37-60.3-14.77c-10.52,1.05-26.43,6.19-31.98,17.05c-0.02,0.04-0.04,0.08-0.06,0.12
				C737.6,88.79,746.05,98.77,750.96,102.03z"/>
			<path class="st19" d="M750.96,102.03c10.76,7.17,46.24,8,53.41,4.78c11.56-5.18,18.93,6.1,19.53,12.36
				c0.44,4.58-4.56,34.02,3.59,30.69c0,0,14.75-26.31,15.55-52.61c0.21-6.98-3.67-12.81-9.85-17.51c-0.04,0.41-0.08,0.82-0.12,1.25
				c-0.8,7.51-5.66,14.25-13.22,15.94c-2.4,0.54-3.64-0.41-5.9-0.74c-3-0.45-6.64,0.02-9.63,0.33c-6.29,0.64-12.37,2.59-18.73,3.12
				c-15.62,1.28-34.07-5.58-44.73-17.49C737.6,88.79,746.05,98.77,750.96,102.03z"/>
		</g>
		<g>
			<path class="st10" d="M835.8,134.92c-6.07-0.61-9.31,7.16-10.93,11.14l-4.49,16.43c8.52,12.52,19.06-7.82,21.17-14.27
				C843.03,143.65,843.21,135.67,835.8,134.92z"/>
			<path class="st11" d="M828.83,145.73c5,2.53,1.91,9.28-2.54,10.25c-0.25-0.29,5.56,1.46,7.43-2.06
				c1.92-3.61,1.45-7.22-0.88-10.39c1.76-2.04,5.56-3.02,6.16-0.06C838.59,134.37,829.74,139.09,828.83,145.73z"/>
		</g>
	</g>
	<path class="st1" d="M815.23,271.93v0.37l0.01,0.39l0.02,0.79c0.01,0.53,0.02,1.06,0.04,1.59c0.02,1.06,0.05,2.13,0.07,3.2
		c0.05,1.04,0.1,2.09,0.15,3.14c0.05,1.05,0.1,2.1,0.16,3.15c0.08,1.05,0.16,2.11,0.24,3.16c0.64,8.37,1.77,16.83,3.38,25.18
		c0.02,0.08,0.03,0.15,0.04,0.23c1.65,8.42,3.8,16.72,6.36,24.71c0.32,1,0.64,1.99,0.96,2.99c0.32,0.99,0.68,1.97,1.02,2.95
		c0.35,0.98,0.69,1.96,1.03,2.93c0.37,0.96,0.73,1.92,1.1,2.89c0.37,0.96,0.72,1.91,1.1,2.86c0.39,0.94,0.77,1.88,1.15,2.82
		c0.19,0.47,0.38,0.93,0.57,1.4l0.28,0.7l0.07,0.17l0.07,0.16l0.04,0.08l0.15,0.33c0.19,0.44,0.39,0.88,0.58,1.33l0.29,0.66
		l0.33,0.72c0.88,1.93,1.73,3.72,2.65,5.49c0.45,0.89,0.9,1.77,1.38,2.63c0.23,0.43,0.46,0.87,0.69,1.3
		c0.24,0.43,0.47,0.85,0.71,1.27c1.9,3.38,3.88,6.6,5.9,9.66c4.05,6.11,8.24,11.59,12.34,16.41c2.05,2.41,4.07,4.67,6.04,6.77
		c1.98,2.09,3.89,4.03,5.72,5.82c3.68,3.56,7.02,6.51,9.84,8.86c2.81,2.35,5.1,4.1,6.66,5.28c1.58,1.16,2.42,1.79,2.42,1.79
		l15.23,11.55l-9.49-19.29c0,0-3.38-2.88-4.13-3.54c-1.13-1-2.46-2.22-3.97-3.65c-2.5-2.38-5.45-5.35-8.67-8.92
		c-1.61-1.79-3.28-3.72-5-5.8c-1.71-2.08-3.46-4.31-5.21-6.68c-3.52-4.74-7.07-10.06-10.4-15.9c-1.67-2.92-3.28-5.97-4.79-9.13
		c-0.19-0.39-0.38-0.79-0.57-1.19c-0.18-0.4-0.37-0.8-0.55-1.2c-0.37-0.8-0.73-1.62-1.08-2.44c-0.71-1.63-1.39-3.33-2-4.94
		l-0.24-0.61l-0.25-0.68c-0.17-0.45-0.33-0.91-0.49-1.37l-0.13-0.34l-0.02-0.06l-0.01-0.02c0,0,0,0,0,0l-0.06-0.17l-0.22-0.67
		c-0.15-0.44-0.3-0.89-0.45-1.34c-0.3-0.89-0.6-1.79-0.9-2.69c-0.29-0.9-0.56-1.81-0.85-2.72c-0.28-0.91-0.56-1.83-0.84-2.74
		c-0.26-0.92-0.52-1.85-0.78-2.77c-0.25-0.93-0.53-1.85-0.77-2.79c-0.24-0.94-0.47-1.88-0.71-2.82c-1.88-7.53-3.36-15.27-4.37-23.06
		c-1-7.79-1.53-15.62-1.62-23.33c-0.01-0.96-0.02-1.92-0.03-2.88c0-0.96,0.02-1.92,0.04-2.87c0.02-0.95,0.03-1.9,0.05-2.85
		c0.04-0.92,0.08-1.85,0.12-2.77c0.02-0.46,0.04-0.92,0.06-1.38l0.03-0.69l0.02-0.34l0.02-0.37c0.06-0.98,0.13-1.96,0.19-2.94
		c0.03-0.49,0.06-0.98,0.1-1.46l0.05-0.73l0.01-0.09v0.04l0.01-0.16l0.03-0.33c0.07-0.87,0.16-1.75,0.25-2.62
		c0.77-7.01,2.1-13.89,3.71-20.26c1.61-6.38,3.52-12.29,5.56-17.53c2.04-5.24,4.22-9.8,6.36-13.56c2.14-3.76,4.23-6.7,6.01-8.87
		c0.1-0.13,0.21-0.25,0.31-0.37c-11.58-1.78-22.63-2.95-27.48-3.43c-0.15,0.29-0.3,0.59-0.44,0.88c-0.82,1.66-1.61,3.4-2.39,5.2
		c-1.6,3.71-3.12,7.73-4.5,12.01c-2.06,6.36-3.84,13.28-5.26,20.68c-1.41,7.4-2.48,15.25-2.9,23.6c-0.05,1.05-0.09,2.1-0.12,3.16
		l-0.02,0.92v0.73c0,0.49,0,0.97,0,1.46C815.23,269.96,815.23,270.94,815.23,271.93z"/>
	<g>
		<g>
			<path class="st10" d="M878.62,349.99c-4.09,1.14-43.19-27.42-47.53-27.89c-2.56-0.28-8.81-1.97-14.07-4.61
				c-6.36-3.18-11.27-7.74-6.43-12.82c-5.69-3.75-5.4-11.67,0.37-13.21c-5.73-4.71-3.95-7.88,1.76-11.33
				c-8.05-10.69,1.82-9.41,10.38-7.97c3.68,0.62,7.11,1.26,8.77,1c6.56-1.02,0.87-3.86,1.05-11.71c0.12-5.06,2.14-8.96,7.4-7.52
				c2.57,5.25,3.34,12.87,11.04,22.71c3.82,4.88,12.28,33.74,12.28,33.74C857.64,313.45,885.08,348.19,878.62,349.99z"/>
			<path class="st11" d="M817.02,317.5c-6.36-3.18-11.27-7.74-6.43-12.82c-5.69-3.75-5.4-11.67,0.37-13.21
				c-5.73-4.71-3.95-7.88,1.76-11.33c-8.05-10.69,1.82-9.41,10.38-7.97c1.18,2.55-1.29,5.96-4.38,7.64
				c4.53,3.15,3.93,10.5-1.55,12.55c3.05,2.35,2.97,7.24-0.74,8.94C821.15,305.44,820.51,313.13,817.02,317.5z"/>
		</g>
		<path class="st13" d="M854.71,341.62c1.54,1.34,19.81,39.41,62.2,53.98c2.82,0.97,5.33,1.81,7.62,2.47c5,1.43,8.95,2,12.79,1.18
			c0,0,0.01,0,0.01,0c0.27-0.08,0.53-0.16,0.81-0.24c13.13-4.15,17.56-16.59,17-32.43c-0.96-1.11-2.07-2.3-3.32-3.56
			c-15.77-16-80.44-43.02-88.13-55.46L854.71,341.62z"/>
	</g>
	<g>
		<path class="st10" d="M688.67,477.93l26.47,1.08c2.7,8.64,12.88,14.03,15.9,17.5c7.41,8.52,14.03,10.51,18.25,13.69
			c0.38,4.92-3.43,6.04-7.94,5.28c-6.99-1.18-8.53-6.72-10.57-1.07c-0.52,1.43-0.53,4.58-0.61,7.95c-0.19,7.84-0.75,16.81-8.85,7.84
			c-4.05,4.47-7.16,5.51-10.36-0.38c-2.35,4.86-9.43,3.75-11.78-1.93c-5.34,3.42-8.54-1.71-10.27-7.91
			c-1.44-5.11-1.87-10.95-1.67-13.27C687.39,504.87,692.79,488.03,688.67,477.93z"/>
		<path class="st11" d="M688.91,519.98c1.73,6.19,4.93,11.33,10.27,7.91c2.35,5.69,9.42,6.8,11.78,1.93
			c3.2,5.89,6.31,4.85,10.36,0.38c8.1,8.97,8.66,0,8.85-7.84c-2.06-1.48-5.51,0.12-7.53,2.58c-2.02-4.56-8.64-5.29-11.4-0.78
			c-1.56-3.11-5.91-3.88-8.06-0.88C700.32,518.38,693.38,517.62,688.91,519.98z"/>
	</g>
	<path class="st13" d="M688.82,484.96l22.56-3.06l6.39-0.87c-2.31-7.66-0.24-29.6,1.95-52.86c2.05-21.74,4.2-44.63,2.98-58.11
		c-0.18-1.96-0.43-3.72-0.76-5.25c-0.4-1.85-0.81-3.51-1.23-4.99c-0.02-0.01-0.03-0.02-0.05-0.03c-2.03-1.15-4.06-2.14-6.07-2.94
		c-10.87-4.32-21.35-3.23-30.18,6.82c-0.22,0.25-0.43,0.49-0.63,0.74c0,0,0,0,0,0.01c-2.73,3.65-4.36,8.02-5.82,13.85
		c-0.67,2.67-1.29,5.65-1.98,9.01c-0.9,4.44-2.59-2.74-3.02,1.59C668.47,433.77,688.54,482.97,688.82,484.96z"/>
	<path class="st13" d="M697.55,254.29c3.59-10.95,4.71-18.39,10.36-27.9c5.8-9.76,9.29-10.32,19.45-14.5l1.2,134.52
		c0.54,10.13-6.18,25.18-10.75,34.11c-3.9,7.62-9.17,16.95-16.29,22.12c-7.67,5.57-23.01,7.96-27.37-1.82
		C666.9,384.53,692.89,268.47,697.55,254.29z"/>
	<g>
		<path class="st21" d="M896.84,324.45c-6.37-10.77-16-35.36-17.54-46.24c10.84,26.33,21.39,41.09,25.51,55
			c-17.54-7.17-30.17-9.05-39.06-26.31C877.28,312.31,887.27,321.26,896.84,324.45z"/>
	</g>
	<path class="st21" d="M710.3,467.14c-0.01,3.5,0.71,9.64,1.08,14.76l6.39-0.87c-2.31-7.66,2.89-166.15,8.12-196.56
		c-13.2,30.41-15.59,139.8-15.59,156.36C710.3,449.6,710.33,458.37,710.3,467.14z"/>
</g>
<g>
	<g>
		<g>
			<g>
				<path class="st22" d="M295.49,928.11c0.03,0,0.05,0.01,0.08,0.02c9.22,1.81,35.09,2.09,39.15-1.31
					c-0.14-3.88-1.45-6.21-2.19-8.3c-0.11-0.31-0.23-0.61-0.36-0.9c-1.27-2.76-3.48-4.54-6.19-7.11c-4.17-3.96-9.5-9.8-14.32-24.02
					l-0.37-0.06l-12.45-1.87c-0.01,0.01-0.01,0.02-0.01,0.04c-0.01,0.04-0.03,0.07-0.04,0.11c-1.36,3.75-4.62,17.43-6.22,28.3
					C291.55,919.87,293.99,927.81,295.49,928.11z"/>
			</g>
			<path class="st10" d="M325.79,812.6c-3.93,19.99-12.55,57.5-12.55,78.32c0,7.01-2.2,16.5-11.36,4.45
				c-5.97-7.85-6.68-57.84-6.81-69.46L325.79,812.6z"/>
		</g>
		<path class="st10" d="M298.78,884.49v0.23c0,5.76,0.16,11.44,1.13,17.02c0.54,3.1,1.09,8.01,3.21,10.29
			c2.27,2.43,5.34-0.65,7.73-1.84c2.8-1.4,6.05-1.97,9.24-1.73c2.18,0.16,4.02,1.11,5.89,2.07c-4.17-3.96-9.5-9.8-14.32-24.02
			l-0.37-0.06c-1.86,1.4-4.55,1.97-6.44,2.1c-3.26,0.23-4.94-0.88-6.02-3.94C298.81,884.57,298.8,884.53,298.78,884.49z"/>
	</g>
	<g>
		<g>
			<g>
				<path class="st22" d="M377.16,927.21c0.03,0,0.06,0.01,0.08,0.02c9.22,1.86,35.08,2.27,39.15-1.1
					c-0.12-3.88-1.42-6.21-2.16-8.31c-0.11-0.31-0.23-0.61-0.36-0.9c-1.26-2.77-3.46-4.56-6.16-7.14
					c-4.15-3.98-9.46-9.85-14.22-24.1l-0.37-0.06l-12.44-1.94c-0.01,0.01-0.01,0.02-0.02,0.04c-0.01,0.04-0.03,0.07-0.04,0.11
					c-1.37,3.74-4.69,17.41-6.34,28.27C373.26,918.95,375.67,926.91,377.16,927.21z"/>
			</g>
			<path class="st10" d="M406.5,813.2c-4.01,19.96-11.27,58.1-11.36,78.92c-0.03,7-2.34,14.49-11.45,2.39
				c-5.94-7.88-6.44-57.87-6.52-69.5L406.5,813.2z"/>
		</g>
		<path class="st10" d="M380.64,883.61l0,0.23c-0.03,5.76,0.12,11.44,1.06,17.03c0.52,3.1,1.06,8.02,3.17,10.31
			c2.26,2.44,5.35-0.62,7.74-1.81c2.81-1.39,6.05-1.94,9.24-1.68c2.18,0.17,4.02,1.13,5.88,2.1c-4.15-3.98-9.46-9.85-14.22-24.1
			l-0.37-0.06c-1.86,1.39-4.56,1.94-6.45,2.07c-3.26,0.21-4.94-0.91-6-3.97C380.66,883.69,380.65,883.65,380.64,883.61z"/>
	</g>
	<g>
		<path class="st2" d="M306.28,310.34c-3.99-27.5,8.47-101.09,12.36-117.98c7.97-34.68,16.34-28.7,27.9-31.89l41.05,26.31
			c6.42,9.3,6.35,23.57,6.38,34.28c0.03,12.72,11.37,2.1,10.36,14.75c-0.84,10.56,2.3,79.1,6.78,81.31
			C406.31,320.46,308.91,328.47,306.28,310.34z"/>
		<g>
			<path class="st10" d="M294.73,324.69c3.86-13.06,0.52-29.74,13.81-31.68c5.13-0.75,14.39-2.23,21.77-4.79
				c-0.04-0.11-0.08-0.21-0.12-0.32c0.28,0.04,0.54,0.06,0.8,0.07c1.74-0.63,3.36-1.32,4.79-2.08c6.24-6.6,6.14-26.93,6.78-32.67
				c0.1-0.85,0.19-1.76,0.28-2.73c0.69-7.54,1.03-18.25-2.29-23.91l36.97,17.64l4.51,2.15c-0.21,0.52-0.4,1.05-0.59,1.61
				c-1.79,5.36-2.64,12.43-2.4,18.34c0.01,0.06,0.01,0.12,0.01,0.18c0,0.05,0,0.1,0.01,0.16c0,0.01,0,0.02,0.01,0.03
				c0.11,1.1,0.56,3.45,1.28,6.35c0.58,2.29,1.33,4.93,2.23,7.56l0.16-0.01c4.67,8.87,17.91,10.59,28.18,16.52
				c4.85,2.8,1.92,18.1,2.57,24.39C415.9,344.62,310.27,339.57,294.73,324.69z"/>
			<path class="st11" d="M379.07,266.7c0.11,1.1,0.56,3.45,1.28,6.35c-8.7,15.77-33.39,2.45-38.6-18.11
				c-0.49-1.92,1.9-2.55,1.08-4.44c0.69-7.54,1.03-18.25-2.29-23.91l36.97,17.64l3.92,3.76c-1.79,5.36-2.64,12.43-2.4,18.34
				c0.01,0.06,0.01,0.12,0.01,0.18c0,0.05,0,0.1,0.01,0.16C379.07,266.68,379.07,266.69,379.07,266.7z"/>
		</g>
		<g>
			<path class="st23" d="M239.1,367.8c3.14,0.19,5.66,11.16,4.78,23.32c-3.69,51.43,11.21,105.51,30.57,106.58
				c13.36,0.74,25.67-3,38.54-4.25c5.15-0.5,10.2-0.63,15.2-0.81c6.83-0.25,13.58-0.59,20.41-2.11c1.02-0.23,2.58-0.66,3.59-0.94
				l-19.14-192.53c-8.28-6.05-8.61-9.15-19.81-9.37c-9.4-0.19-23.57,1.68-32.88,4.19c-6.23,1.68-12.16,3.61-17.27,6.17
				c-7.65,3.83-13.5,9.06-15.87,16.94C243.09,328.66,238.5,345.68,239.1,367.8z"/>
			<path class="st24" d="M239.1,367.8c3.14,0.19,5.66,11.16,4.78,23.32c-3.69,51.43,11.21,105.51,30.57,106.58
				c13.36,0.74,25.67-3,38.54-4.25c5.15-0.5,10.2-0.63,15.2-0.81c2.55-5.63,3.09-11.18,0.22-15.9c-2.99-4.92-10.75-7.71-15.17-11.14
				c-5.16-4.01-9.84-8.76-14.49-13.33c-20.19-19.87-20.77-49.52-20.77-76.73c0-19.35-0.15-40.35-4.78-59.03
				c-1.87-7.55-3.84-14.26-10.12-18.45c-7.65,3.83-13.5,9.06-15.87,16.94C243.09,328.66,238.5,345.68,239.1,367.8z"/>
		</g>
		<path class="st10" d="M411.45,564.27c0.66-5.8-1.25-12.59-2.69-18.25c-9.01,1.54-2.26-15.17-0.41-18.6
			c-0.25-1.09-0.66-0.16-1.27-0.59l10.16-4.18c3.63,7.41,8.16,17.61,8.84,25.71c0.45,5.38-4.01,22.99-7.64,26.36
			c-3.28-1.35-8.57,0.74-11.53-1.08c-2.09-1.28-4.55-7.49-5.11-9.63C404.94,562.76,408.37,563.34,411.45,564.27z"/>
		<path class="st10" d="M389.64,295.87c8.72-8.41,29.95-3.88,31.11,38.17c0.14,5.2-3.8,90.42-3.85,96.88
			c-0.28,32.52,2.82,92.4,3.95,103.69c-5.95-0.74-8.47,0.81-14.44,0.29C402.37,515.07,370.28,314.54,389.64,295.87z"/>
		<g>
			<path class="st25" d="M289.14,335.06c0.56,2.4,2.34,22.54,3.74,48.04c1.15,20.84,2.05,45.27,1.84,66.55
				c-0.12,12.14-0.6,23.25-1.6,32.09l106.03-1.59c-3.65-4.86-4.41-15.35-3.73-33.84c0.26-7.14,0.74-15.48,1.34-25.15
				c1.04-16.68,4.18-27.39,7.74-36.38c0.67-1.7,1.36-3.35,2.05-4.95c3.08-7.17,6.22-13.68,8.42-22.1c0.68-2.62,1.28-5.42,1.75-8.48
				c3.16-20.56,3.96-50.06-2.42-53.25l-27.9-11.16c-0.95,11.12-12.33,20.42-19.93,19.93c-15.15-0.98-22.32-11.16-30.7-18.86
				c-2.1-1.93-22.67,1.33-46.51,12.44C286.6,299.59,281.17,306.36,289.14,335.06z"/>
			<g>
				<path class="st25" d="M392.31,386.22c4.27-0.16,8.49-0.49,12.19-1.45c5.68-1.47,10.13-4.42,11.69-10.45
					c0.74-2.85,0.83-6.38,0.11-10.77c-0.21-1.3-0.69-3.32-1.33-5.83c-2.66-10.53-8.1-29.6-8.65-39.55l-12.81,62.19L392.31,386.22z"
					/>
				<path class="st25" d="M407.6,311.95l-1.28,6.22C406.14,314.92,406.47,312.64,407.6,311.95z"/>
			</g>
			<path class="st26" d="M290.47,449.47c1.42,0.03,2.83,0.09,4.25,0.18c10.83,0.66,21.67,2.82,32.56,3.58
				c20.73,1.43,37.46,0.06,57.74-4.57c3.72-0.85,7.26-1.46,10.4-2.35c0.26-7.14,0.74-15.48,1.34-25.15
				c1.04-16.68,4.18-27.39,7.74-36.38c5.68-1.47,10.13-4.42,11.69-10.45c-1.62,1.59-3.33,3.19-4.92,3.9
				c-1.53,0.68-3.11,1.21-4.72,1.61c-4.18,1.04-86.34,16.85-110.56-13c-1.25,5.38-2.28,10.81-3.11,16.28
				C289.61,404.59,289.32,426.73,290.47,449.47z"/>
		</g>
		<path class="st24" d="M405.66,284.74c9.49,5.44,13.43,11.55,14.09,15.52c2.9,17.42,1.13,36.42-0.75,52.86
			c-1.83,15.94-5.51,31.85-10.38,44.79c-2.47,6.57-7,13.98-11.33,19.25c0.28-8.69,1.42-15.22,1.59-23.92
			c4.88-12.91,8.21-30.83,9.42-41.35c1.8-15.67,6.65-34.59,0.83-49.7c-5.18-13.44-22.75-14.31-24.99-18.89
			c-0.13-0.26-1.29-3.4-1.35-3.68C391.99,277.45,399.31,281.1,405.66,284.74z"/>
		<path class="st27" d="M246.27,826.95c54.21,12.75,138.54,16.7,198.62-0.24c1.33-26.29-5.67-93.86-14.8-165.78
			c-12.73-100.27-29.59-209.01-33.76-226.16c0,0-17.13,7.83-37.07,8.37c-16.01,0.43-43.06-1.25-56.79-2.22
			c-5.25-0.37-8.55-0.63-8.55-0.63C254.07,542.32,245.11,770.07,246.27,826.95z"/>
		<path class="st24" d="M288.5,444.08c7.34,0,13.99-2.37,19.84-7.08c8.81-7.1,15.42-19.32,19.65-36.33
			c3.25-13.08,4.96-28.88,4.83-44.49c-0.13-16.1-0.7-34.66-5.7-51.14c-1.14-3.75-4.88-12.93-14.96-17.05
			c-9.03-3.69-20.05-2.05-32.76,4.88l5.15,9.45c9.59-5.23,17.73-6.74,23.53-4.37c5.97,2.44,8.2,8.44,8.74,10.22
			c4.59,15.11,5.11,32.75,5.24,48.1c0.21,25.6-5.02,59.91-20.47,72.35c-5.43,4.37-11.73,5.67-19.25,3.97l-2.38,10.5
			C282.9,443.75,285.75,444.08,288.5,444.08z"/>
		<path class="st28" d="M246.27,826.95c54.21,12.75,138.54,16.7,198.62-0.24c1.33-26.29-5.67-93.86-14.8-165.78
			c-2.76,2.52-5.62,4.93-8.8,6.6c-9.8,5.13-22.23,9.08-33.32,9.54c-32.26,1.36-53.79-31.05-62.96-58.2
			c-13.64-40.37-19.4-82.91-23.09-125.17c-1.35-15.44-1.53-31.62-0.2-47.01c0.1-1.19,0.39-3.28,0.75-5.77
			c-5.25-0.37-8.55-0.63-8.55-0.63C254.07,542.32,245.11,770.07,246.27,826.95z"/>
		<g>
			<g>
				<path class="st10" d="M412.58,232.39c0.1-5.22-2.99-10.04-6.64-8.58c-10.69,4.28-8.47,17.96-8.47,17.96
					c0.24,5.25,5.95,5.67,8.52,4.02C409.25,243.7,412.48,237.42,412.58,232.39z"/>
				<path class="st11" d="M403.99,228.87c-1.26,2.29-3.56,7.49-3.56,7.49c-0.62,4.11,5.47,3.86,6.02-1.04
					c0.25-2.19-1.32-4.25,0.67-5.55c1.37-0.89,2.62,0.62,3.19,2.32C410.88,227.41,405.96,225.27,403.99,228.87z"/>
			</g>
			<path class="st10" d="M389.2,173.58c-24.97-22.79-53.93-1.4-58.62,28.14c0,0-3.53,27.49,1.95,40.69
				c4.15,9.99,22.91,32.17,39.93,31.26c8.09-0.43,23.47-17.42,27.57-28.99C406.91,225.2,409.03,191.68,389.2,173.58z"/>
			<g>
				<path class="st2" d="M380.97,214.26c0.43-2.53,5.2-3.4,9.28-3.29c3.84,0.1,6.45,2.08,7.01,4.25c-1.88-1.77-5.38-2-7.75-1.6
					C387.05,214.03,380.5,216.29,380.97,214.26z"/>
				<path class="st2" d="M360.52,215.99c0.53-2.43-3.35-4.25-6.97-5.02c-3.41-0.73-6.41,0.54-7.68,2.42
					c2.28-1.23,5.44-0.7,7.38,0.18C355.26,214.48,360.21,217.97,360.52,215.99z"/>
				<g>
					<path class="st29" d="M375.5,253.68c-2.93,1.37-6.37,1.41-9.44-0.06c-0.9,2.55,2.2,4.57,5.58,4.45
						C375.87,257.92,376.74,253.75,375.5,253.68z"/>
					<path class="st30" d="M374.26,252.97c-1.3-0.14-1.42,0.91-2.85,0.94c-1.59-0.08-1.71-1.48-3.36-0.68
						c-1.82,0.82-3.94-0.34-3.9-0.35c3.27,3.55,9.82,4.59,14,0.06C376.12,253.86,375.06,253,374.26,252.97z"/>
				</g>
				<path class="st11" d="M367.64,242.88c0,0,0.17,0.02,0.44,0.08c0.14,0.04,0.31,0.05,0.49,0.1c0.18,0.04,0.39,0.07,0.61,0.12
					c0.22,0.05,0.47,0.08,0.71,0.14c0.25,0.04,0.51,0.09,0.78,0.14c0.27,0.04,0.54,0.09,0.82,0.12c0.28,0.04,0.55,0.06,0.83,0.09
					c0.14,0.01,0.27,0.01,0.41,0.02c0.14,0.01,0.27,0.01,0.4,0c0.13-0.01,0.27,0,0.39-0.01c0.13-0.02,0.25-0.03,0.37-0.04
					c0.13-0.01,0.23-0.05,0.35-0.07c0.12-0.02,0.23-0.04,0.34-0.08c0.11-0.03,0.22-0.07,0.32-0.1c0.1-0.04,0.19-0.09,0.28-0.13
					c0.2-0.08,0.35-0.19,0.5-0.29c0.08-0.05,0.15-0.1,0.21-0.14c0.06-0.05,0.12-0.1,0.17-0.14c0.2-0.18,0.34-0.28,0.34-0.28
					s-0.02,0.16-0.08,0.45c-0.02,0.07-0.04,0.15-0.06,0.24c-0.03,0.08-0.08,0.17-0.13,0.26c-0.05,0.09-0.1,0.2-0.16,0.3
					c-0.05,0.11-0.15,0.19-0.23,0.3c-0.09,0.1-0.18,0.21-0.29,0.31c-0.11,0.09-0.23,0.18-0.36,0.27c-0.12,0.1-0.27,0.17-0.41,0.24
					c-0.15,0.07-0.3,0.15-0.46,0.2c-0.32,0.1-0.65,0.19-0.99,0.22c-0.34,0.06-0.68,0.03-1.03,0.03c-0.34-0.04-0.68-0.07-0.99-0.15
					c-0.32-0.06-0.63-0.17-0.92-0.27c-0.29-0.11-0.56-0.24-0.81-0.36c-0.24-0.14-0.48-0.26-0.68-0.41c-0.2-0.14-0.38-0.28-0.53-0.41
					c-0.15-0.13-0.28-0.25-0.37-0.35C367.74,243.02,367.64,242.88,367.64,242.88z"/>
				<g>
					<path class="st11" d="M394.72,222.9c-1.3-0.3-3.18-0.61-6.05-0.23c-2.45,0.31-4.89,1.32-6.36,2.4
						c-0.52,0.38-1.02,0.91-1.36,1.31c-0.6,0.7-0.58,1.94-0.6,2.11c0.92,0.06,1.67-0.88,2.64-0.89c1.88,0,4.05-0.26,5.49-0.61
						c1.79-0.44,3.11-0.91,4.57-1.53c1.16-0.48,2.69-0.11,4.74-0.75C397.54,223.74,396.01,223.23,394.72,222.9z"/>
					<g>
						<path class="st17" d="M397.79,224.72c-2.05,0.64-3.34,1.25-4.51,1.73c-1.46,0.62-2.77,1.09-4.57,1.53
							c-1.43,0.35-3.6,0.62-5.49,0.61c-0.97,0.01-1.95-0.03-2.87-0.09c0.01-0.01,0.23-0.43,0.83-1.13c0.34-0.41,0.84-0.93,1.36-1.31
							c1.47-1.08,3.91-2.1,6.36-2.4c2.87-0.38,4.75-0.07,6.04,0.23C396.25,224.2,397.04,224.52,397.79,224.72z"/>
						<path class="st31" d="M393.28,226.44c-1.46,0.62-2.77,1.09-4.57,1.53c-1.43,0.35-3.6,0.62-5.49,0.61
							c-0.43-0.22-1.2-2.15-0.68-2.53c1.47-1.08,3.91-2.1,6.36-2.4c2.87-0.38,4.75-0.07,6.04,0.23
							C394.97,224.39,393.63,226.1,393.28,226.44z"/>
					</g>
					<path class="st17" d="M391.75,225.47c-0.01,0.43-0.34,0.84-0.73,0.92c-0.4,0.08-0.72-0.21-0.71-0.64
						c0.01-0.43,0.34-0.84,0.73-0.92C391.44,224.76,391.76,225.04,391.75,225.47z"/>
				</g>
				<g>
					<path class="st11" d="M356.65,225.49c-1.08-0.78-2.68-1.81-5.47-2.58c-2.38-0.68-5.02-0.7-6.79-0.28
						c-0.63,0.15-1.29,0.43-1.77,0.67c-0.83,0.41-1.29,1.56-1.37,1.7c0.82,0.41,1.88-0.16,2.78,0.22c1.73,0.74,3.83,1.35,5.29,1.59
						c1.82,0.3,3.21,0.38,4.8,0.38c1.26,0.02,2.52,0.96,4.66,1.17C358.92,227.36,357.72,226.29,356.65,225.49z"/>
					<g>
						<path class="st17" d="M358.77,228.36c-2.14-0.21-3.57-0.16-4.82-0.18c-1.59-0.01-2.98-0.08-4.8-0.38
							c-1.46-0.24-3.56-0.84-5.29-1.59c-0.9-0.38-1.78-0.79-2.61-1.21c0.01-0.01,0.38-0.3,1.21-0.71c0.47-0.24,1.14-0.53,1.77-0.67
							c1.78-0.42,4.42-0.4,6.79,0.28c2.79,0.77,4.39,1.8,5.47,2.58C357.55,227.28,358.15,227.88,358.77,228.36z"/>
						<path class="st31" d="M353.95,228.18c-1.59-0.01-2.98-0.08-4.8-0.38c-1.46-0.24-3.56-0.84-5.29-1.59
							c-0.31-0.37-0.27-2.45,0.37-2.59c1.78-0.42,4.42-0.4,6.79,0.28c2.79,0.77,4.39,1.8,5.47,2.58
							C356.3,226.95,354.4,228,353.95,228.18z"/>
					</g>
					<path class="st17" d="M352.92,226.69c-0.17,0.39-0.64,0.64-1.04,0.56c-0.4-0.08-0.58-0.47-0.4-0.86
						c0.17-0.39,0.64-0.64,1.04-0.56C352.91,225.91,353.09,226.29,352.92,226.69z"/>
				</g>
			</g>
			<g>
				<g>
					<path class="st10" d="M319.78,233.08c-0.41-5.2,2.68-10.25,6.74-9.06c11.89,3.48,10.25,17.31,10.25,17.31
						c0.04,5.26-6.15,6.11-9.04,4.65C324.06,244.13,320.17,238.1,319.78,233.08z"/>
					<path class="st11" d="M328.93,228.93c1.5,2.19,4.3,7.22,4.3,7.22c0.91,4.06-5.74,4.26-6.62-0.59c-0.4-2.17,1.19-4.34-1.05-5.49
						c-1.54-0.79-2.82,0.82-3.34,2.55C321.34,227.99,326.57,225.48,328.93,228.93z"/>
				</g>
			</g>
			<path class="st32" d="M362.85,175.29l8.37-14.35c16.95-4.19,31.65,3.61,39.09,19.06c6.97,14.48-1.06,40.52-7.97,54.61
				c1.26-10.38,1.65-37.94-6.76-45.42C384.81,179.61,363.28,204.72,362.85,175.29z"/>
			<g>
				<path class="st2" d="M332.19,237.8c2.75-8.37,1.27-14.72,3.9-23.64c2.26-7.65,7.53-15.42,22.41-15.68
					c7.8-0.14,19.64-0.07,26.1-15.96c0.07-0.17,0.14-0.34,0.2-0.51c3.87-9.91,2.67-22.25-10.36-25.51c-7.17-1.79-23.92,0-23.92,0
					c-11.62,1.01-18.91,5.83-23.51,12.49c-2.65,3.85-4.41,8.31-5.59,13.02C317.33,198.4,329.2,221.53,332.19,237.8z"/>
				<path class="st32" d="M332.19,237.8c2.75-8.37,1.27-14.72,3.9-23.64c2.26-7.65,7.53-15.42,22.41-15.68
					c7.8-0.14,19.64-0.07,26.1-15.96l-1.79-5.69c-1.94,4-2.5,7.13-7.17,8.76c-4.39,1.52-9.85,0.88-14.43,0.41
					c-5.26-0.53-10.18-0.51-15.05,1.59c-4.09,1.77-5.41,5-8.71,7.53c-1.45-4.07,0.9-8.13,1.84-11.87
					c-4.92,2.54-6.97,8.48-7.98,13.47c-4.21-4.5-4.81-13.42-5.1-19.4c-0.15-3.01,0.21-5.72,0.8-8.33
					c-2.65,3.85-4.41,8.31-5.59,13.02C317.33,198.4,329.2,221.53,332.19,237.8z"/>
			</g>
		</g>
		<g>
			<path class="st17" d="M377.92,227.86c0-7.01,5.7-12.71,12.71-12.71c7.01,0,12.71,5.7,12.71,12.71s-5.7,12.71-12.71,12.71
				C383.62,240.56,377.92,234.86,377.92,227.86z M379.84,227.86c0,5.94,4.84,10.78,10.78,10.78c5.94,0,10.78-4.84,10.78-10.78
				c0-5.94-4.84-10.78-10.78-10.78C384.68,217.07,379.84,221.91,379.84,227.86z"/>
			<path class="st17" d="M341.92,227.66c0-7.01,5.7-12.71,12.71-12.71c7.01,0,12.71,5.7,12.71,12.71c0,7.01-5.7,12.71-12.71,12.71
				C347.62,240.37,341.92,234.67,341.92,227.66z M343.84,227.66c0,5.94,4.84,10.78,10.78,10.78c5.94,0,10.78-4.84,10.78-10.78
				c0-5.94-4.84-10.78-10.78-10.78C348.68,216.88,343.84,221.72,343.84,227.66z"/>
			<path class="st17" d="M366.99,227.99c1.3-2.02,2.9-3.15,4.74-3.33c2.09-0.21,4.45,0.85,6.47,2.91l1.38-1.35
				c-2.47-2.52-5.32-3.75-8.04-3.48c-2.42,0.25-4.56,1.7-6.17,4.21L366.99,227.99z"/>
		</g>
		<g>
			<g>
				<path class="st10" d="M292.32,585.05c1.88,1.63,5.54,2.3,7.9,3.13c2.34,0.82,4.77,1.97,7.1,2.58c-1.23,3-5.11,5.4-8.1,6.35
					c-2.13,0.68-7.54,3.24-8.7,0.82L292.32,585.05z"/>
				<g>
					<polygon class="st33" points="345.33,511.12 251.69,493.3 251.41,533.12 342.31,523.88 					"/>
					<polygon class="st34" points="253.97,495.28 343.73,511.23 344.45,512 338.74,521.68 253.4,501.88 					"/>
					<polygon class="st35" points="331.83,511.12 245.13,495.5 244.98,583.92 337.94,604.35 					"/>
					<path class="st36" d="M331.83,511.12c0.2,0.19,0.42,0.38,0.66,0.55c1.35,0.97,3.3,1.58,5.46,1.58c2.04,0,3.88-0.54,5.22-1.41
						c0.33-0.21,0.62-0.45,0.88-0.7c0.01-0.01,0.01-0.01,0.02-0.02h1.26v88.41c0,1.33-0.83,2.54-2.16,3.41
						c-1.34,0.87-3.18,1.41-5.22,1.41c-4.08,0-7.39-2.15-7.39-4.82v-88.41H331.83z"/>
					<path class="st37" d="M332.49,511.67v85.88c0,2.7,2.59,4.88,5.78,4.88c1.6,0,3.04-0.55,4.09-1.43
						c1.04-0.88,1.69-2.11,1.69-3.45v-86.41c-0.26,0.25-0.55,0.48-0.88,0.7c-1.34,0.87-3.18,1.41-5.22,1.41
						C335.78,513.25,333.84,512.64,332.49,511.67z"/>
					<polygon class="st38" points="278.96,511.76 278.96,579.93 262.25,576.03 262.22,574.79 262.22,508.55 					"/>
				</g>
				<path class="st10" d="M267.03,559.57c0.82-3.13,1.49-6.71,1.92-9.87l15.43,5.84c2.18,7.32,11.85,13.39,12.62,22.19
					c0.48,5.44,3.12,10.71,1.1,11.48c-5.34,2.06-5.3-9.31-7.22-11.12c0.33,3.05,2.79,19.49,1.95,20.28
					c-1.75,1.63-5.07,1.01-6.64-0.96c-0.93,0.82-2.4,1.31-3.73,1.25c-1.18-0.06-2.36-1.17-3.38-1.14c-1.4,0.03-2.55,1.09-4.46,0.52
					c-1.28-0.38-2.29-1.35-3.41-2c-3.93,1.77-3.84-3.51-4.71-6.09C265.55,587.13,265.17,566.68,267.03,559.57z"/>
				<path class="st10" d="M278.91,489.4c2.96,0.66,7.91,1.21,12.12,0.66c-2.47,24.91-6.06,62.71-4.96,76.5
					c-4.42,0.4-11.58-0.2-18.46-0.33c0-10.51,0.73-53.11,0-81.43C272.58,486.78,273.49,488.2,278.91,489.4z"/>
			</g>
			<path class="st10" d="M287.36,301.23c9.88-7.01,30.19,0.64,25.05,42.39c-0.64,5.16-7.97,37.3-8.99,43.68
				c-5.14,32.12-16.87,144.66-17.44,156c-5.77-1.62-11.96-1.82-17.79-3.23C267.17,519.87,265.43,316.8,287.36,301.23z"/>
		</g>
	</g>
</g>
<g>
	<g>
		<path class="st39" d="M639.9,390.42c-17.3,5.92-36.73,5.86-52.38-3.06l25.22-125.09C652.57,282.83,632.41,354.57,639.9,390.42z"/>
		<path class="st40" d="M449.58,552.89c-1.26-28.63,1.97-62.3,9.83-102.53c8.72-44.63,21.67-90.89,38.51-137.49l0.35-0.96
			c5.97-16.52,11.6-32.13,19.75-47.47c1.2-2.26,4.89-8.05,8.99-13.3c6.98-8.93,16.25-16.88,16.25-16.88
			c-1.73-2.23-4.25-3.24-7.08-2.86c-2.84,0.39-7.63,2.19-16.38,13.32c-4.91,6.24-8.9,12.64-10.26,15.21
			c-8.52,16.05-14.28,32.01-20.39,48.91l-0.35,0.96c-17.02,47.14-30.13,93.94-38.96,139.12c-7.87,40.29-11.19,74.26-10.09,103.38
			C443.02,552.46,446.31,552.64,449.58,552.89z"/>
		<g>
			<g>
				<g>
					<path class="st41" d="M652.43,926.79c-5.32,3.76-43.42,2.99-55.51,0.98c-0.04,0-0.07-0.01-0.11-0.02
						c-1.97-0.33-3.34-0.71-3.89-1.12c-0.04-0.03-0.08-0.07-0.12-0.1c-1.6-1.56-1.15-7.92,0.17-15.53
						c2.12-12.22,6.49-27.65,8.22-31.56l16.79,2.14C628.41,907.6,657.04,910.04,652.43,926.79z"/>
				</g>
				<g>
					<path class="st17" d="M592.81,926.54c0.03,0.03,0.07,0.07,0.12,0.1c0.56,0.41,1.93,0.79,3.89,1.12c0.04,0,0.07,0.01,0.11,0.02
						c12.09,2.01,50.19,2.78,55.51-0.98c0.75-2.73,0.62-5.08-0.17-7.21c-0.06,0.29-0.13,0.58-0.21,0.88
						c-5.32,3.76-43.42,2.99-55.51,0.98c-0.03-0.01-0.07-0.01-0.11-0.02c-1.96-0.33-3.34-0.71-3.89-1.12
						c-0.01-0.01-0.3-0.08-0.7-0.18C591.66,923.34,591.92,925.67,592.81,926.54z"/>
				</g>
				<path class="st4" d="M593.41,833.31l27.32-13.16c-0.73,19.04,0.73,72.21-1.12,75.93c0,0-8.07,2.45-11.56,0.56
					C600.92,892.78,592.22,845.33,593.41,833.31z"/>
				<path class="st41" d="M619.38,873.94c8.8,0.42,11.87,4,9.8,11.6c-0.97,3.54-4.29,18.18-1.19,19.18l-17.23,0.52
					C607.6,896.29,601.43,873.09,619.38,873.94z"/>
			</g>
			<g>
				<g>
					<path class="st41" d="M458.36,926.79c5.32,3.76,43.42,2.99,55.51,0.98c0.04,0,0.07-0.01,0.11-0.02
						c1.97-0.33,3.34-0.71,3.89-1.12c0.04-0.03,0.08-0.07,0.12-0.1c1.6-1.56,1.15-7.92-0.17-15.53
						c-2.12-12.22-6.49-27.65-8.22-31.56l-16.79,2.14C482.39,907.6,453.75,910.04,458.36,926.79z"/>
				</g>
				<g>
					<path class="st17" d="M517.99,926.54c-0.03,0.03-0.07,0.07-0.12,0.1c-0.56,0.41-1.93,0.79-3.89,1.12
						c-0.04,0-0.07,0.01-0.11,0.02c-12.09,2.01-50.19,2.78-55.51-0.98c-0.75-2.73-0.62-5.08,0.17-7.21
						c0.06,0.29,0.13,0.58,0.21,0.88c5.32,3.76,43.42,2.99,55.51,0.98c0.03-0.01,0.07-0.01,0.11-0.02c1.96-0.33,3.34-0.71,3.89-1.12
						c0.01-0.01,0.3-0.08,0.7-0.18C519.13,923.34,518.87,925.67,517.99,926.54z"/>
				</g>
				<path class="st4" d="M517.38,833.31l-27.32-13.16c0.73,19.04-0.73,72.21,1.12,75.93c0,0,8.07,2.45,11.56,0.56
					C509.88,892.78,518.57,845.33,517.38,833.31z"/>
				<path class="st41" d="M491.42,873.94c-8.8,0.42-11.87,4-9.8,11.6c0.97,3.54,4.29,18.18,1.19,19.18l17.23,0.52
					C503.19,896.29,509.36,873.09,491.42,873.94z"/>
			</g>
			<path class="st42" d="M482.63,866.06l33.87-0.68c1.12-28.95,3.35-63.67,6.38-104.43c3.9-52.54,11.4-142.03,24.22-196.22
				c0.69-2.91,1.39-5.72,2.11-8.42c0.3-1.11,0.59-2.2,0.89-3.27c0.05-0.18,0.1-0.35,0.15-0.53c0.19-0.65,0.38-1.29,0.56-1.92
				c0.12,0.5,0.24,1,0.36,1.51c0.08,0.35,0.16,0.7,0.24,1.05c0.16,0.7,0.33,1.42,0.5,2.15c9.14,39.19,26.67,117.39,24.38,199.27
				c-1.02,36.46,7.61,69.89,13.66,91.87c2.3,8.34,4.22,15.03,5.11,19.61l31.45-0.68c-1.11-21.65-3.68-63.27-6.38-111.6
				c-2.91-52.24-2.54-146.13-7.5-221.27c-0.09-1.38-0.18-2.74-0.27-4.1c-1.35-19.48-3.08-37.6-5.33-53.27l-119.59-2.48
				c-1.55,0.68-1.54,21.61-1.73,54.53c-0.01,1.32-0.02,2.66-0.03,4.02c-0.35,54.97-1.39,140.65-10.63,221.77
				C469.25,803.93,482.48,848.07,482.63,866.06z"/>
			<path class="st43" d="M562.33,547.15l-11.17,4.97c0.08,0.35,0.16,0.7,0.24,1.05c0.16,0.7,0.33,1.42,0.5,2.15
				c9.14,39.19,26.67,117.39,24.38,199.27c-1.02,36.46,7.61,69.89,13.66,91.87c0.04,0.07,0.09,0.13,0.13,0.19
				c-2.32-7.66-2.17-16.11-2.99-24.24c-4.61-46.03-1.45-94.88-1.45-142.72C585.64,637.73,580.12,582.5,562.33,547.15z"/>
			<g>
				<g>
					<path class="st44" d="M548.29,552.76c0.58,0.13,1.18,0.22,1.81,0.29c0.43,0.05,0.86,0.08,1.31,0.11
						c0.21,0.02,0.41,0.02,0.63,0.04c1.18,0.06,2.4,0.06,3.6,0.07c2.1,0.01,4.07,0.02,5.63,0.29l1.77,0.3l0.43-1.49
						c2.32-8.19,1.7-17.41,1.11-26.32c-0.09-1.33-0.17-2.64-0.25-3.93c-0.32-5.38-1.49-11.22-2.61-16.86
						c-1.12-5.64-2.19-10.96-2.33-15.38l-3.77,0.09c0.15,4.64,1.24,10.08,2.38,15.83c1.11,5.55,2.26,11.29,2.56,16.49
						c0.08,1.3,0.16,2.62,0.25,3.95c0.55,8.16,1.11,16.59-0.64,23.99c-1.45-0.12-3-0.12-4.51-0.13c-1.19,0-2.39-0.01-3.51-0.07
						c-1.45-0.07-2.77-0.23-3.74-0.57C548.38,550.55,548.34,551.66,548.29,552.76z"/>
					<path class="st44" d="M548.29,552.76c-0.19,4.11-0.57,8.13-1.2,11.98c0.97-4.11,1.97-8.02,3.01-11.69
						c0.43,0.05,0.86,0.08,1.31,0.11c0.16,0.7,0.33,1.42,0.5,2.15c0.05-0.7,0.09-1.41,0.12-2.11c0.05-1.06,0.09-2.12,0.12-3.19
						c0.41-15.88-1.78-32.78-4.09-47.17l-3.73,0.43c2.26,14.11,4.42,30.66,4.07,46.16C548.38,550.55,548.34,551.66,548.29,552.76z"
						/>
				</g>
				<path class="st44" d="M485.67,531.21c3.63,0.39,6.98,0.58,10.05,0.58c9.62,0,16.46-1.88,20.42-5.64
					c3.78-3.58,6.24-10.79,6.76-19.76c0.47-8.24-0.79-15.99-3.32-20.22l-3.42,2.04c2.07,3.48,3.18,10.69,2.76,17.95
					c-0.45,7.86-2.52,14.25-5.52,17.1c-4.28,4.07-13.97,5.41-27.7,3.94C485.68,528.52,485.68,529.85,485.67,531.21z"/>
				<path class="st44" d="M593.1,507.58c0.52,8.98,2.98,16.18,6.76,19.76c2.81,2.67,7.07,4.4,12.76,5.17
					c-0.09-1.37-0.18-2.74-0.27-4.1c-4.39-0.69-7.69-2.01-9.74-3.96c-3-2.85-5.07-9.25-5.52-17.1c-0.42-7.26,0.69-14.47,2.76-17.95
					l-3.42-2.04C593.89,491.59,592.62,499.34,593.1,507.58z"/>
			</g>
			<rect x="589.04" y="855.02" class="st44" width="41.45" height="19.13"/>
			<rect x="479.03" y="854.22" class="st44" width="41.45" height="19.13"/>
			<path class="st45" d="M549.2,556.32c0.3-1.11,0.59-2.2,0.89-3.27c0.05-0.18,0.1-0.35,0.15-0.53l-1.02,0.45
				C549.22,554.09,549.21,555.2,549.2,556.32z"/>
		</g>
		<g>
			<g>
				<path class="st39" d="M475.74,322.08c2.28,12.78,3.99,26.59,5.25,40.66c0.71,7.93,1.27,15.94,1.71,23.91
					c0.35,6.28,0.62,12.53,0.82,18.69c0.03,1.02,0.06,2.04,0.1,3.06c0.01,0.42,0.02,0.84,0.04,1.26c0.06,2.01,0.11,4.01,0.15,6
					c0.02,0.68,0.03,1.36,0.04,2.04c0.02,1.28,0.05,2.54,0.07,3.8c0.01,0.8,0.02,1.59,0.04,2.39c0.01,0.81,0.02,1.62,0.03,2.43
					c0.01,0.97,0.02,1.94,0.03,2.9c0.01,0.7,0.01,1.4,0.02,2.09c0,0.55,0.01,1.1,0.01,1.64c0.02,2.65,0.02,5.25,0.01,7.8
					c0,0.93-0.01,1.84-0.02,2.75c0,0.13,0,0.26,0,0.39c0,0.51,0,1.01-0.01,1.51c-0.01,0.65-0.01,1.31-0.02,1.95
					c-0.03,3.09-0.08,6.1-0.13,9c-0.02,1.04-0.04,2.08-0.06,3.1c0,0.19-0.01,0.38-0.02,0.57c-0.02,1.09-0.05,2.16-0.08,3.21
					c-0.03,1-0.06,1.99-0.08,2.97c-0.02,0.55-0.04,1.1-0.05,1.64c-0.16,4.93-0.35,9.45-0.56,13.47c-0.02,0.28-0.03,0.55-0.04,0.83
					c-0.12,2.2-0.24,4.24-0.37,6.11c-0.05,0.7-0.1,1.38-0.14,2.03c-0.08,1.09-0.16,2.11-0.24,3.07c-0.01,0.11-0.02,0.22-0.03,0.33
					c-0.01,0.11-0.02,0.22-0.03,0.33c-0.04,0.39-0.07,0.77-0.11,1.14c-0.02,0.28-0.05,0.56-0.08,0.82c-0.03,0.32-0.06,0.63-0.1,0.93
					c-0.06,0.59-0.13,1.14-0.19,1.63c-0.02,0.19-0.05,0.38-0.07,0.55c-0.01,0.07-0.02,0.13-0.03,0.2c-0.01,0.1-0.03,0.19-0.04,0.28
					c-0.03,0.21-0.06,0.41-0.09,0.59c0.17,0.07,0.34,0.14,0.5,0.21c0.13,0.05,0.25,0.1,0.38,0.15c0.3,0.12,0.59,0.22,0.88,0.32
					c0.13,0.04,0.27,0.09,0.4,0.13c0.11,0.04,0.21,0.07,0.32,0.1c0.14,0.04,0.28,0.08,0.42,0.12c0.19,0.05,0.38,0.1,0.57,0.15
					c0.19,0.05,0.38,0.09,0.57,0.14c0.16,0.04,0.31,0.07,0.47,0.1c0.25,0.05,0.49,0.1,0.74,0.14c0.14,0.02,0.27,0.05,0.41,0.07
					c0.06,0.01,0.11,0.02,0.16,0.03c0.15,0.02,0.3,0.04,0.45,0.06c0.63,0.08,1.26,0.15,1.89,0.2c0.22,0.02,0.43,0.03,0.64,0.04
					c0.37,0.02,0.74,0.04,1.11,0.04c0.14,0,0.27,0.01,0.41,0.01c8.96,0.12,17.73-2.69,24.73,1.31c55.8,31.89,80.79,13.96,94.07,6.38
					c0.02-0.1,0.05-0.2,0.07-0.3c0.05-0.21,0.1-0.43,0.14-0.66c0.33-1.62,0.61-3.75,0.85-6.27c0.02-0.26,0.05-0.53,0.07-0.81
					c0.06-0.63,0.11-1.28,0.16-1.95c0.02-0.24,0.04-0.49,0.05-0.73c0.05-0.71,0.1-1.45,0.14-2.21c0.02-0.42,0.05-0.85,0.07-1.29
					c0.04-0.65,0.07-1.32,0.1-2c0.02-0.36,0.04-0.73,0.05-1.1c0.04-0.89,0.07-1.8,0.1-2.72c0.02-0.37,0.03-0.74,0.04-1.12
					c0-0.04,0-0.08,0-0.12c0.01-0.45,0.03-0.9,0.04-1.36c0.02-0.5,0.03-1,0.04-1.5c0.01-0.26,0.01-0.51,0.02-0.76
					c0.01-0.47,0.02-0.95,0.03-1.43c0.01-0.39,0.02-0.79,0.02-1.19c0-0.26,0.01-0.52,0.02-0.79c0.01-0.41,0.01-0.82,0.02-1.23v-0.04
					c0-0.31,0-0.62,0.01-0.92c0-0.16,0-0.31,0.01-0.47c0.01-0.87,0.02-1.75,0.03-2.63c0-0.27,0.01-0.54,0.01-0.82
					c0.01-1.09,0.02-2.18,0.02-3.29c0-0.28,0-0.55,0-0.83c0.02-7.09-0.05-14.41-0.18-21.31c-0.08-4.35-0.19-8.55-0.31-12.42
					c-0.16-4.95-0.34-9.38-0.53-12.98c-0.21-3.92-0.37-7.66-0.49-11.22c-0.19-5.83-0.27-11.19-0.24-16.14
					c0.05-9.69,0.47-17.81,1.15-24.77c3.07-31.93,11.23-39.56,11.23-63.51c0-24.4,3.09-39.78-20.73-55
					c-4.68-2.99-10.51-7.25-15.7-10.18c-0.6-0.34-1.19-0.67-1.77-0.96l-43.19-15.55c0.51,1.65-0.73,3.4-3.11,5.18
					c-10.05,7.51-40.4,15.59-45.85,18.86c-7.92,4.75-12.78,8.52-16.25,17.41c-1.1,2.81-2.14,5.84-2.91,9.58
					C472.01,286.98,471.71,299.53,475.74,322.08z"/>
				<g>
					<g>
						<path class="st10" d="M612.17,187.03c0.18-3.14,1.06-7.19,1.06-7.19c1.43-6.95,9.29-12.21,13.07-8.34
							c3.79,3.89,3.73,10.89,2.33,15.14c-1.38,4.2-5.99,11.58-11.63,10.19C612.2,195.63,611.98,190.39,612.17,187.03z"/>
						<path class="st11" d="M615.72,180.53c0.09-0.76,1.79-3.28,2.21-3.94c3.18-5.06,8.57-3.33,8.84,2.28
							c-1.93-4.91-5.35-1.11-7.43,1.47c1.76,0.03,2.53,3.48,2.15,4.84c-0.67,2.39-2.66,2.86-4.73,3.19l0.02-0.2
							c0.36-1.77,2.48-4.05,1.11-6.36C617.14,180.55,615.56,181.94,615.72,180.53z"/>
					</g>
					<path class="st41" d="M618.03,121.8c6.7,4.93,9.57,13.88,9.22,22.27c-0.32,7.66-4.72,29.33-10.49,34.04
						c-0.44-6.34-1.11-27.19-4.08-32.97c-1.99-3.87-5.78-9.36-9.48-11.82L618.03,121.8z"/>
					<g>
						<path class="st10" d="M543.99,182.87c1.47,7.36,1.61,15.18,1.11,23.06c-0.65,10.38-2.79,18.74-6.28,26.5
							c2.89,5.74,7.9,13.18,18.65,20.68c6.21,4.33,15.06,7.91,22.7,6.86c9.02-1.24,10.55-8.47,6.76-16.13
							c-2.05-4.15-2.18-4.05-1.98-8.72c0.02-0.52,0.05-1.07,0.07-1.64c0.2-4.3,0.55-9.85,0.69-12.62l-41.65-39.77l-0.59-0.57
							C543.67,181.31,543.84,182.09,543.99,182.87z"/>
						<path class="st11" d="M543.99,182.87c1.47,7.36,2.25,6.97,1.75,14.84c5.04,39.23,36.51,38.75,39.29,35.77
							c0.2-4.3,0.55-9.85,0.69-12.62l-41.65-39.77C544.04,181.68,544.01,182.28,543.99,182.87z"/>
					</g>
					<path class="st10" d="M619.76,155.55c1.5-24.92-21.07-52.73-49.62-44.37c-6.05,1.77-15.45,7.99-19.1,13.69
						c0,0-4.6,14.62-6.78,40.22c-1.18,13.86-0.18,16.32,0.93,33.59c1.33,20.73,32.96,35.23,46.24,32.42
						c13.82-2.92,20.46-20.22,24.05-28.21C620.54,191.65,619.04,167.57,619.76,155.55z"/>
					<g>
						<path class="st11" d="M574.86,166.22c-1.07-2-2.69-3.52-4.59-3.27c-2.33,0.3-4.82,1.9-6.41,3.53c-0.7,0.72-1.8,2.26-2.58,3.58
							c-1.57,2.68-1.06,4.35-1.06,4.35c0.55,0.14,0.96-2.03,1.62-1.91c3.53,0.67,8.35,0.99,12.14,0.37c0.78-0.13,1.51-0.3,2.18-0.51
							C576.45,170.69,575.93,168.22,574.86,166.22z"/>
						<g>
							<path class="st17" d="M576.35,174.83c-0.67,0.17-1.41,0.3-2.18,0.41c-3.79,0.5-8.6,0.24-12.14-0.3
								c-0.65-0.1-1.26-0.2-1.81-0.32c0,0,0.54-0.74,1.25-1.64c0.82-1.04,1.87-2.29,2.58-2.87c1.6-1.31,4.08-2.59,6.41-2.83
								c1.9-0.19,3.52,1.02,4.59,2.62C576.12,171.51,576.64,173.49,576.35,174.83z"/>
							<path class="st41" d="M575.07,170.62c0,1.68-0.33,3.25-0.9,4.61c-3.79,0.5-8.6,0.24-12.14-0.3
								c-0.24-0.61-0.43-1.27-0.56-1.95c0.82-1.04,1.87-2.29,2.58-2.87c1.6-1.31,4.08-2.59,6.41-2.83c1.9-0.19,3.52,1.02,4.59,2.62
								C575.06,170.14,575.07,170.38,575.07,170.62z"/>
							<path class="st17" d="M566.88,172.57c0,0.57-0.4,1.02-0.9,1.02c-0.5,0-0.9-0.46-0.9-1.02c0-0.57,0.4-1.02,0.9-1.02
								C566.47,171.55,566.88,172,566.88,172.57z"/>
						</g>
					</g>
					<g>
						<path class="st11" d="M613.25,165.64c-0.98-2-2.47-3.52-4.22-3.27c-2.14,0.3-4.42,1.9-5.89,3.53
							c-0.65,0.72-1.65,2.26-2.37,3.58c-1.44,2.68-0.97,4.35-0.97,4.35c0.5,0.14,0.89-2.03,1.49-1.91
							c3.25,0.67,7.67,0.99,11.15,0.37c0.71-0.13,1.39-0.3,2-0.51C614.71,170.12,614.23,167.64,613.25,165.64z"/>
						<g>
							<path class="st17" d="M614.62,174.25c-0.62,0.17-1.29,0.3-2,0.41c-3.48,0.5-7.91,0.24-11.15-0.3c-0.6-0.1-1.16-0.2-1.66-0.32
								c0,0,0.5-0.74,1.15-1.64c0.76-1.04,1.72-2.29,2.37-2.87c1.47-1.31,3.75-2.59,5.89-2.83c1.75-0.19,3.23,1.02,4.22,2.62
								C614.41,170.94,614.89,172.92,614.62,174.25z"/>
							<path class="st41" d="M613.44,170.05c0,1.68-0.3,3.25-0.83,4.61c-3.48,0.5-7.91,0.24-11.15-0.3
								c-0.22-0.61-0.39-1.27-0.51-1.95c0.76-1.04,1.72-2.29,2.37-2.87c1.47-1.31,3.75-2.59,5.89-2.83
								c1.75-0.19,3.23,1.02,4.22,2.62C613.44,169.57,613.44,169.81,613.44,170.05z"/>
							<path class="st17" d="M605.92,171.99c0,0.57-0.37,1.03-0.82,1.03s-0.82-0.46-0.82-1.03c0-0.57,0.37-1.02,0.82-1.02
								S605.92,171.43,605.92,171.99z"/>
						</g>
					</g>
					<path class="st11" d="M593.48,179.79c-0.7,1.34,0.15,12.07,0.83,14.14c-1.66,1.28-5.74,1.16-7.48,2.38
						c2.97,0.25,6.27,0.57,10.3-1.16L593.48,179.79z"/>
					<g>
						<path class="st41" d="M555.81,164.15c5.14-1.63,11.08-0.93,16.55-0.29c2.35,0.27,6.3,1.79,6.94-1.09
							C582.25,149.6,551.86,154.8,555.81,164.15z"/>
					</g>
					<g>
						<path class="st41" d="M619.9,164.32c-4.49-1.55-9.67-0.92-14.45-0.35c-2.05,0.25-5.49,1.64-6.06-1.05
							C596.76,150.58,623.29,155.58,619.9,164.32z"/>
					</g>
					<g>
						<path class="st11" d="M571.96,198.84c5.89,8.7,12.8,11.77,16.64,11.77c2.39,0,4.49-0.5,6.31-1.42
							c2.9-1.48,5.07-4.07,6.48-7.53c0,0-2.08,0.6-5.6,0.91C590.42,203.05,581.71,202.87,571.96,198.84z"/>
						<path class="st17" d="M571.96,198.84c5.89,8.7,12.8,11.77,16.64,11.77c2.39,0,4.49-0.5,6.31-1.42
							c0.07-2.25,0.42-4.44,0.89-6.62C590.42,203.05,581.71,202.87,571.96,198.84z"/>
					</g>
					<g>
						<path class="st46" d="M535.76,130.06c-6.29,19.06,4.8,41.34,6.96,53.04c2.28-4.15,5.28-6.69,6.2-11.44
							c1.41-7.26-0.1-14.68,5.12-17.59c7.39-4.12,5.78-4.98,8.45-12.64c1.11-3.21,7.49-8.56,10.24-7.17
							c5.71,2.89,12.68,4.61,19.4,5.63c13.17,1.99,25.39,1.27,25.39,1.27c3.67-1.11,22.53-6.6,22.1-31.51
							c-3.53,5.4-8.24,7.59-14.53,7.13c2.55-5.55,6.91-16.98,4.25-22.66c-1.78,13.84-22.08,8.32-30.25,7.19
							c-45.71-6.34-54.26,8.1-56.76,14.46c-0.41,1.05-0.66,1.88-0.89,2.35c-3.98-2.88-8.24-2.96-12.67-1.94
							c2.12,1.79,4.2,3.64,6.19,5.59c-2.5,0.84-5.49,0.82-7.18,3.56C531.39,124.21,537.07,126.09,535.76,130.06z"/>
						<path class="st47" d="M535.76,130.06c-6.29,19.06,4.8,41.34,6.96,53.04c2.28-4.15,5.28-6.69,6.2-11.44
							c1.41-7.26-0.1-14.68,5.12-17.59c7.39-4.12,5.78-4.98,8.45-12.64c1.11-3.21,7.49-8.56,10.24-7.17
							c5.71,2.89,12.68,4.61,19.4,5.63c-4.73-3.46-9.96-9.17-13.5-10.6c-7.44-2.99-13.91-2.42-21.07-0.15
							c0.66-2.98,3.13-5.44,4.12-8.11c-4.38,0.21-8.11,3.79-11.39,6.48c-0.18-2.87,0.03-5.63-0.94-8.14
							c-1.29,1.01-2.43,2.66-3.68,3.62c-0.74-2.94-1.89-5.28-3.34-7.22c-0.41,1.05-0.66,1.88-0.89,2.35
							c-3.98-2.88-8.24-2.96-12.67-1.94c2.12,1.79,4.2,3.64,6.19,5.59c-2.5,0.84-5.49,0.82-7.18,3.56
							C531.39,124.21,537.07,126.09,535.76,130.06z"/>
					</g>
					<g>
						<path class="st10" d="M547.53,184.32c-0.19-3.36-1.14-7.68-1.14-7.68c-1.53-7.42-9.93-13.04-13.96-8.91
							c-4.05,4.15-3.99,11.63-2.49,16.17c1.47,4.48,6.39,12.36,12.42,10.88C547.5,193.51,547.73,187.92,547.53,184.32z"/>
						<path class="st11" d="M543.73,177.38c-0.09-0.81-1.91-3.5-2.36-4.21c-3.4-5.4-9.15-3.56-9.44,2.44
							c2.06-5.25,5.72-1.19,7.93,1.57c-1.88,0.03-2.7,3.72-2.29,5.17c0.72,2.55,2.84,3.06,5.05,3.41l-0.02-0.21
							c-0.38-1.9-2.65-4.32-1.19-6.79C542.21,177.4,543.9,178.89,543.73,177.38z"/>
					</g>
				</g>
			</g>
			<path class="st48" d="M483.52,405.34c0.03,1.02,0.06,2.04,0.1,3.06c0.01,0.42,0.02,0.84,0.04,1.26c0.06,2.01,0.11,4.01,0.15,6
				c0.02,0.68,0.03,1.36,0.04,2.04c0.02,1.28,0.05,2.54,0.07,3.8c0.01,0.8,0.02,1.59,0.04,2.39c0.01,0.81,0.02,1.62,0.03,2.43
				c0.01,0.97,0.02,1.94,0.03,2.9c5.95-0.51,11.99-0.49,18.34,0.74c15.18,2.95,30.3,7.41,45.24,10.54
				c22.15,4.63,44.35,4.47,64.61-2.91c-0.16-4.95-0.34-9.38-0.53-12.98c-0.21-3.92-0.37-7.66-0.49-11.22
				c-20.46,7.65-41.17,7.88-63.59,3.19c-14.94-3.12-30.06-7.59-45.24-10.54C495.82,404.77,489.62,404.79,483.52,405.34z"/>
			<path class="st48" d="M480.99,362.74c0.71,7.93,1.27,15.94,1.71,23.91c3.95,0.03,7.98,0.33,12.12,1.05
				c16.95,2.95,33.83,7.41,50.52,10.54c22.37,4.19,44.79,4.46,65.61-1c0.05-9.69,0.47-17.81,1.15-24.77
				c-21.46,6.33-43.26,6.25-66.76,1.85c-16.68-3.12-33.57-7.59-50.52-10.54C490.07,362.97,485.49,362.68,480.99,362.74z"/>
			<g class="st49">
				<path class="st39" d="M475.74,322.08c2.28,12.78,3.99,26.59,5.25,40.66c0.71,7.93,1.27,15.94,1.71,23.91
					c0.35,6.28,0.62,12.53,0.82,18.69c0.03,1.02,0.06,2.04,0.1,3.06c0.01,0.42,0.02,0.84,0.04,1.26c0.06,2.01,0.11,4.01,0.15,6
					c0.02,0.68,0.03,1.36,0.04,2.04c0.02,1.28,0.05,2.54,0.07,3.8c0.01,0.8,0.02,1.59,0.04,2.39c0.01,0.81,0.02,1.62,0.03,2.43
					c0.01,0.97,0.02,1.94,0.03,2.9c0.01,0.7,0.01,1.4,0.02,2.09c0,0.55,0.01,1.1,0.01,1.64c0.02,2.65,0.02,5.25,0.01,7.8
					c0,0.93-0.01,1.84-0.02,2.75c0,0.13,0,0.26,0,0.39c0,0.51,0,1.01-0.01,1.51c-0.01,0.65-0.01,1.31-0.02,1.95
					c-0.03,3.09-0.08,6.1-0.13,9c-0.02,1.04-0.04,2.08-0.06,3.1c0,0.19-0.01,0.38-0.02,0.57c-0.02,1.09-0.05,2.16-0.08,3.21
					c-0.03,1-0.06,1.99-0.08,2.97c-0.02,0.55-0.04,1.1-0.05,1.64c-0.16,4.93-0.35,9.45-0.56,13.47c-0.02,0.28-0.03,0.55-0.04,0.83
					c-0.12,2.2-0.24,4.24-0.37,6.11c-0.05,0.7-0.1,1.38-0.14,2.03c-0.08,1.09-0.16,2.11-0.24,3.07c-0.01,0.11-0.02,0.22-0.03,0.33
					c-0.01,0.11-0.02,0.22-0.03,0.33c-0.04,0.39-0.07,0.77-0.11,1.14c-0.02,0.28-0.05,0.56-0.08,0.82c-0.03,0.32-0.06,0.63-0.1,0.93
					c-0.06,0.59-0.13,1.14-0.19,1.63c-0.02,0.19-0.05,0.38-0.07,0.55c-0.01,0.07-0.02,0.13-0.03,0.2c-0.01,0.1-0.03,0.19-0.04,0.28
					c-0.03,0.21-0.06,0.41-0.09,0.59c0.17,0.07,0.34,0.14,0.5,0.21c0.13,0.05,0.25,0.1,0.38,0.15c0.3,0.12,0.59,0.22,0.88,0.32
					c0.13,0.04,0.27,0.09,0.4,0.13c0.11,0.04,0.21,0.07,0.32,0.1c0.14,0.04,0.28,0.08,0.42,0.12c0.19,0.05,0.38,0.1,0.57,0.15
					c0.19,0.05,0.38,0.09,0.57,0.14c0.16,0.04,0.31,0.07,0.47,0.1c0.25,0.05,0.49,0.1,0.74,0.14c0.14,0.02,0.27,0.05,0.41,0.07
					c0.06,0.01,0.11,0.02,0.16,0.03c0.15,0.02,0.3,0.04,0.45,0.06c0.63,0.08,1.26,0.15,1.89,0.2c0.22,0.02,0.43,0.03,0.64,0.04
					c0.37,0.02,0.74,0.04,1.11,0.04c0.14,0,0.27,0.01,0.41,0.01c8.96,0.12,17.73-2.69,24.73,1.31c55.8,31.89,80.79,13.96,94.07,6.38
					c0.02-0.1,0.05-0.2,0.07-0.3c0.05-0.21,0.1-0.43,0.14-0.66c0.33-1.62,0.61-3.75,0.85-6.27c0.02-0.26,0.05-0.53,0.07-0.81
					c0.06-0.63,0.11-1.28,0.16-1.95c0.02-0.24,0.04-0.49,0.05-0.73c0.05-0.71,0.1-1.45,0.14-2.21c0.02-0.42,0.05-0.85,0.07-1.29
					c0.04-0.65,0.07-1.32,0.1-2c0.02-0.36,0.04-0.73,0.05-1.1c0.04-0.89,0.07-1.8,0.1-2.72c0.02-0.37,0.03-0.74,0.04-1.12
					c0-0.04,0-0.08,0-0.12c0.01-0.45,0.03-0.9,0.04-1.36c0.02-0.5,0.03-1,0.04-1.5c0.01-0.26,0.01-0.51,0.02-0.76
					c0.01-0.47,0.02-0.95,0.03-1.43c0.01-0.39,0.02-0.79,0.02-1.19c0-0.26,0.01-0.52,0.02-0.79c0.01-0.41,0.01-0.82,0.02-1.23v-0.04
					c0-0.31,0-0.62,0.01-0.92c0-0.16,0-0.31,0.01-0.47c0.01-0.87,0.02-1.75,0.03-2.63c0-0.27,0.01-0.54,0.01-0.82
					c0.01-1.09,0.02-2.18,0.02-3.29c0-0.28,0-0.55,0-0.83c0.02-7.09-0.05-14.41-0.18-21.31c-1.38,1.12-2.81,2.19-4.3,3.19
					c-18.15,12.14-52.45,18.46-70.58,3.66c-15.47-12.63-24.09-33.33-29.11-52.57c-10.76-41.25,11.97-65.83-2.38-108.88
					c-5-14.99-28,0.57-32.33-17.12C472.01,286.98,471.71,299.53,475.74,322.08z"/>
			</g>
		</g>
		<g>
			<g>
				<g>
					<path class="st10" d="M481.83,494.76l12.9-5.17c7.95,14.95,32.13,29.03,17.48,36.55c-6.69,3.43-15.98,5.38-19.94,1.83
						C485.41,521.79,482.3,503.71,481.83,494.76z"/>
					<path class="st10" d="M437.37,394.25c9.85-1.74,25.29,8.54,29.36,16.18c13.91,26.1,16.53,61.32,32.45,85.98l-14.11,10.09
						c-21.25-24.32-44.63-54.59-54.54-85.34C427.83,412.79,425.37,396.37,437.37,394.25z"/>
				</g>
				<path class="st10" d="M438.05,345.67c2.98-11.85,6.99-19.61,11.59-30.93c3.35-8.24,6.56-22.42,13.79-28.02l28.43,41.44
					c-5.08,5.74-30.04,86.27-37.35,91.69c-8.14,6.04-17.22,11.98-22.57,4.41C421.21,409.1,433.87,362.27,438.05,345.67z"/>
			</g>
			<path class="st10" d="M510.77,501.94c3.66,2.45,7.95,6.55,12.86,7.48c7.16,1.36,3.22,7.25-2.81,7.25
				c-4.21,0-12.63-5.79-13.8-5.38l-11.93-14.19C499.01,498.78,506.89,499.34,510.77,501.94z"/>
		</g>
		<g>
			<g>
				<path class="st40" d="M502.51,548.92c4.26-7.28,5-14.92,2.09-21.51c-3.02-6.84-9.71-11.83-18.35-13.68
					c-18.56-3.98-21.77,4.53-25.84,15.3c-0.8,2.12-1.63,4.31-2.65,6.65l5.85,2.54c1.08-2.48,1.97-4.85,2.76-6.94
					c3.89-10.29,5.34-14.15,18.53-11.32c6.62,1.42,11.67,5.07,13.85,10.02c2.06,4.67,1.43,10.25-1.77,15.72L502.51,548.92z"/>
				<g>
					<path class="st40" d="M404.29,634.66c27.62,17.53,61.44,31.41,93.86,29.3l26.31-117.18c-4.76-2.38-12.59-4.92-21.75-7.28
						c-2.85-0.73-5.83-1.45-8.89-2.14c-10.4-2.34-21.68-4.36-31.75-5.63c-3.39-0.43-6.68-0.48-9.68-1.02
						c-5.25-0.93-12.42,0.66-15.61,3.85C421.52,555.96,401.82,615.72,404.29,634.66z"/>
					<path class="st50" d="M505.56,560.86c6.9-13.16,20.22-23.85,25.93-3.19c4.46,16.14-6.85,91.68-15.78,106.82
						c0,0-23.89,4.54-28.7-2.39C476.55,647.05,498.11,575.07,505.56,560.86z"/>
					<path class="st50" d="M467.69,602.7l8.33,0.83c1.47-14.74,4.42-25.92,10.18-38.56c4.26-9.35,9.28-15.96,15.09-23.61
						c0.47-0.61,0.94-1.24,1.41-1.87c-2.85-0.73-5.83-1.45-8.89-2.14c-5.56,7.34-10.8,14.42-15.23,24.14
						C472.49,574.86,469.23,587.18,467.69,602.7z"/>
					<path class="st50" d="M430.22,590.74l8.33,0.83c1.47-14.74,4.42-25.92,10.18-38.56c3.83-8.39,8.26-14.58,13.33-21.29
						c-3.39-0.43-6.64-0.77-9.68-1.02c-4.08,5.6-7.9,11.46-11.27,18.83C435.02,562.9,431.77,575.22,430.22,590.74z"/>
				</g>
			</g>
			<path class="st51" d="M510.09,571.86c-1.23,4.23,1.2,8.65,5.43,9.88l0.77,0.22c4.23,1.23,8.65-1.2,9.88-5.43l3.12-10.72
				c1.23-4.23-1.2-8.65-5.43-9.88l-0.77-0.22c-4.23-1.23-8.65,1.2-9.88,5.43L510.09,571.86z"/>
			<path class="st40" d="M513.6,565.76c15.67-24.7,29.61-55.95,42.45-95.17c14.25-43.51,25.29-90.44,32.82-139.5l0.16-1.01
				c2.67-17.39,5.19-33.82,5.19-51.19c0-2.56-0.58-9.4-1.83-15.96c-2.13-11.16-6.94-22.52-6.94-22.52c2.77-1.16,5.68-0.87,8.19,0.8
				c2.51,1.67,6.16,5.51,8.86,19.44c1.52,7.81,2.08,15.34,2.08,18.24c0,18.17-2.58,34.97-5.31,52.76l-0.16,1.01
				c-7.61,49.62-18.79,97.11-33.21,141.15c-12.87,39.28-26.87,70.83-42.63,96.04C520.06,568.45,516.85,567.06,513.6,565.76z"/>
		</g>
		<path class="st39" d="M466.62,278.92c7.53-12.87,28.63-42.67,42.36-18.72c5.18,9.04,4.5,24.71,2.53,34.44
			c-3.09,15.27-6.91,32.17-14.21,46.35l-12.28,31.43c-13.48-2.8-38.1-10.27-50.7-16.54C441.66,329.37,453.31,301.69,466.62,278.92z"
			/>
	</g>
	<path class="st10" d="M670.62,426.34c-2.9,8.34-14.18,8.96-19.13,8.08c-6.52-1.15-13.48-6.17-18.34-14.7L670.62,426.34z"/>
	<g>
		<path class="st52" d="M516.91,422.95c0,2.83,2.3,5.13,5.13,5.13h197.78c2.83,0,5.13-2.3,5.13-5.13l0,0c0-2.83-2.3-5.13-5.13-5.13
			H522.04C519.2,417.83,516.91,420.12,516.91,422.95L516.91,422.95z"/>
		<g>
			<g>
				<path class="st52" d="M610.8,325.82l-17.77,90.99c-0.66,3.37,1.54,6.11,4.91,6.11h122.13c3.37,0,6.69-2.73,7.41-6.11
					l19.46-90.99c0.72-3.37-1.47-6.11-4.89-6.11H618.18C614.76,319.71,611.46,322.44,610.8,325.82z"/>
				<path class="st53" d="M616.99,325.82l-17.84,90.99c-0.66,3.37,1.53,6.11,4.91,6.11h116.02c3.37,0,6.69-2.73,7.41-6.11
					l19.46-90.99c0.72-3.37-1.47-6.11-4.89-6.11H624.38C620.96,319.71,617.65,322.44,616.99,325.82z"/>
			</g>
			<path class="st52" d="M667.45,357.57c-0.89,4.38,2.93,7.94,8.54,7.94c5.61,0,10.89-3.55,11.8-7.94c0.91-4.38-2.92-7.94-8.54-7.94
				C673.62,349.63,668.34,353.19,667.45,357.57z"/>
		</g>
	</g>
	<g>
		<path class="st10" d="M660.82,421.05c-2.6-5.51-0.1-16.38,7.74-7.6c7.37,8.25-2.23,17.66-4.9,19.31
			C659.57,435.3,645.92,433.32,660.82,421.05z"/>
		<path class="st10" d="M670.5,419.76c-2.21-6.31-0.1-18.77,6.55-8.7c6.25,9.47-1.87,20.24-4.14,22.13
			C669.46,436.08,657.89,433.8,670.5,419.76z"/>
		<path class="st10" d="M678.02,420.31c-2.21-6.31-0.1-18.77,6.55-8.7c6.25,9.47-1.87,20.24-4.13,22.13
			C676.98,436.64,665.41,434.36,678.02,420.31z"/>
		<path class="st10" d="M685.54,420.29c-2.21-6.31-0.09-18.77,6.55-8.7c6.25,9.47-1.87,20.24-4.13,22.13
			C684.5,436.62,672.93,434.34,685.54,420.29z"/>
	</g>
</g>
<g>
	<g>
		<g>
			<path class="st54" d="M233.75,431.63c-4.56,11.32-5.49,26.44-5.54,38.93l17.4,5.4C245.61,462.61,242.01,428.55,233.75,431.63z"/>
			<path class="st54" d="M252.13,489.79c-0.99-3.72-2.87-9.44-3.51-13.23c-0.98-5.81-4.8-9.6-8.49-13.99l-6.4,16.8
				c-1.27,7.89,6.65,10.99,10.23,15.38c2.34,2.87,10.06,11.22,12.02,3.85C256.56,496.35,252.72,492.03,252.13,489.79z"/>
		</g>
		<g>
			<g>
				<path class="st55" d="M182.58,921.84c-14,8-68.91,1.94-74.42-1.2c-0.28-0.69-0.41-1.71-0.45-2.93c-0.05-1.23,0-2.66,0.08-4.16
					c0.3-5.66,1.13-12.23-0.42-12.12l31.21-9.2c4.47,8.63,6.09-0.95,12,6.4c4.97,6.18,14.4,9.2,23.61,10.4
					c4.55,0.59,7.6,2.31,9.3,4.34c0.7,0.84,1.17,1.73,1.42,2.62C185.57,918.32,184.73,920.61,182.58,921.84z"/>
				<path class="st17" d="M184.9,915.99c-0.13,1.58-1,2.98-2.52,3.85c-14,8-68.91,1.94-74.42-1.2c-0.1-0.26-0.19-0.57-0.25-0.92
					c-0.05-1.23,0-2.66,0.08-4.16c6.62,3.17,60.36,8.99,74.19,1.08c0.6-0.34,1.1-0.77,1.5-1.26
					C184.18,914.21,184.65,915.1,184.9,915.99z"/>
				<path class="st56" d="M149.47,888.99c-1.91-4.58-3.99-6.15-10.23-5.65c-4.99,0.41-9.14,5.92-8.41,10.68
					c0.62,4.01-1.02,6.24,0.33,9.66l27.42,0.95C153.78,899.03,151.34,893.48,149.47,888.99z"/>
			</g>
			<path class="st57" d="M220.72,584.99c-8.17,30.45-57.8,232.65-70.07,292.36c-0.22,2.57-0.42,5.13-0.56,7.59
				c-0.32,5.81-3.1,7.26-8.51,8.38c-5.94,1.23-11.9,2.6-17.47,5.4c-0.09,0.04-0.17,0.09-0.26,0.13c-0.64,0.34-1.37,0.75-2.15,1.21
				c-4.09,2.39-9.66,5.71-12.92,2.79c-3.01-2.69-1.6-17.29-1.4-21.16c2.91-57.44,21.89-122.8,22.92-127.86
				c13.95-68.49,15.49-161.88,13.9-224.72c-0.38-15.24-10.94-22.48-9.16-35.55c3.45-25.38,6.64-33.36,19.3-61.54l90.39,56.94
				C241.21,522.65,229.52,552.19,220.72,584.99z"/>
			<g>
				<path class="st56" d="M225.04,466.68c0,22.03-2.1,44.87-5.76,62.66l-0.23,1.12l-1.11,0.27c-1.39,0.34-4.13,0.69-6.99,0.92
					c-1.21,0.1-2.45,0.18-3.61,0.22c0.05-1.21,0.1-2.42,0.14-3.62c1.13-0.05,2.38-0.12,3.61-0.22c1.78-0.14,3.54-0.34,4.91-0.58
					c3.47-17.39,5.45-39.45,5.45-60.77H225.04z"/>
				<path class="st56" d="M206.31,575.39c0,0,0.64-34.59,1.02-43.52c0.05-1.21,0.1-2.42,0.14-3.62c0.61-18.76-0.39-36.26-4.39-44.93
					l10.43-1.82C218.14,491.5,206.89,570.07,206.31,575.39z"/>
			</g>
			<g>
				<path class="st56" d="M216.9,925.48c-16.05,8-78.98,1.94-85.29-1.2c-0.32-0.69-0.47-1.7-0.52-2.92c-0.06-1.23,0-2.66,0.09-4.16
					c0.35-5.66,1.3-12.23-0.49-12.12l35.77-9.2c5.12,8.63,6.97-0.95,13.76,6.4c5.7,6.18,16.51,9.2,27.05,10.4
					c5.22,0.59,8.71,2.31,10.66,4.34c0.8,0.84,1.34,1.73,1.63,2.62C220.33,921.96,219.36,924.26,216.9,925.48z"/>
				<path class="st17" d="M219.56,919.63c-0.15,1.58-1.15,2.98-2.89,3.85c-16.05,8-78.98,1.94-85.29-1.2
					c-0.12-0.26-0.21-0.57-0.29-0.92c-0.06-1.23,0-2.66,0.09-4.16c7.58,3.17,69.18,8.99,85.03,1.08c0.69-0.34,1.27-0.77,1.72-1.26
					C218.73,917.86,219.27,918.75,219.56,919.63z"/>
				<g>
					<path class="st58" d="M205.32,569.5c-2.91,31.39-31.24,251.7-37.24,312.36c0.05,2.58,0.11,5.15,0.23,7.61
						c0.28,5.81-2.33,7.54-7.6,9.22c-5.78,1.84-11.57,3.82-16.82,7.19c-0.08,0.05-0.16,0.1-0.24,0.16c-0.6,0.4-1.28,0.89-2.01,1.42
						c-3.82,2.8-9.01,6.68-12.56,4.12c-3.27-2.36-3.61-17.02-3.59-20.9c0.02-7.98,1.52-23.37,2-28.81l0.31,0.09
						c0.63-31.75,5.79-74.12,6.28-79.26c6.77-69.57-0.49-184.18-8.59-246.51c-1.96-15.12-13.21-21.22-12.8-34.41
						c0.8-25.61,3.14-33.87,12.8-63.22l86.62,15.22C212.12,487.64,208.27,537.65,205.32,569.5z"/>
					<path class="st56" d="M149.9,668.46c-0.48,13.79-0.7,27.92-0.92,41.58c-0.28,18.11-0.58,36.84-1.48,55.07
						c-0.69,13.96-2,28.04-3.26,41.65c-1.19,12.8-2.42,26.04-3.14,39.17c-0.96,17.48,0.78,42.66,2.8,59.95
						c-0.08,0.01-0.16,0.06-0.24,0.16c-0.6,0.4-1.28,0.89-2.01,1.42c-0.05-0.22-0.1-0.48-0.15-0.78
						c-2.02-17.38-3.76-43.32-2.8-60.88c0.72-13.19,1.95-26.45,3.14-39.27c1.26-13.59,2.57-27.64,3.26-41.55
						c0.9-18.19,1.2-36.9,1.48-54.99c0.22-13.67,0.44-27.81,0.92-41.62c0.7-20.03-0.62-40.32-1.9-59.95
						c-1.03-15.81-2.1-32.16-2.1-48.27c0-10.16-0.59-20.61-1.17-30.71c-1.06-18.67-2.15-37.97,0.38-56.64l2.38,0.32
						c-2.5,18.44-1.41,37.62-0.36,56.18c0.58,10.13,1.17,20.61,1.17,30.84c0,16.04,1.06,32.34,2.09,48.12
						C149.28,627.95,150.6,648.31,149.9,668.46z"/>
				</g>
				<path class="st56" d="M178.95,892.63c-2.18-4.58-4.57-6.15-11.73-5.65c-5.72,0.41-10.48,5.92-9.64,10.68
					c0.71,4.02-1.17,6.24,0.38,9.66l31.43,0.95C183.89,902.68,181.09,897.13,178.95,892.63z"/>
			</g>
			<path class="st56" d="M149,522.19c-0.88,0-1.74-0.01-2.57-0.01c-0.77-0.01-1.52-0.01-2.24-0.01v-3.6c0.73,0,1.49,0.01,2.27,0.01
				c9.32,0.07,20.92,0.16,26.69-8.36c5.08-7.49,4.87-19.87,4.7-29.81c-0.03-1.77-0.06-3.45-0.06-5.05h3.6
				c0,1.57,0.03,3.23,0.06,4.99c0.18,10.45,0.4,23.46-5.32,31.89C169.87,521.48,158.3,522.19,149,522.19z"/>
		</g>
		<g>
			<path class="st59" d="M234.31,326.94c7.17-2.57,14.2-5.54,20.99-8.93c-0.08-19.71-7.83-42.09-14.65-60.39
				c-2.8-7.52-7.29-16.75-13.06-22.33c-4.88-4.73-33.26-11.89-33.26-11.89c-13.72,5.06-18.4,20.06-19.42,26.73
				c-1.51,9.84,0.38,21.78,2.63,31.52c4.19,18.15,10.82,36.42,18.21,53.46C208.78,334.46,221.97,331.36,234.31,326.94z"/>
			<path class="st60" d="M247.04,314.41c0.07,10.58-3.04,10.07-4.8,20.55c-0.06,0.35-0.12,0.69-0.16,1.03
				c-0.02,0.16-0.05,0.32-0.07,0.48c-3.51,24.87-0.35,148.09-0.49,150.89c-1.16,0.34-2.28,0.67-3.38,0.99
				c-19.28,4.43-36.95,5.61-58.9,3.29c-27.03-2.86-48.61-11.38-70.47-24.53c22.43-42.35,8.37-107.84,2.09-153.27
				c-3-21.73-10.82-58.37-3.2-79.67c0.17-0.49,0.35-0.97,0.54-1.44c6.99-18.3,19.41-27.34,41.84-26.98h0.73l58.76,11.61
				c4.23,8.22,13.3,15.55,18.68,23.39C233.65,248.67,246.96,302.99,247.04,314.41z"/>
			<path class="st59" d="M242.24,334.96c-0.06,0.35-0.12,0.69-0.16,1.03c-0.02,0.16-0.05,0.32-0.07,0.48
				c-3.51,24.87-0.35,148.09-0.49,150.89c-1.16,0.34-2.28,0.67-3.38,0.99c-23.33,6.67-32.46,6.08-58.9,3.29
				c-27.03-2.86-48.61-11.38-70.47-24.53c22.43-42.35,8.37-107.84,2.09-153.27c-3-21.73-10.82-58.37-3.2-79.67
				c0.17-0.49,0.35-0.97,0.54-1.44l19.27-8.95c-5.8,11.24,36.24,26.39,37.61,39.25c1.64,15.46,3.58,33.28,4.04,49.06
				c0.58,19.62,8.85,30.95,33.77,30.98C216.22,343.09,229.8,340.25,242.24,334.96z"/>
		</g>
		<g>
			<path class="st61" d="M201.8,211.9l-27.01,25.81c5.83,12.01,34.67,22.06,45.61,13.8C234.22,241.08,210.11,218.31,201.8,211.9z"/>
			<g>
				<g>
					<path class="st62" d="M239.3,100.32c-2.77-2.83-7.05-1.47-10.1-3.19l-2.82,2.55c2.36,2.4,3.8,3.82,5.35,7.03
						c1.4,2.91,2.76,5.81,3.64,8.98c1.75,6.29,0.56,13.04,2.16,19.1c3.68-5.7,5.57-12.78,7.24-19.65
						C247.01,105.9,242.01,103.1,239.3,100.32z"/>
					<path class="st62" d="M173.68,166.72l-6.49-0.81c0.02,3.06-1.74,0.47-2.16,3.51c-0.4,2.86-1,12.24,0.85,14.28
						c2.69,2.98,5.69,3.57,6.91-1.51C174.05,177.01,173.7,171.23,173.68,166.72z"/>
					<g>
						<path class="st54" d="M223.05,173.39c-0.31,0.25-0.58,0.79-0.82,1.55c-1.37,4.23-1.79,15.08-2.79,18.63
							c-1.28,4.58-2.45,9.41-3.73,14.11c-0.53,1.94-1.08,3.84-1.67,5.71c-1.96,6.24-2.37,9.02,0.81,15.25
							c1.89,3.71,7.38,14.2,1.71,16.82c-23.85,11.05-54.66-34.03-75.87-39.23c7.6-2.8,22.36-1.8,25.77-13.03
							c1.8-5.94,4.24-13.15,4.24-21.08c0-4.18-0.48-7.07-1.35-10.63l41.18,9.56L223.05,173.39z"/>
						<path class="st63" d="M222.77,173.04c-1.37,4.23-1.79,15.08-2.78,18.63c-1.28,4.58-2.45,9.41-3.74,14.11
							c-31.94,3.91-47.98-42.58-47.16-49.07l41.99,12.44L222.77,173.04z"/>
					</g>
					<path class="st54" d="M240.33,134.83c-1.62-5.96,0.45-13.17-0.95-19.32c-5.52-24.29-25.76-27.75-25.76-27.75
						c-6.71-2.13-16.72-1.15-23.51,0.18c-27.9,5.48-36.05,30.82-25.62,55.53c7.69,18.21,4.72,40.16,34.05,52.16
						c5.95,2.43,17.57,5.41,25.41,3.51c8.67-2.09,10-9.03,12.7-14.05c5.68-10.54,7.64-21.53,7.77-32.47
						C244.51,145.39,242.08,141.25,240.33,134.83z"/>
					<g>
						<path class="st63" d="M206.02,150.98c-0.47,0.01-2.02-0.68-2.49-0.69c-4.88-0.04-8.53-1.15-11.63-1.9
							c-2.59-0.63-4.43-0.39-4.43-0.39c1.41-0.56,3.32-2.67,4.91-3.03c4.56-1.02,9.46-0.83,12.51,2.7
							C205.29,148.12,205.7,150.4,206.02,150.98z"/>
						<path class="st17" d="M205.61,150.83c-0.47,0.01-0.95,0.01-1.42,0.01c-0.99-0.01-1.96-0.05-2.91-0.12
							c-3.75-0.27-7.14-0.92-9.62-1.53c-0.74-0.18-1.4-0.36-1.97-0.51c-1.41-0.4-2.23-0.69-2.23-0.69c0.82-0.32,1.69-0.62,2.58-0.89
							c0.64-0.19,1.3-0.37,1.96-0.51c2.85-0.63,5.83-0.8,8.4,0.02c1.55,0.49,2.96,1.35,4.11,2.68
							C204.92,149.74,205.29,150.25,205.61,150.83z"/>
						<path class="st64" d="M201.36,150.4l-0.07,0.31c-3.75-0.27-7.14-0.92-9.62-1.53c-0.74-0.18-1.4-0.36-1.97-0.51
							c0.05-0.29,0.11-0.58,0.18-0.88c0.05-0.24,0.11-0.47,0.17-0.7c0.64-0.19,1.3-0.37,1.96-0.51c2.85-0.63,5.83-0.8,8.4,0.02
							C200.89,147.21,201.48,149.89,201.36,150.4z"/>
						<path class="st17" d="M194.72,148.36c-0.08,0.35-0.46,0.56-0.85,0.48c-0.39-0.09-0.64-0.45-0.56-0.8
							c0.08-0.35,0.46-0.56,0.85-0.48C194.54,147.65,194.8,148.01,194.72,148.36z"/>
					</g>
					<g>
						<path class="st63" d="M240.89,142.44c-0.34,0.23-1.79,0.35-2.13,0.55c-3.56,2.22-6.73,2.94-9.34,3.72
							c-2.18,0.65-3.4,1.7-3.4,1.7c0.76-1.14,1.14-3.87,2.12-4.91c2.82-3,6.47-5.11,10.36-3.43
							C239,140.29,240.38,142.09,240.89,142.44z"/>
						<path class="st17" d="M240.53,142.5c-0.34,0.23-0.68,0.45-1.02,0.66c-0.72,0.45-1.44,0.86-2.17,1.24
							c-2.84,1.5-5.61,2.5-7.7,3.12c-0.62,0.19-1.18,0.34-1.67,0.47c-1.21,0.31-1.94,0.43-1.94,0.43c0.44-0.66,0.93-1.33,1.45-1.97
							c0.37-0.46,0.77-0.92,1.18-1.36c1.76-1.87,3.85-3.4,6.11-3.87c1.36-0.29,2.79-0.2,4.25,0.44
							C239.51,141.87,240.02,142.15,240.53,142.5z"/>
						<path class="st64" d="M237.24,144.09l0.1,0.31c-2.84,1.5-5.61,2.5-7.7,3.12c-0.62,0.19-1.18,0.34-1.67,0.47
							c-0.1-0.28-0.2-0.56-0.29-0.85c-0.07-0.23-0.14-0.46-0.21-0.69c0.37-0.46,0.77-0.92,1.18-1.36c1.76-1.87,3.85-3.4,6.11-3.87
							C235.38,141.53,237.08,143.59,237.24,144.09z"/>
						<path class="st17" d="M231.45,145.38c0.11,0.34-0.07,0.71-0.39,0.81c-0.32,0.1-0.68-0.09-0.79-0.43
							c-0.11-0.34,0.07-0.7,0.39-0.81C230.99,144.85,231.34,145.04,231.45,145.38z"/>
					</g>
					<g>
						<path class="st63" d="M225.89,164.59c-4.45-4.81-4.03-8.69-5.73-14.36c-0.93,5.04,0.35,9.55,2.17,14.06
							c-1.56,1.07-5.82,3.25-7.39,4.27C219.79,169.53,224.65,168.23,225.89,164.59z"/>
					</g>
					<path class="st62" d="M204.76,136.04c0,0-5.72-1.5-14.85,0c-3.58,0.59-6.17,2.1-8.11,4.91
						C186.31,137.87,209.13,144.48,204.76,136.04z"/>
					<path class="st62" d="M222.92,134.15c0,0,6.81-2.6,12.91-2.29c3.2,0.16,5.74,1.12,7.91,3.58
						C239.29,133.11,220.6,143.14,222.92,134.15z"/>
					<path class="st63" d="M207.77,174.06c0,0,0.09,0.04,0.27,0.1c0.17,0.07,0.44,0.17,0.76,0.29c0.33,0.12,0.73,0.25,1.19,0.41
						c0.46,0.15,0.98,0.3,1.55,0.46c0.57,0.15,1.19,0.3,1.85,0.44c0.66,0.14,1.36,0.26,2.08,0.36c0.36,0.05,0.73,0.09,1.1,0.13
						c0.37,0.03,0.75,0.07,1.13,0.08c0.76,0.04,1.53,0.05,2.29,0c0.76-0.03,1.52-0.12,2.25-0.25c0.74-0.12,1.44-0.3,2.11-0.51
						c0.67-0.21,1.3-0.46,1.89-0.73c0.58-0.27,1.12-0.56,1.61-0.85c0.47-0.31,0.91-0.59,1.28-0.87c0.38-0.27,0.68-0.54,0.95-0.74
						c0.5-0.44,0.81-0.69,0.81-0.69s-0.04,0.08-0.12,0.24c-0.09,0.15-0.2,0.38-0.37,0.66c-0.19,0.27-0.39,0.62-0.7,0.97
						c-0.15,0.18-0.3,0.38-0.49,0.57c-0.19,0.19-0.39,0.39-0.6,0.6c-0.23,0.19-0.46,0.4-0.72,0.61c-0.27,0.19-0.53,0.4-0.84,0.59
						c-0.6,0.38-1.27,0.74-2.01,1.04c-0.74,0.3-1.53,0.56-2.37,0.73c-0.83,0.18-1.69,0.29-2.56,0.34c-0.86,0.04-1.73,0.03-2.56-0.06
						c-0.84-0.07-1.65-0.21-2.42-0.39c-0.77-0.17-1.5-0.39-2.17-0.62c-0.68-0.23-1.29-0.5-1.84-0.76c-1.11-0.52-1.95-1.07-2.5-1.48
						c-0.28-0.2-0.49-0.38-0.62-0.5C207.84,174.13,207.77,174.06,207.77,174.06z"/>
					<path class="st63" d="M218.54,184.56h0.27c1.88,0.6,4.86,0.94,6.93,0.83C224.19,182.61,220.67,182.69,218.54,184.56z"/>
					<path class="st62" d="M184.85,95.26l-12.81,4.66c-7.45,3.78-12.27,14.56-14.36,22.51c-1.55,5.88-4.55,20.51-1.03,28.35
						c4.71-1.55,8.83-4.76,11.22-0.5c1.55,2.77,2.86,14.2,5.67,13.62c1.43-5.95,2.23-11.4,1.6-17.79
						c-0.6-6.03-2.85-12.37,1.28-17.77c1.77-2.31,3.47-2.99,4.15-5.9c0.69-2.93-0.25-6.24-0.4-9.31
						C179.93,108.21,179.02,97.13,184.85,95.26z"/>
					<g>
						<path class="st54" d="M167.46,149.42c-5.68-4.32-10.21-1.72-11.59,2.61c-1.33,4.18-0.66,8.36,1.12,11.99
							c3.55,7.22,14.42,13.29,18.85,7.56C174.6,161.69,172.06,153.2,167.46,149.42z"/>
						<path class="st63" d="M170.76,162.77c-2,2.16-4.97-0.47-5.29-2.83c-0.43-3.18,1.58-2.87-0.3-6.19
							c-3.2-5.67-8.8-1.97-6.59,3.22c0.17-3,2.96-3.14,4.7-1.1c-8.24,7.54,7.75,16.66,8.69,6.5L170.76,162.77z"/>
					</g>
					<g>
						<path class="st65" d="M234.22,101.19l-0.38,0.74c-0.15-0.03-0.29-0.06-0.45-0.09c-0.89,3.51-3.27,6.47-6.23,8.73
							c-4.29,3.27-8.8,5.41-13.16,8.47c-3.4,2.38-6.25,4.81-8.93,7.66c-1.2-3.82,0.72-8.46,3.58-11.07
							c-9.18,0.7-18.36,9.82-21.03,18.39c-3.44-4.93-0.88-13.05,1.35-18.01c-5.54,1.16-10.07,9.7-12.16,14.3
							c-2.79,6.16-1.26,15.43-1.84,21.95c-2.27-2.45-5.79-9.03-7.37-12.04c-1.13-2.15-1.93-4.32-2.57-6.54
							c-1.32,2.31-3.16,4.85-5.79,7.7c-0.1-0.94-0.58-1.73-0.68-2.71c-2,2.09-5.99,9.72-6.06,9.72c-0.2,0.25-1.27-7.88-1.44-10.63
							c-1.17,1.02-2.21,2.69-2.85,3.98c-0.21-3.35-0.18-7.1,0.33-10.31c-1.28,0.31-2.88,1.17-3.97,1.72
							c0.69-3.1,4.34-7.25,6.07-10.15c-2.39,1.83-5.01,3.26-7.77,4.29c2.22-11.88,4.86-18.62,11.66-27.72
							c0.3-0.41,0.63-0.82,0.96-1.22c5.06-6.24,12.57-11.72,19.62-15.6c7.96-4.39,22.8-8.15,31.97-7.08
							c10.43,1.22,23.8,7.88,26.71,18.9C234.32,96.61,234.49,98.83,234.22,101.19z"/>
						<g>
							<path class="st66" d="M163.24,102.24c-0.01,0.01-0.01,0.02-0.02,0.03c0.01,0,0.02-0.01,0.04-0.01
								C163.35,102.15,163.35,102.15,163.24,102.24z"/>
							<g>
								<path class="st62" d="M234.22,101.19l-0.38,0.74c-0.15-0.03-0.29-0.06-0.45-0.09c-0.89,3.51-3.27,6.47-6.23,8.73
									c-4.29,3.27-8.8,5.41-13.16,8.47c-3.4,2.38-6.25,4.81-8.93,7.66c-1.2-3.82,0.72-8.46,3.58-11.07
									c-9.18,0.7-18.36,9.82-21.03,18.39c-3.44-4.93-0.88-13.05,1.35-18.01c-5.54,1.16-10.07,9.7-12.16,14.3
									c-2.79,6.16-1.26,15.43-1.84,21.95c-2.27-2.45-5.79-9.03-7.37-12.04c-1.13-2.15-1.93-4.32-2.57-6.54
									c-1.32,2.31-3.16,4.85-5.79,7.7c-0.1-0.94-0.58-1.73-0.68-2.71c-2,2.09-5.99,9.72-6.06,9.72c-0.2,0.25-1.27-7.88-1.44-10.63
									c-1.17,1.02-2.21,2.69-2.85,3.98c-0.21-3.35-0.18-7.1,0.33-10.31c-1.28,0.31-2.88,1.17-3.97,1.72
									c0.69-3.1,4.34-7.25,6.07-10.15c-2.39,1.83-5.01,3.26-7.77,4.29c2.22-11.88,4.86-18.62,11.66-27.72
									c0.3-0.41,0.63-0.82,0.96-1.22c-0.54,3.24-0.79,6.39-0.87,9.11c1.46-2.93,5.76-4.11,8.62-5.17
									c-3.2,3.69-3.62,11.18-2.54,15.59c1.28-1.73,3.42-3.84,5.22-5.18c0.26,4.24,0.64,10.65,4.02,13.62
									c-0.13-14.56,15.15-23.62,25.74-30.46c-2.17,2.76-4.36,8.6-4.01,12.07c1.08-0.66,2.1-1.51,3.2-2.19
									c-0.85,2.33,0.64,5.82,2.02,7.8c5.53-2.8,9.29-7.44,12.88-12.22c-0.38,3.08,1.19,6.62,3.51,8.59
									c1.85-1.59,3.39-4.14,4.52-6.26c0.49,0.92,1.06,1.81,1.92,2.44c5.08-2.87,10.8-6.44,14.07-11.5
									C234.32,96.61,234.49,98.83,234.22,101.19z"/>
							</g>
						</g>
					</g>
				</g>
				<g>
					<path class="st56" d="M192.13,162.04c-4.96,0.41-9.3-2.77-12.21-8.95c-0.95-2.02-1.51-3.85-1.75-4.76
						c-0.69-2.57-0.42-2.85-0.1-3.18c3.18-3.28,10.98-4.99,17.22-5.5c7.74-0.63,14.15,0.31,17.13,2.51
						c0.34,0.25,0.69,0.51,0.49,3.33c-0.09,1.26-0.32,3.22-0.94,5.39c-1.27,4.45-4.18,9.87-10.83,10.42c0,0,0,0,0,0l-0.2,0.01
						L192.13,162.04z M179.94,146.37c0.26,1.66,1.99,7.81,5.73,11.22c1.87,1.71,3.99,2.48,6.29,2.29l0.15-0.01l8.85-0.72
						c2.63-0.21,4.8-1.43,6.44-3.6c3.06-4.05,3.49-10.24,3.4-11.87c-2.68-1.68-8.6-2.41-15.32-1.86
						C188.54,142.38,182.42,144.19,179.94,146.37z"/>
					<path class="st56" d="M231.35,158.03c-4.2,0.34-7.92-2.89-10.47-9.09c-0.84-2.03-1.33-3.86-1.54-4.77
						c-0.62-2.58-0.39-2.85-0.13-3.18c2.66-3.24,9.26-4.85,14.54-5.29c6.56-0.54,12.01,0.48,14.56,2.72
						c0.29,0.25,0.59,0.52,0.46,3.33c-0.06,1.26-0.24,3.22-0.73,5.38c-1.02,4.43-3.42,9.81-9.06,10.27c0,0,0,0,0,0l-0.17,0.01
						L231.35,158.03z M220.81,142.22c0.24,1.66,1.78,7.83,5,11.28c1.61,1.73,3.41,2.53,5.36,2.37l0.13-0.01l7.49-0.61
						c2.23-0.18,4.05-1.37,5.42-3.52c2.55-4.01,2.83-10.19,2.73-11.81c-2.3-1.72-7.33-2.52-13.02-2.05
						C228.07,138.34,222.89,140.07,220.81,142.22z"/>
					<path class="st56" d="M211.34,143.71l-1.24-2.05c3.64-2.2,7.56-2.66,11.06-1.29l-0.87,2.24
						C217.5,141.51,214.32,141.9,211.34,143.71z"/>
				</g>
			</g>
		</g>
	</g>
	<g>
		<g>
			<path class="st67" d="M93.77,292.71c5.96-5.07,14.58-2.97,21.62-3.39l1.8-73.22C92,235.85,87.64,262.14,93.77,292.71z"/>
			<g>
				<path class="st67" d="M86.91,259.31c-4.93-7.84-10.98-2.06-17.43,1.78c-9.71,5.77-11.75,7.78-12.18,18.23
					c-0.24,5.75-0.79,20.73-6.22,23.21l6.4-0.8c3.49-7.63,3.26-16.95,6.4-24c2.6-5.84,10.72-9.22,16.8-12.09
					c5.26,3.45,7.14,10.93,7.38,16.82C89.65,277.57,90.03,264.27,86.91,259.31z"/>
				<g>
					<path class="st67" d="M153.88,423.17c-1.43,10.48-9.59,20.09-16.08,28.75c-12.11,16.16-25.05,48.27-46.7,51.53
						c-61.81,9.31-56.17-81.33-62.15-120.56c-1.9-12.5-4.32-24.84,2.9-36.2c6.66-10.47,9.64-19.62,13.23-30.98
						c3.99-12.64,9.84-20.97,20.25-29.58c0.33-0.27,0.65-0.54,0.98-0.82c4.89-4.07,9.72-8.26,14.74-12.01
						c5.16-3.85,12.08-6.28,16.82-9.84l8.33-11.35c1.17,9.6,11.1,20.35,15.35,29.52c5.12,11.05,11.33,21.49,17.41,32.38
						c6.46,11.59,4.78,22.67,3.62,35.75c-0.28,3.17-0.47,6.46-0.53,9.79c-0.17,9.34,0.68,19.02,3.35,27.47
						C148.91,398.14,155.54,410.97,153.88,423.17z"/>
					<path class="st68" d="M153.88,423.17c-1.43,10.48-9.59,20.09-16.08,28.75c-12.11,16.16-25.05,48.27-46.7,51.53
						c-13.06,1.97-23.11-0.53-30.89-6.06c-29.05-20.64-26.54-83.57-31.25-114.51c-1.9-12.5-4.32-24.84,2.9-36.2
						c6.66-10.47,9.64-19.62,13.23-30.98c3.99-12.64,9.84-20.97,20.25-29.58c0.33-0.27,0.65-0.54,0.98-0.82
						c-1.91,13.35,0.07,27.78,3.56,40.81c3.15,11.77,6.77,23.5,9.1,34.97c1.67,8.22,1.43,17.25,4.65,24.87
						c14.4-0.12,27.41,5.53,39.82-4.58c7.63-6.21,13.19-13.98,18.6-21.83c-0.17,9.34,0.68,19.02,3.35,27.47
						c1.69,5.36,4.11,11.1,5.97,16.99C153.37,410.34,154.74,416.84,153.88,423.17z"/>
					<path class="st67" d="M153.88,423.17c-1.43,10.48-9.59,20.09-16.08,28.75c-12.11,16.16-25.05,48.27-46.7,51.53
						c-13.06,1.97-23.11-0.53-30.89-6.06c-0.52-5.46-0.64-10.92-0.94-16.69c-0.61-11.93,0.6-24.45,5.33-35.55
						c2.38-5.61,5.93-10.26,9.82-15.16c2.76-3.48,6.59-12.99,9.99-15.03c3.71-2.21,14.29,0.7,18.77,0.65
						c7.39-0.09,13.19-1.86,20.27-3.61c8.38-2.08,19.03-4.31,27.93-8C153.37,410.34,154.74,416.84,153.88,423.17z"/>
				</g>
			</g>
		</g>
		<g>
			<path class="st67" d="M163.03,227.15c5.76,11.85,7.59,26.49,5.24,39.36c-4.63,25.37-26.76,131.23-37.97,143.23
				c0.8,4,12,1.6,16,1.6c15.65-22.81,47.79-104.18,40.53-174.55c-1.63-15.75-27.03-35.1-35.43-33.9c-8.4,1.2-21.01,5.4-21.01,5.4
				C139.4,209.07,159,218.87,163.03,227.15z"/>
		</g>
		<g>
			<path class="st63" d="M281.85,337.75c-0.3,1.14-0.99,2.28-2.31,3.32l-6.18-0.75l-4.75-0.58c-0.22-2.63,0.49-5.27,1.38-7.89
				c1.02-2.99,2.28-5.97,2.68-8.89c0.79,0.5,1.65,1.08,2.52,1.72c2.52,1.88,5.07,4.3,5.91,7.05
				C281.51,333.15,282.46,335.45,281.85,337.75z"/>
			<g>
				<g>
					<g>
						<path class="st69" d="M270.62,297.83l-23.18,133.64c-0.37,2.14-2.4,3.57-4.54,3.2l-83.71-14.52c-2.14-0.37-3.57-2.41-3.2-4.54
							l23.18-133.64c0.37-2.14,2.41-3.57,4.54-3.2l83.71,14.52C269.56,293.66,270.99,295.7,270.62,297.83z"/>
						<path class="st70" d="M270.62,297.83l-23.18,133.64c-0.37,2.14-2.4,3.57-4.54,3.2l-79.93-13.87c-2.14-0.37-3.57-2.41-3.2-4.54
							l23.18-133.64c0.37-2.14,2.41-3.57,4.54-3.2l79.93,13.87C269.56,293.66,270.99,295.7,270.62,297.83z"/>
					</g>
					<path class="st69" d="M241.52,333.7c-0.37,2.14-2.41,3.57-4.54,3.2l-30.87-5.36c-2.14-0.37-3.57-2.4-3.2-4.54l1.63-9.39
						c0.37-2.14,2.4-3.57,4.54-3.2l30.87,5.36c2.14,0.37,3.57,2.4,3.2,4.54L241.52,333.7z"/>
				</g>
				<g>
					<g>
						<path class="st71" d="M281.73,308.33l-35.68,130.86c-0.57,2.09-2.73,3.33-4.82,2.76l-81.97-22.35
							c-2.09-0.57-3.33-2.73-2.76-4.82l35.68-130.86c0.57-2.09,2.73-3.33,4.82-2.76l81.96,22.35
							C281.07,304.07,282.3,306.23,281.73,308.33z"/>
						<path class="st42" d="M281.73,308.33l-35.68,130.86c-0.57,2.09-2.73,3.33-4.82,2.76l-78.27-21.34
							c-2.09-0.57-3.33-2.73-2.76-4.82l35.68-130.86c0.57-2.09,2.73-3.33,4.82-2.76l78.27,21.34
							C281.07,304.07,282.3,306.23,281.73,308.33z"/>
					</g>
					<path class="st71" d="M249.38,341.29c-0.57,2.09-2.73,3.33-4.82,2.76l-30.23-8.24c-2.09-0.57-3.33-2.73-2.76-4.82l2.51-9.19
						c0.57-2.09,2.73-3.33,4.82-2.76l30.23,8.24c2.09,0.57,3.33,2.73,2.76,4.82L249.38,341.29z"/>
				</g>
			</g>
			<g>
				<path class="st54" d="M160.32,352.82c-0.05,1.38-0.12,2.64-0.2,3.78c-1.04,14.35-5.96,42.99-23.47,45.38
					c-18.11,2.48-26.06-25.64-28.46-43.05c-0.67-4.85-6.9-66.01-4.8-84.02l55.81,19.21c0.17,4.35,0.43,10.67,0.66,17.72
					C160.32,325.7,160.72,342.43,160.32,352.82z"/>
				<path class="st54" d="M239.96,334.81c-25.29,25-63.08,10.02-94.47,20.52c-11.16,3.74-34.4-19.63-37.32-6.6
					c-1.31,5.86,3.81,39.47,6,44.41c7.2,16.2,30.01,18.4,54.01,7.2c19.82-9.25,54.36-23.55,71.73-35.4L239.96,334.81z"/>
				<g>
					<path class="st63" d="M148.39,309.12l0.47,0.11c-0.15-0.59-0.31-1.18-0.49-1.73C148.4,308.03,148.46,308.6,148.39,309.12z"/>
					<path class="st63" d="M160.32,352.82c-8.4,3.41-15.58,8.63-23.84,15.02c2.67-7.91,12.32-12.57,14.31-19.11
						c1.7-5.57,0.34-15.3,0.03-21c-0.3-5.55-0.53-12.85-1.96-18.49l10.99,2.6C160.32,325.7,160.72,342.43,160.32,352.82z"/>
				</g>
				<g>
					<path class="st54" d="M275.09,321.59c3.92-11.77-6.59-5.85-12.17-2.61c-12.03,6.98-26.74,6.52-26.52,22.39l-7.42,5.53
						c-1.46,12.15,7.56,21.5,27.85,21.5c7.33,0,13.43-32.73,5.34-36.73C267.9,327.57,273.91,325.1,275.09,321.59z"/>
					<path class="st54" d="M281.51,336.82c-0.07,0.97-0.75,1.88-1.86,3.53c-0.89,1.31-0.95,0.76-0.94,2.39
						c0,0.75,0.6,2.78,0.73,3.63c0.49,3.3-1.04,5.79-4.78,8.04c1.68,3.06,1.09,7.17-3.91,8.91c-0.38,2.27-2.39,3.72-5.23,4.55
						c-7.33,2.17-20.08,0.28-23.76-1.8l12.34-36.64c1.22,1.77,11.6,0.71,14.33,0.95c0.06,0,0.12,0.01,0.19,0.02
						c1.45,0.12,3.21,0.14,4.95,0.34c2.86,0.31,5.67,1.07,7.03,3.39C281.28,335.3,281.57,336.08,281.51,336.82z"/>
					<path class="st63" d="M281.51,336.82c-0.07,0.97-0.75,1.88-1.86,3.53c-0.89,1.31-0.95,0.76-0.94,2.39
						c0,0.75,0.6,2.78,0.73,3.63c0.49,3.3-1.04,5.79-4.78,8.04c1.68,3.06,1.09,7.17-3.91,8.91c-0.38,2.27-2.39,3.72-5.23,4.55
						c1.16-2.16,1.66-4.52,0.63-7.17c3.6-1.99,4.53-5.4,3.36-9.05c3.77-1.67,5.53-8.82,2.49-11.81c0.1-0.08,0.2-0.16,0.29-0.24
						c2.22-1.98,2.09-5.48,1.28-8.86c2.86,0.31,5.67,1.07,7.03,3.39C281.28,335.3,281.57,336.08,281.51,336.82z"/>
				</g>
				<g>
					<path class="st60" d="M164.75,319.18c-0.56,4.31-1.3,8.49-2.26,12.49c-7.09,1.53-14.29,2.55-21.51,3.07
						c-12.42,0.89-25.28,0.07-37.31-3.4c-0.35-3.32-0.67-6.67-0.96-10.03c-1.56-17.98-2.26-36.52-1.41-54.42
						c0.54-11.39,2-25.09,5.99-35.4c2.7-6.99,12.31-23.78,23.11-21.98c9.03,1.5,25.01,11.86,28.21,18.6
						c3.77,7.98,6.06,23.5,6.61,32.65C166.3,278.89,167.24,300.2,164.75,319.18z"/>
					<path class="st61" d="M164.75,319.18c-0.56,4.31-1.3,8.49-2.26,12.49c-7.09,1.53-14.29,2.55-21.51,3.07
						c-12.42,0.89-25.28,0.07-37.31-3.4c-0.35-3.32-0.67-6.67-0.96-10.03c9.09,2.5,21.93,2.37,30.79,2.02
						C144.23,322.91,154.93,323.03,164.75,319.18z"/>
				</g>
			</g>
		</g>
	</g>
</g>
</svg>
