<?xml version="1.0" encoding="utf-8"?>
<!-- Generator: Adobe Illustrator 24.0.0, SVG Export Plug-In . SVG Version: 6.00 Build 0)  -->
<svg version="1.1" id="Layer_1" xmlns="http://www.w3.org/2000/svg" xmlns:xlink="http://www.w3.org/1999/xlink" x="0px" y="0px"
	 viewBox="0 0 512 512" style="enable-background:new 0 0 512 512;" xml:space="preserve">
<style type="text/css">
	.st0{fill:#FFFFFF;}
</style>
<path class="st0" d="M448.6,225.6c26.9,0.2,35.6-7.4,38.9-12.4c12.5-16.3-7.1-47.6-52.9-71.3c17.8-33.6,30.1-63.7,36.3-85.3
	c3.4-11.8,1.1-19,0.5-20.3c-1.7,10.5-15.9,48.5-48.2,100.1c-25-11.2-56.5-20.1-93.8-23.8c-8.9-16.9-34.9-63.9-60.5-88.9
	C252.2,7.1,238.7,1.1,228.2,0.2h-0.1c-13.8-1.5-22.7,5.8-27.4,11c-17.2,18.5-24.3,48.9-25,84.1c-7.2-12.3-17.2-24.6-28.5-25.9h-0.2
	c-20.7-3.5-38.4,29.2-36,81.3c-38.4,1.4-71,5.8-93,11.2c-9.9,2.4-16.2,7.3-17.8,9.7c1-0.4,22.4-9.2,111.6-9.2
	c5.2,53,29.8,101.8,26,93.2c-9.7,15.4-38.2,62.4-47.3,97.7c-5.9,22.9-4.4,37.6,0.2,47.1c5.6,12.8,16.4,16.7,23.2,18.3
	c25,5.7,55.4-3.6,86.7-21.1c-7.5,12.8-13.9,28.5-9.1,39.3c7.3,19.6,44.5,18.7,88.4-9.5c20.2,32.2,40.1,57.9,55.7,74.1
	c2.6,2.8,5.5,5.2,8.8,7.1c5.1,3.2,8.6,3.4,8.6,3.4c-8.2-6.8-34-38-62.5-91.8c22.2-16,45.6-38.9,67.5-69.3
	c122.8,4.6,143.3-24.8,148-31.6C520.6,299.4,509.4,261.9,448.6,225.6L448.6,225.6z M370.8,331.8c23.8-37.7,30.3-67.8,29.5-92.3
	c27.9,17.6,47.2,37.6,49.1,58.8C450.4,311.3,441.2,327.5,370.8,331.8z M216.9,387.7c9.8-6.2,19.5-13.1,29.2-20.5
	c6.7,13.3,13.6,26.1,20.6,38.2C226.1,427.3,197.9,418.2,216.9,387.7L216.9,387.7z M431.9,216.3c-10.3-5.3-21.2-10.3-32.4-15.1
	c7.9-12.1,15.5-24.4,22.7-36.9C461.3,188.5,468.2,217.6,431.9,216.3L431.9,216.3z M279.2,398c-5.5-11.4-11-23.5-16.5-36.4
	c43.3,1.3,62.4-18.7,63.3-20.4c0,0.1-25,15.6-62.5,12.3c30.6-25.6,59.1-53.7,85.1-84c8.7-10.2,17-20.6,24.9-31.1
	c-0.4-0.3-1.5-3-16.5-12c-51.7,60.3-102.3,98-132.8,115.9c-20.6-11.2-40.8-31.8-55.7-61.5c-20-39.9-30-82.4-31.6-116.1
	c12.3,0.9,25.3,2.2,38.9,3.9c-22.3,36.8-14.4,63-13.5,64.2c0-0.1-0.9-29.2,20.1-59.6c9,52.5,24,103.8,44.7,152.8
	c0.9-0.4,1.8,0.9,18.7-8.3c-26.3-74.5-33.8-138.2-34-173.4c20-12.4,48.2-19.8,81.6-17.8c44.6,2.7,86.4,15.3,116.3,30.7
	c-7.1,10.4-14.9,21.3-23.3,32.5c-20.7-37.7-47.3-43.9-48.9-43.7c0.1,0,25.9,14.1,41.5,47.2c-37.5-13.8-76.1-24.4-115.3-31.7
	c-13.1-2.4-26.2-4.4-39.4-6.1c-0.1,0.4-1.8,1.9-2.2,20.3c77.9,14.5,136.7,39.9,167.2,57.2c0.7,23.5-7,51.6-25.4,79.6
	C339.3,349.9,307.6,379.8,279.2,398z M306.6,111c-44.6-1.7-73.6,7.4-94.7,20.7c2-52.3,21.3-76.4,38.2-75.3
	C267,52.2,305,108.6,306.6,111z M175.9,114.1c0.5,12.1,1.6,24.6,3.2,37.3c-14.6-0.9-28.7-1.3-42.4-1.3c-0.1,3.2-0.1-51,24.7-49.6
	h0.1C167.3,101.6,172.1,107.4,175.9,114.1L175.9,114.1z M147.9,276.1c20.8,39.7,43.3,60.6,65.3,72.3c-46.8,24.8-77.5,20-84.9,4.5
	C128,352.7,117.1,337.6,147.9,276.1L147.9,276.1z"/>
</svg>
